<svg height="1024" node-id="1" sillyvg="true" template-height="1024" template-width="1024" version="1.1" viewBox="0 0 1024 1024" width="1024" xmlns="http://www.w3.org/2000/svg" xmlns:xlink="http://www.w3.org/1999/xlink"><defs node-id="38"></defs><g node-id="40"><g node-id="41"><path d="M 0.00 0.00 L 1024.00 0.00 L 1024.00 1024.00 L 0.00 1024.00 Z" fill="#ffffff" fill-opacity="0" fill-rule="evenodd" group-id="1,2" id="矩形" node-id="6" stroke="none" target-height="1024" target-width="1024" target-x="0" target-y="0"/></g><g node-id="42"><g node-id="43"><path d="M 209.07 388.20 L 203.26 388.44 L 197.66 389.12 L 192.24 390.23 L 186.98 391.76 L 181.84 393.71 L 176.94 396.01 L 172.26 398.66 L 167.80 401.68 L 163.58 405.03 L 159.66 408.66 L 156.03 412.58 L 152.68 416.80 L 149.66 421.26 L 147.01 425.93 L 144.71 430.84 L 142.76 435.98 L 141.23 441.24 L 140.13 446.66 L 139.45 452.26 L 139.20 458.07 L 139.45 463.87 L 140.13 469.47 L 141.23 474.89 L 142.76 480.15 L 144.71 485.29 L 147.01 490.20 L 149.66 494.87 L 152.68 499.33 L 156.03 503.55 L 159.66 507.47 L 163.58 511.10 L 167.80 514.45 L 172.26 517.47 L 176.94 520.12 L 181.84 522.42 L 186.98 524.37 L 192.24 525.90 L 197.66 527.01 L 203.26 527.69 L 209.07 527.93 L 214.87 527.69 L 220.47 527.01 L 225.89 525.90 L 231.15 524.37 L 236.30 522.42 L 241.20 520.12 L 245.87 517.47 L 250.33 514.45 L 254.55 511.10 L 258.47 507.47 L 262.10 503.55 L 265.45 499.33 L 268.47 494.87 L 271.12 490.20 L 273.42 485.29 L 275.37 480.15 L 276.90 474.89 L 278.01 469.47 L 278.69 463.87 L 278.93 458.07 L 278.69 452.26 L 278.01 446.66 L 276.90 441.24 L 275.37 435.98 L 273.42 430.84 L 271.12 425.93 L 268.47 421.26 L 265.45 416.80 L 262.10 412.58 L 258.47 408.66 L 254.55 405.03 L 250.33 401.68 L 245.87 398.66 L 241.20 396.01 L 236.30 393.71 L 231.15 391.76 L 225.89 390.23 L 220.47 389.12 L 214.87 388.44 L 209.07 388.20 Z M 209.07 394.60 L 214.34 394.82 L 219.43 395.44 L 224.35 396.44 L 229.13 397.83 L 233.80 399.60 L 238.25 401.69 L 242.50 404.10 L 246.55 406.84 L 250.38 409.89 L 253.94 413.19 L 257.24 416.75 L 260.29 420.58 L 263.03 424.63 L 265.44 428.88 L 267.53 433.33 L 269.30 438.00 L 270.69 442.78 L 271.69 447.71 L 272.31 452.79 L 272.53 458.07 L 272.31 463.34 L 271.69 468.42 L 270.69 473.35 L 269.30 478.13 L 267.53 482.80 L 265.44 487.25 L 263.03 491.50 L 260.29 495.55 L 257.24 499.38 L 253.94 502.94 L 250.38 506.24 L 246.55 509.29 L 242.50 512.03 L 238.25 514.44 L 233.80 516.53 L 229.13 518.30 L 224.35 519.69 L 219.43 520.69 L 214.34 521.31 L 209.07 521.53 L 203.80 521.31 L 198.71 520.69 L 193.78 519.69 L 189.01 518.30 L 184.33 516.53 L 179.88 514.44 L 175.63 512.03 L 171.58 509.29 L 167.75 506.24 L 164.19 502.94 L 160.89 499.38 L 157.85 495.55 L 155.11 491.50 L 152.69 487.25 L 150.61 482.80 L 148.84 478.13 L 147.45 473.35 L 146.44 468.42 L 145.82 463.34 L 145.60 458.07 L 145.82 452.79 L 146.44 447.71 L 147.45 442.78 L 148.84 438.01 L 150.61 433.33 L 152.69 428.88 L 155.11 424.63 L 157.85 420.58 L 160.89 416.75 L 164.19 413.19 L 167.75 409.89 L 171.58 406.84 L 175.63 404.10 L 179.88 401.69 L 184.33 399.60 L 189.01 397.83 L 193.78 396.44 L 198.71 395.44 L 203.80 394.82 L 209.07 394.60 Z" fill="#dedaff" fill-rule="nonzero" group-id="1,3,4" id="椭圆形" node-id="9" stroke="none" target-height="139.73334" target-width="139.73334" target-x="139.20001" target-y="388.19873"/><path d="M 209.07 252.78 L 203.26 253.03 L 197.66 253.71 L 192.24 254.81 L 186.98 256.34 L 181.84 258.29 L 176.94 260.59 L 172.26 263.25 L 167.80 266.26 L 163.58 269.61 L 159.66 273.25 L 156.03 277.17 L 152.68 281.39 L 149.66 285.85 L 147.01 290.52 L 144.71 295.42 L 142.76 300.57 L 141.23 305.82 L 140.13 311.25 L 139.45 316.85 L 139.20 322.65 L 139.45 328.45 L 140.13 334.05 L 141.23 339.47 L 142.76 344.73 L 144.71 349.88 L 147.01 354.78 L 149.66 359.45 L 152.68 363.91 L 156.03 368.13 L 159.66 372.05 L 163.58 375.68 L 167.80 379.04 L 172.26 382.05 L 176.94 384.71 L 181.84 387.01 L 186.98 388.95 L 192.24 390.48 L 197.66 391.59 L 203.26 392.27 L 209.07 392.52 L 214.87 392.27 L 220.47 391.59 L 225.89 390.48 L 231.15 388.95 L 236.30 387.01 L 241.20 384.71 L 245.87 382.05 L 250.33 379.04 L 254.55 375.68 L 258.47 372.05 L 262.10 368.13 L 265.45 363.91 L 268.47 359.45 L 271.12 354.78 L 273.42 349.88 L 275.37 344.73 L 276.90 339.47 L 278.01 334.05 L 278.69 328.45 L 278.93 322.65 L 278.69 316.85 L 278.01 311.25 L 276.90 305.82 L 275.37 300.57 L 273.42 295.42 L 271.12 290.52 L 268.47 285.85 L 265.45 281.39 L 262.10 277.17 L 258.47 273.25 L 254.55 269.61 L 250.33 266.26 L 245.87 263.25 L 241.20 260.59 L 236.30 258.29 L 231.15 256.34 L 225.89 254.81 L 220.47 253.71 L 214.87 253.03 L 209.07 252.78 Z M 209.07 259.18 L 214.34 259.41 L 219.43 260.02 L 224.35 261.03 L 229.13 262.42 L 233.80 264.19 L 238.25 266.28 L 242.50 268.69 L 246.55 271.43 L 250.38 274.47 L 253.94 277.77 L 257.24 281.33 L 260.29 285.17 L 263.03 289.22 L 265.44 293.46 L 267.53 297.91 L 269.30 302.59 L 270.69 307.37 L 271.69 312.29 L 272.31 317.38 L 272.53 322.65 L 272.31 327.92 L 271.69 333.01 L 270.69 337.93 L 269.30 342.71 L 267.53 347.38 L 265.44 351.84 L 263.03 356.08 L 260.29 360.13 L 257.24 363.97 L 253.94 367.53 L 250.38 370.83 L 246.55 373.87 L 242.50 376.61 L 238.25 379.02 L 233.80 381.11 L 229.13 382.88 L 224.35 384.27 L 219.43 385.27 L 214.34 385.89 L 209.07 386.12 L 203.80 385.89 L 198.71 385.27 L 193.78 384.27 L 189.01 382.88 L 184.33 381.11 L 179.88 379.02 L 175.63 376.61 L 171.58 373.87 L 167.75 370.83 L 164.19 367.53 L 160.89 363.97 L 157.85 360.13 L 155.11 356.08 L 152.69 351.84 L 150.61 347.38 L 148.84 342.71 L 147.45 337.93 L 146.44 333.01 L 145.82 327.92 L 145.60 322.65 L 145.82 317.38 L 146.44 312.29 L 147.45 307.37 L 148.84 302.59 L 150.61 297.91 L 152.69 293.46 L 155.11 289.22 L 157.85 285.17 L 160.89 281.33 L 164.19 277.77 L 167.75 274.47 L 171.58 271.43 L 175.63 268.69 L 179.88 266.28 L 184.33 264.19 L 189.01 262.42 L 193.78 261.03 L 198.71 260.02 L 203.80 259.41 L 209.07 259.18 Z" fill="#dedaff" fill-rule="nonzero" group-id="1,3,4" id="椭圆形" node-id="10" stroke="none" target-height="139.73334" target-width="139.73334" target-x="139.20001" target-y="252.78204"/><g node-id="45"><path d="M 204.80 102.40 L 204.80 921.60 L 213.33 921.60 L 213.33 102.40 Z" fill="#f7f7f7" fill-rule="nonzero" group-id="1,3,4,6" id="矩形" node-id="11" stroke="none" target-height="819.19995" target-width="8.533325" target-x="204.80002" target-y="102.399994"/></g><g node-id="46"><path d="M 343.47 102.40 L 343.47 921.60 L 352.00 921.60 L 352.00 102.40 Z" fill="#f7f7f7" fill-rule="nonzero" group-id="1,3,4,7" id="矩形备份" node-id="12" stroke="none" target-height="819.19995" target-width="8.533325" target-x="343.46677" target-y="102.40004"/></g><path d="M 989.87 317.87 L 34.13 317.87 L 34.13 326.40 L 989.87 326.40 Z" fill="#f7f7f7" fill-rule="nonzero" group-id="1,3,4" id="矩形" node-id="13" stroke="none" target-height="8.533325" target-width="955.73334" target-x="34.13336" target-y="317.86667"/><path d="M 989.87 454.40 L 34.13 454.40 L 34.13 462.93 L 989.87 462.93 Z" fill="#f7f7f7" fill-rule="nonzero" group-id="1,3,4" id="矩形" node-id="14" stroke="none" target-height="8.533325" target-width="955.73334" target-x="34.13336" target-y="454.4"/><path d="M 192.40 455.98 L 192.68 459.02 L 193.44 461.81 L 194.68 464.39 L 196.33 466.73 L 198.32 468.72 L 200.65 470.37 L 203.24 471.61 L 206.02 472.37 L 209.07 472.65 L 212.11 472.37 L 214.90 471.61 L 217.48 470.37 L 219.82 468.72 L 221.80 466.73 L 223.46 464.39 L 224.69 461.81 L 225.45 459.02 L 225.73 455.98 L 225.45 452.94 L 224.69 450.15 L 223.46 447.57 L 221.80 445.23 L 219.82 443.25 L 217.48 441.59 L 214.90 440.36 L 212.11 439.60 L 209.07 439.32 L 206.02 439.60 L 203.24 440.36 L 200.65 441.59 L 198.32 443.25 L 196.33 445.23 L 194.68 447.57 L 193.44 450.15 L 192.68 452.94 L 192.40 455.98 Z" fill="#ffffff" fill-rule="nonzero" group-id="1,3,4" id="椭圆形" node-id="15" stroke="none" target-height="33.333344" target-width="33.333313" target-x="192.40002" target-y="439.31537"/><path d="M 192.40 322.65 L 192.68 325.69 L 193.44 328.48 L 194.68 331.06 L 196.33 333.40 L 198.32 335.38 L 200.65 337.04 L 203.24 338.27 L 206.02 339.03 L 209.07 339.32 L 212.11 339.03 L 214.90 338.27 L 217.48 337.04 L 219.82 335.38 L 221.80 333.40 L 223.46 331.06 L 224.69 328.48 L 225.45 325.69 L 225.73 322.65 L 225.45 319.61 L 224.69 316.82 L 223.46 314.24 L 221.80 311.90 L 219.82 309.91 L 217.48 308.26 L 214.90 307.03 L 212.11 306.27 L 209.07 305.98 L 206.02 306.27 L 203.24 307.03 L 200.65 308.26 L 198.32 309.91 L 196.33 311.90 L 194.68 314.24 L 193.44 316.82 L 192.68 319.61 L 192.40 322.65 Z" fill="#ffffff" fill-rule="nonzero" group-id="1,3,4" id="椭圆形" node-id="16" stroke="none" target-height="33.333344" target-width="33.333313" target-x="192.40002" target-y="305.98206"/></g><g node-id="44"><path d="M 512.99 210.13 L 279.04 343.36 L 279.04 487.42 L 279.25 501.51 L 279.93 515.57 L 281.08 529.61 L 282.71 543.64 L 284.84 557.60 L 287.50 571.44 L 290.70 585.17 L 294.45 598.81 L 298.75 612.26 L 303.67 625.53 L 309.19 638.61 L 315.34 651.54 L 320.67 661.62 L 326.44 671.55 L 332.66 681.33 L 339.33 690.97 L 346.47 700.47 L 353.92 709.58 L 361.87 718.50 L 370.34 727.25 L 379.36 735.82 L 388.92 744.22 L 398.66 752.09 L 409.00 759.75 L 419.95 767.19 L 431.53 774.42 L 443.79 781.43 L 456.01 787.81 L 468.93 793.94 L 482.57 799.81 L 496.96 805.41 L 512.15 810.72 L 527.21 805.41 L 541.52 799.82 L 555.11 793.95 L 567.99 787.82 L 580.20 781.43 L 592.44 774.43 L 604.03 767.20 L 615.00 759.76 L 625.36 752.10 L 635.16 744.22 L 644.78 735.83 L 653.85 727.25 L 662.39 718.51 L 670.43 709.58 L 677.96 700.47 L 685.20 690.97 L 691.97 681.33 L 698.28 671.55 L 704.15 661.62 L 709.58 651.54 L 715.87 638.61 L 721.52 625.52 L 726.56 612.26 L 730.98 598.81 L 734.84 585.17 L 738.15 571.43 L 740.91 557.59 L 743.12 543.64 L 744.81 529.61 L 746.01 515.57 L 746.72 501.51 L 746.95 487.42 L 746.95 343.36 L 512.99 210.13 Z" fill="#b7b1ff" fill-rule="nonzero" group-id="1,3,5" id="path-1" node-id="18" stroke="none" target-height="600.5872" target-width="467.9111" target-x="279.0364" target-y="210.1333"/><path d="M 514.00 268.88 L 327.65 375.74 L 327.65 491.28 L 327.88 504.47 L 328.64 517.56 L 329.92 530.53 L 331.71 543.42 L 334.08 556.22 L 337.05 568.82 L 340.62 581.25 L 344.79 593.51 L 348.59 603.14 L 352.82 612.61 L 357.50 621.92 L 362.63 631.10 L 368.23 640.14 L 374.19 648.83 L 380.67 657.34 L 387.67 665.68 L 395.23 673.85 L 403.35 681.86 L 411.69 689.34 L 420.65 696.62 L 430.25 703.70 L 440.52 710.58 L 451.50 717.25 L 462.45 723.28 L 474.14 729.06 L 486.60 734.60 L 499.88 739.88 L 514.00 744.89 L 528.03 739.88 L 541.22 734.61 L 553.61 729.07 L 565.25 723.28 L 576.17 717.25 L 587.10 710.58 L 597.34 703.71 L 606.92 696.63 L 615.87 689.34 L 624.22 681.86 L 632.34 673.85 L 639.90 665.68 L 646.92 657.34 L 653.42 648.83 L 659.41 640.14 L 665.03 631.10 L 670.19 621.92 L 674.90 612.61 L 679.17 603.14 L 682.99 593.51 L 687.21 581.25 L 690.82 568.82 L 693.83 556.22 L 696.23 543.42 L 698.05 530.53 L 699.35 517.55 L 700.12 504.47 L 700.36 491.28 L 700.36 375.74 L 514.00 268.88 Z" fill="#ffffff" fill-rule="nonzero" group-id="1,3,5" id="path-3" node-id="19" stroke="none" target-height="476.01346" target-width="372.70837" target-x="327.65057" target-y="268.8754"/><path d="M 514.00 611.20 L 514.00 810.68 L 498.61 805.02 L 484.03 799.14 L 470.22 793.05 L 457.16 786.77 L 444.82 780.29 L 433.16 773.63 L 421.34 766.29 L 410.17 758.79 L 399.64 751.11 L 389.73 743.27 L 380.40 735.26 L 371.65 727.09 L 363.03 718.38 L 354.95 709.51 L 347.37 700.49 L 340.29 691.32 L 333.70 681.98 L 327.57 672.48 L 320.68 660.66 L 314.40 648.64 L 308.70 636.39 L 303.60 623.92 L 299.08 611.20 L 514.00 611.20 Z" fill="#6448f4" fill-rule="nonzero" group-id="1,3,5" id="形状结合" node-id="20" stroke="none" target-height="199.47906" target-width="214.92798" target-x="299.07678" target-y="611.19995"/><path d="M 513.62 611.20 L 513.62 744.89 L 501.08 740.48 L 489.20 735.78 L 477.97 730.78 L 467.35 725.51 L 456.83 719.73 L 446.90 713.74 L 437.54 707.55 L 428.71 701.15 L 420.07 694.33 L 411.94 687.38 L 404.31 680.31 L 397.17 673.11 L 390.24 665.57 L 383.78 657.99 L 377.77 650.37 L 372.19 642.70 L 365.15 632.12 L 358.85 621.62 L 353.25 611.20 L 513.62 611.20 Z" fill="#f2f2ff" fill-rule="nonzero" group-id="1,3,5" id="path-5" node-id="21" stroke="none" target-height="133.6889" target-width="160.37311" target-x="353.24854" target-y="611.19995"/><path d="M 512.99 210.13 L 513.99 809.71 L 530.17 802.82 L 545.37 795.94 L 559.65 789.07 L 573.04 782.23 L 585.57 775.41 L 598.38 767.98 L 610.35 760.56 L 621.54 753.15 L 631.97 745.74 L 641.68 738.34 L 651.41 730.37 L 660.48 722.39 L 668.90 714.38 L 676.70 706.34 L 683.92 698.28 L 690.94 689.77 L 697.43 681.19 L 703.42 672.54 L 708.92 663.81 L 713.94 655.01 L 718.62 645.92 L 722.90 636.72 L 726.78 627.38 L 730.27 617.91 L 733.36 608.29 L 736.72 596.13 L 739.59 583.69 L 741.96 570.95 L 743.82 557.90 L 745.20 544.87 L 746.19 531.49 L 746.77 517.74 L 746.95 503.62 L 746.95 343.36 L 512.99 210.13 Z" fill="#eeeeff" fill-opacity="0.79939497" fill-rule="nonzero" group-id="1,3,5" id="Fill" node-id="22" stroke="none" target-height="599.5744" target-width="233.9555" target-x="512.992" target-y="210.1333"/><path d="M 679.09 483.59 L 686.75 483.92 L 694.14 484.82 L 701.29 486.30 L 708.23 488.34 L 715.02 490.94 L 721.49 494.01 L 727.65 497.55 L 733.54 501.58 L 739.10 506.04 L 744.27 510.89 L 749.06 516.12 L 753.48 521.75 L 757.46 527.69 L 760.96 533.93 L 763.99 540.46 L 766.56 547.33 L 768.58 554.34 L 770.03 561.56 L 770.93 569.03 L 771.25 576.76 L 746.95 576.76 L 746.71 571.04 L 746.05 565.51 L 744.97 560.17 L 743.48 554.98 L 741.59 549.91 L 739.35 545.07 L 736.77 540.47 L 733.85 536.08 L 730.59 531.91 L 727.06 528.05 L 723.25 524.47 L 719.15 521.17 L 714.82 518.20 L 710.28 515.58 L 705.52 513.32 L 700.53 511.40 L 695.42 509.90 L 690.15 508.81 L 684.72 508.14 L 679.09 507.89 L 673.46 508.14 L 668.03 508.81 L 662.76 509.90 L 657.66 511.40 L 652.66 513.32 L 647.90 515.58 L 643.36 518.20 L 639.03 521.17 L 634.93 524.47 L 631.13 528.05 L 627.60 531.91 L 624.34 536.08 L 621.41 540.47 L 618.83 545.07 L 616.59 549.91 L 614.70 554.98 L 613.21 560.17 L 612.13 565.51 L 611.47 571.04 L 611.23 576.76 L 586.93 576.76 L 587.25 569.03 L 588.15 561.56 L 589.61 554.34 L 591.62 547.33 L 594.19 540.46 L 597.22 533.93 L 600.72 527.69 L 604.70 521.75 L 609.12 516.12 L 613.91 510.89 L 619.08 506.04 L 624.64 501.58 L 630.53 497.55 L 636.69 494.01 L 643.16 490.94 L 649.95 488.34 L 656.89 486.30 L 664.04 484.82 L 671.43 483.92 L 679.09 483.59 Z" fill="#160a45" fill-rule="nonzero" group-id="1,3,5" id="形状" node-id="23" stroke="none" target-height="93.17709" target-width="184.32861" target-x="586.92596" target-y="483.58786"/><path d="M 746.95 574.74 L 746.95 645.63 L 771.25 645.63 L 771.25 574.74 Z" fill="#160a45" fill-rule="nonzero" group-id="1,3,5" id="路径-5" node-id="24" stroke="none" target-height="70.89563" target-width="24.307068" target-x="746.9475" target-y="574.7394"/><path d="M 586.93 574.74 L 586.93 645.63 L 611.23 645.63 L 611.23 574.74 Z" fill="#160a45" fill-rule="nonzero" group-id="1,3,5" id="路径-5" node-id="25" stroke="none" target-height="70.89563" target-width="24.307068" target-x="586.92596" target-y="574.7394"/><path d="M 513.62 611.20 L 836.07 610.19 L 836.07 811.73 L 514.13 810.92 Z" fill="#b7b1ff" fill-rule="nonzero" group-id="1,3,5" id="矩形" node-id="26" stroke="none" target-height="201.54614" target-width="322.45178" target-x="513.62164" target-y="610.18713"/><path d="M 734.99 611.20 L 730.19 623.79 L 724.80 636.16 L 718.81 648.30 L 712.21 660.24 L 705.00 671.99 L 698.62 681.41 L 691.77 690.67 L 684.43 699.78 L 676.58 708.74 L 668.22 717.56 L 659.32 726.23 L 650.31 734.35 L 640.73 742.32 L 630.55 750.12 L 619.76 757.77 L 608.33 765.25 L 596.24 772.58 L 584.34 779.23 L 571.75 785.70 L 558.46 791.99 L 544.42 798.08 L 529.61 803.98 L 514.00 809.67 L 514.00 611.20 L 734.99 611.20 Z" fill="#806eff" fill-rule="nonzero" group-id="1,3,5" id="形状结合" node-id="27" stroke="none" target-height="198.4657" target-width="220.98773" target-x="514.00476" target-y="611.19995"/><path d="M 613.26 732.74 L 744.92 732.74 L 744.92 692.22 L 613.26 692.22 Z" fill="#ffffff" fill-rule="nonzero" group-id="1,3,5" id="Fill-" node-id="28" stroke="none" target-height="40.51178" target-width="131.66327" target-x="613.25867" target-y="692.2235"/><path d="M 450.85 708.43 L 450.57 715.16 L 449.78 721.65 L 448.49 727.94 L 446.72 734.04 L 444.46 740.01 L 441.79 745.69 L 438.71 751.11 L 435.22 756.28 L 431.33 761.17 L 427.12 765.72 L 422.57 769.93 L 417.68 773.82 L 412.51 777.32 L 407.09 780.39 L 401.40 783.06 L 395.44 785.32 L 389.34 787.10 L 383.05 788.38 L 376.56 789.17 L 369.83 789.45 L 363.10 789.17 L 356.60 788.38 L 350.32 787.10 L 344.22 785.32 L 338.25 783.06 L 332.56 780.39 L 327.15 777.32 L 321.98 773.82 L 317.08 769.93 L 312.53 765.72 L 308.32 761.17 L 304.44 756.28 L 300.94 751.11 L 297.86 745.69 L 295.19 740.01 L 292.93 734.04 L 291.16 727.94 L 289.88 721.65 L 289.09 715.16 L 288.80 708.43 L 289.09 701.70 L 289.88 695.20 L 291.16 688.92 L 292.93 682.82 L 295.19 676.85 L 297.86 671.17 L 300.94 665.75 L 304.44 660.58 L 308.32 655.68 L 312.53 651.14 L 317.08 646.92 L 321.98 643.04 L 327.15 639.54 L 332.56 636.46 L 338.25 633.79 L 344.22 631.54 L 350.32 629.76 L 356.60 628.48 L 363.10 627.69 L 369.83 627.40 L 376.56 627.69 L 383.05 628.48 L 389.34 629.76 L 395.44 631.54 L 401.40 633.79 L 407.09 636.46 L 412.51 639.54 L 417.68 643.04 L 422.57 646.92 L 427.12 651.14 L 431.33 655.68 L 435.22 660.58 L 438.71 665.75 L 441.79 671.17 L 444.46 676.85 L 446.72 682.82 L 448.49 688.92 L 449.78 695.20 L 450.57 701.70 L 450.85 708.43 Z" fill="#ffffff" fill-opacity="0.79939497" fill-rule="nonzero" group-id="1,3,5" id="椭圆形" node-id="29" stroke="none" target-height="162.04718" target-width="162.04715" target-x="288.80307" target-y="627.40466"/><g node-id="47"><path d="M 441.44 636.81 L 446.05 641.75 L 450.24 646.85 L 454.02 652.10 L 457.42 657.51 L 460.43 663.10 L 463.71 670.37 L 466.37 677.75 L 468.44 685.26 L 469.92 692.93 L 470.81 700.69 L 471.11 708.43 L 470.81 716.17 L 469.92 723.93 L 468.44 731.59 L 466.37 739.10 L 463.71 746.48 L 460.43 753.76 L 457.42 759.35 L 454.02 764.76 L 450.24 770.01 L 446.05 775.10 L 441.44 780.04 L 436.50 784.65 L 431.41 788.84 L 426.16 792.63 L 420.74 796.02 L 415.16 799.03 L 407.88 802.31 L 400.50 804.97 L 392.99 807.04 L 385.33 808.52 L 377.57 809.41 L 369.83 809.71 L 362.09 809.41 L 354.32 808.52 L 346.66 807.04 L 339.15 804.97 L 331.77 802.31 L 324.50 799.03 L 318.91 796.02 L 313.49 792.63 L 308.24 788.84 L 303.15 784.65 L 298.21 780.04 L 293.60 775.10 L 289.41 770.01 L 285.63 764.76 L 282.24 759.35 L 279.23 753.76 L 275.95 746.48 L 273.28 739.10 L 271.21 731.59 L 269.73 723.93 L 268.84 716.17 L 268.55 708.43 L 268.84 700.69 L 269.73 692.93 L 271.21 685.26 L 273.28 677.75 L 275.95 670.37 L 279.23 663.10 L 282.24 657.51 L 285.63 652.10 L 289.41 646.85 L 293.60 641.75 L 298.21 636.81 L 303.15 632.20 L 308.24 628.01 L 313.49 624.23 L 318.91 620.84 L 324.50 617.83 L 331.77 614.55 L 339.15 611.88 L 346.66 609.81 L 354.32 608.34 L 362.09 607.44 L 369.83 607.15 L 377.57 607.44 L 385.33 608.34 L 392.99 609.81 L 400.50 611.88 L 407.88 614.55 L 415.16 617.83 L 420.74 620.84 L 426.16 624.23 L 431.41 628.01 L 436.50 632.20 L 441.44 636.81 Z M 433.21 661.32 L 322.89 771.94 L 327.67 775.21 L 332.56 778.07 L 337.59 780.54 L 342.76 782.63 L 348.08 784.35 L 353.44 785.68 L 358.86 786.63 L 364.35 787.20 L 369.87 787.39 L 375.35 787.20 L 380.82 786.63 L 386.28 785.67 L 391.66 784.33 L 396.92 782.62 L 402.09 780.52 L 407.18 778.02 L 412.06 775.18 L 416.75 771.95 L 421.29 768.32 L 425.66 764.26 L 429.72 759.88 L 433.36 755.34 L 436.59 750.63 L 439.44 745.75 L 441.94 740.65 L 444.04 735.47 L 445.75 730.19 L 447.08 724.81 L 448.04 719.33 L 448.60 713.86 L 448.79 708.36 L 448.59 702.83 L 448.01 697.33 L 447.05 691.90 L 445.71 686.53 L 443.97 681.21 L 441.87 676.03 L 439.38 671.00 L 436.50 666.10 L 433.21 661.32 Z M 313.99 652.59 L 309.98 656.92 L 306.37 661.41 L 303.16 666.06 L 300.33 670.89 L 297.84 675.92 L 295.74 681.04 L 294.02 686.25 L 292.67 691.57 L 291.69 696.98 L 291.09 702.39 L 290.87 707.83 L 291.01 713.29 L 291.53 718.74 L 292.43 724.11 L 293.70 729.44 L 295.35 734.72 L 297.36 739.86 L 299.75 744.86 L 302.52 749.74 L 305.68 754.50 L 416.95 645.06 L 412.18 641.77 L 407.28 638.89 L 402.24 636.40 L 397.07 634.29 L 391.74 632.55 L 386.37 631.21 L 380.94 630.24 L 375.44 629.66 L 369.91 629.46 L 364.41 629.65 L 358.93 630.22 L 353.46 631.17 L 348.07 632.50 L 342.80 634.21 L 337.61 636.32 L 332.51 638.81 L 327.63 641.66 L 322.92 644.89 L 318.37 648.53 L 313.99 652.59 Z" fill="#6448f4" fill-rule="evenodd" group-id="1,3,5,8" id="形状结合" node-id="31" stroke="none" target-height="202.5589" target-width="202.55893" target-x="268.5472" target-y="607.1488"/><path d="M 425.66 764.26 L 430.10 759.43 L 434.04 754.41 L 437.48 749.19 L 440.46 743.77 L 443.02 738.10 L 445.10 732.34 L 446.71 726.49 L 447.87 720.52 L 448.56 714.46 L 448.79 708.43 L 448.56 702.39 L 447.87 696.34 L 446.71 690.37 L 445.10 684.51 L 443.02 678.76 L 440.46 673.09 L 437.48 667.66 L 434.04 662.45 L 430.10 657.43 L 425.66 652.59 L 420.83 648.15 L 415.81 644.22 L 410.59 640.77 L 405.17 637.79 L 399.50 635.23 L 393.74 633.16 L 387.89 631.54 L 381.91 630.39 L 375.86 629.70 L 369.83 629.46 L 363.79 629.70 L 357.74 630.39 L 351.77 631.54 L 345.91 633.16 L 340.16 635.23 L 334.49 637.79 L 329.06 640.77 L 323.84 644.22 L 318.82 648.15 L 313.99 652.59 L 309.55 657.43 L 305.62 662.45 L 302.17 667.66 L 299.19 673.09 L 296.63 678.76 L 294.55 684.51 L 292.94 690.37 L 291.79 696.34 L 291.09 702.39 L 290.86 708.43 L 291.09 714.46 L 291.79 720.52 L 292.94 726.49 L 294.55 732.34 L 296.63 738.10 L 299.19 743.77 L 302.17 749.19 L 305.62 754.41 L 309.55 759.43 L 313.99 764.26 L 318.82 768.70 L 323.84 772.64 L 329.06 776.09 L 334.49 779.07 L 340.16 781.62 L 345.91 783.70 L 351.77 785.31 L 357.74 786.47 L 363.79 787.16 L 369.83 787.39 L 375.86 787.16 L 381.91 786.47 L 387.89 785.31 L 393.74 783.70 L 399.50 781.62 L 405.17 779.07 L 410.59 776.09 L 415.81 772.64 L 420.83 768.70 L 425.66 764.26 Z" fill="#beb9ff" fill-opacity="0.30211464" fill-rule="evenodd" group-id="1,3,5,8" id="椭圆形" node-id="32" stroke="none" target-height="157.9273" target-width="157.9273" target-x="290.86304" target-y="629.4646"/></g><path d="M 187.88 524.10 L 390.44 524.10 L 390.44 499.79 L 187.88 499.79 Z" fill="#160a45" fill-rule="nonzero" group-id="1,3,5" id="Stroke" node-id="33" stroke="none" target-height="24.307037" target-width="202.55894" target-x="187.8849" target-y="499.79257"/><path d="M 378.29 475.49 L 378.29 550.43 L 445.13 512.96 Z" fill="#160a45" fill-rule="nonzero" group-id="1,3,5" id="Fill" node-id="34" stroke="none" target-height="74.94675" target-width="66.84442" target-x="378.29028" target-y="475.4855"/><path d="M 187.88 426.87 L 390.44 426.87 L 390.44 402.56 L 187.88 402.56 Z" fill="#160a45" fill-rule="nonzero" group-id="1,3,5" id="Stroke" node-id="35" stroke="none" target-height="24.307068" target-width="202.55894" target-x="187.8849" target-y="402.56427"/><path d="M 378.29 378.26 L 378.29 453.20 L 445.13 415.73 Z" fill="#160a45" fill-rule="nonzero" group-id="1,3,5" id="Fill" node-id="36" stroke="none" target-height="74.94681" target-width="66.84442" target-x="378.29028" target-y="378.2572"/></g></g></g></svg>