<svg height="1024" node-id="1" sillyvg="true" template-height="1024" template-width="1024" version="1.1" viewBox="0 0 1024 1024" width="1024" xmlns="http://www.w3.org/2000/svg" xmlns:xlink="http://www.w3.org/1999/xlink"><defs node-id="35"><linearGradient gradientUnits="objectBoundingBox" id="linearGradient-1" node-id="5" spreadMethod="pad" x1="0.1539238" x2="0.6342037" y1="0.50543547" y2="0.49497324"><stop offset="0" stop-color="#ffffff" stop-opacity="0.2278"/><stop offset="1" stop-color="#ffffff" stop-opacity="0.6991"/></linearGradient></defs><g node-id="42"><path d="M 0.00 0.00 L 1024.00 0.00 L 1024.00 1024.00 L 0.00 1024.00 Z" fill="#ffffff" fill-opacity="0" fill-rule="evenodd" group-id="1" id="矩形" node-id="10" stroke="none" target-height="1024" target-width="1024" target-x="0" target-y="0"/><g node-id="43"><path d="M 194.00 274.00 L 194.25 268.19 L 194.93 262.57 L 196.04 257.14 L 197.57 251.87 L 199.52 246.72 L 201.83 241.81 L 204.48 237.13 L 207.51 232.66 L 210.86 228.43 L 214.50 224.50 L 218.43 220.86 L 222.66 217.51 L 227.13 214.48 L 231.81 211.83 L 236.72 209.52 L 241.87 207.57 L 247.14 206.04 L 252.58 204.93 L 258.19 204.25 L 264.00 204.00 L 269.81 204.25 L 275.42 204.93 L 280.86 206.04 L 286.13 207.57 L 291.28 209.52 L 296.19 211.83 L 300.87 214.48 L 305.34 217.51 L 309.57 220.86 L 313.50 224.50 L 317.14 228.43 L 320.49 232.66 L 323.52 237.13 L 326.17 241.81 L 328.48 246.72 L 330.43 251.87 L 331.96 257.14 L 333.07 262.58 L 333.75 268.19 L 334.00 274.00 L 333.76 279.73 L 333.10 285.26 L 332.02 290.61 L 330.54 295.81 L 328.64 300.90 L 326.40 305.76 L 323.81 310.39 L 320.88 314.81 L 317.61 319.01 L 314.07 322.92 L 310.24 326.55 L 306.12 329.91 L 301.77 332.95 L 297.20 335.64 L 292.41 337.99 L 287.38 340.00 L 292.41 342.01 L 297.20 344.36 L 301.77 347.05 L 306.12 350.09 L 310.24 353.45 L 314.07 357.08 L 317.61 360.99 L 320.88 365.19 L 323.81 369.61 L 326.40 374.24 L 328.64 379.10 L 330.54 384.19 L 332.02 389.39 L 333.10 394.74 L 333.76 400.27 L 334.00 406.00 L 333.76 411.73 L 333.10 417.26 L 332.02 422.61 L 330.54 427.81 L 328.64 432.90 L 326.40 437.76 L 323.81 442.39 L 320.88 446.81 L 317.61 451.01 L 314.07 454.92 L 310.24 458.55 L 306.12 461.91 L 301.77 464.95 L 297.20 467.64 L 292.41 469.99 L 287.38 472.00 L 292.41 474.01 L 297.20 476.36 L 301.77 479.05 L 306.12 482.09 L 310.24 485.45 L 314.07 489.08 L 317.61 492.99 L 320.88 497.19 L 323.81 501.61 L 326.40 506.24 L 328.64 511.10 L 330.54 516.19 L 332.02 521.39 L 333.10 526.74 L 333.76 532.27 L 334.00 538.00 L 333.75 543.81 L 333.07 549.42 L 331.96 554.86 L 330.43 560.13 L 328.48 565.28 L 326.17 570.19 L 323.52 574.87 L 320.49 579.34 L 317.14 583.57 L 313.50 587.50 L 309.57 591.14 L 305.34 594.49 L 300.87 597.52 L 296.19 600.17 L 291.28 602.48 L 286.13 604.43 L 280.86 605.96 L 275.42 607.07 L 269.81 607.75 L 264.00 608.00 L 258.19 607.75 L 252.58 607.07 L 247.14 605.96 L 241.87 604.43 L 236.72 602.48 L 231.81 600.17 L 227.13 597.52 L 222.66 594.49 L 218.43 591.14 L 214.50 587.50 L 210.86 583.57 L 207.51 579.34 L 204.48 574.87 L 201.83 570.19 L 199.52 565.28 L 197.57 560.13 L 196.04 554.86 L 194.93 549.42 L 194.25 543.81 L 194.00 538.00 L 194.24 532.28 L 194.90 526.75 L 195.97 521.40 L 197.46 516.21 L 199.36 511.12 L 201.59 506.26 L 204.18 501.63 L 207.12 497.20 L 210.38 493.00 L 213.92 489.09 L 217.75 485.46 L 221.87 482.10 L 226.23 479.06 L 230.79 476.37 L 235.59 474.01 L 240.63 472.00 L 235.60 469.99 L 230.80 467.64 L 226.24 464.95 L 221.88 461.91 L 217.76 458.55 L 213.94 454.92 L 210.39 451.02 L 207.13 446.82 L 204.19 442.39 L 201.60 437.76 L 199.36 432.90 L 197.47 427.81 L 195.98 422.61 L 194.90 417.26 L 194.24 411.73 L 194.00 406.00 L 194.24 400.28 L 194.90 394.75 L 195.97 389.40 L 197.46 384.21 L 199.36 379.12 L 201.59 374.26 L 204.18 369.63 L 207.12 365.20 L 210.38 361.00 L 213.92 357.09 L 217.75 353.46 L 221.87 350.10 L 226.23 347.06 L 230.79 344.37 L 235.59 342.01 L 240.63 340.00 L 235.60 337.99 L 230.80 335.64 L 226.24 332.95 L 221.88 329.91 L 217.76 326.55 L 213.94 322.92 L 210.39 319.02 L 207.13 314.82 L 204.19 310.39 L 201.60 305.76 L 199.36 300.90 L 197.47 295.81 L 195.98 290.61 L 194.90 285.26 L 194.24 279.73 L 194.00 274.00 Z M 202.00 406.00 L 202.22 411.15 L 202.82 416.12 L 203.80 420.93 L 205.16 425.60 L 206.89 430.16 L 208.93 434.51 L 211.29 438.66 L 213.96 442.62 L 216.94 446.36 L 220.16 449.84 L 223.64 453.06 L 227.38 456.04 L 231.34 458.71 L 235.49 461.07 L 239.84 463.11 L 244.40 464.84 L 249.07 466.20 L 253.88 467.18 L 258.85 467.78 L 264.00 468.00 L 269.15 467.78 L 274.12 467.18 L 278.93 466.20 L 283.60 464.84 L 288.16 463.11 L 292.51 461.07 L 296.66 458.71 L 300.62 456.04 L 304.36 453.06 L 307.84 449.84 L 311.06 446.36 L 314.04 442.62 L 316.71 438.66 L 319.07 434.51 L 321.11 430.16 L 322.84 425.60 L 324.20 420.93 L 325.18 416.12 L 325.78 411.15 L 326.00 406.00 L 325.78 400.85 L 325.18 395.88 L 324.20 391.07 L 322.84 386.40 L 321.11 381.84 L 319.07 377.49 L 316.71 373.34 L 314.04 369.38 L 311.07 365.64 L 307.84 362.16 L 304.37 358.94 L 300.62 355.96 L 296.67 353.29 L 292.52 350.93 L 288.18 348.89 L 283.61 347.16 L 278.95 345.80 L 274.14 344.82 L 269.18 344.22 L 264.03 344.00 L 262.97 344.01 L 257.89 344.30 L 252.99 344.97 L 248.25 346.01 L 243.65 347.42 L 239.15 349.18 L 234.87 351.25 L 230.80 353.63 L 226.91 356.31 L 222.06 360.34 L 217.67 364.80 L 213.73 369.71 L 211.10 373.64 L 208.79 377.76 L 206.79 382.08 L 205.10 386.60 L 203.77 391.23 L 202.80 395.99 L 202.21 400.91 L 202.00 406.00 Z M 202.00 538.00 L 202.22 543.15 L 202.82 548.12 L 203.80 552.93 L 205.16 557.60 L 206.89 562.16 L 208.93 566.51 L 211.29 570.66 L 213.96 574.62 L 216.94 578.36 L 220.16 581.84 L 223.64 585.06 L 227.38 588.04 L 231.34 590.71 L 235.49 593.07 L 239.84 595.11 L 244.40 596.84 L 249.07 598.20 L 253.88 599.18 L 258.85 599.78 L 264.00 600.00 L 269.15 599.78 L 274.12 599.18 L 278.93 598.20 L 283.60 596.84 L 288.16 595.11 L 292.51 593.07 L 296.66 590.71 L 300.62 588.04 L 304.36 585.06 L 307.84 581.84 L 311.06 578.36 L 314.04 574.62 L 316.71 570.66 L 319.07 566.51 L 321.11 562.16 L 322.84 557.60 L 324.20 552.93 L 325.18 548.12 L 325.78 543.15 L 326.00 538.00 L 325.78 532.85 L 325.18 527.88 L 324.20 523.07 L 322.84 518.40 L 321.11 513.84 L 319.07 509.49 L 316.71 505.34 L 314.04 501.38 L 311.07 497.64 L 307.84 494.16 L 304.37 490.94 L 300.62 487.96 L 296.67 485.29 L 292.52 482.93 L 288.18 480.89 L 283.61 479.16 L 278.95 477.80 L 274.14 476.82 L 269.18 476.22 L 264.03 476.00 L 262.97 476.01 L 257.89 476.30 L 252.99 476.97 L 248.25 478.01 L 243.65 479.42 L 239.15 481.18 L 234.87 483.25 L 230.80 485.63 L 226.91 488.31 L 222.06 492.34 L 217.67 496.80 L 213.73 501.71 L 211.10 505.64 L 208.79 509.76 L 206.79 514.08 L 205.10 518.60 L 203.77 523.23 L 202.80 527.99 L 202.21 532.91 L 202.00 538.00 Z M 202.00 274.00 L 202.22 279.15 L 202.82 284.12 L 203.80 288.93 L 205.16 293.60 L 206.89 298.16 L 208.93 302.51 L 211.29 306.66 L 213.96 310.62 L 216.94 314.36 L 220.16 317.84 L 223.64 321.06 L 227.38 324.04 L 231.34 326.71 L 235.49 329.07 L 239.84 331.11 L 244.40 332.84 L 249.07 334.20 L 253.88 335.18 L 258.85 335.78 L 264.00 336.00 L 269.15 335.78 L 274.12 335.18 L 278.93 334.20 L 283.60 332.84 L 288.16 331.11 L 292.51 329.07 L 296.66 326.71 L 300.62 324.04 L 304.36 321.06 L 307.84 317.84 L 311.06 314.36 L 314.04 310.62 L 316.71 306.66 L 319.07 302.51 L 321.11 298.16 L 322.84 293.60 L 324.20 288.93 L 325.18 284.12 L 325.78 279.15 L 326.00 274.00 L 325.78 268.85 L 325.18 263.88 L 324.20 259.07 L 322.84 254.40 L 321.11 249.84 L 319.07 245.49 L 316.71 241.34 L 314.04 237.38 L 311.06 233.64 L 307.84 230.16 L 304.36 226.94 L 300.62 223.96 L 296.66 221.29 L 292.51 218.93 L 288.16 216.89 L 283.60 215.16 L 278.93 213.80 L 274.12 212.82 L 269.15 212.22 L 264.00 212.00 L 258.85 212.22 L 253.88 212.82 L 249.07 213.80 L 244.40 215.16 L 239.84 216.89 L 235.49 218.93 L 231.34 221.29 L 227.38 223.96 L 223.64 226.94 L 220.16 230.16 L 216.94 233.64 L 213.96 237.38 L 211.29 241.34 L 208.93 245.49 L 206.89 249.84 L 205.16 254.40 L 203.80 259.07 L 202.82 263.88 L 202.22 268.85 L 202.00 274.00 Z" fill="#dedaff" fill-rule="nonzero" group-id="1,2" id="形状结合" node-id="12" stroke="none" target-height="404" target-width="140" target-x="194" target-y="204"/><path d="M 281.58 271.97 L 387.48 271.97 L 387.48 70.00 L 395.73 70.00 L 395.73 271.97 L 950.00 271.97 L 950.00 280.21 L 395.73 280.21 L 395.73 403.84 L 950.00 403.84 L 950.00 412.09 L 395.73 412.09 L 395.73 535.72 L 950.00 535.72 L 950.00 543.96 L 395.73 543.96 L 395.73 954.00 L 387.48 954.00 L 387.48 543.96 L 281.58 543.96 L 281.97 541.95 L 282.10 539.84 L 281.97 537.73 L 281.58 535.72 L 387.48 535.72 L 387.48 412.09 L 281.58 412.09 L 281.97 410.08 L 282.10 407.97 L 281.97 405.85 L 281.58 403.84 L 387.48 403.84 L 387.48 280.21 L 281.58 280.21 L 281.97 278.20 L 282.10 276.09 L 281.97 273.98 L 281.58 271.97 Z M 259.48 260.78 L 259.48 70.00 L 267.73 70.00 L 267.73 259.74 L 265.60 259.61 L 262.41 259.91 L 259.48 260.78 Z M 265.60 292.57 L 267.73 292.44 L 267.73 391.62 L 265.60 391.48 L 262.41 391.79 L 259.48 392.65 L 259.48 291.40 L 262.41 292.27 L 265.60 292.57 Z M 265.60 424.45 L 267.73 424.31 L 267.73 523.49 L 265.60 523.36 L 262.41 523.66 L 259.48 524.53 L 259.48 423.28 L 262.41 424.14 L 265.60 424.45 Z M 265.60 556.32 L 267.73 556.19 L 267.73 954.00 L 259.48 954.00 L 259.48 555.15 L 262.41 556.02 L 265.60 556.32 Z M 66.00 535.72 L 249.62 535.72 L 249.23 537.73 L 249.10 539.84 L 249.23 541.95 L 249.62 543.96 L 66.00 543.96 L 66.00 535.72 Z M 66.00 403.84 L 249.62 403.84 L 249.23 405.85 L 249.10 407.97 L 249.23 410.08 L 249.62 412.09 L 66.00 412.09 L 66.00 403.84 Z M 66.00 271.97 L 249.62 271.97 L 249.23 273.98 L 249.10 276.09 L 249.23 278.20 L 249.62 280.21 L 66.00 280.21 L 66.00 271.97 Z" fill="#f3f3f3" fill-rule="evenodd" group-id="1,2" id="形状结合" node-id="13" stroke="none" target-height="884" target-width="884" target-x="66" target-y="70"/></g><g node-id="44"><path d="M 203.94 773.99 L 203.94 803.44 L 391.04 771.34 L 539.39 818.00 L 686.09 776.64 L 874.51 801.46 L 874.51 773.99 L 686.09 723.03 L 391.04 716.75 Z" fill="#806eff" fill-rule="evenodd" group-id="1,3" id="路径_1_" node-id="15" stroke="none" target-height="101.25372" target-width="670.56714" target-x="203.94035" target-y="716.7463"/><path d="M 202.03 775.52 L 393.79 741.11 L 538.27 787.43 L 681.10 745.41 L 874.51 772.21 L 766.40 609.74 L 668.53 584.93 L 538.27 619.01 L 420.90 584.93 L 314.11 603.79 Z" fill="#a199ff" fill-rule="nonzero" group-id="1,3" id="路径-20" node-id="16" stroke="none" target-height="202.5075" target-width="672.4776" target-x="202.0299" target-y="584.92535"/><g node-id="46"><g node-id="47"><path d="M 335.11 621.93 L 258.16 737.15 L 409.73 708.02 L 541.39 760.66 L 677.37 718.28 L 826.29 737.15 L 752.99 625.24 L 665.43 606.37 L 541.39 640.14 L 431.62 606.37 Z" fill="url(#linearGradient-1)" fill-rule="nonzero" group-id="1,3,5,6" id="path-18" node-id="19" stroke="none" target-height="154.29504" target-width="568.12354" target-x="258.1619" target-y="606.3681"/></g><g node-id="48"><path d="M 258.16 745.76 L 355.34 585.18 L 426.64 582.20 L 392.48 753.05 Z" fill="#eeeeff" fill-rule="evenodd" group-id="1,3,5,7" id="路径_2_" node-id="21" stroke="none" target-height="170.85028" target-width="168.48026" target-x="258.1619" target-y="582.1974"/></g><path d="M 426.64 585.18 L 396.13 727.88 L 543.05 771.92 L 553.67 562.00 Z" fill="#a199ff" fill-rule="evenodd" group-id="1,3,5" id="路径-3_1_" node-id="22" stroke="none" target-height="209.92072" target-width="157.53568" target-x="396.13004" target-y="562"/><path d="M 543.05 777.88 L 550.68 585.18 L 654.16 562.00 L 691.97 771.92 Z" fill="#eeeeff" fill-rule="evenodd" group-id="1,3,5" id="路径-4" node-id="23" stroke="none" target-height="215.88062" target-width="148.91272" target-x="543.0528" target-y="562"/><path d="M 656.48 582.20 L 691.97 777.88 L 836.30 767.35 L 770.41 608.18 Z" fill="#a199ff" fill-rule="evenodd" group-id="1,3,5" id="路径-5" node-id="24" stroke="none" target-height="195.68323" target-width="179.82007" target-x="656.4785" target-y="582.1974"/><path d="M 247.26 658.75 L 427.54 637.38 L 501.88 672.91 L 501.88 743.11 L 491.36 743.11 L 491.36 679.55 L 425.75 648.20 L 248.50 669.21 Z" fill="#ffffff" fill-rule="nonzero" group-id="1,3,5" id="路径-6" node-id="25" stroke="none" target-height="105.73291" target-width="254.61958" target-x="247.26201" target-y="637.38165"/><path d="M 764.14 645.59 L 768.38 655.22 L 673.71 696.93 L 553.48 675.26 L 497.20 681.47 L 496.05 671.00 L 553.85 664.62 L 672.41 685.99 Z" fill="#ffffff" fill-rule="nonzero" group-id="1,3,5" id="路径-25" node-id="26" stroke="none" target-height="51.343323" target-width="272.33" target-x="496.04514" target-y="645.5858"/><path d="M 367.42 604.29 L 377.08 608.45 L 356.24 657.00 L 327.42 732.74 L 317.59 728.99 L 346.44 653.17 L 346.52 652.96 Z" fill="#ffffff" fill-rule="nonzero" group-id="1,3,5" id="路径-7" node-id="27" stroke="none" target-height="128.44855" target-width="59.49704" target-x="317.587" target-y="604.28937"/><path d="M 517.08 610.12 L 519.94 614.54 L 454.90 656.63 L 443.49 720.73 L 438.31 719.81 L 450.12 653.45 Z" fill="#ffffff" fill-rule="nonzero" group-id="1,3,5" id="路径-8" node-id="28" stroke="none" target-height="110.612854" target-width="81.62457" target-x="438.3139" target-y="610.1171"/><path d="M 578.35 617.23 L 579.39 612.06 L 673.15 630.93 L 594.77 679.36 L 594.77 730.86 L 589.51 730.86 L 589.51 676.42 L 659.04 633.46 Z" fill="#ffffff" fill-rule="nonzero" group-id="1,3,5" id="路径-9" node-id="29" stroke="none" target-height="118.79901" target-width="94.79968" target-x="578.35315" target-y="612.06464"/><path d="M 696.50 615.64 L 704.68 609.01 L 746.81 661.10 L 785.87 737.74 L 776.49 742.53 L 737.94 666.87 Z" fill="#ffffff" fill-rule="nonzero" group-id="1,3,5" id="路径-10" node-id="30" stroke="none" target-height="133.51251" target-width="89.36609" target-x="696.5004" target-y="609.01434"/></g></g><g node-id="45"><path d="M 674.88 238.31 L 681.42 245.34 L 687.34 252.61 L 692.67 260.12 L 697.43 267.89 L 701.68 275.99 L 705.34 284.23 L 708.43 292.62 L 710.96 301.17 L 712.93 309.89 L 714.34 318.63 L 715.19 327.43 L 715.47 336.29 L 715.19 345.15 L 714.34 353.94 L 712.93 362.68 L 710.96 371.38 L 708.43 379.91 L 705.34 388.28 L 701.67 396.49 L 697.43 404.56 L 692.67 412.30 L 687.34 419.77 L 681.42 427.00 L 674.88 433.98 L 674.83 434.02 L 674.49 434.36 L 577.00 532.00 L 479.12 434.36 L 472.58 427.33 L 466.66 420.07 L 461.33 412.56 L 456.57 404.79 L 452.32 396.68 L 448.66 388.44 L 445.57 380.06 L 443.04 371.50 L 441.07 362.79 L 439.66 354.04 L 438.81 345.25 L 438.53 336.39 L 438.81 327.52 L 439.66 318.73 L 441.07 310.00 L 443.04 301.30 L 445.57 292.76 L 448.66 284.40 L 452.33 276.19 L 456.57 268.11 L 461.33 260.38 L 466.66 252.90 L 472.58 245.68 L 479.12 238.70 L 486.14 232.15 L 493.40 226.21 L 500.90 220.87 L 508.66 216.11 L 516.75 211.86 L 524.98 208.19 L 533.36 205.09 L 541.90 202.55 L 550.61 200.56 L 559.35 199.15 L 568.14 198.29 L 577.00 198.00 L 585.86 198.27 L 594.65 199.10 L 603.39 200.49 L 612.10 202.45 L 620.65 204.96 L 629.03 208.03 L 637.25 211.67 L 645.34 215.89 L 653.11 220.62 L 660.61 225.92 L 667.86 231.81 L 674.88 238.31 Z" fill="#beb9ff" fill-rule="nonzero" group-id="1,4" id="路径_3_" node-id="32" stroke="none" target-height="333.99988" target-width="276.9347" target-x="438.5327" target-y="198.00012"/><path d="M 623.16 325.56 L 622.89 330.44 L 622.19 335.09 L 621.04 339.56 L 619.46 343.85 L 617.46 347.99 L 615.12 351.85 L 612.44 355.44 L 609.39 358.79 L 606.04 361.83 L 602.45 364.52 L 598.59 366.86 L 594.45 368.86 L 590.16 370.44 L 585.70 371.58 L 581.04 372.29 L 576.16 372.55 L 571.28 372.29 L 566.62 371.58 L 562.16 370.44 L 557.87 368.86 L 553.73 366.86 L 549.87 364.52 L 546.28 361.83 L 542.93 358.79 L 539.89 355.44 L 537.20 351.85 L 534.86 347.99 L 532.86 343.85 L 531.28 339.56 L 530.13 335.09 L 529.43 330.44 L 529.17 325.56 L 529.43 320.68 L 530.13 316.02 L 531.28 311.56 L 532.86 307.27 L 534.86 303.13 L 537.20 299.27 L 539.89 295.68 L 542.93 292.33 L 546.28 289.28 L 549.87 286.60 L 553.73 284.26 L 557.87 282.26 L 562.16 280.68 L 566.62 279.53 L 571.28 278.82 L 576.16 278.56 L 581.04 278.82 L 585.70 279.53 L 590.16 280.68 L 594.45 282.26 L 598.59 284.26 L 602.45 286.60 L 606.04 289.28 L 609.39 292.33 L 612.44 295.68 L 615.12 299.27 L 617.46 303.13 L 619.46 307.27 L 621.04 311.56 L 622.19 316.02 L 622.89 320.68 L 623.16 325.56 Z" fill="#ffffff" fill-rule="evenodd" group-id="1,4" id="椭圆形_10_" node-id="33" stroke="none" target-height="93.98996" target-width="93.98993" target-x="529.1659" target-y="278.5628"/></g></g></svg>