<svg height="1024" node-id="1" sillyvg="true" template-height="1024" template-width="1024" version="1.1" viewBox="0 0 1024 1024" width="1024" xmlns="http://www.w3.org/2000/svg" xmlns:xlink="http://www.w3.org/1999/xlink"><defs node-id="34"></defs><g node-id="36"><g node-id="37"><path d="M 0.00 0.00 L 1024.00 0.00 L 1024.00 1024.00 L 0.00 1024.00 Z" fill="none" group-id="1,2" id="矩形" node-id="6" stroke="none" target-height="1024" target-width="1024" target-x="0" target-y="0"/></g><g node-id="38"><path d="M 64.00 702.00 L 960.00 702.00 L 960.00 706.00 L 64.00 706.00 Z" fill="#f7f7f7" fill-rule="nonzero" group-id="1,3" id="矩形" node-id="8" stroke="none" target-height="4" target-width="896" target-x="64" target-y="702"/><path d="M 64.00 318.00 L 960.00 318.00 L 960.00 322.00 L 64.00 322.00 Z" fill="#f7f7f7" fill-rule="nonzero" group-id="1,3" id="矩形" node-id="9" stroke="none" target-height="4" target-width="896" target-x="64" target-y="318"/><g node-id="40"><path d="M 514.00 64.00 L 514.00 960.00 L 510.00 960.00 L 510.00 64.00 Z" fill="#f7f7f7" fill-rule="nonzero" group-id="1,3,5" id="矩形" node-id="10" stroke="none" target-height="896" target-width="4" target-x="510" target-y="64"/></g></g><path d="M 148.35 732.14 C 149.25 730.56 151.25 730.01 152.82 730.91 C 154.40 731.80 154.95 733.80 154.06 735.38 L 152.98 737.28 C 152.08 738.85 150.08 739.41 148.51 738.51 C 146.93 737.62 146.38 735.62 147.27 734.04 L 148.35 732.14 Z M 877.53 729.43 C 879.10 728.53 881.10 729.09 882.00 730.66 L 883.08 732.56 C 883.97 734.14 883.42 736.14 881.84 737.03 C 880.27 737.93 878.27 737.38 877.37 735.80 L 876.29 733.90 C 875.40 732.32 875.95 730.32 877.53 729.43 Z M 159.15 713.12 C 160.04 711.55 162.04 710.99 163.62 711.89 C 165.19 712.78 165.75 714.78 164.85 716.36 L 163.77 718.26 C 162.88 719.84 160.88 720.39 159.30 719.50 C 157.72 718.60 157.17 716.60 158.07 715.02 L 159.15 713.12 Z M 866.73 710.41 C 868.31 709.52 870.31 710.07 871.20 711.64 L 872.28 713.55 C 873.18 715.12 872.62 717.12 871.05 718.02 C 869.47 718.91 867.47 718.36 866.58 716.78 L 865.50 714.88 C 864.60 713.31 865.15 711.31 866.73 710.41 Z M 169.94 694.11 C 170.84 692.53 172.84 691.98 174.41 692.87 C 175.99 693.77 176.54 695.77 175.65 697.34 L 174.57 699.25 C 173.67 700.82 171.67 701.37 170.09 700.48 C 168.52 699.58 167.97 697.58 168.86 696.01 L 169.94 694.11 Z M 855.94 691.39 C 857.51 690.50 859.51 691.05 860.41 692.63 L 861.49 694.53 C 862.38 696.10 861.83 698.11 860.25 699.00 C 858.68 699.90 856.68 699.34 855.78 697.77 L 854.70 695.87 C 853.81 694.29 854.36 692.29 855.94 691.39 Z M 180.74 675.09 C 181.63 673.51 183.63 672.96 185.21 673.86 C 186.78 674.75 187.34 676.75 186.44 678.33 L 185.36 680.23 C 184.47 681.80 182.47 682.36 180.89 681.46 C 179.31 680.57 178.76 678.57 179.66 676.99 L 180.74 675.09 Z M 845.14 672.38 C 846.72 671.48 848.72 672.04 849.61 673.61 L 850.69 675.51 C 851.59 677.09 851.03 679.09 849.46 679.98 C 847.88 680.88 845.88 680.33 844.99 678.75 L 843.91 676.85 C 843.01 675.27 843.56 673.27 845.14 672.38 Z M 191.53 656.07 C 192.43 654.50 194.43 653.94 196.00 654.84 C 197.58 655.73 198.13 657.74 197.24 659.31 L 196.16 661.21 C 195.26 662.79 193.26 663.34 191.68 662.45 C 190.11 661.55 189.56 659.55 190.45 657.97 L 191.53 656.07 Z M 834.35 653.36 C 835.92 652.47 837.92 653.02 838.82 654.59 L 839.90 656.50 C 840.79 658.07 840.24 660.07 838.66 660.97 C 837.09 661.86 835.09 661.31 834.19 659.73 L 833.11 657.83 C 832.22 656.26 832.77 654.26 834.35 653.36 Z M 202.33 637.06 C 203.22 635.48 205.22 634.93 206.80 635.82 C 208.37 636.72 208.93 638.72 208.03 640.29 L 206.95 642.20 C 206.06 643.77 204.06 644.32 202.48 643.43 C 200.90 642.53 200.35 640.53 201.25 638.96 L 202.33 637.06 Z M 823.55 634.34 C 825.13 633.45 827.13 634.00 828.02 635.58 L 829.10 637.48 C 830.00 639.06 829.44 641.06 827.87 641.95 C 826.29 642.85 824.29 642.29 823.40 640.72 L 822.32 638.82 C 821.42 637.24 821.97 635.24 823.55 634.34 Z M 213.12 618.04 C 214.02 616.46 216.02 615.91 217.59 616.81 C 219.17 617.70 219.72 619.70 218.83 621.28 L 217.75 623.18 C 216.85 624.75 214.85 625.31 213.27 624.41 C 211.70 623.52 211.15 621.52 212.04 619.94 L 213.12 618.04 Z M 812.76 615.33 C 814.33 614.43 816.33 614.99 817.23 616.56 L 818.31 618.46 C 819.20 620.04 818.65 622.04 817.07 622.93 C 815.50 623.83 813.50 623.28 812.60 621.70 L 811.52 619.80 C 810.63 618.22 811.18 616.22 812.76 615.33 Z M 223.92 599.02 C 224.81 597.45 226.81 596.89 228.39 597.79 C 229.96 598.68 230.52 600.69 229.62 602.26 L 228.54 604.16 C 227.65 605.74 225.65 606.29 224.07 605.40 C 222.49 604.50 221.94 602.50 222.84 600.92 L 223.92 599.02 Z M 801.96 596.31 C 803.54 595.42 805.54 595.97 806.43 597.54 L 807.51 599.45 C 808.41 601.02 807.85 603.02 806.28 603.92 C 804.70 604.81 802.70 604.26 801.81 602.69 L 800.73 600.78 C 799.83 599.21 800.39 597.21 801.96 596.31 Z M 234.71 580.01 C 235.61 578.43 237.61 577.88 239.18 578.77 C 240.76 579.67 241.31 581.67 240.42 583.24 L 239.34 585.15 C 238.44 586.72 236.44 587.27 234.86 586.38 C 233.29 585.48 232.74 583.48 233.63 581.91 L 234.71 580.01 Z M 791.17 577.30 C 792.74 576.40 794.74 576.95 795.64 578.53 L 796.72 580.43 C 797.61 582.01 797.06 584.01 795.48 584.90 C 793.91 585.80 791.91 585.24 791.01 583.67 L 789.93 581.77 C 789.04 580.19 789.59 578.19 791.17 577.30 Z M 245.51 560.99 C 246.40 559.41 248.40 558.86 249.98 559.76 C 251.55 560.65 252.11 562.65 251.21 564.23 L 250.13 566.13 C 249.24 567.70 247.23 568.26 245.66 567.36 C 244.08 566.47 243.53 564.47 244.43 562.89 L 245.51 560.99 Z M 780.37 558.28 C 781.95 557.38 783.95 557.94 784.84 559.51 L 785.92 561.41 C 786.82 562.99 786.26 564.99 784.69 565.89 C 783.11 566.78 781.11 566.23 780.22 564.65 L 779.14 562.75 C 778.24 561.17 778.80 559.17 780.37 558.28 Z M 256.30 541.97 C 257.20 540.40 259.20 539.84 260.77 540.74 C 262.35 541.63 262.90 543.64 262.01 545.21 L 260.93 547.11 C 260.03 548.69 258.03 549.24 256.45 548.35 C 254.88 547.45 254.33 545.45 255.22 543.87 L 256.30 541.97 Z M 769.58 539.26 C 771.15 538.37 773.15 538.92 774.05 540.50 L 775.13 542.40 C 776.02 543.97 775.47 545.97 773.89 546.87 C 772.32 547.76 770.32 547.21 769.42 545.64 L 768.34 543.73 C 767.45 542.16 768.00 540.16 769.58 539.26 Z M 267.10 522.96 C 267.99 521.38 269.99 520.83 271.57 521.72 C 273.14 522.62 273.69 524.62 272.80 526.19 L 271.72 528.10 C 270.83 529.67 268.82 530.22 267.25 529.33 C 265.67 528.44 265.12 526.43 266.02 524.86 L 267.10 522.96 Z M 758.78 520.25 C 760.36 519.35 762.36 519.90 763.25 521.48 L 764.33 523.38 C 765.23 524.96 764.67 526.96 763.10 527.85 C 761.52 528.75 759.52 528.19 758.63 526.62 L 757.55 524.72 C 756.65 523.14 757.21 521.14 758.78 520.25 Z M 277.89 503.94 C 278.78 502.36 280.79 501.81 282.36 502.71 C 283.94 503.60 284.49 505.60 283.60 507.18 L 282.52 509.08 C 281.62 510.65 279.62 511.21 278.04 510.31 C 276.47 509.42 275.92 507.42 276.81 505.84 L 277.89 503.94 Z M 747.99 501.23 C 749.56 500.33 751.56 500.89 752.46 502.46 L 753.54 504.36 C 754.43 505.94 753.88 507.94 752.30 508.84 C 750.73 509.73 748.73 509.18 747.83 507.60 L 746.75 505.70 C 745.86 504.13 746.41 502.12 747.99 501.23 Z M 288.69 484.92 C 289.58 483.35 291.58 482.80 293.16 483.69 C 294.73 484.58 295.28 486.59 294.39 488.16 L 293.31 490.06 C 292.42 491.64 290.41 492.19 288.84 491.30 C 287.26 490.40 286.71 488.40 287.61 486.82 L 288.69 484.92 Z M 737.19 482.21 C 738.77 481.32 740.77 481.87 741.66 483.45 L 742.74 485.35 C 743.64 486.92 743.08 488.92 741.51 489.82 C 739.93 490.71 737.93 490.16 737.04 488.59 L 735.96 486.68 C 735.06 485.11 735.62 483.11 737.19 482.21 Z M 299.48 465.91 C 300.37 464.33 302.38 463.78 303.95 464.67 C 305.53 465.57 306.08 467.57 305.19 469.14 L 304.11 471.05 C 303.21 472.62 301.21 473.17 299.63 472.28 C 298.06 471.39 297.51 469.38 298.40 467.81 L 299.48 465.91 Z M 726.40 463.20 C 727.97 462.30 729.97 462.85 730.87 464.43 L 731.95 466.33 C 732.84 467.91 732.29 469.91 730.71 470.80 C 729.14 471.70 727.14 471.14 726.24 469.57 L 725.16 467.67 C 724.27 466.09 724.82 464.09 726.40 463.20 Z M 310.28 446.89 C 311.17 445.31 313.17 444.76 314.75 445.66 C 316.32 446.55 316.87 448.55 315.98 450.13 L 314.90 452.03 C 314.01 453.61 312.00 454.16 310.43 453.26 C 308.85 452.37 308.30 450.37 309.20 448.79 L 310.28 446.89 Z M 715.60 444.18 C 717.18 443.28 719.18 443.84 720.07 445.41 L 721.15 447.31 C 722.05 448.89 721.49 450.89 719.92 451.79 C 718.34 452.68 716.34 452.13 715.45 450.55 L 714.37 448.65 C 713.47 447.08 714.03 445.07 715.60 444.18 Z M 321.07 427.87 C 321.96 426.30 323.97 425.75 325.54 426.64 C 327.12 427.53 327.67 429.54 326.78 431.11 L 325.70 433.01 C 324.80 434.59 322.80 435.14 321.22 434.25 C 319.65 433.35 319.10 431.35 319.99 429.77 L 321.07 427.87 Z M 704.81 425.16 C 706.38 424.27 708.38 424.82 709.28 426.40 L 710.36 428.30 C 711.25 429.87 710.70 431.87 709.12 432.77 C 707.55 433.66 705.55 433.11 704.65 431.54 L 703.57 429.63 C 702.68 428.06 703.23 426.06 704.81 425.16 Z M 331.87 408.86 C 332.76 407.28 334.76 406.73 336.34 407.62 C 337.91 408.52 338.46 410.52 337.57 412.09 L 336.49 414.00 C 335.60 415.57 333.59 416.12 332.02 415.23 C 330.44 414.34 329.89 412.33 330.79 410.76 L 331.87 408.86 Z M 694.01 406.15 C 695.59 405.25 697.59 405.80 698.48 407.38 L 699.56 409.28 C 700.46 410.86 699.90 412.86 698.33 413.75 C 696.75 414.65 694.75 414.09 693.86 412.52 L 692.78 410.62 C 691.88 409.04 692.44 407.04 694.01 406.15 Z M 342.66 389.84 C 343.55 388.26 345.56 387.71 347.13 388.61 C 348.71 389.50 349.26 391.50 348.37 393.08 L 347.29 394.98 C 346.39 396.56 344.39 397.11 342.81 396.21 C 341.24 395.32 340.69 393.32 341.58 391.74 L 342.66 389.84 Z M 683.22 387.13 C 684.79 386.24 686.79 386.79 687.69 388.36 L 688.77 390.26 C 689.66 391.84 689.11 393.84 687.53 394.74 C 685.96 395.63 683.96 395.08 683.06 393.50 L 681.98 391.60 C 681.09 390.03 681.64 388.02 683.22 387.13 Z M 353.46 370.82 C 354.35 369.25 356.35 368.70 357.93 369.59 C 359.50 370.48 360.05 372.49 359.16 374.06 L 358.08 375.96 C 357.19 377.54 355.18 378.09 353.61 377.20 C 352.03 376.30 351.48 374.30 352.38 372.72 L 353.46 370.82 Z M 672.42 368.11 C 674.00 367.22 676.00 367.77 676.89 369.35 L 677.97 371.25 C 678.87 372.82 678.31 374.83 676.74 375.72 C 675.16 376.61 673.16 376.06 672.27 374.49 L 671.19 372.58 C 670.29 371.01 670.85 369.01 672.42 368.11 Z M 364.25 351.81 C 365.14 350.23 367.15 349.68 368.72 350.57 C 370.30 351.47 370.85 353.47 369.96 355.05 L 368.88 356.95 C 367.98 358.52 365.98 359.07 364.40 358.18 C 362.83 357.29 362.28 355.28 363.17 353.71 L 364.25 351.81 Z M 661.63 349.10 C 663.20 348.20 665.20 348.75 666.10 350.33 L 667.18 352.23 C 668.07 353.81 667.52 355.81 665.94 356.70 C 664.37 357.60 662.37 357.04 661.47 355.47 L 660.39 353.57 C 659.50 351.99 660.05 349.99 661.63 349.10 Z M 375.05 332.79 C 375.94 331.21 377.94 330.66 379.52 331.56 C 381.09 332.45 381.64 334.45 380.75 336.03 L 379.67 337.93 C 378.78 339.51 376.77 340.06 375.20 339.16 C 373.62 338.27 373.07 336.27 373.97 334.69 L 375.05 332.79 Z M 650.83 330.08 C 652.41 329.19 654.41 329.74 655.30 331.31 L 656.38 333.21 C 657.28 334.79 656.72 336.79 655.15 337.69 C 653.57 338.58 651.57 338.03 650.68 336.45 L 649.60 334.55 C 648.70 332.98 649.26 330.97 650.83 330.08 Z M 385.84 313.77 C 386.73 312.20 388.74 311.65 390.31 312.54 C 391.89 313.43 392.44 315.44 391.55 317.01 L 390.47 318.91 C 389.57 320.49 387.57 321.04 385.99 320.15 C 384.42 319.25 383.87 317.25 384.76 315.68 L 385.84 313.77 Z M 640.04 311.06 C 641.61 310.17 643.61 310.72 644.51 312.30 L 645.59 314.20 C 646.48 315.77 645.93 317.78 644.35 318.67 C 642.78 319.56 640.78 319.01 639.88 317.44 L 638.80 315.53 C 637.91 313.96 638.46 311.96 640.04 311.06 Z M 396.63 294.76 C 397.53 293.18 399.53 292.63 401.11 293.52 C 402.68 294.42 403.23 296.42 402.34 298.00 L 401.26 299.90 C 400.37 301.47 398.36 302.02 396.79 301.13 C 395.21 300.24 394.66 298.23 395.56 296.66 L 396.63 294.76 Z M 629.24 292.05 C 630.82 291.15 632.82 291.70 633.71 293.28 L 634.79 295.18 C 635.69 296.76 635.13 298.76 633.56 299.65 C 631.98 300.55 629.98 300.00 629.09 298.42 L 628.01 296.52 C 627.11 294.94 627.67 292.94 629.24 292.05 Z M 407.43 275.74 C 408.32 274.17 410.33 273.61 411.90 274.51 C 413.48 275.40 414.03 277.40 413.13 278.98 L 412.06 280.88 C 411.16 282.46 409.16 283.01 407.58 282.11 C 406.01 281.22 405.46 279.22 406.35 277.64 L 407.43 275.74 Z M 618.45 273.03 C 620.02 272.14 622.02 272.69 622.92 274.26 L 624.00 276.16 C 624.89 277.74 624.34 279.74 622.76 280.64 C 621.19 281.53 619.19 280.98 618.29 279.40 L 617.21 277.50 C 616.32 275.93 616.87 273.92 618.45 273.03 Z M 418.22 256.72 C 419.12 255.15 421.12 254.60 422.70 255.49 C 424.27 256.38 424.82 258.39 423.93 259.96 L 422.85 261.86 C 421.96 263.44 419.95 263.99 418.38 263.10 C 416.80 262.20 416.25 260.20 417.15 258.63 L 418.22 256.72 Z M 607.65 254.01 C 609.23 253.12 611.23 253.67 612.12 255.25 L 613.20 257.15 C 614.10 258.72 613.54 260.73 611.97 261.62 C 610.39 262.51 608.39 261.96 607.50 260.39 L 606.42 258.49 C 605.52 256.91 606.08 254.91 607.65 254.01 Z M 429.02 237.71 C 429.91 236.13 431.92 235.58 433.49 236.47 C 435.07 237.37 435.62 239.37 434.72 240.95 L 433.65 242.85 C 432.75 244.42 430.75 244.97 429.17 244.08 C 427.60 243.19 427.05 241.18 427.94 239.61 L 429.02 237.71 Z M 596.86 235.00 C 598.43 234.10 600.43 234.65 601.33 236.23 L 602.41 238.13 C 603.30 239.71 602.75 241.71 601.17 242.60 C 599.60 243.50 597.60 242.95 596.70 241.37 L 595.62 239.47 C 594.73 237.89 595.28 235.89 596.86 235.00 Z M 439.81 218.69 C 440.71 217.12 442.71 216.56 444.29 217.46 C 445.86 218.35 446.41 220.35 445.52 221.93 L 444.44 223.83 C 443.55 225.41 441.54 225.96 439.97 225.06 C 438.39 224.17 437.84 222.17 438.74 220.59 L 439.81 218.69 Z M 586.06 215.98 C 587.64 215.09 589.64 215.64 590.53 217.21 L 591.61 219.12 C 592.51 220.69 591.95 222.69 590.38 223.59 C 588.80 224.48 586.80 223.93 585.91 222.35 L 584.83 220.45 C 583.93 218.88 584.49 216.87 586.06 215.98 Z" fill="#a199ff" fill-rule="nonzero" group-id="1" id="形状" node-id="11" stroke="none" target-height="524.32007" target-width="737.593" target-x="146.37752" target-y="215.08586"/><path d="M 175.65 681.69 L 853.76 681.70 L 882.41 729.81 L 145.50 729.80 Z" fill="#160a45" fill-rule="nonzero" group-id="1,4,6" id="矩形" node-id="14" stroke="none" target-height="48.120605" target-width="736.9143" target-x="145.4961" target-y="681.688"/><path d="M 253.74 681.71 L 767.61 681.70 L 791.66 727.62 L 229.68 729.81 Z" fill="#dedaff" fill-rule="nonzero" group-id="1,4,6" id="矩形" node-id="15" stroke="none" target-height="48.107178" target-width="561.9791" target-x="229.68362" target-y="681.7014"/><path d="M 511.77 167.83 L 372.91 445.54 L 651.71 447.73 Z" fill="#beb9ff" fill-rule="evenodd" group-id="1,4,6" id="Fill" node-id="16" stroke="none" target-height="279.89624" target-width="278.80292" target-x="372.9118" target-y="167.8294"/><path d="M 511.77 162.94 L 513.72 166.85 L 793.62 726.64 L 795.20 729.81 L 228.33 729.81 L 229.91 726.64 L 509.81 166.85 L 511.77 162.94 Z M 511.77 172.72 L 235.41 725.44 L 788.12 725.44 L 511.77 172.72 Z" fill="#6c57f0" fill-rule="nonzero" group-id="1,4" id="辅助线1" node-id="17" stroke="none" target-height="566.8688" target-width="566.8688" target-x="228.33218" target-y="162.9398"/><path d="M 511.77 447.73 L 721.69 447.73 L 721.69 712.32 L 511.77 712.32 Z" fill="#dedaff" fill-rule="evenodd" group-id="1,4,7" id="矩形" node-id="19" stroke="none" target-height="264.58942" target-width="209.92218" target-x="511.7666" target-y="447.7256"/><path d="M 721.69 447.73 L 649.53 447.73 L 721.79 592.77 Z" fill="#806eff" fill-rule="nonzero" group-id="1,4,7,10" id="矩形" node-id="20" stroke="none" target-height="145.04065" target-width="72.26318" target-x="649.528" target-y="447.7256"/><path d="M 533.63 729.81 L 533.63 729.78 L 530.60 729.41 L 527.76 728.68 L 525.08 727.60 L 522.55 726.15 L 519.50 723.76 L 516.90 720.92 L 514.73 717.58 L 513.47 714.88 L 512.55 712.03 L 511.98 708.99 L 511.77 705.75 L 511.98 702.52 L 512.55 699.48 L 513.47 696.63 L 514.73 693.92 L 516.90 690.59 L 519.50 687.75 L 522.55 685.36 L 525.08 683.91 L 527.76 682.83 L 530.60 682.10 L 533.63 681.73 L 721.69 681.70 L 721.69 729.81 L 533.63 729.81 Z" fill="#a199ff" fill-rule="nonzero" group-id="1,4,7" id="形状结合" node-id="21" stroke="none" target-height="48.107117" target-width="209.92218" target-x="511.7666" target-y="681.70135"/><path d="M 301.84 447.73 L 511.77 447.73 L 511.77 718.88 L 301.84 718.88 Z" fill="#eeeeff" fill-rule="evenodd" group-id="1,4,8" id="矩形" node-id="23" stroke="none" target-height="271.14948" target-width="209.92218" target-x="301.8444" target-y="447.7256"/><path d="M 301.84 447.73 L 374.01 447.73 L 301.84 592.57 Z" fill="#806eff" fill-rule="nonzero" group-id="1,4,8" id="矩形" node-id="24" stroke="none" target-height="144.84564" target-width="72.160736" target-x="301.8444" target-y="447.7256"/><path d="M 487.71 681.70 L 488.81 681.70 L 491.96 681.93 L 494.93 682.56 L 497.74 683.59 L 500.40 684.99 L 502.83 686.71 L 505.04 688.75 L 506.98 691.05 L 508.62 693.59 L 509.96 696.39 L 510.94 699.34 L 511.55 702.45 L 511.77 705.75 L 511.55 709.06 L 510.94 712.17 L 509.96 715.12 L 508.62 717.92 L 506.98 720.46 L 505.04 722.76 L 502.83 724.80 L 500.40 726.52 L 497.74 727.92 L 494.93 728.95 L 491.96 729.58 L 488.81 729.81 L 487.71 729.78 L 487.71 729.81 L 301.84 729.81 L 301.84 681.70 L 487.71 681.70 Z" fill="#a199ff" fill-rule="nonzero" group-id="1,4,8" id="形状结合" node-id="25" stroke="none" target-height="48.107117" target-width="209.92218" target-x="301.8444" target-y="681.70135"/><path d="M 371.82 447.73 L 651.71 447.73" fill="none" group-id="1,4" id="路径" node-id="26" stroke="#6448f4" stroke-linecap="butt" stroke-width="2" target-height="0" target-width="279.8963" target-x="371.81842" target-y="447.72565"/><path d="M 369.03 325.27 L 651.71 325.27 L 651.71 683.89 L 369.03 683.89 Z" fill="#806eff" fill-rule="nonzero" group-id="1,4,9" id="矩形" node-id="28" stroke="none" target-height="358.61707" target-width="282.68616" target-x="369.0285" target-y="325.271"/><path d="M 471.62 384.81 L 471.32 389.21 L 470.47 393.35 L 469.11 397.27 L 467.24 400.98 L 464.96 404.36 L 462.25 407.44 L 459.17 410.15 L 455.79 412.43 L 452.08 414.30 L 448.15 415.67 L 444.02 416.51 L 439.62 416.81 L 435.22 416.51 L 431.09 415.67 L 427.16 414.30 L 423.45 412.43 L 420.07 410.15 L 416.99 407.44 L 414.28 404.36 L 412.00 400.98 L 410.13 397.27 L 408.77 393.35 L 407.92 389.21 L 407.62 384.81 L 407.92 380.42 L 408.77 376.28 L 410.13 372.36 L 412.00 368.64 L 414.28 365.26 L 416.99 362.19 L 420.07 359.48 L 423.45 357.20 L 427.16 355.33 L 431.09 353.96 L 435.22 353.12 L 439.62 352.81 L 444.02 353.12 L 448.15 353.96 L 452.08 355.33 L 455.79 357.20 L 459.17 359.48 L 462.25 362.19 L 464.96 365.26 L 467.24 368.64 L 469.11 372.36 L 470.47 376.28 L 471.32 380.42 L 471.62 384.81 Z" fill="#160a45" fill-rule="evenodd" group-id="1,4,9" id="椭圆形" node-id="29" stroke="none" target-height="64" target-width="64" target-x="407.6199" target-y="352.81293"/><path d="M 613.83 384.81 L 613.52 389.21 L 612.68 393.35 L 611.31 397.27 L 609.45 400.98 L 607.17 404.36 L 604.46 407.44 L 601.38 410.15 L 598.00 412.43 L 594.29 414.30 L 590.36 415.67 L 586.22 416.51 L 581.83 416.81 L 577.43 416.51 L 573.30 415.67 L 569.37 414.30 L 565.66 412.43 L 562.28 410.15 L 559.20 407.44 L 556.49 404.36 L 554.21 400.98 L 552.34 397.27 L 550.98 393.35 L 550.13 389.21 L 549.83 384.81 L 550.13 380.42 L 550.98 376.28 L 552.34 372.36 L 554.21 368.64 L 556.49 365.26 L 559.20 362.19 L 562.28 359.48 L 565.66 357.20 L 569.37 355.33 L 573.30 353.96 L 577.43 353.12 L 581.83 352.81 L 586.22 353.12 L 590.36 353.96 L 594.29 355.33 L 598.00 357.20 L 601.38 359.48 L 604.46 362.19 L 607.17 365.26 L 609.45 368.64 L 611.31 372.36 L 612.68 376.28 L 613.52 380.42 L 613.83 384.81 Z" fill="#160a45" fill-rule="evenodd" group-id="1,4,9" id="椭圆形" node-id="30" stroke="none" target-height="64" target-width="64" target-x="549.8292" target-y="352.81293"/><path d="M 454.06 386.07 L 454.06 414.19 L 454.40 419.96 L 455.34 425.60 L 456.90 431.15 L 459.01 436.51 L 461.61 441.63 L 464.72 446.53 L 468.28 451.11 L 472.21 455.32 L 476.53 459.16 L 481.19 462.58 L 486.10 465.49 L 491.30 467.90 L 495.34 469.34 L 499.46 470.44 L 503.68 471.18 L 508.01 471.57 L 510.37 471.62 L 514.71 471.41 L 518.95 470.85 L 523.09 469.94 L 527.16 468.66 L 532.41 466.47 L 537.39 463.77 L 542.13 460.55 L 546.55 456.89 L 550.60 452.85 L 554.29 448.41 L 557.55 443.65 L 560.32 438.64 L 562.61 433.37 L 564.37 427.89 L 565.54 422.29 L 566.12 416.53 L 566.17 414.19 L 566.17 386.07 L 596.89 386.07 L 596.89 414.19 L 596.58 421.37 L 595.74 428.31 L 594.37 435.02 L 592.48 441.53 L 590.06 447.90 L 587.21 453.97 L 583.93 459.76 L 580.19 465.28 L 576.04 470.51 L 571.55 475.36 L 566.69 479.86 L 561.47 484.01 L 555.94 487.74 L 550.16 491.03 L 544.09 493.88 L 537.72 496.29 L 531.20 498.18 L 524.49 499.55 L 517.56 500.39 L 510.37 500.70 L 503.19 500.39 L 496.25 499.55 L 489.54 498.18 L 483.03 496.29 L 476.65 493.88 L 470.58 491.03 L 464.80 487.74 L 459.28 484.01 L 454.05 479.86 L 449.20 475.36 L 444.70 470.51 L 440.55 465.28 L 436.82 459.76 L 433.53 453.97 L 430.68 447.90 L 428.27 441.53 L 426.37 435.02 L 425.00 428.31 L 424.16 421.37 L 423.86 414.19 L 423.86 386.07 L 454.06 386.07 Z" fill="#ffffff" fill-rule="nonzero" group-id="1,4,9" id="路径" node-id="31" stroke="none" target-height="114.62637" target-width="173.02783" target-x="423.85767" target-y="386.07272"/><path d="M 398.41 624.08 L 622.33 624.08 L 622.33 656.08 L 398.41 656.08 Z" fill="#ffffff" fill-opacity="0.8" fill-rule="evenodd" group-id="1,4,9" id="形状结合" node-id="32" stroke="none" target-height="32" target-width="223.91699" target-x="398.4131" target-y="624.077"/></g></svg>