<svg height="1024" node-id="1" sillyvg="true" template-height="1024" template-width="1024" version="1.1" viewBox="0 0 1024 1024" width="1024" xmlns="http://www.w3.org/2000/svg" xmlns:xlink="http://www.w3.org/1999/xlink"><defs node-id="50"><linearGradient gradientUnits="objectBoundingBox" id="linearGradient-1" node-id="5" spreadMethod="pad" x1="0.5" x2="0.5" y1="-0.07240193" y2="1"><stop offset="0" stop-color="#8556ff"/><stop offset="1" stop-color="#bcceff"/></linearGradient><linearGradient gradientUnits="objectBoundingBox" id="linearGradient-2" node-id="8" spreadMethod="pad" x1="0.5" x2="0.5" y1="1" y2="0.000000000000000000000000000000006162976"><stop offset="0" stop-color="#b7b1ff"/><stop offset="1" stop-color="#806eff"/></linearGradient><clipPath id="mask-4" node-id="43"><path d="M 710.40 664.00 L 825.60 664.00 L 825.60 774.40 L 710.40 774.40 Z" fill="#000000" fill-rule="evenodd" node-id="67" stroke="none" target-height="110.400024" target-width="115.20001" target-x="710.4" target-y="664"/></clipPath></defs><g node-id="122"><g node-id="123"><path d="M 0.00 0.00 L 1024.00 0.00 L 1024.00 1024.00 L 0.00 1024.00 Z" fill="#ffffff" fill-opacity="0" fill-rule="nonzero" group-id="1,2" id="矩形" node-id="14" stroke="none" target-height="1024" target-width="1024" target-x="0" target-y="0"/></g><g node-id="124"><g node-id="125"><path d="M 768.00 328.80 L 773.65 329.04 L 779.10 329.70 L 784.37 330.78 L 789.49 332.27 L 794.50 334.16 L 799.27 336.40 L 803.82 338.99 L 808.16 341.92 L 812.27 345.18 L 816.08 348.72 L 819.62 352.53 L 822.88 356.64 L 825.81 360.98 L 828.40 365.53 L 830.64 370.30 L 832.53 375.31 L 834.02 380.43 L 835.10 385.70 L 835.76 391.15 L 836.00 396.80 L 835.76 402.45 L 835.10 407.90 L 834.02 413.17 L 832.53 418.29 L 830.64 423.30 L 828.40 428.07 L 825.81 432.62 L 822.88 436.96 L 819.62 441.07 L 816.08 444.88 L 812.27 448.42 L 808.16 451.68 L 803.82 454.61 L 799.27 457.20 L 794.50 459.44 L 789.49 461.33 L 784.37 462.82 L 779.10 463.90 L 773.65 464.56 L 768.00 464.80 L 762.35 464.56 L 756.90 463.90 L 751.63 462.82 L 746.51 461.33 L 741.50 459.44 L 736.73 457.20 L 732.18 454.61 L 727.84 451.68 L 723.73 448.42 L 719.92 444.88 L 716.38 441.07 L 713.12 436.96 L 710.19 432.62 L 707.60 428.07 L 705.36 423.30 L 703.47 418.29 L 701.98 413.17 L 700.90 407.90 L 700.24 402.45 L 700.00 396.80 L 700.24 391.15 L 700.90 385.70 L 701.98 380.43 L 703.47 375.31 L 705.36 370.30 L 707.60 365.53 L 710.19 360.98 L 713.12 356.64 L 716.38 352.53 L 719.92 348.72 L 723.73 345.18 L 727.84 341.92 L 732.18 338.99 L 736.73 336.40 L 741.50 334.16 L 746.51 332.27 L 751.63 330.78 L 756.90 329.70 L 762.35 329.04 L 768.00 328.80 Z M 768.00 336.80 L 763.02 337.01 L 758.21 337.60 L 753.55 338.55 L 749.04 339.86 L 744.62 341.53 L 740.41 343.51 L 736.39 345.79 L 732.56 348.38 L 727.79 352.27 L 723.47 356.59 L 719.58 361.36 L 716.99 365.19 L 714.71 369.21 L 712.73 373.42 L 711.06 377.84 L 709.75 382.35 L 708.80 387.01 L 708.21 391.82 L 708.00 396.80 L 708.21 401.78 L 708.80 406.59 L 709.75 411.25 L 711.06 415.76 L 712.73 420.18 L 714.71 424.39 L 716.99 428.41 L 719.58 432.24 L 723.47 437.01 L 727.79 441.33 L 732.56 445.22 L 736.39 447.81 L 740.41 450.09 L 744.62 452.07 L 749.04 453.74 L 753.55 455.05 L 758.21 456.00 L 763.02 456.59 L 768.00 456.80 L 772.98 456.59 L 777.79 456.00 L 782.45 455.05 L 786.96 453.74 L 791.38 452.07 L 795.59 450.09 L 799.61 447.81 L 803.44 445.22 L 808.21 441.33 L 812.53 437.01 L 816.42 432.24 L 819.01 428.41 L 821.29 424.39 L 823.27 420.18 L 824.94 415.76 L 826.25 411.25 L 827.20 406.59 L 827.79 401.78 L 828.00 396.80 L 827.79 391.82 L 827.20 387.01 L 826.25 382.35 L 824.94 377.84 L 823.27 373.42 L 821.29 369.21 L 819.01 365.19 L 816.42 361.36 L 812.53 356.59 L 808.21 352.27 L 803.44 348.38 L 799.61 345.79 L 795.59 343.51 L 791.38 341.53 L 786.96 339.86 L 782.45 338.55 L 777.79 337.60 L 772.98 337.01 L 768.00 336.80 Z" fill="#dedaff" fill-rule="nonzero" group-id="1,3,4" id="椭圆形" node-id="17" stroke="none" target-height="136" target-width="136" target-x="700" target-y="328.8"/><path d="M 768.00 200.80 L 773.65 201.04 L 779.10 201.70 L 784.37 202.78 L 789.49 204.27 L 794.50 206.16 L 799.27 208.40 L 803.82 210.99 L 808.16 213.92 L 812.27 217.18 L 816.08 220.72 L 819.62 224.53 L 822.88 228.64 L 825.81 232.98 L 828.40 237.53 L 830.64 242.30 L 832.53 247.31 L 834.02 252.43 L 835.10 257.70 L 835.76 263.15 L 836.00 268.80 L 835.76 274.45 L 835.10 279.90 L 834.02 285.17 L 832.53 290.29 L 830.64 295.30 L 828.40 300.07 L 825.81 304.62 L 822.88 308.96 L 819.62 313.07 L 816.08 316.88 L 812.27 320.42 L 808.16 323.68 L 803.82 326.61 L 799.27 329.20 L 794.50 331.44 L 789.49 333.33 L 784.37 334.82 L 779.10 335.90 L 773.65 336.56 L 768.00 336.80 L 762.35 336.56 L 756.90 335.90 L 751.63 334.82 L 746.51 333.33 L 741.50 331.44 L 736.73 329.20 L 732.18 326.61 L 727.84 323.68 L 723.73 320.42 L 719.92 316.88 L 716.38 313.07 L 713.12 308.96 L 710.18 304.62 L 707.60 300.07 L 705.36 295.30 L 703.47 290.29 L 701.98 285.17 L 700.90 279.90 L 700.24 274.45 L 700.00 268.80 L 700.24 263.15 L 700.90 257.70 L 701.98 252.43 L 703.47 247.31 L 705.36 242.30 L 707.60 237.53 L 710.19 232.98 L 713.12 228.64 L 716.38 224.53 L 719.92 220.72 L 723.73 217.18 L 727.84 213.92 L 732.18 210.99 L 736.73 208.40 L 741.50 206.16 L 746.51 204.27 L 751.63 202.78 L 756.90 201.70 L 762.35 201.04 L 768.00 200.80 Z M 768.00 208.80 L 763.02 209.01 L 758.21 209.60 L 753.55 210.55 L 749.04 211.86 L 744.62 213.53 L 740.41 215.51 L 736.39 217.79 L 732.56 220.38 L 727.79 224.27 L 723.47 228.59 L 719.58 233.36 L 716.99 237.19 L 714.71 241.21 L 712.73 245.42 L 711.06 249.84 L 709.75 254.35 L 708.80 259.01 L 708.21 263.82 L 708.00 268.80 L 708.21 273.78 L 708.80 278.59 L 709.75 283.25 L 711.06 287.76 L 712.73 292.18 L 714.71 296.39 L 716.99 300.41 L 719.58 304.24 L 723.47 309.01 L 727.79 313.33 L 732.56 317.22 L 736.39 319.81 L 740.41 322.09 L 744.62 324.07 L 749.04 325.74 L 753.55 327.05 L 758.21 328.00 L 763.02 328.59 L 768.00 328.80 L 772.98 328.59 L 777.79 328.00 L 782.45 327.05 L 786.96 325.74 L 791.38 324.07 L 795.59 322.09 L 799.61 319.81 L 803.44 317.22 L 808.21 313.33 L 812.53 309.01 L 816.42 304.24 L 819.01 300.41 L 821.29 296.39 L 823.27 292.18 L 824.94 287.76 L 826.25 283.25 L 827.20 278.59 L 827.79 273.78 L 828.00 268.80 L 827.79 263.82 L 827.20 259.01 L 826.25 254.35 L 824.94 249.84 L 823.27 245.42 L 821.29 241.21 L 819.01 237.19 L 816.42 233.36 L 812.53 228.59 L 808.21 224.27 L 803.44 220.38 L 799.61 217.79 L 795.59 215.51 L 791.38 213.53 L 786.96 211.86 L 782.45 210.55 L 777.79 209.60 L 772.98 209.01 L 768.00 208.80 Z" fill="#dedaff" fill-rule="nonzero" group-id="1,3,4" id="椭圆形" node-id="18" stroke="none" target-height="135.99998" target-width="136" target-x="700" target-y="200.8"/><g node-id="128"><path d="M 772.00 140.80 L 772.00 908.80 L 764.00 908.80 L 764.00 140.80 Z" fill="#f7f7f7" fill-rule="nonzero" group-id="1,3,4,7" id="矩形" node-id="19" stroke="none" target-height="768" target-width="8" target-x="764" target-y="140.8"/></g><path d="M 64.00 392.80 L 960.00 392.80 L 960.00 400.80 L 64.00 400.80 Z" fill="#f7f7f7" fill-rule="nonzero" group-id="1,3,4" id="矩形" node-id="20" stroke="none" target-height="8" target-width="896" target-x="64" target-y="392.8"/><path d="M 784.00 396.80 L 783.73 399.72 L 783.00 402.40 L 781.82 404.88 L 780.23 407.12 L 778.32 409.03 L 776.08 410.62 L 773.60 411.80 L 770.92 412.53 L 768.00 412.80 L 765.08 412.53 L 762.40 411.80 L 759.92 410.62 L 757.68 409.03 L 755.77 407.12 L 754.18 404.88 L 753.00 402.40 L 752.27 399.72 L 752.00 396.80 L 752.27 393.88 L 753.00 391.20 L 754.18 388.72 L 755.77 386.48 L 757.68 384.57 L 759.92 382.98 L 762.40 381.80 L 765.08 381.07 L 768.00 380.80 L 770.92 381.07 L 773.60 381.80 L 776.08 382.98 L 778.32 384.57 L 780.23 386.48 L 781.82 388.72 L 783.00 391.20 L 783.73 393.88 L 784.00 396.80 Z" fill="#ffffff" fill-rule="nonzero" group-id="1,3,4" id="椭圆形" node-id="21" stroke="none" target-height="32" target-width="32" target-x="752" target-y="380.8"/><path d="M 64.00 264.80 L 960.00 264.80 L 960.00 272.80 L 64.00 272.80 Z" fill="#f7f7f7" fill-rule="nonzero" group-id="1,3,4" id="矩形" node-id="22" stroke="none" target-height="8" target-width="896" target-x="64" target-y="264.8"/><path d="M 784.00 268.80 L 783.73 271.72 L 783.00 274.40 L 781.82 276.88 L 780.23 279.12 L 778.32 281.03 L 776.08 282.62 L 773.60 283.80 L 770.92 284.53 L 768.00 284.80 L 765.08 284.53 L 762.40 283.80 L 759.92 282.62 L 757.68 281.03 L 755.77 279.12 L 754.18 276.88 L 753.00 274.40 L 752.27 271.72 L 752.00 268.80 L 752.27 265.88 L 753.00 263.20 L 754.18 260.72 L 755.77 258.48 L 757.68 256.57 L 759.92 254.98 L 762.40 253.80 L 765.08 253.07 L 768.00 252.80 L 770.92 253.07 L 773.60 253.80 L 776.08 254.98 L 778.32 256.57 L 780.23 258.48 L 781.82 260.72 L 783.00 263.20 L 783.73 265.88 L 784.00 268.80 Z" fill="#ffffff" fill-rule="nonzero" group-id="1,3,4" id="椭圆形" node-id="23" stroke="none" target-height="31.999985" target-width="32" target-x="752" target-y="252.8"/><path d="M 64.00 648.80 L 960.00 648.80 L 960.00 656.80 L 64.00 656.80 Z" fill="#f7f7f7" fill-rule="nonzero" group-id="1,3,4" id="矩形" node-id="24" stroke="none" target-height="8" target-width="896" target-x="64" target-y="648.8"/></g><g node-id="126"><path d="M 256.00 460.80 L 768.00 460.80 L 520.00 624.80 Z" fill="#160a45" fill-rule="nonzero" group-id="1,3,5" id="路径" node-id="26" stroke="none" target-height="164" target-width="512" target-x="256" target-y="460.80005"/><g node-id="129"><path d="M 319.60 204.44 L 703.60 204.44 L 703.60 656.44 L 319.60 656.44 Z" fill="#beb9ff" fill-rule="evenodd" group-id="1,3,5,8" id="矩形" node-id="28" stroke="none" target-height="452" target-width="383.99997" target-x="319.6" target-y="204.4436"/><path d="M 642.80 380.80 L 642.80 404.80 L 382.80 404.80 L 382.80 380.80 Z" fill="#806eff" fill-rule="evenodd" group-id="1,3,5,8" id="路径" node-id="29" stroke="none" target-height="24" target-width="260.00003" target-x="382.80002" target-y="380.80005"/><path d="M 642.00 326.80 L 642.00 350.80 L 382.80 350.80 L 382.80 326.80 Z" fill="#806eff" fill-rule="evenodd" group-id="1,3,5,8" id="路径" node-id="30" stroke="none" target-height="24" target-width="259.19998" target-x="382.80002" target-y="326.80005"/><path d="M 472.80 272.80 L 472.80 296.80 L 382.80 296.80 L 382.80 272.80 Z" fill="#806eff" fill-rule="evenodd" group-id="1,3,5,8" id="路径备份" node-id="31" stroke="none" target-height="24" target-width="89.99997" target-x="382.80002" target-y="272.80005"/><path d="M 382.80 458.80 L 543.40 458.80 L 543.40 434.80 L 382.80 434.80 Z" fill="#eeeeff" fill-rule="nonzero" group-id="1,3,5,8" id="矩形" node-id="32" stroke="none" target-height="24" target-width="160.6" target-x="382.80002" target-y="434.80005"/></g><g node-id="130"><path d="M 585.20 610.90 L 584.97 616.38 L 584.33 621.66 L 583.28 626.78 L 581.84 631.74 L 579.99 636.60 L 577.82 641.22 L 575.31 645.63 L 572.47 649.84 L 569.30 653.83 L 565.87 657.53 L 562.17 660.95 L 558.18 664.12 L 553.97 666.96 L 549.55 669.47 L 544.92 671.64 L 540.06 673.48 L 535.09 674.92 L 529.97 675.97 L 524.68 676.61 L 519.20 676.84 L 513.72 676.61 L 508.43 675.97 L 503.31 674.92 L 498.34 673.48 L 493.48 671.64 L 488.85 669.47 L 484.43 666.96 L 480.22 664.12 L 476.23 660.95 L 472.53 657.53 L 469.10 653.83 L 465.93 649.84 L 463.09 645.63 L 460.58 641.22 L 458.41 636.60 L 456.56 631.74 L 455.12 626.78 L 454.07 621.66 L 453.43 616.38 L 453.20 610.90 L 453.43 605.42 L 454.07 600.14 L 455.12 595.02 L 456.56 590.06 L 458.41 585.20 L 460.58 580.57 L 463.09 576.16 L 465.93 571.96 L 469.10 567.97 L 472.53 564.27 L 476.23 560.84 L 480.22 557.68 L 484.43 554.84 L 488.85 552.33 L 493.48 550.16 L 498.34 548.32 L 503.31 546.88 L 508.43 545.83 L 513.72 545.19 L 519.20 544.96 L 524.68 545.19 L 529.97 545.83 L 535.09 546.88 L 540.06 548.32 L 544.92 550.16 L 549.55 552.33 L 553.97 554.84 L 558.18 557.68 L 562.17 560.84 L 565.87 564.27 L 569.30 567.97 L 572.47 571.96 L 575.31 576.16 L 577.82 580.57 L 579.99 585.20 L 581.84 590.06 L 583.28 595.02 L 584.33 600.14 L 584.97 605.42 L 585.20 610.90 Z" fill="url(#linearGradient-1)" fill-opacity="0.50744045" fill-rule="nonzero" group-id="1,3,5,9" id="椭圆形" node-id="33" stroke="none" target-height="131.8811" target-width="132" target-x="453.2" target-y="544.9585"/></g><path d="M 256.00 460.80 L 512.00 618.80 L 738.60 501.00 L 768.00 716.80 L 256.00 716.80 Z" fill="#eeeeff" fill-opacity="0.79939497" fill-rule="nonzero" group-id="1,3,5" id="矩形" node-id="34" stroke="none" target-height="256" target-width="512" target-x="256" target-y="460.80005"/><path d="M 768.00 716.80 L 512.60 609.82 L 768.00 460.80 Z" fill="#806eff" fill-rule="evenodd" group-id="1,3,5,10" id="Fill-" node-id="35" stroke="none" target-height="256" target-width="255.40002" target-x="512.6" target-y="460.80005"/><path d="M 583.84 610.74 L 583.59 616.71 L 582.89 622.48 L 581.75 628.06 L 580.17 633.47 L 578.16 638.77 L 575.79 643.82 L 573.06 648.63 L 569.95 653.22 L 566.49 657.56 L 562.75 661.60 L 558.71 665.34 L 554.36 668.79 L 549.77 671.90 L 544.95 674.63 L 539.90 677.00 L 534.60 679.00 L 529.18 680.58 L 523.59 681.72 L 517.82 682.42 L 511.84 682.67 L 505.86 682.42 L 500.09 681.72 L 494.50 680.58 L 489.08 679.00 L 483.78 677.00 L 478.73 674.63 L 473.91 671.90 L 469.32 668.79 L 464.97 665.34 L 460.93 661.60 L 457.19 657.56 L 453.73 653.22 L 450.62 648.63 L 447.89 643.82 L 445.52 638.77 L 443.51 633.47 L 441.93 628.06 L 440.79 622.48 L 440.09 616.71 L 439.84 610.74 L 440.09 604.76 L 440.79 598.99 L 441.93 593.41 L 443.51 588.00 L 445.52 582.70 L 447.89 577.65 L 450.62 572.84 L 453.73 568.25 L 457.19 563.91 L 460.93 559.87 L 464.97 556.13 L 469.32 552.68 L 473.91 549.57 L 478.73 546.84 L 483.78 544.47 L 489.08 542.47 L 494.50 540.89 L 500.09 539.75 L 505.86 539.05 L 511.84 538.80 L 517.82 539.05 L 523.59 539.75 L 529.18 540.89 L 534.60 542.47 L 539.90 544.47 L 544.95 546.84 L 549.77 549.57 L 554.36 552.68 L 558.71 556.13 L 562.75 559.87 L 566.49 563.91 L 569.95 568.25 L 573.06 572.84 L 575.79 577.65 L 578.16 582.70 L 580.17 588.00 L 581.75 593.41 L 582.89 598.99 L 583.59 604.76 L 583.84 610.74 Z" fill="#ffffff" fill-rule="nonzero" group-id="1,3,5,11" id="椭圆形" node-id="37" stroke="none" target-height="143.87036" target-width="143.99997" target-x="439.84" target-y="538.80005"/><path d="M 537.27 572.34 L 537.27 586.53 L 500.60 586.53 L 500.60 603.64 L 537.27 603.64 L 537.27 617.83 L 500.60 617.83 L 500.60 634.94 L 486.41 634.94 L 486.41 572.34 L 537.27 572.34 Z M 486.41 649.14 L 537.27 649.14 L 537.27 634.94 L 486.41 634.94 L 486.41 649.14 Z" fill="url(#linearGradient-2)" fill-rule="nonzero" group-id="1,3,5,11" id="形状结合" node-id="38" stroke="none" target-height="76.79999" target-width="50.869293" target-x="486.40536" target-y="572.33527"/></g><g node-id="127"><path d="M 768.00 812.80 L 760.03 812.46 L 752.33 811.53 L 744.89 810.01 L 737.66 807.91 L 730.59 805.23 L 723.85 802.07 L 717.43 798.42 L 711.31 794.28 L 705.51 789.67 L 700.12 784.68 L 695.13 779.30 L 690.52 773.50 L 686.38 767.37 L 682.73 760.95 L 679.57 754.22 L 676.89 747.14 L 674.79 739.92 L 673.27 732.47 L 672.34 724.77 L 672.00 716.80 L 672.34 708.83 L 673.27 701.13 L 674.79 693.68 L 676.89 686.46 L 679.57 679.39 L 682.73 672.65 L 686.38 666.23 L 690.52 660.10 L 695.13 654.30 L 700.12 648.92 L 705.51 643.93 L 711.31 639.32 L 717.43 635.18 L 723.85 631.53 L 730.59 628.37 L 737.66 625.69 L 744.89 623.59 L 752.33 622.07 L 760.03 621.14 L 768.00 620.80 L 775.97 621.14 L 783.67 622.07 L 791.12 623.59 L 798.34 625.69 L 805.42 628.37 L 812.15 631.53 L 818.57 635.18 L 824.70 639.32 L 830.50 643.93 L 835.88 648.92 L 840.87 654.30 L 845.48 660.10 L 849.62 666.23 L 853.27 672.65 L 856.43 679.39 L 859.11 686.46 L 861.21 693.68 L 862.73 701.13 L 863.66 708.83 L 864.00 716.80 L 863.66 724.77 L 862.73 732.47 L 861.21 739.92 L 859.11 747.14 L 856.43 754.22 L 853.27 760.95 L 849.62 767.37 L 845.48 773.50 L 840.87 779.30 L 835.88 784.68 L 830.50 789.67 L 824.70 794.28 L 818.57 798.42 L 812.15 802.07 L 805.42 805.23 L 798.34 807.91 L 791.12 810.01 L 783.67 811.53 L 775.97 812.46 L 768.00 812.80" fill="#dedaff" fill-rule="evenodd" group-id="1,3,6" id="Fill" node-id="40" stroke="none" target-height="192" target-width="192" target-x="672" target-y="620.8"/><g node-id="133"><g node-id="134"><g clip-path="url(#mask-4)" group-id="1,3,6,12,13" node-id="120"><path d="M 816.50 747.15 L 816.50 751.35 L 765.01 765.05 L 719.50 753.06 L 719.50 690.89 L 755.06 681.30 L 774.96 675.94 L 782.14 674.02 L 784.51 673.39 L 786.68 673.06 L 789.51 673.12 L 792.52 673.61 L 796.15 674.61 L 800.51 676.34 L 804.23 678.36 L 807.39 680.67 L 810.19 683.38 L 812.45 686.31 L 814.21 689.47 L 815.47 692.87 L 816.24 696.44 L 816.50 700.23 L 816.29 703.95 L 815.72 707.04 L 814.85 709.61 L 813.71 711.74 L 812.17 713.65 L 810.34 715.18 L 808.18 716.37 L 805.63 717.21 L 805.54 717.24 L 785.55 722.54 L 785.55 738.84 L 816.50 747.15 Z M 807.79 725.98 L 808.13 725.90 L 811.41 724.81 L 814.30 723.39 L 816.85 721.64 L 819.08 719.55 L 821.03 717.10 L 822.60 714.44 L 823.85 711.47 L 824.78 708.15 L 825.38 704.42 L 825.60 700.23 L 825.31 695.65 L 824.40 691.13 L 822.85 686.62 L 821.30 683.43 L 819.35 680.36 L 817.00 677.41 L 814.19 674.58 L 811.16 672.11 L 807.66 669.86 L 803.62 667.83 L 799.01 666.04 L 793.91 664.68 L 789.47 664.06 L 785.59 664.08 L 782.18 664.66 L 780.88 665.00 L 775.38 666.47 L 761.29 670.26 L 747.63 673.94 L 710.40 683.99 L 710.40 760.00 L 765.02 774.40 L 825.60 758.28 L 825.60 740.23 L 790.05 730.69 L 807.79 725.98 Z" fill="#6448f4" fill-rule="nonzero" group-id="1,3,6,12,13,14" id="Fill-1" node-id="46" stroke="none" target-height="110.33777" target-width="115.200134" target-x="710.4" target-y="664.06226"/></g></g><path d="M 777.54 698.41 L 777.54 698.41 L 777.53 698.41 L 760.70 693.97 L 746.12 697.85 L 763.03 702.30 L 763.03 702.30 L 763.03 744.78 L 777.54 740.98 L 777.54 698.43 L 777.58 698.42 Z" fill="#6448f4" fill-rule="nonzero" group-id="1,3,6,12" id="Fill-3" node-id="47" stroke="none" target-height="50.817383" target-width="31.45288" target-x="746.1234" target-y="693.966"/><path d="M 743.12 741.16 L 743.12 698.68 L 728.60 702.48 L 728.60 745.03 L 728.57 745.04 L 728.60 745.05 L 728.60 745.06 L 728.62 745.05 L 745.44 749.50 L 760.02 745.61 Z" fill="#6448f4" fill-rule="nonzero" group-id="1,3,6,12" id="Fill-5" node-id="48" stroke="none" target-height="50.817383" target-width="31.45282" target-x="728.56934" target-y="698.67944"/></g></g></g></g></svg>