<?xml version="1.0" standalone="no"?><!DOCTYPE svg PUBLIC "-//W3C//DTD SVG 1.1//EN" "http://www.w3.org/Graphics/SVG/1.1/DTD/svg11.dtd"><svg height="1024" node-id="1" sillyvg="true" template-height="1024" template-width="1024" version="1.1" viewBox="0 0 1024 1024" width="1024" xmlns="http://www.w3.org/2000/svg" xmlns:xlink="http://www.w3.org/1999/xlink"><defs node-id="27"><linearGradient gradientUnits="userSpaceOnUse" id="paint0_linear_1_67" node-id="17" spreadMethod="pad" x1="552.645" x2="552.645" y1="79.1787" y2="653.409"><stop offset="0" stop-color="#83bcff"></stop><stop offset="0.494815" stop-color="#6fa2f7"></stop><stop offset="1" stop-color="#afcaf5"></stop></linearGradient><radialGradient cx="0" cy="0" fx="0" fy="0" gradientTransform="matrix(46.9803 0 0 46.9803 735.07 607.5)" gradientUnits="userSpaceOnUse" id="paint1_radial_1_67" node-id="21" r="1" rev="1" spreadMethod="pad"><stop offset="0" stop-color="#f2f7ff"></stop><stop offset="1" stop-color="#99c0ff"></stop></radialGradient><filter height="554.821" id="filter0_f_1_67" node-id="13" width="878.75" x="80.25" y="517.141"><feFlood color-interpolation-filters="sRGB" flood-color="#000000" flood-opacity="0" result="BackgroundImageFix"></feFlood><feBlend color-interpolation-filters="sRGB" in="SourceGraphic" in2="BackgroundImageFix" mode="normal" result="shape"></feBlend><feGaussianBlur color-interpolation-filters="sRGB" in="shape" result="effect1_foregroundBlur_1_67" stdDeviation="50 50"></feGaussianBlur></filter><clipPath id="clip0_1_67" node-id="24"><path d="M 0.00 0.00 L 1024.00 0.00 L 1024.00 1024.00 L 0.00 1024.00 Z" fill="#000000" fill-rule="nonzero" node-id="52" stroke="none" target-height="1024" target-width="1024" target-x="0" target-y="0"></path></clipPath></defs><g clip-path="url(#clip0_1_67)" id="sillyvg_g_0" node-id="56"><path d="M 180.25 742.17 L 578.24 971.96 L 859.00 705.15 L 402.83 617.14 L 180.25 742.17 Z" fill="#595656" fill-opacity="0.316569" fill-rule="evenodd" filter="url(#filter0_f_1_67)" group-id="1" node-id="60" stroke="none" target-height="354.82098" target-width="678.75" target-x="180.25" target-y="617.141"></path><path d="M 523.00 968.02 L 110.00 707.98 L 110.00 624.26 L 523.00 883.98 L 523.00 968.02 Z" fill="#b3cef6" fill-rule="nonzero" node-id="63" stroke="none" target-height="343.76202" target-width="413" target-x="110" target-y="624.263"></path><path d="M 523.00 968.02 L 936.00 707.98 L 936.00 624.26 L 523.00 883.98 L 523.00 968.02 Z" fill="#95afe7" fill-rule="nonzero" node-id="65" stroke="none" target-height="343.76202" target-width="413" target-x="523" target-y="624.263"></path><path d="M 936.00 624.07 L 523.00 884.21 L 110.00 624.07 L 523.00 401.98 L 936.00 624.07 Z" fill="#cadefe" fill-rule="nonzero" node-id="67" stroke="none" target-height="482.23798" target-width="826" target-x="110" target-y="401.976"></path><path d="M 578.78 653.41 L 585.42 652.88 L 593.61 651.16 L 603.59 647.96 L 613.21 643.99 L 623.92 638.72 L 635.84 631.98 L 647.30 624.64 L 659.33 616.04 L 671.98 606.07 L 684.10 595.51 L 696.29 583.79 L 708.53 570.80 L 720.09 557.22 L 731.23 542.56 L 741.96 526.77 L 749.38 514.58 L 756.30 501.82 L 762.77 488.49 L 768.73 474.54 L 773.97 460.43 L 778.48 445.77 L 782.28 430.56 L 785.36 414.73 L 787.52 398.89 L 788.73 382.52 L 789.00 365.51 L 788.29 347.88 L 786.56 330.54 L 783.64 312.59 L 779.49 293.95 L 774.02 274.59 L 768.70 259.46 L 762.53 244.88 L 755.54 230.80 L 747.72 217.22 L 739.09 204.08 L 729.84 191.53 L 719.97 179.55 L 709.42 168.12 L 698.30 157.24 L 686.74 147.02 L 674.79 137.47 L 662.38 128.54 L 649.51 120.23 L 636.47 112.67 L 623.23 105.86 L 609.79 99.78 L 596.00 94.36 L 582.27 89.78 L 568.58 86.01 L 554.90 83.04 L 541.01 80.86 L 527.40 79.58 L 514.05 79.18 L 500.92 79.61 L 487.80 81.01 L 475.14 83.33 L 462.91 86.59 L 451.06 90.77 L 422.50 102.19 L 390.81 115.36 L 374.94 122.49 L 360.11 129.72 L 346.05 137.36 L 334.44 144.72 L 327.27 150.12 L 321.85 155.13 L 317.86 159.83 L 316.54 162.51 L 316.29 164.99 L 316.98 167.47 L 318.82 170.06 L 322.14 173.01 L 327.21 176.26 L 334.49 179.81 L 346.23 184.41 L 361.47 189.43 L 377.77 194.21 L 396.32 199.34 L 435.63 209.90 L 455.90 215.57 L 475.95 221.53 L 495.63 227.94 L 513.85 234.61 L 525.70 239.50 L 536.37 244.48 L 545.91 249.53 L 555.08 255.24 L 562.62 260.96 L 568.69 266.69 L 572.69 271.56 L 575.64 276.45 L 577.65 281.40 L 578.78 286.49 L 580.77 307.34 L 581.89 328.48 L 582.13 349.91 L 581.62 371.36 L 580.55 392.66 L 578.90 413.86 L 575.68 445.36 L 571.89 475.54 L 563.94 532.20 L 560.41 558.38 L 557.84 581.08 L 556.64 595.93 L 556.21 608.63 L 556.40 619.42 L 557.16 627.72 L 558.50 634.51 L 560.28 640.02 L 562.44 644.46 L 564.79 647.65 L 567.53 650.09 L 570.72 651.87 L 574.41 652.99 L 578.78 653.41 Z" fill="url(#paint0_linear_1_67)" fill-rule="evenodd" node-id="69" stroke="none" target-height="574.2303" target-width="472.71402" target-x="316.288" target-y="79.1787"></path><path d="M 678.10 309.92 L 683.53 329.25 L 687.66 347.84 L 690.56 365.75 L 692.28 383.03 L 692.99 400.64 L 692.72 417.58 L 691.50 433.94 L 689.37 449.71 L 686.31 465.51 L 682.52 480.69 L 678.04 495.31 L 672.85 509.40 L 666.92 523.30 L 660.49 536.60 L 653.61 549.33 L 646.24 561.49 L 635.57 577.25 L 624.50 591.88 L 613.01 605.41 L 600.84 618.37 L 588.72 630.07 L 576.69 640.59 L 564.12 650.56 L 552.14 659.13 L 540.75 666.44 L 528.92 673.16 L 518.27 678.42 L 508.70 682.38 L 498.78 685.57 L 490.64 687.29 L 484.03 687.82 L 478.65 687.33 L 472.62 685.90 L 465.83 683.35 L 458.15 679.47 L 448.67 673.56 L 438.20 665.83 L 426.66 656.03 L 415.72 645.65 L 404.22 633.67 L 392.08 619.94 L 380.52 605.81 L 368.78 590.41 L 356.87 573.66 L 345.52 556.56 L 334.40 538.55 L 323.50 519.60 L 313.23 500.33 L 303.55 480.55 L 294.44 460.24 L 286.11 439.62 L 278.70 418.87 L 272.18 398.00 L 266.65 376.86 L 262.32 355.97 L 259.19 335.30 L 257.45 317.46 L 256.60 300.85 L 256.54 285.41 L 257.23 271.06 L 258.61 257.73 L 260.86 243.87 L 263.74 231.07 L 267.19 219.22 L 271.22 208.28 L 275.76 198.19 L 281.18 188.13 L 287.05 178.91 L 293.35 170.45 L 300.09 162.74 L 307.30 155.69 L 317.08 147.59 L 327.43 140.51 L 338.35 134.39 L 349.89 129.22 L 361.81 125.04 L 374.15 121.74 L 386.94 119.33 L 400.23 117.83 L 413.51 117.23 L 427.04 117.45 L 440.86 118.53 L 454.96 120.49 L 468.85 123.21 L 482.78 126.72 L 496.75 131.05 L 510.77 136.22 L 524.47 142.05 L 537.94 148.61 L 551.22 155.93 L 564.32 164.00 L 576.96 172.72 L 589.15 182.08 L 600.93 192.14 L 612.27 202.90 L 623.01 214.22 L 633.08 226.14 L 642.52 238.67 L 651.31 251.86 L 659.28 265.50 L 666.40 279.70 L 672.66 294.50 L 678.10 309.92 Z M 559.05 374.90 L 557.00 380.84 L 554.54 386.44 L 551.64 391.78 L 548.36 396.73 L 544.70 401.35 L 540.68 405.55 L 536.31 409.34 L 531.64 412.71 L 528.29 414.74 L 524.81 416.56 L 521.21 418.16 L 517.47 419.54 L 513.67 420.69 L 509.76 421.62 L 505.75 422.31 L 501.69 422.78 L 497.56 423.00 L 493.38 423.00 L 489.14 422.74 L 484.88 422.27 L 480.59 421.55 L 476.30 420.62 L 472.00 419.44 L 467.71 418.05 L 463.44 416.42 L 459.18 414.59 L 454.98 412.54 L 450.81 410.28 L 446.71 407.81 L 442.68 405.15 L 438.73 402.29 L 434.87 399.25 L 431.08 396.04 L 427.42 392.65 L 423.87 389.10 L 420.45 385.41 L 417.17 381.55 L 414.02 377.58 L 411.01 373.47 L 408.15 369.25 L 405.47 364.92 L 402.95 360.50 L 400.59 356.01 L 398.44 351.42 L 396.45 346.79 L 394.65 342.09 L 393.06 337.37 L 391.66 332.60 L 390.47 327.84 L 389.47 323.05 L 388.68 318.27 L 388.10 313.51 L 387.73 308.80 L 387.57 304.11 L 387.62 299.47 L 387.88 294.90 L 388.35 290.39 L 389.04 285.99 L 389.93 281.66 L 391.03 277.46 L 392.32 273.37 L 393.82 269.40 L 395.52 265.56 L 397.41 261.86 L 399.47 258.33 L 401.74 254.96 L 404.16 251.75 L 406.77 248.73 L 409.54 245.88 L 412.46 243.24 L 415.54 240.79 L 418.76 238.55 L 422.12 236.50 L 425.61 234.69 L 429.22 233.08 L 432.93 231.70 L 436.75 230.56 L 440.65 229.63 L 444.65 228.93 L 448.71 228.48 L 452.84 228.26 L 457.02 228.26 L 461.26 228.51 L 465.52 228.98 L 469.81 229.69 L 474.11 230.63 L 478.42 231.81 L 482.71 233.20 L 486.99 234.82 L 491.22 236.66 L 495.43 238.71 L 499.59 240.97 L 503.69 243.44 L 507.73 246.10 L 511.68 248.95 L 515.55 251.99 L 519.32 255.21 L 522.98 258.60 L 526.53 262.15 L 529.95 265.85 L 533.25 269.69 L 536.40 273.67 L 539.39 277.79 L 542.25 282.01 L 545.62 287.50 L 548.74 293.13 L 551.55 298.91 L 554.08 304.78 L 556.29 310.74 L 558.21 316.73 L 559.79 322.78 L 561.06 328.83 L 561.98 334.88 L 562.58 340.90 L 562.83 346.84 L 562.74 352.71 L 562.33 358.47 L 561.57 364.10 L 560.48 369.59 L 559.05 374.90 Z M 537.29 285.23 L 531.88 277.50 L 526.02 270.32 L 519.72 263.69 L 512.96 257.55 L 505.12 251.50 L 497.15 246.39 L 489.03 242.17 L 480.74 238.80 L 472.19 236.26 L 463.91 234.72 L 455.86 234.16 L 448.00 234.51 L 440.88 235.63 L 434.22 237.51 L 427.93 240.14 L 421.99 243.51 L 416.50 247.59 L 411.55 252.26 L 407.12 257.61 L 403.19 263.67 L 399.67 270.72 L 396.92 278.31 L 394.96 286.52 L 393.78 295.38 L 393.48 304.34 L 394.04 313.49 L 395.45 322.86 L 397.79 332.49 L 400.63 341.17 L 404.11 349.65 L 408.27 357.93 L 413.13 366.02 L 418.55 373.74 L 424.40 380.91 L 430.68 387.56 L 437.44 393.70 L 445.28 399.75 L 453.25 404.86 L 461.37 409.08 L 469.67 412.45 L 478.22 414.99 L 486.50 416.51 L 494.54 417.09 L 502.40 416.75 L 509.52 415.60 L 516.21 413.72 L 522.47 411.11 L 528.41 407.72 L 533.90 403.67 L 538.85 398.98 L 543.29 393.63 L 547.22 387.58 L 550.73 380.52 L 553.49 372.93 L 555.46 364.74 L 556.62 355.88 L 556.93 346.91 L 556.38 337.76 L 554.95 328.40 L 552.63 318.74 L 549.79 310.07 L 546.29 301.61 L 542.13 293.33 L 537.29 285.23 Z" fill="#5da4ff" fill-rule="evenodd" node-id="71" stroke="none" target-height="570.589" target-width="436.447" target-x="256.543" target-y="117.231"></path><path d="M 560.81 366.79 L 552.15 363.31 L 543.63 358.98 L 535.37 353.83 L 527.42 347.91 L 519.85 341.26 L 512.76 333.98 L 506.23 326.10 L 500.26 317.73 L 497.08 312.62 L 494.14 307.41 L 491.44 302.06 L 489.00 296.63 L 486.81 291.12 L 484.90 285.56 L 483.25 279.96 L 481.90 274.33 L 480.83 268.71 L 480.05 263.10 L 479.56 257.54 L 479.36 252.01 L 479.47 246.56 L 479.87 241.21 L 480.54 235.96 L 481.52 230.85 L 472.82 228.28 L 464.12 226.63 L 455.52 225.92 L 447.10 226.14 L 438.93 227.30 L 431.10 229.38 L 423.67 232.37 L 416.75 236.25 L 413.48 238.50 L 410.36 240.96 L 407.39 243.62 L 404.58 246.48 L 401.94 249.51 L 399.47 252.73 L 397.17 256.12 L 395.07 259.67 L 393.15 263.39 L 391.45 267.23 L 389.93 271.21 L 388.60 275.32 L 387.50 279.56 L 386.59 283.89 L 385.90 288.33 L 385.42 292.84 L 385.14 297.44 L 385.09 302.10 L 385.25 306.81 L 385.63 311.55 L 386.23 316.32 L 387.03 321.12 L 388.02 325.92 L 389.26 330.72 L 390.67 335.50 L 392.30 340.25 L 394.11 344.96 L 396.12 349.61 L 398.31 354.21 L 400.70 358.74 L 403.26 363.18 L 405.99 367.53 L 408.87 371.77 L 411.94 375.88 L 415.12 379.88 L 418.48 383.74 L 421.94 387.46 L 425.54 391.02 L 429.25 394.43 L 433.09 397.65 L 437.01 400.72 L 441.03 403.58 L 445.10 406.26 L 449.27 408.72 L 453.49 411.01 L 457.77 413.07 L 462.08 414.90 L 466.41 416.53 L 470.77 417.94 L 475.14 419.12 L 479.50 420.06 L 483.85 420.77 L 488.18 421.26 L 492.46 421.49 L 496.71 421.51 L 500.90 421.28 L 505.03 420.82 L 509.09 420.12 L 513.05 419.19 L 516.93 418.03 L 520.70 416.66 L 524.36 415.05 L 527.89 413.22 L 531.30 411.17 L 536.04 407.80 L 540.46 403.98 L 544.54 399.76 L 548.27 395.12 L 551.59 390.15 L 554.52 384.79 L 557.02 379.16 L 559.12 373.20 L 560.81 366.79 Z" fill="#b3cefa" fill-rule="evenodd" node-id="73" stroke="none" target-height="195.589" target-width="175.71704" target-x="385.089" target-y="225.924"></path><path d="M 789.00 607.50 C 789.00 627.11 773.11 643.00 753.50 643.00 C 733.89 643.00 718.00 627.11 718.00 607.50 C 718.00 587.89 733.89 572.00 753.50 572.00 C 773.11 572.00 789.00 587.89 789.00 607.50 Z" fill="url(#paint1_radial_1_67)" fill-rule="nonzero" node-id="75" stroke="none" target-height="71" target-width="71" target-x="718" target-y="572"></path></g></svg>