<svg t="1710261095803" class="icon" viewBox="0 0 1024 1024" version="1.1" xmlns="http://www.w3.org/2000/svg" p-id="5091" width="200" height="200"><path d="M998.4 422.4c0-23.808-10.432-56.512-51.84-89.216 32.64-25.472 51.84-55.488 51.84-89.984 0-124.736-250.624-192-486.4-192S25.6 118.464 25.6 243.2c0 34.432 19.2 64.512 51.84 89.984C35.904 366.016 25.6 398.784 25.6 422.4c0 34.432 19.2 64.512 51.84 89.984C35.904 545.216 25.6 577.984 25.6 601.6c0 34.432 19.2 64.512 51.84 89.984C36.032 724.288 25.6 756.992 25.6 780.8c0 124.672 250.624 192 486.4 192s486.4-67.328 486.4-192c0-23.808-10.432-56.512-51.84-89.216 32.64-25.472 51.84-55.488 51.84-89.984 0-23.808-10.432-56.512-51.84-89.216 32.64-25.472 51.84-55.488 51.84-89.984zM512 102.4c249.088 0 435.2 74.368 435.2 140.8S761.088 384 512 384 76.8 309.632 76.8 243.2 262.912 102.4 512 102.4z m435.2 678.4c0 66.496-186.112 140.8-435.2 140.8s-435.2-74.304-435.2-140.8c0-19.52 16.832-40.448 47.552-60.096C218.944 768.576 368.192 793.6 512 793.6s292.992-25.088 387.648-72.896c30.72 19.648 47.552 40.576 47.552 60.096z m0-179.2c0 66.496-186.112 140.8-435.2 140.8s-435.2-74.304-435.2-140.8c0-19.392 16.832-40.448 47.552-60.096C218.944 589.376 368.192 614.4 512 614.4s292.992-25.088 387.648-72.896c30.72 19.648 47.552 40.64 47.552 60.096zM512 563.2c-249.088 0-435.2-74.368-435.2-140.8 0-19.392 16.832-40.448 47.552-60.096C218.944 410.176 368.192 435.2 512 435.2s292.992-25.088 387.648-72.896c30.72 19.648 47.552 40.576 47.552 60.096 0 66.432-186.112 140.8-435.2 140.8z" p-id="5092" fill="#316BFF"></path></svg>
