<svg t="1706466544713" class="icon" viewBox="0 0 1024 1024" version="1.1" xmlns="http://www.w3.org/2000/svg" p-id="9616" width="200" height="200"><path d="M512 475.733333c-243.2 0-426.666667-83.2-426.666667-194.133333S268.8 85.333333 512 85.333333s426.666667 83.2 426.666667 194.133334-183.466667 196.266667-426.666667 196.266666zM512 149.333333c-206.933333 0-362.666667 68.266667-362.666667 130.133334s155.733333 130.133333 362.666667 130.133333 362.666667-70.4 362.666667-130.133333S718.933333 149.333333 512 149.333333z" fill="#d4237a" p-id="9617"></path><path d="M512 706.133333c-243.2 0-426.666667-83.2-426.666667-194.133333 0-57.6 46.933333-106.666667 132.266667-142.933333l25.6 57.6C183.466667 452.266667 149.333333 484.266667 149.333333 512c0 61.866667 155.733333 130.133333 362.666667 130.133333s362.666667-68.266667 362.666667-130.133333c0-29.866667-36.266667-61.866667-96-85.333333l23.466666-59.733334c87.466667 36.266667 134.4 87.466667 134.4 145.066667 2.133333 110.933333-181.333333 194.133333-424.533333 194.133333z" fill="#d4237a" p-id="9618"></path><path d="M512 938.666667c-243.2 0-426.666667-83.2-426.666667-194.133334 0-59.733333 51.2-113.066667 145.066667-149.333333l23.466667 59.733333c-64 25.6-104.533333 59.733333-104.533334 89.6 0 61.866667 155.733333 130.133333 362.666667 130.133334s362.666667-68.266667 362.666667-130.133334c0-29.866667-38.4-61.866667-102.4-87.466666l23.466666-57.6c91.733333 36.266667 142.933333 89.6 142.933334 147.2 0 108.8-183.466667 192-426.666667 192z" fill="#d4237a" p-id="9619"></path></svg>