<?xml version="1.0" standalone="no"?><!DOCTYPE svg PUBLIC "-//W3C//DTD SVG 1.1//EN" "http://www.w3.org/Graphics/SVG/1.1/DTD/svg11.dtd"><svg height="300" node-id="1" sillyvg="true" template-height="300" template-width="300" version="1.1" viewBox="0 0 300 300" width="300" xmlns="http://www.w3.org/2000/svg" xmlns:xlink="http://www.w3.org/1999/xlink"><defs node-id="235"><linearGradient gradientUnits="userSpaceOnUse" id="SVGID_1_" node-id="7" spreadMethod="pad" x1="39.7294" x2="32.2829" y1="189.7312" y2="193.1044"><stop offset="0.00502513" stop-color="#5298ef"></stop><stop offset="1" stop-color="#73b0f1" stop-opacity="0"></stop></linearGradient><linearGradient gradientUnits="userSpaceOnUse" id="SVGID_2_" node-id="11" spreadMethod="pad" x1="35.7755" x2="49.5796" y1="184.9616" y2="184.9616"><stop offset="0" stop-color="#6dacef"></stop><stop offset="1" stop-color="#97c9fe"></stop></linearGradient><linearGradient gradientUnits="userSpaceOnUse" id="SVGID_3_" node-id="15" spreadMethod="pad" x1="42.7922" x2="49.3809" y1="187.9022" y2="182.424"><stop offset="0.00337838" stop-color="#8ebef4"></stop><stop offset="1" stop-color="#b4d8fa"></stop></linearGradient><linearGradient gradientUnits="userSpaceOnUse" id="SVGID_4_" node-id="19" spreadMethod="pad" x1="35.747" x2="49.7386" y1="178.7594" y2="178.7594"><stop offset="0" stop-color="#97c3f4"></stop><stop offset="1" stop-color="#e8f1fa"></stop></linearGradient><linearGradient gradientTransform="matrix(0.5 0.866 -0.866 0.5 1402.085 1041.4088)" gradientUnits="userSpaceOnUse" id="SVGID_5_" node-id="23" spreadMethod="pad" x1="-1428.9304" x2="-1428.9304" y1="757.6027" y2="774.5121"><stop offset="0.00337838" stop-color="#75b2ff"></stop><stop offset="1" stop-color="#75b2ff" stop-opacity="0"></stop></linearGradient><linearGradient gradientTransform="matrix(0.4772 0.8265 -0.7164 0.4136 1135.6169 1183.2845)" gradientUnits="userSpaceOnUse" id="SVGID_6_" node-id="27" spreadMethod="pad" x1="-1481.4531" x2="-1481.4531" y1="552.7504" y2="560.0612"><stop offset="0.00337838" stop-color="#75b2ff"></stop><stop offset="1" stop-color="#75b2ff" stop-opacity="0"></stop></linearGradient><linearGradient gradientUnits="userSpaceOnUse" id="SVGID_7_" node-id="33" spreadMethod="pad" x1="274.7427" x2="267.2962" y1="191.5406" y2="194.9138"><stop offset="0.00502513" stop-color="#5298ef"></stop><stop offset="1" stop-color="#73b0f1" stop-opacity="0"></stop></linearGradient><linearGradient gradientUnits="userSpaceOnUse" id="SVGID_8_" node-id="37" spreadMethod="pad" x1="270.7888" x2="284.5929" y1="186.771" y2="186.771"><stop offset="0" stop-color="#6dacef"></stop><stop offset="1" stop-color="#97c9fe"></stop></linearGradient><linearGradient gradientUnits="userSpaceOnUse" id="SVGID_9_" node-id="41" spreadMethod="pad" x1="277.8055" x2="284.3942" y1="189.7116" y2="184.2334"><stop offset="0.00337838" stop-color="#8ebef4"></stop><stop offset="1" stop-color="#b4d8fa"></stop></linearGradient><linearGradient gradientUnits="userSpaceOnUse" id="SVGID_10_" node-id="45" spreadMethod="pad" x1="270.7603" x2="284.7519" y1="180.5688" y2="180.5688"><stop offset="0" stop-color="#97c3f4"></stop><stop offset="1" stop-color="#e8f1fa"></stop></linearGradient><linearGradient gradientTransform="matrix(0.5 0.866 -0.866 0.5 1402.085 1041.4088)" gradientUnits="userSpaceOnUse" id="SVGID_11_" node-id="49" spreadMethod="pad" x1="-1309.8517" x2="-1309.8517" y1="554.9769" y2="571.8865"><stop offset="0.00337838" stop-color="#75b2ff"></stop><stop offset="1" stop-color="#75b2ff" stop-opacity="0"></stop></linearGradient><linearGradient gradientTransform="matrix(0.4772 0.8265 -0.7164 0.4136 1135.6169 1183.2845)" gradientUnits="userSpaceOnUse" id="SVGID_12_" node-id="53" spreadMethod="pad" x1="-1356.6895" x2="-1356.6895" y1="307.8089" y2="315.1197"><stop offset="0.00337838" stop-color="#75b2ff"></stop><stop offset="1" stop-color="#75b2ff" stop-opacity="0"></stop></linearGradient><linearGradient gradientUnits="userSpaceOnUse" id="SVGID_13_" node-id="58" spreadMethod="pad" x1="145.4906" x2="146.528" y1="267.411" y2="128.7381"><stop offset="0" stop-color="#3282ed"></stop><stop offset="1" stop-color="#60a2f0"></stop></linearGradient><linearGradient gradientUnits="userSpaceOnUse" id="SVGID_14_" node-id="62" spreadMethod="pad" x1="52.3948" x2="239.6081" y1="183.722" y2="183.722"><stop offset="0" stop-color="#7ab4f4"></stop><stop offset="1" stop-color="#49a5fa"></stop></linearGradient><linearGradient gradientUnits="userSpaceOnUse" id="SVGID_15_" node-id="67" spreadMethod="pad" x1="146.0051" x2="146.0051" y1="223.5985" y2="83.5273"><stop offset="0" stop-color="#3282ed"></stop><stop offset="0.5145" stop-color="#4aa8ef"></stop><stop offset="1" stop-color="#60a2f0"></stop></linearGradient><linearGradient gradientUnits="userSpaceOnUse" id="SVGID_16_" node-id="72" spreadMethod="pad" x1="-6.8594" x2="185.4155" y1="259.9098" y2="109.1329"><stop offset="0" stop-color="#3282ed"></stop><stop offset="1" stop-color="#60a2f0"></stop></linearGradient><linearGradient gradientUnits="userSpaceOnUse" id="SVGID_17_" node-id="76" spreadMethod="pad" x1="73.749" x2="93.2027" y1="179.9518" y2="164.6967"><stop offset="0" stop-color="#3282ed"></stop><stop offset="1" stop-color="#60a2f0"></stop></linearGradient><linearGradient gradientUnits="userSpaceOnUse" id="SVGID_18_" node-id="81" spreadMethod="pad" x1="65" x2="155.9836" y1="90.6842" y2="90.6842"><stop offset="0" stop-color="#4c9cf4"></stop><stop offset="1" stop-color="#acd4fa"></stop></linearGradient><linearGradient gradientUnits="userSpaceOnUse" id="SVGID_19_" node-id="85" spreadMethod="pad" x1="76.8641" x2="170.4546" y1="97.1751" y2="97.1751"><stop offset="0" stop-color="#4c9cf4"></stop><stop offset="1" stop-color="#acd4fa"></stop></linearGradient><linearGradient gradientUnits="userSpaceOnUse" id="SVGID_20_" node-id="89" spreadMethod="pad" x1="79.5849" x2="170.5685" y1="97.7718" y2="97.7718"><stop offset="0.00337838" stop-color="#a1c8f4"></stop><stop offset="1" stop-color="#dfedfa"></stop></linearGradient><linearGradient gradientUnits="userSpaceOnUse" id="SVGID_21_" node-id="93" spreadMethod="pad" x1="79.5849" x2="170.5685" y1="67.3535" y2="67.3535"><stop offset="0.00337838" stop-color="#a1c8f4"></stop><stop offset="1" stop-color="#dfedfa"></stop></linearGradient><linearGradient gradientUnits="userSpaceOnUse" id="SVGID_22_" node-id="140" spreadMethod="pad" x1="125.823" x2="146.0702" y1="99.1137" y2="99.1137"><stop offset="0" stop-color="#6dacef"></stop><stop offset="1" stop-color="#97c9fe"></stop></linearGradient><linearGradient gradientUnits="userSpaceOnUse" id="SVGID_23_" node-id="144" spreadMethod="pad" x1="125.823" x2="146.0702" y1="116.8147" y2="116.8147"><stop offset="0" stop-color="#6dacef"></stop><stop offset="1" stop-color="#97c9fe"></stop></linearGradient><linearGradient gradientUnits="userSpaceOnUse" id="SVGID_24_" node-id="149" spreadMethod="pad" x1="-2025.7301" x2="-2031.9901" y1="156.0122" y2="168.8127"><stop offset="0" stop-color="#aecdff"></stop><stop offset="0.0562" stop-color="#b6d2ff"></stop><stop offset="0.3126" stop-color="#d6e6ff"></stop><stop offset="0.5607" stop-color="#edf4ff"></stop><stop offset="0.7947" stop-color="#fafcff"></stop><stop offset="1" stop-color="#ffffff"></stop></linearGradient><linearGradient gradientTransform="matrix(-0.7882 0.6154 0.6154 0.7882 1829.4399 -805.5377)" gradientUnits="userSpaceOnUse" id="SVGID_25_" node-id="157" spreadMethod="pad" x1="1875.6643" x2="1889.6787" y1="-284.4777" y2="-255.821"><stop offset="0" stop-color="#aecdff"></stop><stop offset="0.0562" stop-color="#b6d2ff"></stop><stop offset="0.3126" stop-color="#d6e6ff"></stop><stop offset="0.5607" stop-color="#edf4ff"></stop><stop offset="0.7947" stop-color="#fafcff"></stop><stop offset="1" stop-color="#ffffff"></stop></linearGradient><linearGradient gradientTransform="matrix(-0.9999 -0.013 -0.013 0.9999 2200.6038 18.264)" gradientUnits="userSpaceOnUse" id="SVGID_26_" node-id="168" spreadMethod="pad" x1="2019.4987" x2="2039.5404" y1="126.4417" y2="126.4417"><stop offset="0" stop-color="#3282ed"></stop><stop offset="1" stop-color="#60a2f0"></stop></linearGradient><linearGradient gradientUnits="userSpaceOnUse" id="SVGID_27_" node-id="174" spreadMethod="pad" x1="154.244" x2="180.7997" y1="107.3386" y2="107.3386"><stop offset="0" stop-color="#3282ed"></stop><stop offset="1" stop-color="#60a2f0"></stop></linearGradient><linearGradient gradientUnits="userSpaceOnUse" id="SVGID_28_" node-id="179" spreadMethod="pad" x1="-2017.8394" x2="-2020.3762" y1="110.5374" y2="110.5374"><stop offset="0" stop-color="#00dbff"></stop><stop offset="0.1675" stop-color="#00bcec"></stop><stop offset="0.5349" stop-color="#016cba"></stop><stop offset="1" stop-color="#010077"></stop></linearGradient><linearGradient gradientUnits="userSpaceOnUse" id="SVGID_29_" node-id="185" spreadMethod="pad" x1="-2020.6976" x2="-2044.1107" y1="108.4146" y2="108.4146"><stop offset="0" stop-color="#00dbff"></stop><stop offset="0.1675" stop-color="#00bcec"></stop><stop offset="0.5349" stop-color="#016cba"></stop><stop offset="1" stop-color="#010077"></stop></linearGradient><linearGradient gradientUnits="userSpaceOnUse" id="SVGID_30_" node-id="197" spreadMethod="pad" x1="-2035.1042" x2="-2049.1187" y1="126.9972" y2="155.6539"><stop offset="0" stop-color="#aecdff"></stop><stop offset="0.0562" stop-color="#b6d2ff"></stop><stop offset="0.3126" stop-color="#d6e6ff"></stop><stop offset="0.5607" stop-color="#edf4ff"></stop><stop offset="0.7947" stop-color="#fafcff"></stop><stop offset="1" stop-color="#ffffff"></stop></linearGradient><linearGradient gradientUnits="userSpaceOnUse" id="SVGID_31_" node-id="205" spreadMethod="pad" x1="-2022.3883" x2="-2026.9993" y1="135.1478" y2="144.5763"><stop offset="0" stop-color="#3282ed"></stop><stop offset="1" stop-color="#60a2f0"></stop></linearGradient><linearGradient gradientUnits="userSpaceOnUse" id="SVGID_32_" node-id="210" spreadMethod="pad" x1="242.6913" x2="260.3827" y1="57.6734" y2="57.6734"><stop offset="0" stop-color="#6dacef"></stop><stop offset="1" stop-color="#97c9fe"></stop></linearGradient><linearGradient gradientUnits="userSpaceOnUse" id="SVGID_33_" node-id="214" spreadMethod="pad" x1="225" x2="242.7106" y1="57.6573" y2="57.6573"><stop offset="0" stop-color="#3282ed"></stop><stop offset="1" stop-color="#60a2f0"></stop></linearGradient><linearGradient gradientUnits="userSpaceOnUse" id="SVGID_34_" node-id="218" spreadMethod="pad" x1="225.0032" x2="260.382" y1="41.6375" y2="41.6375"><stop offset="0" stop-color="#7ab4f4"></stop><stop offset="1" stop-color="#dfedfa"></stop></linearGradient><linearGradient gradientUnits="userSpaceOnUse" id="SVGID_35_" node-id="222" spreadMethod="pad" x1="235.8256" x2="235.8256" y1="78.2344" y2="108.5734"><stop offset="0" stop-color="#6dacef"></stop><stop offset="1" stop-color="#97c9fe"></stop></linearGradient><linearGradient gradientUnits="userSpaceOnUse" id="SVGID_36_" node-id="226" spreadMethod="pad" x1="246.1656" x2="246.1656" y1="87.8024" y2="118.1414"><stop offset="0" stop-color="#6dacef"></stop><stop offset="1" stop-color="#97c9fe"></stop></linearGradient><linearGradient gradientUnits="userSpaceOnUse" id="SVGID_37_" node-id="230" spreadMethod="pad" x1="251.775" x2="251.775" y1="75.1031" y2="105.4421"><stop offset="0" stop-color="#6dacef"></stop><stop offset="1" stop-color="#97c9fe"></stop></linearGradient></defs><g node-id="751"><g node-id="759"><g node-id="771"><path d="M 28.84 191.89 L 35.94 188.13 L 42.84 191.26 L 35.62 194.90 Z" fill="url(#SVGID_1_)" fill-opacity="0.3" fill-rule="nonzero" group-id="1,9,21" node-id="501" stroke="none" target-height="6.769989" target-width="14" target-x="28.84" target-y="188.13"></path></g><path d="M 49.58 182.87 L 42.85 191.28 L 35.85 188.21 L 35.78 178.64 L 49.58 180.33 Z" fill="url(#SVGID_2_)" fill-rule="nonzero" group-id="1,9" node-id="504" stroke="none" target-height="12.639999" target-width="13.800003" target-x="35.78" target-y="178.64"></path><path d="M 42.85 191.28 L 42.85 182.16 L 49.30 178.81 L 49.74 178.85 L 49.75 187.81 Z" fill="url(#SVGID_3_)" fill-rule="nonzero" group-id="1,9" node-id="506" stroke="none" target-height="12.470001" target-width="6.9000015" target-x="42.85" target-y="178.81"></path><path d="M 35.75 178.63 L 42.58 175.19 L 49.74 178.85 L 42.85 182.33 Z" fill="url(#SVGID_4_)" fill-rule="nonzero" group-id="1,9" node-id="508" stroke="none" target-height="7.1399994" target-width="13.990002" target-x="35.75" target-y="175.19"></path></g><g node-id="760"><path d="M 15.39 192.08 L 15.39 192.08 C 15.22 191.79 15.32 191.41 15.61 191.24 L 32.59 181.44 C 32.88 181.27 33.26 181.37 33.43 181.66 L 33.43 181.66 C 33.60 181.95 33.50 182.33 33.21 182.50 L 16.23 192.30 C 15.94 192.47 15.56 192.37 15.39 192.08 Z" fill="url(#SVGID_5_)" fill-opacity="0.5" fill-rule="nonzero" group-id="1,10" node-id="513" stroke="none" target-height="11.199997" target-width="18.379997" target-x="15.22" target-y="181.27"></path></g><path d="M 26.98 190.95 L 26.90 190.82 C 26.76 190.58 26.84 190.27 27.09 190.13 L 32.59 186.77 C 32.83 186.63 33.14 186.71 33.28 186.96 L 33.36 187.09 C 33.50 187.33 33.42 187.64 33.17 187.78 L 27.67 191.14 C 27.43 191.28 27.12 191.19 26.98 190.95 Z" fill="url(#SVGID_6_)" fill-opacity="0.5" fill-rule="nonzero" group-id="1,11" node-id="518" stroke="none" target-height="4.649994" target-width="6.74" target-x="26.76" target-y="186.63"></path></g><g node-id="752"><g node-id="762"><g node-id="772"><path d="M 263.85 193.70 L 270.95 189.94 L 277.85 193.07 L 270.64 196.71 Z" fill="url(#SVGID_7_)" fill-opacity="0.3" fill-rule="nonzero" group-id="2,12,22" node-id="527" stroke="none" target-height="6.7700043" target-width="14" target-x="263.85" target-y="189.94"></path></g><path d="M 284.59 184.68 L 277.86 193.09 L 270.86 190.02 L 270.79 180.45 L 284.59 182.14 Z" fill="url(#SVGID_8_)" fill-rule="nonzero" group-id="2,12" node-id="530" stroke="none" target-height="12.639999" target-width="13.799988" target-x="270.79" target-y="180.45"></path><path d="M 277.86 193.09 L 277.86 183.97 L 284.31 180.62 L 284.75 180.66 L 284.77 189.62 Z" fill="url(#SVGID_9_)" fill-rule="nonzero" group-id="2,12" node-id="532" stroke="none" target-height="12.470001" target-width="6.9100037" target-x="277.86" target-y="180.62"></path><path d="M 270.76 180.44 L 277.59 177.00 L 284.75 180.66 L 277.86 184.14 Z" fill="url(#SVGID_10_)" fill-rule="nonzero" group-id="2,12" node-id="534" stroke="none" target-height="7.1399994" target-width="13.98999" target-x="270.76" target-y="177"></path></g><g node-id="763"><path d="M 250.41 193.89 L 250.41 193.89 C 250.24 193.60 250.34 193.22 250.63 193.05 L 267.61 183.25 C 267.90 183.08 268.28 183.18 268.45 183.47 L 268.45 183.47 C 268.62 183.76 268.52 184.14 268.23 184.31 L 251.25 194.11 C 250.95 194.28 250.58 194.18 250.41 193.89 Z" fill="url(#SVGID_11_)" fill-opacity="0.5" fill-rule="nonzero" group-id="2,13" node-id="539" stroke="none" target-height="11.199997" target-width="18.37999" target-x="250.24" target-y="183.08"></path></g><path d="M 262.00 192.76 L 261.92 192.63 C 261.78 192.39 261.86 192.08 262.11 191.94 L 267.61 188.58 C 267.85 188.44 268.16 188.52 268.30 188.77 L 268.38 188.90 C 268.52 189.14 268.44 189.45 268.19 189.59 L 262.69 192.95 C 262.45 193.09 262.14 193.00 262.00 192.76 Z" fill="url(#SVGID_12_)" fill-opacity="0.5" fill-rule="nonzero" group-id="2,14" node-id="544" stroke="none" target-height="4.649994" target-width="6.73999" target-x="261.78" target-y="188.44"></path></g><g node-id="753"><path d="M 108.24 253.63 L 61.47 226.63 C 55.09 222.95 52.02 218.16 52.43 213.73 L 52.43 184.07 C 52.09 180.30 54.18 176.65 58.81 173.97 L 129.10 133.39 C 138.61 127.90 155.23 128.59 166.21 134.93 L 230.51 172.06 C 236.50 175.52 239.57 179.94 239.59 184.14 L 239.61 184.14 L 239.61 215.02 L 239.59 215.02 C 239.76 218.65 237.65 222.14 233.18 224.72 L 162.89 265.30 C 153.38 270.79 136.76 270.10 125.78 263.76 L 121.86 261.49" fill="url(#SVGID_13_)" fill-rule="nonzero" group-id="3" node-id="550" stroke="none" target-height="142.89001" target-width="187.73999" target-x="52.02" target-y="127.9"></path><path d="M 162.90 234.06 L 233.19 193.48 C 242.70 187.99 241.51 178.39 230.53 172.05 L 166.23 134.92 C 155.25 128.58 138.63 127.89 129.12 133.38 L 58.83 173.96 C 49.32 179.45 50.51 189.05 61.49 195.39 L 125.79 232.52 C 136.77 238.86 153.39 239.55 162.90 234.06 Z" fill="url(#SVGID_14_)" fill-rule="nonzero" group-id="3" node-id="552" stroke="none" target-height="111.66" target-width="193.38" target-x="49.32" target-y="127.89"></path><g node-id="765"><path d="M 52.43 140.38 C 52.09 136.61 54.18 132.96 58.81 130.28 L 129.10 89.70 C 138.61 84.21 155.23 84.90 166.21 91.24 L 230.51 128.37 C 236.50 131.83 239.57 136.25 239.59 140.45 L 239.61 140.45 L 239.61 171.33 L 239.59 171.33 C 239.76 174.96 237.65 178.45 233.18 181.03 L 162.89 221.61 C 153.38 227.10 136.76 226.41 125.78 220.07 L 61.48 182.94 C 55.10 179.26 52.03 174.47 52.44 170.04 L 52.44 140.38 Z" fill="url(#SVGID_15_)" fill-rule="nonzero" group-id="3,15" node-id="556" stroke="none" target-height="142.89001" target-width="187.73" target-x="52.03" target-y="84.21"></path><path d="M 106.66 177.80 L 107.02 178.01 L 107.91 178.52 L 125.78 188.84 C 136.76 195.18 153.38 195.87 162.89 190.38 L 233.18 149.80 C 242.69 144.31 241.50 134.71 230.52 128.37 L 166.22 91.24 C 155.24 84.90 138.62 84.21 129.11 89.70 L 58.82 130.28 C 49.31 135.77 50.50 145.37 61.48 151.71 L 71.44 157.46 L 71.87 157.71" fill="url(#SVGID_16_)" fill-rule="nonzero" group-id="3,15" node-id="558" stroke="none" target-height="111.659996" target-width="193.38" target-x="49.31" target-y="84.21"></path><path d="M 71.34 157.41 L 107.09 178.24" fill="url(#SVGID_17_)" fill-rule="nonzero" group-id="3,15" node-id="560" stroke="none" target-height="20.830002" target-width="35.75" target-x="71.34" target-y="157.41"></path></g></g><g node-id="754"><g node-id="766"><path d="M 153.68 30.70 C 154.95 29.97 155.99 30.55 155.99 32.01 L 155.99 97.82 C 155.99 98.38 155.60 99.07 155.10 99.35 L 65.89 150.86 C 65.40 151.14 65.01 150.91 65.01 150.35 L 65.01 84.55 C 65.01 83.09 66.04 81.31 67.32 80.57 L 153.68 30.70 Z" fill="url(#SVGID_18_)" fill-opacity="0.3" fill-rule="nonzero" group-id="4,16" node-id="568" stroke="none" target-height="121.17" target-width="90.98" target-x="65.01" target-y="29.97"></path></g><path d="M 112.66 67.15 L 165.54 36.62 C 166.81 35.89 170.45 36.85 170.45 38.32 L 167.84 103.75 C 167.84 104.31 167.45 105.00 166.95 105.28 L 80.15 157.94 C 79.66 158.22 76.85 156.84 76.85 156.28 L 76.85 90.47 C 76.85 89.01 77.88 87.23 79.16 86.49 L 112.66 67.15" fill="url(#SVGID_19_)" fill-rule="nonzero" group-id="4" node-id="571" stroke="none" target-height="122.33" target-width="93.6" target-x="76.85" target-y="35.89"></path><path d="M 79.58 119.51 L 79.58 91.63 C 79.58 90.17 80.61 88.39 81.89 87.65 L 168.26 37.78 C 169.53 37.05 170.57 37.63 170.57 39.09 L 170.57 104.90 C 170.57 105.46 170.18 106.15 169.68 106.43 L 80.47 157.94 C 79.98 158.22 79.59 157.99 79.59 157.43 L 79.59 127.80" fill="url(#SVGID_20_)" fill-rule="nonzero" group-id="4" node-id="573" stroke="none" target-height="121.17" target-width="90.990005" target-x="79.58" target-y="37.05"></path><path d="M 135.77 64.72 L 79.58 97.16 L 79.58 91.70 C 79.58 90.24 80.61 88.46 81.89 87.72 L 168.26 37.85 C 169.53 37.12 170.57 37.70 170.57 39.16 L 170.57 44.62" fill="url(#SVGID_21_)" fill-rule="nonzero" group-id="4" node-id="575" stroke="none" target-height="60.040005" target-width="90.990005" target-x="79.58" target-y="37.12"></path><path d="M 92.61 95.20 C 92.61 95.78 92.20 96.48 91.70 96.78 C 91.20 97.07 90.79 96.84 90.79 96.26 C 90.79 95.68 91.20 94.98 91.70 94.68 C 92.20 94.39 92.61 94.62 92.61 95.20 Z" fill="#ffffff" fill-rule="nonzero" group-id="4" node-id="577" stroke="none" target-height="2.6800003" target-width="1.8199997" target-x="90.79" target-y="94.39"></path><path d="M 94.98 93.83 C 94.98 94.41 94.57 95.11 94.07 95.41 C 93.57 95.70 93.16 95.47 93.16 94.89 C 93.16 94.31 93.57 93.61 94.07 93.31 C 94.58 93.02 94.98 93.25 94.98 93.83 Z" fill="#ffffff" fill-rule="nonzero" group-id="4" node-id="579" stroke="none" target-height="2.6800003" target-width="1.8199997" target-x="93.16" target-y="93.02"></path><path d="M 97.36 92.46 C 97.36 93.04 96.95 93.74 96.45 94.04 C 95.95 94.33 95.54 94.10 95.54 93.52 C 95.54 92.94 95.95 92.24 96.45 91.94 C 96.95 91.65 97.36 91.88 97.36 92.46 Z" fill="#ffffff" fill-rule="nonzero" group-id="4" node-id="581" stroke="none" target-height="2.6800003" target-width="1.8199997" target-x="95.54" target-y="91.65"></path><path d="M 129.69 74.16 C 130.65 73.60 131.43 74.05 131.43 75.15 L 131.43 109.83 C 131.43 110.93 130.65 112.28 129.69 112.83 L 84.14 139.05 C 83.18 139.61 82.40 139.16 82.40 138.06 L 82.40 103.38 C 82.40 102.28 83.18 100.93 84.14 100.38 L 129.69 74.16 Z" fill="#ffffff" fill-opacity="0.3" fill-rule="nonzero" group-id="4,17,23" node-id="587" stroke="none" target-height="66.01" target-width="49.02999" target-x="82.4" target-y="73.6"></path><path d="M 135.84 78.08 C 136.80 77.52 137.58 77.97 137.58 79.07 L 137.58 113.75 C 137.58 114.85 136.80 116.20 135.84 116.75 L 90.29 142.97 C 89.33 143.53 88.55 143.08 88.55 141.98 L 88.55 107.30 C 88.55 106.20 89.33 104.85 90.29 104.30 L 135.84 78.08 Z" fill="#ffffff" fill-opacity="0.3" fill-rule="nonzero" group-id="4,17,24" node-id="592" stroke="none" target-height="66.01" target-width="49.03" target-x="88.55" target-y="77.52"></path><path d="M 143.55 81.72 C 144.51 81.16 145.29 81.61 145.29 82.71 L 145.29 117.39 C 145.29 118.49 144.51 119.84 143.55 120.39 L 98.00 146.61 C 97.04 147.17 96.26 146.72 96.26 145.62 L 96.26 110.94 C 96.26 109.84 97.04 108.49 98.00 107.94 L 143.55 81.72 Z" fill="#ffffff" fill-opacity="0.8" fill-rule="nonzero" group-id="4,17,25" node-id="597" stroke="none" target-height="66.009995" target-width="49.02999" target-x="96.26" target-y="81.16"></path><path d="M 122.93 108.43 L 103.14 119.86 C 102.92 119.98 102.75 119.85 102.75 119.57 L 102.75 119.57 C 102.75 119.28 102.92 118.95 103.14 118.83 L 122.93 107.40 C 123.15 107.28 123.32 107.41 123.32 107.69 L 123.32 107.69 C 123.32 107.97 123.15 108.30 122.93 108.43 Z" fill="#6491fb" fill-rule="nonzero" group-id="4,17,26,27" node-id="604" stroke="none" target-height="12.700005" target-width="20.57" target-x="102.75" target-y="107.28"></path><path d="M 134.57 101.71 L 125.96 106.68 C 125.74 106.80 125.57 106.67 125.57 106.39 L 125.57 106.39 C 125.57 106.10 125.74 105.77 125.96 105.65 L 134.57 100.68 C 134.79 100.56 134.96 100.69 134.96 100.97 L 134.96 100.97 C 134.96 101.25 134.79 101.58 134.57 101.71 Z" fill="#ff9999" fill-rule="nonzero" group-id="4,17,26,27" node-id="606" stroke="none" target-height="6.2400055" target-width="9.390007" target-x="125.57" target-y="100.56"></path><path d="M 122.88 111.46 L 112.48 117.47 C 112.26 117.59 112.09 117.46 112.09 117.18 L 112.09 117.18 C 112.09 116.89 112.26 116.56 112.48 116.44 L 122.88 110.43 C 123.10 110.31 123.27 110.44 123.27 110.72 L 123.27 110.72 C 123.27 111.00 123.10 111.34 122.88 111.46 Z" fill="#ff9999" fill-rule="nonzero" group-id="4,17,26,28" node-id="611" stroke="none" target-height="7.279999" target-width="11.18" target-x="112.09" target-y="110.31"></path><path d="M 110.13 118.82 L 103.14 122.86 C 102.92 122.98 102.75 122.85 102.75 122.57 L 102.75 122.57 C 102.75 122.28 102.92 121.95 103.14 121.83 L 110.13 117.79 C 110.35 117.67 110.52 117.80 110.52 118.08 L 110.52 118.08 C 110.52 118.37 110.35 118.70 110.13 118.82 Z" fill="#ff9999" fill-rule="nonzero" group-id="4,17,26,28" node-id="613" stroke="none" target-height="5.310005" target-width="7.7699966" target-x="102.75" target-y="117.67"></path><path d="M 134.52 104.74 L 125.91 109.71 C 125.69 109.83 125.52 109.70 125.52 109.42 L 125.52 109.42 C 125.52 109.13 125.69 108.80 125.91 108.68 L 134.52 103.71 C 134.74 103.59 134.91 103.72 134.91 104.00 L 134.91 104.00 C 134.91 104.29 134.73 104.62 134.52 104.74 Z" fill="#a69cfb" fill-rule="nonzero" group-id="4,17,26,28" node-id="615" stroke="none" target-height="6.2400055" target-width="9.390007" target-x="125.52" target-y="103.59"></path><path d="M 115.79 106.54 L 103.15 113.84 C 102.93 113.96 102.76 113.83 102.76 113.55 L 102.76 113.55 C 102.76 113.26 102.93 112.93 103.15 112.81 L 115.79 105.51 C 116.01 105.39 116.18 105.52 116.18 105.80 L 116.18 105.80 C 116.18 106.08 116.00 106.42 115.79 106.54 Z" fill="#6491fb" fill-rule="nonzero" group-id="4,17,26,29" node-id="620" stroke="none" target-height="8.57" target-width="13.419998" target-x="102.76" target-y="105.39"></path><path d="M 123.38 102.16 L 118.03 105.25 C 117.81 105.37 117.64 105.24 117.64 104.96 L 117.64 104.96 C 117.64 104.67 117.81 104.34 118.03 104.22 L 123.38 101.13 C 123.60 101.01 123.77 101.14 123.77 101.42 L 123.77 101.42 C 123.77 101.70 123.60 102.03 123.38 102.16 Z" fill="#a69cfb" fill-rule="nonzero" group-id="4,17,26,29" node-id="622" stroke="none" target-height="4.3600006" target-width="6.1299973" target-x="117.64" target-y="101.01"></path><path d="M 138.71 93.31 L 125.82 100.75 C 125.60 100.87 125.43 100.74 125.43 100.46 L 125.43 100.46 C 125.43 100.17 125.60 99.84 125.82 99.72 L 138.71 92.28 C 138.93 92.16 139.10 92.29 139.10 92.57 L 139.10 92.57 C 139.10 92.85 138.92 93.18 138.71 93.31 Z" fill="#94f2b5" fill-rule="nonzero" group-id="4,17,26,29" node-id="624" stroke="none" target-height="8.709999" target-width="13.670006" target-x="125.43" target-y="92.16"></path><path d="M 126.07 121.64 L 138.71 114.34 C 138.93 114.22 139.10 113.88 139.10 113.60 L 139.10 113.60 C 139.10 113.31 138.93 113.18 138.71 113.31 L 126.07 120.61 C 125.85 120.73 125.68 121.07 125.68 121.35 L 125.68 121.35 C 125.68 121.64 125.85 121.77 126.07 121.64 Z" fill="#6491fb" fill-rule="nonzero" group-id="4,17,26,30" node-id="629" stroke="none" target-height="8.589996" target-width="13.420006" target-x="125.68" target-y="113.18"></path><path d="M 118.47 126.03 L 123.82 122.94 C 124.04 122.82 124.21 122.48 124.21 122.20 L 124.21 122.20 C 124.21 121.91 124.04 121.78 123.82 121.91 L 118.47 125.00 C 118.25 125.12 118.08 125.46 118.08 125.74 L 118.08 125.74 C 118.08 126.02 118.26 126.15 118.47 126.03 Z" fill="#94f2b5" fill-rule="nonzero" group-id="4,17,26,30" node-id="631" stroke="none" target-height="4.3700027" target-width="6.1299973" target-x="118.08" target-y="121.78"></path><path d="M 103.14 134.88 L 116.03 127.44 C 116.25 127.32 116.42 126.98 116.42 126.70 L 116.42 126.70 C 116.42 126.41 116.25 126.28 116.03 126.41 L 103.14 133.85 C 102.92 133.97 102.75 134.31 102.75 134.59 L 102.75 134.59 C 102.75 134.87 102.93 135.00 103.14 134.88 Z" fill="#ff9999" fill-rule="nonzero" group-id="4,17,26,30" node-id="633" stroke="none" target-height="8.720001" target-width="13.669998" target-x="102.75" target-y="126.28"></path><path d="M 111.24 112.17 L 103.14 116.85 C 102.92 116.97 102.75 116.84 102.75 116.56 L 102.75 116.56 C 102.75 116.27 102.92 115.94 103.14 115.82 L 111.24 111.14 C 111.46 111.02 111.63 111.15 111.63 111.43 L 111.63 111.43 C 111.63 111.71 111.46 112.05 111.24 112.17 Z" fill="#a69cfb" fill-rule="nonzero" group-id="4,17,26,31" node-id="638" stroke="none" target-height="5.9500046" target-width="8.879997" target-x="102.75" target-y="111.02"></path><path d="M 128.64 102.13 L 113.00 111.16 C 112.78 111.28 112.61 111.15 112.61 110.87 L 112.61 110.87 C 112.61 110.58 112.78 110.25 113.00 110.13 L 128.64 101.10 C 128.86 100.98 129.03 101.11 129.03 101.39 L 129.03 101.39 C 129.03 101.67 128.85 102.00 128.64 102.13 Z" fill="#94f2b5" fill-rule="nonzero" group-id="4,17,26,31" node-id="640" stroke="none" target-height="10.299995" target-width="16.419998" target-x="112.61" target-y="100.98"></path><path d="M 140.16 95.47 L 130.36 101.13 C 130.14 101.25 129.97 101.12 129.97 100.84 L 129.97 100.84 C 129.97 100.55 130.14 100.22 130.36 100.10 L 140.16 94.44 C 140.38 94.32 140.55 94.45 140.55 94.73 L 140.55 94.73 C 140.55 95.02 140.38 95.35 140.16 95.47 Z" fill="#6491fb" fill-rule="nonzero" group-id="4,17,26,31" node-id="642" stroke="none" target-height="6.9300003" target-width="10.580002" target-x="129.97" target-y="94.32"></path><path d="M 132.06 120.15 L 140.16 115.47 C 140.38 115.35 140.55 115.48 140.55 115.76 L 140.55 115.76 C 140.55 116.05 140.38 116.38 140.16 116.50 L 132.06 121.18 C 131.84 121.30 131.67 121.17 131.67 120.89 L 131.67 120.89 C 131.67 120.61 131.85 120.27 132.06 120.15 Z" fill="#94f2b5" fill-rule="nonzero" group-id="4,17,26,32" node-id="647" stroke="none" target-height="5.9500046" target-width="8.880005" target-x="131.67" target-y="115.35"></path><path d="M 114.67 130.19 L 130.31 121.16 C 130.53 121.04 130.70 121.17 130.70 121.45 L 130.70 121.45 C 130.70 121.74 130.53 122.07 130.31 122.19 L 114.67 131.22 C 114.45 131.34 114.28 131.21 114.28 130.93 L 114.28 130.93 C 114.28 130.65 114.45 130.32 114.67 130.19 Z" fill="#ffc99c" fill-rule="nonzero" group-id="4,17,26,32" node-id="649" stroke="none" target-height="10.299995" target-width="16.419998" target-x="114.28" target-y="121.04"></path><path d="M 103.14 136.85 L 112.94 131.19 C 113.16 131.07 113.33 131.20 113.33 131.48 L 113.33 131.48 C 113.33 131.77 113.16 132.10 112.94 132.22 L 103.14 137.88 C 102.92 138.00 102.75 137.87 102.75 137.59 L 102.75 137.59 C 102.75 137.30 102.93 136.97 103.14 136.85 Z" fill="#a69cfb" fill-rule="nonzero" group-id="4,17,26,32" node-id="651" stroke="none" target-height="6.9299927" target-width="10.580002" target-x="102.75" target-y="131.07"></path><path d="M 122.93 120.45 L 103.14 131.88 C 102.92 132.00 102.75 131.87 102.75 131.59 L 102.75 131.59 C 102.75 131.30 102.92 130.97 103.14 130.85 L 122.93 119.42 C 123.15 119.30 123.32 119.43 123.32 119.71 L 123.32 119.71 C 123.32 119.99 123.15 120.32 122.93 120.45 Z" fill="#ffc99c" fill-rule="nonzero" group-id="4,17,26,33" node-id="656" stroke="none" target-height="12.699997" target-width="20.57" target-x="102.75" target-y="119.3"></path><path d="M 134.57 113.73 L 125.96 118.70 C 125.74 118.82 125.57 118.69 125.57 118.41 L 125.57 118.41 C 125.57 118.12 125.74 117.79 125.96 117.67 L 134.57 112.70 C 134.79 112.58 134.96 112.71 134.96 112.99 L 134.96 112.99 C 134.96 113.27 134.79 113.60 134.57 113.73 Z" fill="#ff9999" fill-rule="nonzero" group-id="4,17,26,33" node-id="658" stroke="none" target-height="6.239998" target-width="9.390007" target-x="125.57" target-y="112.58"></path><path d="M 111.24 124.19 L 103.14 128.87 C 102.92 128.99 102.75 128.86 102.75 128.58 L 102.75 128.58 C 102.75 128.29 102.92 127.96 103.14 127.84 L 111.24 123.16 C 111.46 123.04 111.63 123.17 111.63 123.45 L 111.63 123.45 C 111.63 123.73 111.46 124.07 111.24 124.19 Z" fill="#94f2b5" fill-rule="nonzero" group-id="4,17,26,34" node-id="663" stroke="none" target-height="5.9500046" target-width="8.879997" target-x="102.75" target-y="123.04"></path><path d="M 128.64 114.15 L 113.00 123.18 C 112.78 123.30 112.61 123.17 112.61 122.89 L 112.61 122.89 C 112.61 122.60 112.78 122.27 113.00 122.15 L 128.64 113.12 C 128.86 113.00 129.03 113.13 129.03 113.41 L 129.03 113.41 C 129.03 113.69 128.85 114.03 128.64 114.15 Z" fill="#6491fb" fill-rule="nonzero" group-id="4,17,26,34" node-id="665" stroke="none" target-height="10.300003" target-width="16.419998" target-x="112.61" target-y="113"></path><path d="M 140.16 107.50 L 130.36 113.16 C 130.14 113.28 129.97 113.15 129.97 112.87 L 129.97 112.87 C 129.97 112.58 130.14 112.25 130.36 112.13 L 140.16 106.47 C 140.38 106.35 140.55 106.48 140.55 106.76 L 140.55 106.76 C 140.55 107.04 140.38 107.37 140.16 107.50 Z" fill="#94f2b5" fill-rule="nonzero" group-id="4,17,26,34" node-id="667" stroke="none" target-height="6.9300003" target-width="10.580002" target-x="129.97" target-y="106.35"></path><path d="M 109.73 122.06 L 103.14 125.86 C 102.92 125.98 102.75 125.85 102.75 125.57 L 102.75 125.57 C 102.75 125.28 102.92 124.95 103.14 124.83 L 109.73 121.03 C 109.95 120.91 110.12 121.04 110.12 121.32 L 110.12 121.32 C 110.12 121.60 109.94 121.94 109.73 122.06 Z" fill="#a69cfb" fill-rule="nonzero" group-id="4,17,26,35" node-id="672" stroke="none" target-height="5.0699997" target-width="7.3700027" target-x="102.75" target-y="120.91"></path><path d="M 124.16 113.73 L 111.32 121.14 C 111.10 121.26 110.93 121.13 110.93 120.85 L 110.93 120.85 C 110.93 120.56 111.10 120.23 111.32 120.11 L 124.16 112.70 C 124.38 112.58 124.55 112.71 124.55 112.99 L 124.55 112.99 C 124.55 113.27 124.37 113.61 124.16 113.73 Z" fill="#ff9999" fill-rule="nonzero" group-id="4,17,26,35" node-id="674" stroke="none" target-height="8.68" target-width="13.620003" target-x="110.93" target-y="112.58"></path><path d="M 138.56 105.41 L 125.72 112.82 C 125.50 112.94 125.33 112.81 125.33 112.53 L 125.33 112.53 C 125.33 112.24 125.50 111.91 125.72 111.79 L 138.56 104.38 C 138.78 104.26 138.95 104.39 138.95 104.67 L 138.95 104.67 C 138.95 104.96 138.78 105.29 138.56 105.41 Z" fill="#ffc99c" fill-rule="nonzero" group-id="4,17,26,35" node-id="676" stroke="none" target-height="8.68" target-width="13.619995" target-x="125.33" target-y="104.26"></path></g><g node-id="755"><path d="M 145.24 86.69 C 145.70 86.43 146.07 86.64 146.07 87.16 L 146.07 99.38 C 146.07 99.91 145.70 100.55 145.24 100.81 L 126.65 111.54 C 126.19 111.80 125.82 111.59 125.82 111.07 L 125.82 98.85 C 125.82 98.32 126.19 97.68 126.65 97.42 L 145.24 86.69 Z" fill="url(#SVGID_22_)" fill-opacity="0.3" fill-rule="nonzero" group-id="5" node-id="684" stroke="none" target-height="25.370003" target-width="20.250008" target-x="125.82" target-y="86.43"></path></g><g node-id="756"><path d="M 145.24 104.39 C 145.70 104.13 146.07 104.34 146.07 104.86 L 146.07 117.08 C 146.07 117.61 145.70 118.25 145.24 118.51 L 126.65 129.24 C 126.19 129.50 125.82 129.29 125.82 128.77 L 125.82 116.55 C 125.82 116.02 126.19 115.38 126.65 115.12 L 145.24 104.39 Z" fill="url(#SVGID_23_)" fill-opacity="0.3" fill-rule="nonzero" group-id="6" node-id="689" stroke="none" target-height="25.370003" target-width="20.250008" target-x="125.82" target-y="104.13"></path></g><g node-id="757"><path d="M 181.54 163.87 C 181.54 166.29 175.96 168.25 169.07 168.25 C 162.18 168.25 156.60 166.29 156.60 163.87 C 156.60 161.45 162.18 159.49 169.07 159.49 C 175.96 159.49 181.54 161.45 181.54 163.87 Z" fill="url(#SVGID_24_)" fill-rule="nonzero" group-id="7" node-id="694" stroke="none" target-height="8.7599945" target-width="24.939987" target-x="156.6" target-y="159.49"></path><path d="M 175.39 129.26 C 177.97 128.37 180.77 129.86 181.72 132.42 C 183.95 138.43 188.37 151.60 185.97 155.33 C 182.82 160.21 182.60 158.96 180.53 154.39 C 178.75 150.44 167.91 131.85 175.39 129.26 Z" fill="url(#SVGID_25_)" fill-rule="nonzero" group-id="7" node-id="696" stroke="none" target-height="31.840012" target-width="20.459991" target-x="167.91" target-y="128.37"></path><path d="M 172.97 163.59 C 172.97 163.59 192.75 144.68 180.16 130.72 C 167.58 116.76 152.29 130.52 153.91 135.59 C 155.53 140.67 160.02 162.96 165.06 163.59 C 170.10 164.22 172.97 163.59 172.97 163.59 Z" fill="#e6edfc" fill-rule="nonzero" group-id="7" node-id="698" stroke="none" target-height="47.46" target-width="40.460007" target-x="152.29" target-y="116.76"></path><g node-id="768"><path d="M 181.56 116.91 C 181.56 123.16 175.34 128.23 167.67 128.23 C 160.00 128.23 153.78 123.16 153.78 116.91 C 153.78 110.66 160.00 105.59 167.67 105.59 C 175.34 105.59 181.56 110.66 181.56 116.91 Z" fill="#f1f5ff" fill-rule="nonzero" group-id="7,18" node-id="702" stroke="none" target-height="22.64" target-width="27.779999" target-x="153.78" target-y="105.59"></path><path d="M 175.28 115.26 L 176.69 112.16 C 176.69 112.16 180.75 116.48 179.32 121.03 C 177.89 125.58 166.40 124.82 163.89 124.11 C 161.39 123.39 158.84 120.24 159.79 117.51 C 160.74 114.78 163.43 112.68 163.43 112.68 L 164.69 115.67 L 175.28 115.26 Z" fill="url(#SVGID_26_)" fill-rule="nonzero" group-id="7,18" node-id="704" stroke="none" target-height="13.419998" target-width="21.910004" target-x="158.84" target-y="112.16"></path><path d="M 177.56 119.14 C 177.56 120.07 176.80 120.83 175.87 120.83 C 174.94 120.83 174.18 120.07 174.18 119.14 C 174.18 118.21 174.94 117.45 175.87 117.45 C 176.80 117.45 177.56 118.21 177.56 119.14 Z" fill="#ffffff" fill-rule="nonzero" group-id="7,18" node-id="706" stroke="none" target-height="3.380005" target-width="3.380005" target-x="174.18" target-y="117.45"></path><path d="M 167.43 119.43 C 167.43 120.36 166.67 121.12 165.74 121.12 C 164.81 121.12 164.05 120.36 164.05 119.43 C 164.05 118.50 164.81 117.74 165.74 117.74 C 166.67 117.74 167.43 118.50 167.43 119.43 Z" fill="#ffffff" fill-rule="nonzero" group-id="7,18" node-id="708" stroke="none" target-height="3.380005" target-width="3.3799896" target-x="164.05" target-y="117.74"></path></g><path d="M 180.79 113.19 C 180.79 113.19 181.56 100.09 166.19 101.05 C 150.82 102.01 154.66 113.68 154.66 113.68 L 157.82 113.68 C 157.82 113.68 156.06 104.44 166.27 103.77 C 179.84 102.89 178.25 109.51 178.25 109.51 L 180.79 113.19 Z" fill="url(#SVGID_27_)" fill-rule="nonzero" group-id="7" node-id="711" stroke="none" target-height="13.590004" target-width="30.73999" target-x="150.82" target-y="100.09"></path><path d="M 180.59 112.66 C 180.59 112.66 180.72 110.43 179.80 107.89 C 180.95 110.66 180.80 113.20 180.80 113.20 L 178.27 109.52 C 178.27 109.52 178.29 109.45 178.30 109.33 L 180.59 112.66 Z" fill="url(#SVGID_28_)" fill-rule="nonzero" group-id="7,19" node-id="715" stroke="none" target-height="5.3099976" target-width="2.6799927" target-x="178.27" target-y="107.89"></path><path d="M 157.63 113.14 C 157.63 113.14 155.87 103.90 166.08 103.23 C 175.01 102.65 177.37 105.32 177.95 107.21 C 177.09 105.39 174.40 103.24 166.29 103.77 C 156.07 104.43 157.84 113.68 157.84 113.68 L 154.68 113.68 C 154.68 113.68 154.62 113.48 154.54 113.14 L 157.63 113.14 Z" fill="url(#SVGID_29_)" fill-rule="nonzero" group-id="7,19" node-id="717" stroke="none" target-height="11.029999" target-width="23.410004" target-x="154.54" target-y="102.65"></path><path d="M 158.95 116.70 C 158.95 118.86 157.54 120.62 155.79 120.62 C 154.04 120.62 152.63 118.86 152.63 116.70 C 152.63 114.54 154.04 112.78 155.79 112.78 C 157.54 112.78 158.95 114.54 158.95 116.70 Z" fill="#0032c8" fill-rule="nonzero" group-id="7,20" node-id="722" stroke="none" target-height="7.840004" target-width="6.319992" target-x="152.63" target-y="112.78"></path><path d="M 158.46 116.70 C 158.46 118.86 157.05 120.62 155.30 120.62 C 153.55 120.62 152.14 118.86 152.14 116.70 C 152.14 114.54 153.55 112.78 155.30 112.78 C 157.05 112.78 158.46 114.54 158.46 116.70 Z" fill="#b0c6fd" fill-rule="nonzero" group-id="7,20" node-id="724" stroke="none" target-height="7.840004" target-width="6.3200073" target-x="152.14" target-y="112.78"></path><path d="M 157.37 116.70 C 157.37 118.49 156.31 119.95 155.00 119.95 C 153.69 119.95 152.63 118.49 152.63 116.70 C 152.63 114.91 153.69 113.45 155.00 113.45 C 156.31 113.45 157.37 114.91 157.37 116.70 Z" fill="#0055ff" fill-rule="nonzero" group-id="7,20" node-id="726" stroke="none" target-height="6.5" target-width="4.73999" target-x="152.63" target-y="113.45"></path><path d="M 156.07 116.76 C 156.07 117.94 155.39 118.90 154.55 118.90 C 153.71 118.90 153.03 117.94 153.03 116.76 C 153.03 115.58 153.71 114.62 154.55 114.62 C 155.39 114.62 156.07 115.58 156.07 116.76 Z" fill="#a1c1ff" fill-rule="nonzero" group-id="7,20" node-id="728" stroke="none" target-height="4.279999" target-width="3.0400085" target-x="153.03" target-y="114.62"></path><path d="M 155.02 116.50 C 155.02 117.11 154.67 117.60 154.24 117.60 C 153.81 117.60 153.46 117.11 153.46 116.50 C 153.46 115.89 153.81 115.40 154.24 115.40 C 154.67 115.40 155.02 115.89 155.02 116.50 Z" fill="#ffffff" fill-rule="nonzero" group-id="7,20" node-id="730" stroke="none" target-height="2.199997" target-width="1.5599976" target-x="153.46" target-y="115.4"></path><path d="M 160.18 130.40 C 162.76 131.28 164.05 134.18 163.22 136.78 C 161.27 142.89 156.66 156.00 152.47 157.45 C 146.99 159.36 147.58 158.24 148.76 153.36 C 149.79 149.16 152.70 127.84 160.18 130.40 Z" fill="url(#SVGID_30_)" fill-rule="nonzero" group-id="7" node-id="733" stroke="none" target-height="31.520004" target-width="17.059998" target-x="146.99" target-y="127.84"></path><path d="M 166.70 140.85 C 166.70 143.21 168.79 145.12 173.07 145.12 C 177.35 145.12 180.35 143.21 180.35 140.85 C 180.35 138.49 177.34 136.58 173.07 136.58 C 168.80 136.58 166.70 138.49 166.70 140.85 Z" fill="url(#SVGID_31_)" fill-rule="nonzero" group-id="7" node-id="735" stroke="none" target-height="8.539993" target-width="13.650009" target-x="166.7" target-y="136.58"></path></g><g node-id="758"><path d="M 260.38 63.48 L 242.69 73.69 L 242.71 51.85 L 260.38 41.65 Z" fill="url(#SVGID_32_)" fill-opacity="0.3" fill-rule="nonzero" group-id="8" node-id="739" stroke="none" target-height="32.04" target-width="17.690002" target-x="242.69" target-y="41.65"></path><path d="M 225.00 63.48 L 242.69 73.69 L 242.71 51.85 L 225.00 41.62 Z" fill="url(#SVGID_33_)" fill-opacity="0.3" fill-rule="nonzero" group-id="8" node-id="741" stroke="none" target-height="32.070004" target-width="17.710007" target-x="225" target-y="41.62"></path><path d="M 242.71 51.85 L 225.00 41.62 L 242.64 31.43 L 260.38 41.65 Z" fill="url(#SVGID_34_)" fill-opacity="0.3" fill-rule="nonzero" group-id="8" node-id="743" stroke="none" target-height="20.419998" target-width="35.380005" target-x="225" target-y="31.43"></path><path d="M 235.25 78.16 L 236.41 78.16 L 236.41 108.60 L 235.25 108.60 Z" fill="url(#SVGID_35_)" fill-opacity="0.3" fill-rule="nonzero" group-id="8" node-id="745" stroke="none" target-height="30.439995" target-width="1.1600037" target-x="235.25" target-y="78.16"></path><path d="M 245.59 87.73 L 246.75 87.73 L 246.75 118.17 L 245.59 118.17 Z" fill="url(#SVGID_36_)" fill-opacity="0.3" fill-rule="nonzero" group-id="8" node-id="747" stroke="none" target-height="30.439995" target-width="1.1600037" target-x="245.59" target-y="87.73"></path><path d="M 251.19 75.03 L 252.35 75.03 L 252.35 105.47 L 251.19 105.47 Z" fill="url(#SVGID_37_)" fill-opacity="0.3" fill-rule="nonzero" group-id="8" node-id="749" stroke="none" target-height="30.440002" target-width="1.1600037" target-x="251.19" target-y="75.03"></path></g></svg>