<?xml version="1.0" standalone="no"?><!DOCTYPE svg PUBLIC "-//W3C//DTD SVG 1.1//EN" "http://www.w3.org/Graphics/SVG/1.1/DTD/svg11.dtd"><svg height="300" node-id="1" sillyvg="true" template-height="300" template-width="300" version="1.1" viewBox="0 0 300 300" width="300" xmlns="http://www.w3.org/2000/svg" xmlns:xlink="http://www.w3.org/1999/xlink"><defs node-id="312"><linearGradient gradientUnits="userSpaceOnUse" id="SVGID_1_" node-id="6" spreadMethod="pad" x1="65.4886" x2="87" y1="221.7359" y2="221.7359"><stop offset="0" stop-color="#6dacef"></stop><stop offset="1" stop-color="#97c9fe"></stop></linearGradient><linearGradient gradientUnits="userSpaceOnUse" id="SVGID_2_" node-id="10" spreadMethod="pad" x1="43.9773" x2="65.5121" y1="221.7162" y2="221.7162"><stop offset="0" stop-color="#3282ed"></stop><stop offset="1" stop-color="#60a2f0"></stop></linearGradient><linearGradient gradientUnits="userSpaceOnUse" id="SVGID_3_" node-id="14" spreadMethod="pad" x1="43.9812" x2="86.9993" y1="202.2374" y2="202.2374"><stop offset="0" stop-color="#7ab4f4"></stop><stop offset="1" stop-color="#dfedfa"></stop></linearGradient><linearGradient gradientUnits="userSpaceOnUse" id="SVGID_4_" node-id="18" spreadMethod="pad" x1="36.1405" x2="36.1405" y1="109.8987" y2="146.7888"><stop offset="0" stop-color="#6dacef"></stop><stop offset="1" stop-color="#97c9fe"></stop></linearGradient><linearGradient gradientUnits="userSpaceOnUse" id="SVGID_5_" node-id="22" spreadMethod="pad" x1="48.7131" x2="48.7131" y1="121.5328" y2="158.4227"><stop offset="0" stop-color="#6dacef"></stop><stop offset="1" stop-color="#97c9fe"></stop></linearGradient><linearGradient gradientUnits="userSpaceOnUse" id="SVGID_6_" node-id="26" spreadMethod="pad" x1="55.5337" x2="55.5337" y1="106.0913" y2="142.9813"><stop offset="0" stop-color="#6dacef"></stop><stop offset="1" stop-color="#97c9fe"></stop></linearGradient><linearGradient gradientUnits="userSpaceOnUse" id="SVGID_19_" node-id="85" spreadMethod="pad" x1="189.453" x2="216.9375" y1="143.0016" y2="143.0016"><stop offset="0.0000003409785" stop-color="#1b4885"></stop><stop offset="1" stop-color="#1d4e8f"></stop></linearGradient><linearGradient gradientUnits="userSpaceOnUse" id="SVGID_40_" node-id="192" spreadMethod="pad" x1="69.4556" x2="248.013" y1="148.3914" y2="148.3914"><stop offset="0" stop-color="#3282ed"></stop><stop offset="1" stop-color="#60a2f0"></stop></linearGradient><linearGradient gradientUnits="userSpaceOnUse" id="SVGID_41_" node-id="198" spreadMethod="pad" x1="58" x2="206.7027" y1="140.7151" y2="140.7151"><stop offset="0.0626" stop-color="#1b4885"></stop><stop offset="0.3179" stop-color="#579cef"></stop><stop offset="0.7408" stop-color="#1d4e8f"></stop></linearGradient><linearGradient gradientTransform="matrix(0.9936 0.1127 -0.1127 0.9936 254.1844 2.5725)" gradientUnits="userSpaceOnUse" id="XMLID_2_" node-id="220" spreadMethod="pad" x1="-3.7606" x2="27.3896" y1="196.2649" y2="196.2649"><stop offset="0" stop-color="#3282ed"></stop><stop offset="1" stop-color="#60a2f0"></stop></linearGradient><linearGradient gradientTransform="matrix(0.9936 0.1127 -0.1127 0.9936 254.1844 2.5725)" gradientUnits="userSpaceOnUse" id="XMLID_3_" node-id="225" spreadMethod="pad" x1="-4.6836" x2="14.3534" y1="197.7877" y2="197.7877"><stop offset="0" stop-color="#8cc0fc"></stop><stop offset="1" stop-color="#4399fe"></stop></linearGradient><linearGradient gradientTransform="matrix(0.9936 0.1127 -0.1127 0.9936 254.1844 2.5725)" gradientUnits="userSpaceOnUse" id="XMLID_4_" node-id="230" spreadMethod="pad" x1="-22.0029" x2="9.5268" y1="190.9358" y2="190.9358"><stop offset="0" stop-color="#3282ed"></stop><stop offset="1" stop-color="#60a2f0"></stop></linearGradient><linearGradient gradientTransform="matrix(0.9936 0.1127 -0.1127 0.9936 254.1844 2.5725)" gradientUnits="userSpaceOnUse" id="XMLID_19_" node-id="235" spreadMethod="pad" x1="-41.2214" x2="-6.6927" y1="191.0168" y2="191.0168"><stop offset="0" stop-color="#3282ed"></stop><stop offset="1" stop-color="#60a2f0"></stop></linearGradient><linearGradient gradientTransform="matrix(0.9936 0.1127 -0.1127 0.9936 254.1844 2.5725)" gradientUnits="userSpaceOnUse" id="XMLID_20_" node-id="240" spreadMethod="pad" x1="-78.1031" x2="-46.0856" y1="253.1573" y2="253.1573"><stop offset="0" stop-color="#3282ed"></stop><stop offset="1" stop-color="#60a2f0"></stop></linearGradient><linearGradient gradientTransform="matrix(0.9936 0.1127 -0.1127 0.9936 254.1844 2.5725)" gradientUnits="userSpaceOnUse" id="XMLID_21_" node-id="245" spreadMethod="pad" x1="-64.215" x2="-23.1075" y1="212.81" y2="212.81"><stop offset="0" stop-color="#3282ed"></stop><stop offset="1" stop-color="#60a2f0"></stop></linearGradient><linearGradient gradientUnits="userSpaceOnUse" id="SVGID_48_" node-id="288" spreadMethod="pad" x1="134.2312" x2="149.8819" y1="72.2408" y2="72.2408"><stop offset="0.00000006926126" stop-color="#9c6d25"></stop><stop offset="1" stop-color="#926622"></stop></linearGradient><linearGradient gradientUnits="userSpaceOnUse" id="SVGID_49_" node-id="295" spreadMethod="pad" x1="146.9859" x2="157.3531" y1="23.5485" y2="23.5485"><stop offset="0" stop-color="#fbb03b"></stop><stop offset="1" stop-color="#926622"></stop></linearGradient><linearGradient gradientUnits="userSpaceOnUse" id="SVGID_50_" node-id="307" spreadMethod="pad" x1="140.2181" x2="140.2181" y1="61.5968" y2="22.1"><stop offset="0" stop-color="#976a23"></stop><stop offset="1" stop-color="#fbb03b"></stop></linearGradient><clipPath id="SVGID_8_" node-id="37"><path d="M 235.24 138.94 L 223.78 132.71 C 223.89 126.43 223.34 120.24 222.14 114.26 L 233.60 120.49 C 234.80 126.46 235.35 132.66 235.24 138.94 Z" fill="#000000" fill-rule="nonzero" node-id="425" stroke="none" target-height="24.68" target-width="13.210007" target-x="222.14" target-y="114.26"></path></clipPath><clipPath id="SVGID_10_" node-id="44"><path d="M 164.70 217.56 L 176.16 223.79 C 175.64 223.51 174.96 223.40 174.13 223.52 C 173.54 223.60 172.88 223.79 172.14 224.11 L 160.68 217.88 C 161.42 217.56 162.09 217.37 162.67 217.29 C 163.51 217.17 164.18 217.27 164.70 217.56 Z" fill="#000000" fill-rule="nonzero" node-id="429" stroke="none" target-height="6.9400024" target-width="15.480011" target-x="160.68" target-y="217.17"></path></clipPath><clipPath id="SVGID_12_" node-id="53"><path d="M 188.39 66.66 L 199.85 72.89 C 214.12 80.65 225.32 93.90 231.11 111.14 L 219.65 104.91 C 213.87 87.67 202.66 74.42 188.39 66.66 Z" fill="#000000" fill-rule="nonzero" node-id="433" stroke="none" target-height="44.479996" target-width="42.72" target-x="188.39" target-y="66.66"></path></clipPath><clipPath id="SVGID_14_" node-id="60"><path d="M 219.20 104.59 L 230.66 110.82 C 230.25 110.60 229.78 110.49 229.29 110.51 L 217.83 104.28 C 218.32 104.25 218.79 104.36 219.20 104.59 Z" fill="#000000" fill-rule="nonzero" node-id="437" stroke="none" target-height="6.5699997" target-width="12.830002" target-x="217.83" target-y="104.25"></path></clipPath><clipPath id="SVGID_16_" node-id="69"><path d="M 154.35 228.74 L 142.89 222.51 C 143.26 222.46 143.63 222.41 144.00 222.38 L 155.46 228.61 C 155.09 228.64 154.72 228.68 154.35 228.74 Z" fill="#000000" fill-rule="nonzero" node-id="441" stroke="none" target-height="6.3600006" target-width="12.570007" target-x="142.89" target-y="222.38"></path></clipPath><clipPath id="SVGID_18_" node-id="76"><path d="M 174.47 186.31 L 163.01 180.08 C 163.32 180.25 163.71 180.31 164.22 180.24 C 164.42 180.21 164.63 180.16 164.87 180.09 C 165.18 180.00 165.50 179.93 165.82 179.88 C 167.22 179.68 168.62 179.96 169.82 180.62 L 181.28 186.85 C 180.08 186.20 178.68 185.92 177.28 186.11 C 176.96 186.15 176.65 186.22 176.33 186.32 C 176.09 186.39 175.88 186.44 175.68 186.47 C 175.17 186.54 174.78 186.47 174.47 186.31 Z" fill="#000000" fill-rule="nonzero" node-id="445" stroke="none" target-height="7.1700134" target-width="18.270004" target-x="163.01" target-y="179.68"></path></clipPath><clipPath id="SVGID_21_" node-id="92"><path d="M 168.05 179.92 L 156.59 173.69 C 157.47 174.17 158.32 174.44 159.11 174.40 C 159.62 174.38 160.01 174.47 160.33 174.64 L 171.79 180.87 C 171.47 180.70 171.07 180.61 170.57 180.63 C 169.78 180.67 168.93 180.40 168.05 179.92 Z" fill="#000000" fill-rule="nonzero" node-id="449" stroke="none" target-height="7.1799927" target-width="15.199997" target-x="156.59" target-y="173.69"></path></clipPath><clipPath id="SVGID_23_" node-id="103"><path d="M 154.18 170.11 L 142.72 163.88 C 143.10 164.08 143.47 164.26 143.84 164.40 C 144.38 164.60 144.91 164.85 145.43 165.13 L 156.89 171.36 C 156.36 171.07 155.83 170.83 155.30 170.63 C 154.93 170.49 154.56 170.31 154.18 170.11 Z" fill="#000000" fill-rule="nonzero" node-id="453" stroke="none" target-height="7.4799957" target-width="14.169998" target-x="142.72" target-y="163.88"></path></clipPath><clipPath id="SVGID_25_" node-id="114"><path d="M 138.48 161.25 L 149.94 167.48 C 148.27 166.57 146.37 165.90 144.05 166.13 L 132.59 159.90 C 134.90 159.67 136.80 160.34 138.48 161.25 Z" fill="#000000" fill-rule="nonzero" node-id="457" stroke="none" target-height="7.8099976" target-width="17.350006" target-x="132.59" target-y="159.67"></path></clipPath><clipPath id="SVGID_27_" node-id="123"><path d="M 163.47 152.96 L 152.01 146.73 C 150.53 145.93 148.74 143.03 147.09 140.11 C 145.26 136.86 143.62 133.59 142.81 133.15 L 154.27 139.38 C 155.08 139.82 156.72 143.10 158.55 146.34 C 160.19 149.26 161.99 152.15 163.47 152.96 Z" fill="#000000" fill-rule="nonzero" node-id="461" stroke="none" target-height="19.810013" target-width="20.660004" target-x="142.81" target-y="133.15"></path></clipPath><clipPath id="SVGID_29_" node-id="130"><path d="M 134.25 169.25 L 122.79 163.02 C 123.01 163.14 123.30 163.16 123.66 163.11 C 124.65 162.97 126.12 162.28 127.72 161.57 C 129.32 160.86 131.06 160.13 132.57 159.91 L 144.03 166.14 C 142.51 166.35 140.78 167.08 139.18 167.80 C 137.58 168.51 136.11 169.20 135.12 169.34 C 134.77 169.39 134.47 169.37 134.25 169.25 Z" fill="#000000" fill-rule="nonzero" node-id="465" stroke="none" target-height="9.479996" target-width="21.239998" target-x="122.79" target-y="159.91"></path></clipPath><clipPath id="SVGID_31_" node-id="139"><path d="M 154.05 114.02 L 142.59 107.79 C 144.27 108.70 146.78 109.11 149.65 108.70 C 150.96 108.52 152.35 108.16 153.77 107.61 C 155.96 106.75 153.97 104.47 155.48 103.70 C 157.54 102.66 159.84 102.07 161.76 101.80 C 163.69 101.53 165.23 101.59 165.72 101.86 L 177.18 108.09 C 176.69 107.82 175.15 107.76 173.22 108.03 C 171.31 108.30 169.00 108.89 166.94 109.93 C 165.43 110.69 167.41 112.98 165.23 113.84 C 163.81 114.39 162.42 114.75 161.11 114.93 C 158.24 115.33 155.72 114.93 154.05 114.02 Z" fill="#000000" fill-rule="nonzero" node-id="469" stroke="none" target-height="13.800003" target-width="34.589996" target-x="142.59" target-y="101.53"></path></clipPath><clipPath id="SVGID_33_" node-id="164"><path d="M 127.91 182.93 L 116.45 176.70 C 116.15 176.53 115.91 176.25 115.74 175.81 C 113.84 170.75 110.63 168.17 108.40 166.95 L 119.86 173.18 C 122.09 174.39 125.30 176.97 127.20 182.04 C 127.36 182.48 127.60 182.76 127.91 182.93 Z" fill="#000000" fill-rule="nonzero" node-id="473" stroke="none" target-height="15.979996" target-width="19.510002" target-x="108.4" target-y="166.95"></path></clipPath><clipPath id="SVGID_35_" node-id="171"><path d="M 156.78 61.24 L 168.24 67.47 C 166.10 66.31 163.30 65.60 159.80 65.70 L 148.34 59.47 C 151.84 59.37 154.64 60.07 156.78 61.24 Z" fill="#000000" fill-rule="nonzero" node-id="477" stroke="none" target-height="8.100002" target-width="19.90001" target-x="148.34" target-y="59.37"></path></clipPath><clipPath id="SVGID_37_" node-id="180"><path d="M 111.59 171.33 L 100.13 165.10 C 93.64 161.57 93.36 149.30 93.38 137.65 C 93.38 135.73 92.50 134.70 91.23 134.01 L 102.69 140.24 C 103.97 140.93 104.85 141.96 104.84 143.88 C 104.82 155.52 105.10 167.80 111.59 171.33 Z" fill="#000000" fill-rule="nonzero" node-id="481" stroke="none" target-height="37.320007" target-width="20.359993" target-x="91.23" target-y="134.01"></path></clipPath><clipPath id="SVGID_39_" node-id="187"><path d="M 85.20 142.83 L 73.74 136.60 C 73.25 136.33 72.80 136.00 72.42 135.61 L 83.88 141.84 C 84.27 142.23 84.71 142.56 85.20 142.83 Z" fill="#000000" fill-rule="nonzero" node-id="485" stroke="none" target-height="7.220001" target-width="12.779999" target-x="72.42" target-y="135.61"></path></clipPath><clipPath id="SVGID_43_" node-id="260"><path d="M 150.53 86.03 L 145.78 83.45 C 145.51 83.31 145.29 83.07 145.13 82.74 L 149.88 85.32 C 150.03 85.65 150.26 85.89 150.53 86.03 Z" fill="#000000" fill-rule="nonzero" node-id="489" stroke="none" target-height="3.290001" target-width="5.399994" target-x="145.13" target-y="82.74"></path></clipPath><clipPath id="SVGID_45_" node-id="267"><path d="M 147.31 54.34 L 142.56 51.76 C 143.78 52.43 145.23 52.71 146.79 52.49 L 151.54 55.07 C 149.99 55.29 148.54 55.01 147.31 54.34 Z" fill="#000000" fill-rule="nonzero" node-id="493" stroke="none" target-height="3.5300026" target-width="8.979996" target-x="142.56" target-y="51.76"></path></clipPath><clipPath id="SVGID_47_" node-id="276"><path d="M 151.07 36.08 L 155.82 38.66 C 158.04 39.87 159.51 42.33 159.50 45.37 C 159.49 50.10 155.93 54.44 151.54 55.06 L 146.79 52.48 C 151.17 51.86 154.74 47.52 154.75 42.79 C 154.76 39.75 153.29 37.29 151.07 36.08 Z" fill="#000000" fill-rule="nonzero" node-id="497" stroke="none" target-height="18.98" target-width="12.720001" target-x="146.79" target-y="36.08"></path></clipPath></defs><g node-id="900"><path d="M 87.00 228.80 L 65.49 241.22 L 65.51 214.65 L 87.00 202.26 Z" fill="url(#SVGID_1_)" fill-opacity="0.3" fill-rule="nonzero" group-id="1" node-id="504" stroke="none" target-height="38.960007" target-width="21.510002" target-x="65.49" target-y="202.26"></path><path d="M 43.98 228.80 L 65.49 241.22 L 65.51 214.65 L 43.98 202.22 Z" fill="url(#SVGID_2_)" fill-opacity="0.3" fill-rule="nonzero" group-id="1" node-id="506" stroke="none" target-height="39" target-width="21.530003" target-x="43.98" target-y="202.22"></path><path d="M 65.51 214.65 L 43.98 202.22 L 65.42 189.82 L 87.00 202.26 Z" fill="url(#SVGID_3_)" fill-opacity="0.3" fill-rule="nonzero" group-id="1" node-id="508" stroke="none" target-height="24.829987" target-width="43.02" target-x="43.98" target-y="189.82"></path><path d="M 35.43 109.81 L 36.84 109.81 L 36.84 146.82 L 35.43 146.82 Z" fill="url(#SVGID_4_)" fill-opacity="0.3" fill-rule="nonzero" group-id="1" node-id="510" stroke="none" target-height="37.01001" target-width="1.4099998" target-x="35.43" target-y="109.81"></path><path d="M 48.01 121.44 L 49.42 121.44 L 49.42 158.45 L 48.01 158.45 Z" fill="url(#SVGID_5_)" fill-opacity="0.3" fill-rule="nonzero" group-id="1" node-id="512" stroke="none" target-height="37.009995" target-width="1.4099998" target-x="48.01" target-y="121.44"></path><path d="M 54.83 106.00 L 56.24 106.00 L 56.24 143.01 L 54.83 143.01 Z" fill="url(#SVGID_6_)" fill-opacity="0.3" fill-rule="nonzero" group-id="1" node-id="514" stroke="none" target-height="37.009995" target-width="1.4099998" target-x="54.83" target-y="106"></path></g><path d="M 264.00 228.90 C 264.00 250.02 224.52 267.15 175.82 267.15 C 127.12 267.15 87.64 250.02 87.64 228.90 C 87.64 207.78 127.12 190.65 175.82 190.65 C 224.52 190.65 264.00 207.78 264.00 228.90 Z" fill="#ecf3f8" fill-rule="nonzero" node-id="517" stroke="none" target-height="76.5" target-width="176.36" target-x="87.64" target-y="190.65"></path><path d="M 225.32 179.50 C 225.39 179.35 225.47 179.19 225.54 179.04 C 225.87 178.36 226.19 177.67 226.51 176.98 C 226.55 176.90 226.59 176.82 226.62 176.73 C 226.96 175.98 227.28 175.23 227.60 174.48 C 227.67 174.31 227.74 174.14 227.82 173.96 C 228.14 173.20 228.45 172.43 228.75 171.66 C 228.77 171.60 228.79 171.54 228.82 171.48 C 229.00 171.01 229.18 170.54 229.35 170.06 C 229.43 169.85 229.49 169.65 229.57 169.44 C 229.69 169.12 229.80 168.80 229.91 168.48 C 230.09 167.96 230.27 167.43 230.44 166.91 C 230.54 166.59 230.65 166.28 230.75 165.96 C 230.93 165.39 231.10 164.82 231.28 164.25 C 231.36 163.98 231.45 163.71 231.53 163.43 C 231.77 162.59 232.01 161.74 232.23 160.89 L 220.77 154.66 C 220.55 155.51 220.31 156.36 220.07 157.20 C 219.99 157.47 219.91 157.75 219.82 158.02 C 219.65 158.59 219.48 159.16 219.30 159.73 C 219.20 160.05 219.09 160.36 218.99 160.68 C 218.82 161.21 218.64 161.73 218.46 162.25 C 218.35 162.57 218.23 162.89 218.12 163.22 C 217.88 163.90 217.63 164.58 217.37 165.25 C 217.35 165.31 217.32 165.37 217.30 165.43 C 217.00 166.20 216.69 166.96 216.38 167.73 C 216.31 167.90 216.24 168.07 216.16 168.25 C 215.84 169.01 215.51 169.76 215.18 170.50 C 215.14 170.58 215.10 170.66 215.07 170.75 C 214.76 171.44 214.43 172.13 214.10 172.81 C 214.03 172.96 213.95 173.12 213.88 173.27 C 213.52 174.00 213.16 174.72 212.79 175.44 C 212.72 175.58 212.64 175.72 212.57 175.86 C 212.31 176.36 212.04 176.85 211.77 177.34 C 211.51 177.81 211.26 178.27 210.99 178.73 C 210.78 179.11 210.56 179.48 210.34 179.85 C 210.07 180.31 209.80 180.77 209.52 181.22 C 209.30 181.59 209.07 181.95 208.85 182.32 C 208.57 182.77 208.28 183.23 207.99 183.68 C 207.76 184.04 207.53 184.39 207.30 184.74 C 207.00 185.19 206.69 185.64 206.38 186.09 C 206.14 186.43 205.91 186.78 205.67 187.12 C 205.40 187.50 205.12 187.88 204.85 188.26 C 204.58 188.63 204.32 189.00 204.04 189.36 C 203.76 189.73 203.47 190.10 203.19 190.47 C 202.91 190.83 202.64 191.19 202.35 191.55 C 202.06 191.92 201.76 192.27 201.47 192.64 C 201.18 192.99 200.90 193.34 200.61 193.69 C 200.31 194.05 200.01 194.40 199.70 194.75 C 199.40 195.09 199.11 195.44 198.81 195.77 C 198.50 196.12 198.18 196.47 197.86 196.82 C 197.56 197.15 197.26 197.48 196.95 197.80 C 196.63 198.14 196.30 198.48 195.97 198.82 C 195.66 199.14 195.35 199.46 195.04 199.78 C 194.71 200.11 194.37 200.44 194.03 200.77 C 193.71 201.08 193.40 201.39 193.08 201.70 C 192.74 202.02 192.39 202.34 192.05 202.66 C 191.73 202.96 191.41 203.26 191.08 203.55 C 190.60 203.98 190.12 204.39 189.64 204.81 C 189.40 205.01 189.17 205.22 188.93 205.42 C 188.20 206.03 187.47 206.63 186.73 207.22 C 186.72 207.23 186.72 207.23 186.71 207.24 C 185.98 207.82 185.23 208.39 184.48 208.95 C 184.23 209.14 183.97 209.32 183.72 209.50 C 183.21 209.87 182.70 210.24 182.18 210.60 C 181.56 211.03 180.93 211.46 180.29 211.88 C 180.16 211.97 180.02 212.05 179.89 212.14 C 179.33 212.51 178.76 212.87 178.18 213.22 C 178.03 213.31 177.88 213.41 177.73 213.50 C 177.06 213.91 176.39 214.31 175.71 214.70 C 175.57 214.78 175.43 214.86 175.30 214.93 C 174.72 215.26 174.13 215.59 173.54 215.90 C 173.38 215.98 173.23 216.07 173.07 216.15 C 172.38 216.52 171.68 216.87 170.98 217.22 C 170.84 217.29 170.70 217.36 170.56 217.43 C 169.98 217.71 169.40 217.98 168.82 218.25 C 168.61 218.35 168.40 218.45 168.18 218.54 C 167.45 218.87 166.72 219.19 165.98 219.49 C 165.98 219.49 165.98 219.49 165.97 219.49 L 165.97 219.49 L 165.97 219.49 L 177.43 225.72 C 178.17 225.41 178.90 225.09 179.63 224.77 C 179.84 224.67 180.06 224.58 180.27 224.48 C 180.53 224.36 180.79 224.25 181.04 224.13 C 181.36 223.98 181.69 223.82 182.01 223.66 C 182.15 223.59 182.29 223.52 182.43 223.45 C 183.13 223.10 183.83 222.75 184.52 222.38 C 184.68 222.30 184.83 222.21 184.99 222.13 C 185.58 221.81 186.17 221.49 186.75 221.16 C 186.89 221.08 187.03 221.01 187.16 220.93 C 187.84 220.54 188.51 220.14 189.18 219.73 C 189.33 219.64 189.48 219.54 189.63 219.45 C 190.20 219.10 190.77 218.74 191.34 218.37 C 191.47 218.28 191.61 218.20 191.74 218.11 C 192.31 217.74 192.87 217.36 193.43 216.97 C 193.50 216.92 193.56 216.88 193.62 216.83 C 194.14 216.47 194.65 216.10 195.16 215.73 C 195.41 215.55 195.67 215.37 195.92 215.18 C 196.67 214.62 197.41 214.05 198.15 213.47 C 198.16 213.46 198.16 213.46 198.17 213.45 C 198.91 212.86 199.64 212.26 200.37 211.65 C 200.61 211.45 200.84 211.24 201.08 211.04 C 201.56 210.62 202.05 210.21 202.52 209.78 C 202.58 209.73 202.64 209.68 202.70 209.62 C 202.97 209.38 203.23 209.13 203.49 208.89 C 203.84 208.57 204.18 208.25 204.52 207.93 C 204.84 207.62 205.16 207.31 205.48 207.00 C 205.82 206.67 206.15 206.35 206.49 206.01 C 206.80 205.69 207.11 205.37 207.42 205.05 C 207.75 204.71 208.08 204.38 208.40 204.03 C 208.71 203.71 209.01 203.37 209.31 203.04 C 209.63 202.69 209.95 202.35 210.26 201.99 C 210.33 201.91 210.40 201.84 210.47 201.76 C 210.70 201.50 210.92 201.23 211.15 200.97 C 211.45 200.62 211.76 200.27 212.06 199.91 C 212.35 199.56 212.63 199.21 212.92 198.86 C 213.22 198.50 213.51 198.14 213.80 197.77 C 214.08 197.42 214.36 197.06 214.63 196.70 C 214.92 196.33 215.20 195.96 215.48 195.59 C 215.75 195.23 216.02 194.86 216.29 194.49 C 216.57 194.11 216.84 193.73 217.11 193.35 C 217.18 193.26 217.25 193.16 217.31 193.07 C 217.48 192.82 217.65 192.57 217.82 192.32 C 218.13 191.87 218.44 191.42 218.74 190.97 C 218.97 190.62 219.20 190.26 219.43 189.91 C 219.72 189.46 220.01 189.01 220.29 188.55 C 220.52 188.19 220.74 187.82 220.96 187.45 C 221.24 187.00 221.51 186.54 221.78 186.08 C 222.00 185.71 222.21 185.33 222.43 184.95 C 222.69 184.49 222.95 184.02 223.21 183.56 C 223.32 183.36 223.44 183.16 223.55 182.95 C 223.71 182.66 223.86 182.37 224.01 182.08 C 224.08 181.94 224.16 181.80 224.23 181.66 C 224.60 180.95 224.97 180.23 225.32 179.50 Z" fill="#1b4885" fill-rule="nonzero" group-id="2" node-id="521" stroke="none" target-height="71.06" target-width="66.259995" target-x="165.97" target-y="154.66"></path><path d="M 217.15 175.50 C 216.79 175.16 216.58 174.62 216.58 173.88 C 216.58 173.32 216.69 172.64 216.93 171.85 L 216.93 171.85 L 216.93 171.85 L 205.47 165.62 C 204.82 167.74 205.10 169.01 205.98 169.49 L 217.44 175.72 C 217.34 175.66 217.24 175.59 217.15 175.50 Z" fill="#1b4885" fill-rule="nonzero" group-id="2" node-id="523" stroke="none" target-height="10.100006" target-width="12.619995" target-x="204.82" target-y="165.62"></path><g clip-path="url(#SVGID_8_)" group-id="2,9" node-id="527"><path d="M 235.24 138.94 L 223.78 132.71 C 223.89 126.43 223.34 120.24 222.14 114.26 L 233.60 120.49 C 234.80 126.46 235.35 132.66 235.24 138.94" fill="#1b4885" fill-rule="nonzero" group-id="2,9,38" node-id="529" stroke="none" target-height="24.68" target-width="13.210007" target-x="222.14" target-y="114.26"></path></g><g clip-path="url(#SVGID_10_)" group-id="2,10" node-id="535"><path d="M 172.14 224.11 L 160.68 217.88 C 161.42 217.56 162.09 217.37 162.67 217.29 C 163.23 217.21 163.71 217.23 164.13 217.34 L 175.59 223.57 C 175.17 223.46 174.69 223.44 174.13 223.52 C 173.54 223.60 172.88 223.79 172.14 224.11" fill="#225ca8" fill-rule="nonzero" group-id="2,10,39" node-id="537" stroke="none" target-height="6.899994" target-width="14.910004" target-x="160.68" target-y="217.21"></path><path d="M 175.59 223.57 L 164.13 217.34 C 164.30 217.38 164.46 217.44 164.61 217.52 L 176.07 223.75 C 175.92 223.67 175.76 223.61 175.59 223.57" fill="#2159a3" fill-rule="nonzero" group-id="2,10,39" node-id="539" stroke="none" target-height="6.4100037" target-width="11.940002" target-x="164.13" target-y="217.34"></path><path d="M 176.07 223.74 L 164.61 217.51 C 164.64 217.52 164.67 217.54 164.70 217.55 L 176.16 223.78 C 176.13 223.77 176.10 223.76 176.07 223.74" fill="#20569e" fill-rule="nonzero" group-id="2,10,39" node-id="541" stroke="none" target-height="6.2700043" target-width="11.550003" target-x="164.61" target-y="217.51"></path></g><g clip-path="url(#SVGID_12_)" group-id="2,11" node-id="547"><path d="M 231.11 111.14 L 219.65 104.91 C 213.86 87.67 202.66 74.42 188.39 66.66 L 199.85 72.89 C 214.12 80.65 225.32 93.90 231.11 111.14" fill="#1b4885" fill-rule="nonzero" group-id="2,11,40" node-id="549" stroke="none" target-height="44.479996" target-width="42.72" target-x="188.39" target-y="66.66"></path></g><g clip-path="url(#SVGID_14_)" group-id="2,12" node-id="555"><path d="M 229.28 110.50 L 217.82 104.27 C 218.09 104.26 218.35 104.29 218.60 104.35 L 230.06 110.58 C 229.82 110.52 229.55 110.49 229.28 110.50" fill="#225ca8" fill-rule="nonzero" group-id="2,12,41" node-id="557" stroke="none" target-height="6.3199997" target-width="12.23999" target-x="217.82" target-y="104.26"></path><path d="M 230.07 110.59 L 218.61 104.36 C 218.78 104.40 218.94 104.47 219.10 104.54 L 230.56 110.77 C 230.40 110.69 230.24 110.63 230.07 110.59" fill="#2159a3" fill-rule="nonzero" group-id="2,12,41" node-id="559" stroke="none" target-height="6.409996" target-width="11.949997" target-x="218.61" target-y="104.36"></path><path d="M 230.56 110.77 L 219.10 104.54 C 219.13 104.56 219.16 104.57 219.19 104.59 L 230.65 110.82 C 230.62 110.80 230.59 110.78 230.56 110.77" fill="#20569e" fill-rule="nonzero" group-id="2,12,41" node-id="561" stroke="none" target-height="6.279999" target-width="11.549988" target-x="219.1" target-y="104.54"></path></g><g clip-path="url(#SVGID_16_)" group-id="2,13" node-id="567"><path d="M 154.35 228.74 L 142.89 222.51 C 143.26 222.46 143.63 222.41 144.00 222.38 L 155.46 228.61 C 155.09 228.64 154.72 228.68 154.35 228.74" fill="#225ca8" fill-rule="nonzero" group-id="2,13,42" node-id="569" stroke="none" target-height="6.3600006" target-width="12.570007" target-x="142.89" target-y="222.38"></path></g><g clip-path="url(#SVGID_18_)" group-id="2,14" node-id="575"><path d="M 174.47 186.31 L 163.01 180.08 C 163.03 180.09 163.05 180.10 163.07 180.11 L 174.53 186.34 C 174.51 186.33 174.49 186.32 174.47 186.31" fill="#20569e" fill-rule="nonzero" group-id="2,14,43" node-id="577" stroke="none" target-height="6.2599945" target-width="11.520004" target-x="163.01" target-y="180.08"></path><path d="M 174.54 186.34 L 163.08 180.11 C 163.17 180.15 163.27 180.19 163.37 180.21 L 174.83 186.44 C 174.72 186.42 174.63 186.38 174.54 186.34" fill="#2159a3" fill-rule="nonzero" group-id="2,14,43" node-id="579" stroke="none" target-height="6.330002" target-width="11.75" target-x="163.08" target-y="180.11"></path><path d="M 174.83 186.45 L 163.37 180.22 C 163.61 180.28 163.89 180.29 164.22 180.24 C 164.42 180.21 164.63 180.16 164.87 180.09 C 165.18 180.00 165.50 179.93 165.82 179.88 C 166.67 179.76 167.52 179.82 168.32 180.03 L 179.78 186.26 C 178.97 186.05 178.12 186.00 177.28 186.11 C 176.96 186.15 176.65 186.22 176.33 186.32 C 176.09 186.39 175.88 186.44 175.68 186.47 C 175.35 186.52 175.07 186.50 174.83 186.45" fill="#225ca8" fill-rule="nonzero" group-id="2,14,43" node-id="581" stroke="none" target-height="6.76001" target-width="16.410004" target-x="163.37" target-y="179.76"></path><path d="M 179.78 186.26 L 168.32 180.03 C 168.75 180.14 169.17 180.30 169.57 180.49 L 181.03 186.72 C 180.63 186.52 180.22 186.37 179.78 186.26" fill="#2159a3" fill-rule="nonzero" group-id="2,14,43" node-id="583" stroke="none" target-height="6.6900024" target-width="12.709991" target-x="168.32" target-y="180.03"></path><path d="M 181.03 186.72 L 169.57 180.49 C 169.65 180.53 169.74 180.57 169.82 180.62 L 181.28 186.85 C 181.20 186.80 181.12 186.76 181.03 186.72" fill="#20569e" fill-rule="nonzero" group-id="2,14,43" node-id="585" stroke="none" target-height="6.3600006" target-width="11.709991" target-x="169.57" target-y="180.49"></path></g><path d="M 215.99 119.08 C 215.97 118.99 215.95 118.91 215.93 118.82 C 215.90 118.69 215.87 118.55 215.84 118.42 C 215.82 118.33 215.81 118.24 215.79 118.15 C 215.77 118.02 215.75 117.89 215.73 117.77 C 215.72 117.68 215.70 117.59 215.69 117.50 C 215.67 117.37 215.66 117.25 215.65 117.12 C 215.64 117.03 215.63 116.94 215.62 116.85 C 215.61 116.72 215.60 116.59 215.59 116.46 C 215.59 116.38 215.58 116.29 215.58 116.21 C 215.58 116.07 215.57 115.94 215.57 115.80 C 215.57 115.72 215.57 115.65 215.57 115.57 C 215.57 115.40 215.58 115.24 215.59 115.07 C 215.59 115.03 215.59 114.99 215.59 114.94 C 215.60 114.73 215.62 114.53 215.64 114.33 C 215.65 114.27 215.65 114.22 215.66 114.16 C 215.68 114.01 215.69 113.87 215.72 113.72 C 215.73 113.64 215.74 113.57 215.76 113.50 C 215.78 113.38 215.80 113.25 215.83 113.13 C 215.85 113.05 215.86 112.97 215.88 112.89 C 215.90 112.77 215.93 112.66 215.96 112.54 C 215.98 112.46 216.00 112.38 216.02 112.30 C 216.05 112.19 216.08 112.08 216.11 111.97 C 216.13 111.89 216.16 111.81 216.18 111.74 C 216.21 111.63 216.25 111.52 216.29 111.41 C 216.32 111.34 216.34 111.26 216.37 111.19 C 216.39 111.12 216.42 111.06 216.44 110.99 C 216.52 110.78 216.61 110.57 216.70 110.36 C 216.72 110.31 216.74 110.27 216.76 110.22 C 216.87 109.98 216.98 109.75 217.10 109.53 C 217.13 109.47 217.17 109.41 217.20 109.34 C 217.27 109.22 217.34 109.09 217.41 108.97 C 217.45 108.90 217.49 108.84 217.53 108.77 C 217.60 108.65 217.68 108.54 217.76 108.42 C 217.80 108.36 217.84 108.30 217.88 108.24 C 217.94 108.15 218.01 108.06 218.08 107.97 C 218.13 107.91 218.17 107.84 218.22 107.78 C 218.29 107.69 218.37 107.60 218.44 107.51 C 218.49 107.46 218.53 107.40 218.58 107.35 C 218.64 107.28 218.71 107.21 218.78 107.14 C 218.84 107.08 218.89 107.02 218.95 106.96 C 219.02 106.89 219.09 106.83 219.16 106.76 C 219.22 106.71 219.27 106.65 219.33 106.60 C 219.41 106.52 219.50 106.45 219.59 106.38 C 219.64 106.34 219.68 106.30 219.73 106.26 C 219.86 106.16 219.98 106.07 220.11 105.98 C 220.12 105.97 220.12 105.97 220.13 105.96 C 220.28 105.86 220.43 105.76 220.58 105.68 C 220.63 105.65 220.68 105.63 220.73 105.60 C 220.83 105.54 220.94 105.49 221.04 105.44 C 221.11 105.41 221.18 105.37 221.26 105.34 C 221.32 105.32 221.37 105.29 221.43 105.27 C 221.51 105.24 221.59 105.21 221.68 105.18 C 221.73 105.16 221.79 105.14 221.84 105.12 C 221.93 105.09 222.02 105.07 222.11 105.04 C 222.16 105.03 222.20 105.01 222.25 105.00 C 222.39 104.97 222.53 104.94 222.66 104.92 C 222.80 104.90 222.93 104.89 223.07 104.88 C 223.11 104.88 223.16 104.88 223.20 104.88 C 223.30 104.88 223.39 104.88 223.49 104.88 C 223.54 104.88 223.59 104.88 223.64 104.89 C 223.73 104.90 223.83 104.91 223.92 104.92 C 223.97 104.93 224.01 104.93 224.06 104.94 C 224.18 104.96 224.29 104.98 224.41 105.01 C 224.43 105.02 224.45 105.02 224.47 105.02 C 224.61 105.06 224.75 105.10 224.88 105.15 C 224.92 105.16 224.96 105.18 225.00 105.20 C 225.10 105.24 225.20 105.28 225.30 105.33 C 225.39 105.37 225.47 105.41 225.55 105.46 L 214.09 99.23 C 214.03 99.20 213.97 99.16 213.90 99.13 C 213.88 99.12 213.85 99.11 213.83 99.10 C 213.73 99.05 213.63 99.01 213.53 98.97 C 213.49 98.95 213.45 98.94 213.41 98.92 C 213.27 98.87 213.14 98.83 213.00 98.79 C 213.00 98.79 212.99 98.79 212.99 98.79 C 212.97 98.79 212.95 98.78 212.93 98.78 C 212.81 98.75 212.70 98.73 212.58 98.71 C 212.53 98.70 212.49 98.70 212.44 98.69 C 212.35 98.68 212.25 98.67 212.16 98.66 C 212.11 98.66 212.06 98.65 212.01 98.65 C 211.91 98.65 211.82 98.65 211.72 98.65 C 211.68 98.65 211.63 98.65 211.59 98.65 C 211.45 98.66 211.32 98.67 211.18 98.69 C 211.04 98.71 210.90 98.74 210.77 98.77 C 210.72 98.78 210.68 98.79 210.63 98.81 C 210.54 98.83 210.45 98.86 210.36 98.89 C 210.31 98.91 210.25 98.93 210.20 98.95 C 210.12 98.98 210.03 99.01 209.95 99.04 C 209.89 99.06 209.84 99.09 209.78 99.11 C 209.73 99.13 209.68 99.15 209.63 99.17 C 209.61 99.18 209.58 99.19 209.56 99.21 C 209.45 99.26 209.35 99.32 209.25 99.37 C 209.20 99.40 209.15 99.42 209.10 99.45 C 208.95 99.54 208.80 99.63 208.65 99.73 C 208.65 99.73 208.65 99.73 208.65 99.73 C 208.64 99.74 208.63 99.74 208.63 99.75 C 208.50 99.84 208.38 99.93 208.25 100.03 C 208.20 100.07 208.16 100.11 208.11 100.14 C 208.02 100.21 207.94 100.28 207.85 100.36 C 207.84 100.36 207.84 100.37 207.83 100.37 C 207.78 100.42 207.73 100.47 207.68 100.51 C 207.61 100.58 207.54 100.64 207.47 100.71 C 207.41 100.77 207.36 100.83 207.31 100.88 C 207.24 100.95 207.18 101.02 207.11 101.09 C 207.10 101.10 207.10 101.11 207.09 101.11 C 207.05 101.15 207.01 101.20 206.98 101.25 C 206.91 101.34 206.83 101.43 206.76 101.52 C 206.71 101.58 206.67 101.64 206.62 101.71 C 206.55 101.80 206.49 101.89 206.42 101.98 C 206.41 102.00 206.39 102.02 206.38 102.04 C 206.35 102.08 206.33 102.12 206.30 102.16 C 206.22 102.27 206.15 102.39 206.07 102.51 C 206.03 102.58 205.99 102.64 205.95 102.71 C 205.88 102.83 205.81 102.95 205.74 103.08 C 205.72 103.12 205.69 103.16 205.67 103.21 C 205.66 103.23 205.65 103.25 205.64 103.27 C 205.52 103.49 205.41 103.72 205.30 103.96 C 205.28 104.01 205.26 104.05 205.24 104.10 C 205.15 104.30 205.07 104.51 204.98 104.73 C 204.97 104.77 204.95 104.80 204.94 104.84 C 204.93 104.87 204.92 104.90 204.91 104.93 C 204.88 105.00 204.86 105.08 204.83 105.15 C 204.79 105.26 204.76 105.37 204.72 105.48 C 204.70 105.56 204.67 105.64 204.65 105.72 C 204.62 105.83 204.59 105.94 204.56 106.05 C 204.54 106.13 204.52 106.21 204.50 106.29 C 204.47 106.40 204.45 106.52 204.42 106.63 C 204.40 106.71 204.39 106.79 204.37 106.87 C 204.35 106.99 204.33 107.12 204.30 107.24 C 204.29 107.31 204.27 107.39 204.26 107.46 C 204.24 107.60 204.22 107.75 204.20 107.89 C 204.19 107.95 204.18 108.00 204.18 108.06 C 204.16 108.26 204.14 108.47 204.13 108.67 C 204.13 108.71 204.13 108.76 204.13 108.80 C 204.12 108.96 204.12 109.13 204.11 109.29 C 204.11 109.37 204.11 109.44 204.11 109.52 C 204.11 109.65 204.11 109.79 204.12 109.92 C 204.12 110.00 204.13 110.09 204.13 110.17 C 204.14 110.30 204.14 110.43 204.16 110.55 C 204.17 110.64 204.18 110.73 204.19 110.82 C 204.20 110.95 204.22 111.07 204.23 111.20 C 204.24 111.29 204.25 111.38 204.27 111.47 C 204.29 111.60 204.31 111.73 204.33 111.85 C 204.35 111.94 204.36 112.03 204.38 112.12 C 204.41 112.25 204.44 112.39 204.47 112.52 C 204.49 112.61 204.51 112.69 204.53 112.78 C 204.57 112.93 204.61 113.07 204.65 113.22 C 204.67 113.29 204.69 113.36 204.71 113.44 C 204.78 113.66 204.85 113.88 204.93 114.09 L 216.39 120.32 C 216.31 120.10 216.24 119.88 216.17 119.67 C 216.15 119.60 216.13 119.53 216.11 119.45 C 216.06 119.37 216.02 119.22 215.99 119.08 Z" fill="#20569e" fill-rule="nonzero" group-id="2" node-id="589" stroke="none" target-height="21.669998" target-width="21.440002" target-x="204.11" target-y="98.65"></path><path d="M 207.25 159.60 C 207.12 159.49 206.99 159.37 206.86 159.26 C 206.82 159.22 206.78 159.19 206.74 159.15 C 206.65 159.07 206.56 158.98 206.47 158.89 C 206.43 158.85 206.39 158.81 206.34 158.77 C 206.24 158.68 206.15 158.58 206.05 158.49 C 206.02 158.46 205.99 158.43 205.96 158.40 C 205.84 158.27 205.71 158.15 205.59 158.02 C 205.56 157.99 205.54 157.96 205.51 157.94 C 205.41 157.84 205.32 157.73 205.22 157.63 C 205.18 157.59 205.14 157.54 205.10 157.50 C 205.02 157.40 204.93 157.31 204.85 157.21 C 204.81 157.17 204.78 157.12 204.74 157.08 C 204.63 156.95 204.53 156.83 204.43 156.70 C 204.42 156.69 204.41 156.67 204.40 156.66 C 204.29 156.52 204.18 156.37 204.07 156.23 C 204.04 156.19 204.01 156.14 203.98 156.10 C 203.90 155.99 203.83 155.89 203.75 155.78 C 203.71 155.73 203.68 155.68 203.65 155.63 C 203.57 155.52 203.50 155.40 203.42 155.29 C 203.39 155.25 203.37 155.21 203.34 155.16 C 203.24 155.00 203.14 154.84 203.05 154.68 C 203.03 154.65 203.02 154.62 203.00 154.59 C 202.92 154.46 202.85 154.32 202.77 154.19 C 202.74 154.14 202.71 154.08 202.68 154.03 C 202.62 153.91 202.56 153.79 202.50 153.67 C 202.47 153.62 202.45 153.56 202.42 153.50 C 202.35 153.35 202.28 153.21 202.22 153.06 C 202.21 153.03 202.20 153.01 202.18 152.98 C 202.10 152.80 202.03 152.63 201.96 152.45 C 201.94 152.40 201.92 152.35 201.90 152.30 C 201.85 152.17 201.80 152.03 201.75 151.90 C 201.73 151.84 201.71 151.78 201.69 151.72 C 201.64 151.58 201.60 151.45 201.56 151.31 C 201.54 151.26 201.53 151.20 201.51 151.15 C 201.45 150.96 201.40 150.77 201.35 150.57 C 201.34 150.55 201.34 150.52 201.33 150.49 C 201.29 150.32 201.25 150.15 201.21 149.97 C 201.20 149.91 201.19 149.84 201.17 149.78 C 201.14 149.64 201.12 149.49 201.09 149.35 C 201.08 149.28 201.07 149.22 201.06 149.15 C 201.04 148.98 201.01 148.82 200.99 148.65 C 200.99 148.61 200.98 148.57 200.97 148.52 C 200.95 148.31 200.93 148.10 200.92 147.88 C 200.92 147.82 200.91 147.77 200.91 147.71 C 200.90 147.55 200.89 147.38 200.89 147.22 C 200.89 147.15 200.89 147.07 200.89 147.00 C 200.89 146.84 200.89 146.68 200.89 146.52 C 200.89 146.45 200.89 146.39 200.89 146.32 C 200.90 146.09 200.91 145.86 200.92 145.63 C 200.92 145.62 200.92 145.60 200.92 145.59 C 200.94 145.37 200.96 145.15 200.98 144.93 C 200.99 144.86 201.00 144.78 201.01 144.71 C 201.03 144.54 201.05 144.37 201.08 144.20 C 201.09 144.12 201.10 144.04 201.12 143.96 C 201.15 143.77 201.19 143.58 201.22 143.39 C 201.23 143.33 201.24 143.27 201.25 143.22 C 201.30 142.97 201.36 142.72 201.42 142.47 C 201.43 142.41 201.45 142.35 201.47 142.29 C 201.52 142.09 201.57 141.89 201.63 141.69 C 201.65 141.60 201.68 141.52 201.70 141.43 C 201.75 141.24 201.81 141.06 201.87 140.87 C 201.90 140.79 201.92 140.71 201.95 140.62 C 202.03 140.37 202.12 140.11 202.22 139.85 C 202.22 139.84 202.23 139.82 202.23 139.81 C 202.34 139.52 202.45 139.23 202.57 138.94 C 202.60 138.86 202.64 138.77 202.67 138.69 C 202.77 138.46 202.87 138.23 202.97 137.99 C 203.00 137.91 203.04 137.84 203.07 137.76 C 203.21 137.46 203.35 137.16 203.50 136.85 C 203.53 136.79 203.56 136.74 203.59 136.68 C 203.72 136.42 203.85 136.17 203.99 135.91 C 204.04 135.82 204.09 135.73 204.14 135.63 C 204.29 135.36 204.44 135.09 204.60 134.82 C 204.63 134.77 204.66 134.72 204.69 134.67 C 204.88 134.35 205.07 134.02 205.27 133.70 C 205.32 133.61 205.38 133.53 205.43 133.44 C 205.59 133.18 205.76 132.92 205.93 132.66 C 205.99 132.57 206.05 132.48 206.11 132.38 C 206.33 132.04 206.56 131.70 206.81 131.36 C 206.99 131.11 207.17 130.85 207.36 130.60 C 207.41 130.53 207.47 130.45 207.52 130.38 C 207.66 130.19 207.80 130.00 207.94 129.81 C 208.01 129.72 208.08 129.63 208.15 129.53 C 208.29 129.35 208.43 129.17 208.57 128.99 C 208.64 128.90 208.71 128.81 208.78 128.72 C 208.95 128.51 209.12 128.30 209.29 128.08 C 209.34 128.02 209.38 127.96 209.43 127.91 C 209.65 127.64 209.88 127.37 210.11 127.09 C 210.17 127.02 210.23 126.95 210.29 126.88 C 210.47 126.67 210.64 126.47 210.82 126.26 C 210.90 126.16 210.99 126.07 211.07 125.97 C 211.20 125.82 211.34 125.67 211.47 125.52 C 211.75 125.21 212.03 124.89 212.32 124.58 C 212.39 124.51 212.45 124.44 212.51 124.37 C 212.86 123.99 213.23 123.60 213.60 123.21 C 213.70 123.11 213.79 123.01 213.89 122.91 C 214.18 122.61 214.48 122.30 214.79 121.99 C 214.90 121.88 215.02 121.76 215.13 121.65 C 215.53 121.25 215.94 120.85 216.36 120.44 L 204.90 114.21 C 204.48 114.62 204.07 115.02 203.67 115.42 C 203.56 115.53 203.44 115.65 203.33 115.76 C 203.03 116.07 202.73 116.37 202.43 116.68 C 202.33 116.78 202.23 116.88 202.14 116.98 C 201.77 117.37 201.41 117.75 201.05 118.14 C 200.98 118.21 200.92 118.28 200.86 118.35 C 200.57 118.67 200.29 118.98 200.01 119.29 C 199.96 119.35 199.91 119.40 199.86 119.46 C 199.78 119.56 199.69 119.65 199.61 119.74 C 199.53 119.84 199.44 119.93 199.36 120.03 C 199.18 120.24 199.00 120.45 198.83 120.65 C 198.77 120.72 198.71 120.79 198.65 120.86 C 198.42 121.13 198.19 121.41 197.97 121.68 C 197.92 121.74 197.87 121.80 197.82 121.86 C 197.65 122.07 197.48 122.28 197.32 122.49 C 197.25 122.58 197.18 122.67 197.11 122.76 C 196.97 122.94 196.83 123.12 196.69 123.30 C 196.62 123.39 196.55 123.48 196.48 123.58 C 196.34 123.77 196.20 123.96 196.06 124.15 C 196.01 124.22 195.95 124.30 195.90 124.37 C 195.72 124.62 195.54 124.87 195.37 125.12 C 195.37 125.13 195.36 125.13 195.36 125.14 C 195.12 125.48 194.89 125.82 194.66 126.16 C 194.60 126.25 194.54 126.35 194.48 126.44 C 194.31 126.70 194.14 126.96 193.98 127.21 C 193.93 127.30 193.87 127.39 193.82 127.47 C 193.62 127.80 193.42 128.12 193.24 128.44 C 193.21 128.49 193.18 128.54 193.15 128.60 C 192.99 128.87 192.84 129.14 192.70 129.41 C 192.68 129.45 192.65 129.50 192.62 129.55 C 192.59 129.60 192.57 129.64 192.55 129.69 C 192.41 129.95 192.28 130.21 192.15 130.46 C 192.12 130.52 192.09 130.58 192.06 130.64 C 191.91 130.95 191.77 131.25 191.63 131.55 C 191.59 131.63 191.56 131.70 191.53 131.78 C 191.43 132.01 191.33 132.24 191.23 132.47 C 191.20 132.55 191.16 132.64 191.13 132.72 C 191.01 133.01 190.90 133.31 190.79 133.59 C 190.79 133.59 190.79 133.59 190.79 133.59 C 190.79 133.60 190.78 133.61 190.78 133.63 C 190.69 133.89 190.60 134.14 190.51 134.40 C 190.48 134.48 190.46 134.57 190.43 134.65 C 190.37 134.84 190.31 135.02 190.26 135.21 C 190.23 135.30 190.21 135.38 190.19 135.47 C 190.13 135.67 190.08 135.87 190.03 136.06 C 190.01 136.12 190.00 136.18 189.98 136.24 C 189.92 136.49 189.86 136.74 189.81 136.99 C 189.80 137.05 189.79 137.11 189.78 137.17 C 189.74 137.36 189.71 137.55 189.68 137.74 C 189.67 137.82 189.65 137.90 189.64 137.98 C 189.61 138.15 189.59 138.32 189.57 138.49 C 189.56 138.56 189.55 138.64 189.54 138.71 C 189.52 138.93 189.49 139.15 189.48 139.37 C 189.48 139.38 189.48 139.40 189.48 139.41 C 189.46 139.64 189.45 139.87 189.45 140.10 C 189.45 140.17 189.45 140.24 189.45 140.31 C 189.45 140.47 189.45 140.63 189.45 140.79 C 189.45 140.86 189.45 140.94 189.45 141.01 C 189.45 141.18 189.46 141.34 189.47 141.50 C 189.47 141.56 189.48 141.61 189.48 141.67 C 189.49 141.88 189.51 142.10 189.53 142.31 C 189.53 142.35 189.54 142.40 189.55 142.44 C 189.57 142.61 189.59 142.77 189.62 142.94 C 189.63 143.01 189.64 143.07 189.65 143.14 C 189.67 143.28 189.70 143.43 189.73 143.57 C 189.74 143.63 189.75 143.70 189.77 143.76 C 189.81 143.93 189.84 144.11 189.89 144.28 C 189.90 144.31 189.90 144.33 189.91 144.36 C 189.96 144.55 190.01 144.75 190.07 144.94 C 190.09 145.00 190.10 145.05 190.12 145.11 C 190.16 145.25 190.20 145.38 190.25 145.52 C 190.27 145.58 190.29 145.64 190.31 145.71 C 190.36 145.84 190.41 145.98 190.46 146.11 C 190.48 146.16 190.50 146.21 190.52 146.26 C 190.59 146.44 190.66 146.62 190.74 146.79 C 190.75 146.82 190.77 146.85 190.78 146.87 C 190.85 147.02 190.91 147.16 190.98 147.31 C 191.01 147.37 191.03 147.42 191.06 147.48 C 191.12 147.60 191.18 147.72 191.24 147.84 C 191.27 147.89 191.30 147.95 191.33 148.00 C 191.40 148.14 191.48 148.27 191.56 148.40 C 191.58 148.43 191.59 148.46 191.61 148.49 C 191.70 148.65 191.80 148.81 191.90 148.97 C 191.93 149.01 191.96 149.05 191.98 149.10 C 192.05 149.22 192.13 149.33 192.21 149.44 C 192.24 149.49 192.28 149.54 192.31 149.59 C 192.39 149.70 192.46 149.81 192.54 149.91 C 192.57 149.95 192.60 150.00 192.64 150.04 C 192.75 150.19 192.86 150.33 192.97 150.47 C 192.98 150.48 192.99 150.50 193.00 150.51 C 193.10 150.64 193.21 150.77 193.31 150.89 C 193.35 150.93 193.38 150.98 193.42 151.02 C 193.50 151.12 193.58 151.21 193.67 151.31 C 193.71 151.35 193.75 151.40 193.79 151.44 C 193.88 151.55 193.98 151.65 194.08 151.75 C 194.11 151.78 194.13 151.81 194.16 151.83 C 194.28 151.96 194.41 152.09 194.53 152.21 C 194.56 152.24 194.59 152.27 194.63 152.30 C 194.72 152.39 194.82 152.49 194.92 152.58 C 194.96 152.62 195.00 152.66 195.05 152.70 C 195.14 152.79 195.23 152.87 195.32 152.96 C 195.36 153.00 195.40 153.03 195.44 153.07 C 195.57 153.19 195.70 153.30 195.83 153.41 C 199.60 156.68 203.18 161.87 205.51 165.65 L 216.97 171.88 C 214.61 168.07 211.03 162.87 207.25 159.60 Z" fill="url(#SVGID_19_)" fill-rule="nonzero" group-id="2" node-id="591" stroke="none" target-height="57.670006" target-width="27.520004" target-x="189.45" target-y="114.21"></path><g clip-path="url(#SVGID_21_)" group-id="2,15" node-id="595"><path d="M 168.05 179.92 L 156.59 173.69 C 156.69 173.74 156.79 173.80 156.89 173.84 L 168.35 180.07 C 168.25 180.02 168.15 179.97 168.05 179.92" fill="#20569e" fill-rule="nonzero" group-id="2,15,44" node-id="597" stroke="none" target-height="6.380005" target-width="11.76001" target-x="156.59" target-y="173.69"></path><path d="M 168.34 180.07 L 156.88 173.84 C 157.27 174.03 157.65 174.18 158.03 174.28 L 169.49 180.51 C 169.12 180.42 168.74 180.27 168.34 180.07" fill="#2159a3" fill-rule="nonzero" group-id="2,15,44" node-id="599" stroke="none" target-height="6.669998" target-width="12.610001" target-x="156.88" target-y="173.84"></path><path d="M 169.49 180.51 L 158.03 174.28 C 158.40 174.37 158.76 174.42 159.11 174.40 C 159.40 174.39 159.65 174.41 159.87 174.46 L 171.33 180.69 C 171.11 180.64 170.86 180.61 170.57 180.63 C 170.22 180.65 169.86 180.61 169.49 180.51" fill="#225ca8" fill-rule="nonzero" group-id="2,15,44" node-id="601" stroke="none" target-height="6.4100037" target-width="13.300003" target-x="158.03" target-y="174.28"></path><path d="M 171.33 180.70 L 159.87 174.47 C 160.01 174.50 160.14 174.55 160.26 174.61 L 171.72 180.84 C 171.60 180.78 171.47 180.73 171.33 180.70" fill="#2159a3" fill-rule="nonzero" group-id="2,15,44" node-id="603" stroke="none" target-height="6.369995" target-width="11.850006" target-x="159.87" target-y="174.47"></path><path d="M 171.72 180.83 L 160.26 174.60 C 160.29 174.61 160.31 174.63 160.34 174.64 L 171.80 180.87 C 171.77 180.86 171.74 180.85 171.72 180.83" fill="#20569e" fill-rule="nonzero" group-id="2,15,44" node-id="605" stroke="none" target-height="6.269989" target-width="11.540009" target-x="160.26" target-y="174.6"></path></g><g clip-path="url(#SVGID_23_)" group-id="2,16" node-id="611"><path d="M 154.18 170.11 L 142.72 163.88 C 142.85 163.95 142.98 164.02 143.11 164.08 L 154.57 170.31 C 154.44 170.25 154.31 170.18 154.18 170.11" fill="#20569e" fill-rule="nonzero" group-id="2,16,45" node-id="613" stroke="none" target-height="6.4299927" target-width="11.850006" target-x="142.72" target-y="163.88"></path><path d="M 154.57 170.31 L 143.11 164.08 C 143.36 164.20 143.60 164.31 143.85 164.40 C 144.22 164.54 144.58 164.69 144.94 164.87 L 156.40 171.10 C 156.04 170.92 155.68 170.76 155.31 170.63 C 155.06 170.54 154.81 170.43 154.57 170.31" fill="#2159a3" fill-rule="nonzero" group-id="2,16,45" node-id="615" stroke="none" target-height="7.0200043" target-width="13.289993" target-x="143.11" target-y="164.08"></path><path d="M 156.39 171.10 L 144.93 164.87 C 145.10 164.95 145.27 165.04 145.43 165.13 L 156.89 171.36 C 156.73 171.27 156.56 171.19 156.39 171.10" fill="#20569e" fill-rule="nonzero" group-id="2,16,45" node-id="617" stroke="none" target-height="6.4900055" target-width="11.960007" target-x="144.93" target-y="164.87"></path></g><path d="M 146.01 231.19 C 146.18 231.11 146.35 231.04 146.52 230.96 C 146.72 230.87 146.91 230.80 147.11 230.71 C 147.28 230.64 147.45 230.57 147.62 230.50 C 147.82 230.42 148.02 230.35 148.22 230.28 C 148.39 230.22 148.55 230.16 148.72 230.10 C 148.93 230.03 149.13 229.96 149.34 229.90 C 149.51 229.85 149.67 229.79 149.84 229.74 C 150.05 229.68 150.26 229.62 150.48 229.56 C 150.64 229.51 150.80 229.47 150.97 229.42 C 151.19 229.36 151.42 229.31 151.64 229.26 C 151.79 229.22 151.94 229.18 152.09 229.15 C 152.34 229.09 152.59 229.05 152.84 229.00 C 152.97 228.98 153.09 228.95 153.22 228.92 C 153.60 228.85 153.97 228.79 154.35 228.74 L 142.89 222.51 C 142.51 222.56 142.14 222.62 141.76 222.69 C 141.63 222.71 141.51 222.74 141.39 222.77 C 141.14 222.82 140.89 222.87 140.64 222.92 C 140.49 222.95 140.34 222.99 140.19 223.03 C 139.96 223.08 139.74 223.14 139.51 223.20 C 139.35 223.24 139.19 223.29 139.03 223.33 C 138.81 223.39 138.60 223.45 138.38 223.51 C 138.22 223.56 138.05 223.62 137.89 223.67 C 137.68 223.74 137.47 223.80 137.27 223.87 C 137.10 223.93 136.94 223.99 136.77 224.05 C 136.57 224.12 136.36 224.20 136.16 224.28 C 135.99 224.35 135.83 224.42 135.66 224.48 C 135.46 224.56 135.26 224.64 135.06 224.73 C 134.89 224.80 134.72 224.88 134.56 224.96 C 134.40 225.03 134.25 225.10 134.09 225.17 C 134.01 225.21 133.94 225.24 133.86 225.28 C 133.26 225.25 132.66 225.21 132.06 225.17 C 131.86 225.16 131.67 225.14 131.47 225.12 C 131.07 225.09 130.67 225.05 130.27 225.01 C 130.04 224.99 129.81 224.96 129.57 224.93 C 129.21 224.89 128.85 224.85 128.50 224.80 C 128.25 224.77 128.01 224.73 127.77 224.70 C 127.43 224.65 127.09 224.60 126.75 224.55 C 126.50 224.51 126.25 224.47 126.00 224.43 C 125.67 224.37 125.34 224.32 125.00 224.25 C 124.75 224.20 124.50 224.16 124.26 224.11 C 123.93 224.05 123.60 223.98 123.28 223.91 C 123.04 223.86 122.79 223.81 122.55 223.75 C 122.22 223.68 121.89 223.60 121.56 223.52 C 121.33 223.46 121.09 223.41 120.86 223.35 C 120.52 223.26 120.18 223.17 119.84 223.08 C 119.62 223.02 119.40 222.96 119.19 222.90 C 118.82 222.79 118.45 222.68 118.08 222.57 C 117.90 222.52 117.72 222.47 117.54 222.41 C 116.99 222.24 116.45 222.06 115.91 221.88 C 115.90 221.88 115.88 221.87 115.87 221.87 C 115.34 221.69 114.82 221.50 114.30 221.31 C 114.12 221.24 113.95 221.17 113.77 221.11 C 113.42 220.98 113.06 220.84 112.71 220.70 C 112.50 220.62 112.30 220.53 112.09 220.44 C 111.77 220.31 111.46 220.18 111.14 220.04 C 110.92 219.95 110.71 219.85 110.49 219.75 C 110.19 219.62 109.89 219.48 109.59 219.34 C 109.37 219.24 109.15 219.13 108.94 219.03 C 108.70 218.91 108.45 218.79 108.21 218.67 C 107.53 218.33 106.85 217.99 106.19 217.62 L 117.65 223.85 C 118.32 224.21 118.99 224.56 119.67 224.90 C 119.75 224.94 119.84 224.99 119.92 225.03 C 120.08 225.11 120.24 225.18 120.40 225.26 C 120.62 225.36 120.83 225.47 121.05 225.57 C 121.35 225.71 121.65 225.84 121.95 225.98 C 122.16 226.08 122.38 226.17 122.60 226.27 C 122.91 226.41 123.23 226.54 123.55 226.67 C 123.76 226.76 123.96 226.84 124.17 226.93 C 124.52 227.07 124.87 227.21 125.22 227.34 C 125.40 227.41 125.58 227.48 125.75 227.55 C 126.26 227.74 126.78 227.93 127.30 228.10 C 127.32 228.11 127.34 228.11 127.36 228.12 C 127.90 228.30 128.44 228.48 128.99 228.65 C 129.17 228.71 129.35 228.76 129.53 228.81 C 129.90 228.92 130.27 229.03 130.64 229.14 C 130.86 229.20 131.07 229.26 131.29 229.32 C 131.55 229.39 131.80 229.46 132.06 229.53 C 132.14 229.55 132.23 229.57 132.31 229.59 C 132.54 229.65 132.78 229.70 133.01 229.76 C 133.34 229.84 133.67 229.92 134.00 229.99 C 134.24 230.04 134.49 230.10 134.73 230.15 C 135.06 230.22 135.39 230.29 135.71 230.35 C 135.96 230.40 136.21 230.45 136.45 230.49 C 136.78 230.55 137.11 230.61 137.44 230.66 C 137.69 230.70 137.94 230.74 138.19 230.78 C 138.53 230.83 138.87 230.88 139.21 230.93 C 139.46 230.96 139.70 231.00 139.95 231.03 C 140.30 231.08 140.66 231.12 141.02 231.16 C 141.25 231.19 141.49 231.21 141.72 231.24 C 142.12 231.28 142.51 231.31 142.91 231.35 C 143.11 231.37 143.31 231.39 143.50 231.40 C 144.09 231.44 144.69 231.48 145.28 231.51 C 145.29 231.51 145.29 231.51 145.30 231.51 L 145.30 231.51 C 145.30 231.51 145.30 231.51 145.30 231.51 C 145.55 231.40 145.78 231.29 146.01 231.19 Z" fill="#225ca8" fill-rule="nonzero" group-id="2" node-id="621" stroke="none" target-height="13.889999" target-width="48.160004" target-x="106.19" target-y="217.62"></path><path d="M 154.90 220.30 C 154.88 219.34 154.86 218.35 154.86 217.32 C 154.86 216.29 154.86 215.21 154.88 214.10 L 154.88 214.10 L 154.88 214.10 C 153.99 213.54 136.99 202.80 137.01 193.84 C 137.02 185.82 138.85 181.39 137.64 180.73 L 126.18 174.50 C 127.39 175.16 125.57 179.59 125.55 187.61 C 125.53 196.57 142.53 207.30 143.42 207.87 C 143.33 213.82 143.54 218.59 144.00 222.37 L 155.46 228.60 C 155.17 226.24 154.98 223.49 154.90 220.30 Z" fill="#1b4885" fill-rule="nonzero" group-id="2" node-id="623" stroke="none" target-height="54.100006" target-width="29.930008" target-x="125.53" target-y="174.5"></path><g clip-path="url(#SVGID_25_)" group-id="2,17" node-id="627"><path d="M 144.04 166.14 L 132.58 159.91 C 133.74 159.79 134.79 159.90 135.77 160.15 L 147.23 166.38 C 146.25 166.13 145.20 166.02 144.04 166.14" fill="#225ca8" fill-rule="nonzero" group-id="2,17,46" node-id="629" stroke="none" target-height="6.5900116" target-width="14.649994" target-x="132.58" target-y="159.79"></path><path d="M 147.23 166.38 L 135.77 160.15 C 136.53 160.35 137.24 160.63 137.91 160.96 L 149.37 167.19 C 148.70 166.86 147.99 166.58 147.23 166.38" fill="#2159a3" fill-rule="nonzero" group-id="2,17,46" node-id="631" stroke="none" target-height="7.0400085" target-width="13.599991" target-x="135.77" target-y="160.15"></path><path d="M 149.37 167.20 L 137.91 160.97 C 138.10 161.06 138.29 161.16 138.47 161.26 L 149.93 167.49 C 149.75 167.39 149.56 167.29 149.37 167.20" fill="#20569e" fill-rule="nonzero" group-id="2,17,46" node-id="633" stroke="none" target-height="6.5200043" target-width="12.019989" target-x="137.91" target-y="160.97"></path></g><g clip-path="url(#SVGID_27_)" group-id="2,18" node-id="639"><path d="M 163.47 152.96 L 152.01 146.73 C 150.53 145.93 148.74 143.03 147.09 140.11 C 145.26 136.86 143.62 133.59 142.81 133.15 L 154.27 139.38 C 155.08 139.82 156.72 143.10 158.55 146.34 C 160.19 149.26 161.99 152.15 163.47 152.96" fill="#1b4885" fill-rule="nonzero" group-id="2,18,47" node-id="641" stroke="none" target-height="19.810013" target-width="20.660004" target-x="142.81" target-y="133.15"></path></g><g clip-path="url(#SVGID_29_)" group-id="2,19" node-id="647"><path d="M 134.25 169.25 L 122.79 163.02 C 122.80 163.03 122.81 163.03 122.82 163.04 L 134.28 169.27 C 134.27 169.26 134.26 169.25 134.25 169.25" fill="#20569e" fill-rule="nonzero" group-id="2,19,48" node-id="649" stroke="none" target-height="6.25" target-width="11.489998" target-x="122.79" target-y="163.02"></path><path d="M 134.28 169.26 L 122.82 163.03 C 122.87 163.06 122.93 163.08 122.99 163.09 L 134.45 169.32 C 134.39 169.31 134.33 169.29 134.28 169.26" fill="#2159a3" fill-rule="nonzero" group-id="2,19,48" node-id="651" stroke="none" target-height="6.2900085" target-width="11.629997" target-x="122.82" target-y="163.03"></path><path d="M 134.45 169.33 L 123.00 163.09 C 123.19 163.14 123.41 163.14 123.67 163.10 C 124.66 162.96 126.13 162.27 127.73 161.56 C 129.33 160.85 131.07 160.12 132.58 159.90 L 144.04 166.13 C 142.52 166.34 140.79 167.07 139.19 167.79 C 137.59 168.50 136.12 169.19 135.13 169.33 C 134.87 169.38 134.64 169.37 134.45 169.33" fill="#225ca8" fill-rule="nonzero" group-id="2,19,48" node-id="653" stroke="none" target-height="9.480011" target-width="21.039993" target-x="123" target-y="159.9"></path></g><g clip-path="url(#SVGID_31_)" group-id="2,20" node-id="659"><path d="M 154.05 114.02 L 142.59 107.79 C 142.67 107.84 142.76 107.88 142.84 107.92 L 154.30 114.15 C 154.21 114.11 154.13 114.06 154.05 114.02" fill="#20569e" fill-rule="nonzero" group-id="2,20,49" node-id="661" stroke="none" target-height="6.3600006" target-width="11.710007" target-x="142.59" target-y="107.79"></path><path d="M 154.30 114.15 L 142.84 107.92 C 143.31 108.15 143.85 108.35 144.43 108.50 L 155.89 114.73 C 155.31 114.57 154.77 114.38 154.30 114.15" fill="#2159a3" fill-rule="nonzero" group-id="2,20,49" node-id="663" stroke="none" target-height="6.810005" target-width="13.050003" target-x="142.84" target-y="107.92"></path><path d="M 155.89 114.73 L 144.43 108.50 C 145.90 108.88 147.69 108.98 149.64 108.70 C 150.95 108.52 152.34 108.16 153.76 107.61 C 153.81 107.59 153.86 107.57 153.90 107.55 L 165.36 113.78 C 165.31 113.80 165.27 113.82 165.22 113.84 C 163.80 114.39 162.41 114.75 161.10 114.93 C 159.15 115.20 157.36 115.10 155.89 114.73" fill="#225ca8" fill-rule="nonzero" group-id="2,20,49" node-id="665" stroke="none" target-height="7.649994" target-width="20.930008" target-x="144.43" target-y="107.55"></path><path d="M 165.37 113.78 L 153.91 107.55 C 154.02 107.50 154.12 107.44 154.21 107.38 L 165.67 113.61 C 165.58 113.67 165.48 113.73 165.37 113.78" fill="#2159a3" fill-rule="nonzero" group-id="2,20,49" node-id="667" stroke="none" target-height="6.4000015" target-width="11.7599945" target-x="153.91" target-y="107.38"></path><path d="M 165.67 113.61 L 154.21 107.38 C 154.27 107.34 154.33 107.29 154.38 107.25 L 165.84 113.48 C 165.79 113.52 165.73 113.57 165.67 113.61" fill="#20569e" fill-rule="nonzero" group-id="2,20,49" node-id="669" stroke="none" target-height="6.3600006" target-width="11.62999" target-x="154.21" target-y="107.25"></path><path d="M 165.84 113.48 L 154.38 107.25 C 154.42 107.21 154.46 107.17 154.50 107.13 L 165.96 113.36 C 165.93 113.40 165.89 113.44 165.84 113.48" fill="#1f5399" fill-rule="nonzero" group-id="2,20,49" node-id="671" stroke="none" target-height="6.350006" target-width="11.580002" target-x="154.38" target-y="107.13"></path><path d="M 165.96 113.35 L 154.50 107.12 C 154.53 107.08 154.57 107.04 154.60 107.00 L 166.06 113.23 C 166.03 113.27 166.00 113.31 165.96 113.35" fill="#1e5194" fill-rule="nonzero" group-id="2,20,49" node-id="673" stroke="none" target-height="6.3499985" target-width="11.559998" target-x="154.5" target-y="107"></path><path d="M 166.06 113.23 L 154.60 107.00 C 154.63 106.95 154.66 106.91 154.69 106.86 L 166.15 113.09 C 166.12 113.14 166.09 113.19 166.06 113.23" fill="#1d4e8f" fill-rule="nonzero" group-id="2,20,49" node-id="675" stroke="none" target-height="6.3700027" target-width="11.549988" target-x="154.6" target-y="106.86"></path><path d="M 166.15 113.09 L 154.69 106.86 C 154.72 106.80 154.75 106.74 154.77 106.67 L 166.23 112.90 C 166.21 112.97 166.18 113.03 166.15 113.09" fill="#1c4b8a" fill-rule="nonzero" group-id="2,20,49" node-id="677" stroke="none" target-height="6.419998" target-width="11.539993" target-x="154.69" target-y="106.67"></path><path d="M 166.23 112.90 L 154.77 106.67 C 155.04 105.91 154.69 104.96 154.94 104.29 L 166.40 110.52 C 166.15 111.19 166.50 112.14 166.23 112.90" fill="#1b4885" fill-rule="nonzero" group-id="2,20,49" node-id="679" stroke="none" target-height="8.610001" target-width="11.809998" target-x="154.69" target-y="104.29"></path><path d="M 166.40 110.52 L 154.94 104.29 C 154.96 104.24 154.98 104.19 155.00 104.15 L 166.46 110.38 C 166.43 110.43 166.41 110.47 166.40 110.52" fill="#1c4b8a" fill-rule="nonzero" group-id="2,20,49" node-id="681" stroke="none" target-height="6.369995" target-width="11.520004" target-x="154.94" target-y="104.15"></path><path d="M 166.46 110.38 L 155.00 104.15 C 155.02 104.12 155.04 104.08 155.06 104.05 L 166.52 110.28 C 166.50 110.31 166.48 110.35 166.46 110.38" fill="#1d4e8f" fill-rule="nonzero" group-id="2,20,49" node-id="683" stroke="none" target-height="6.329994" target-width="11.520004" target-x="155" target-y="104.05"></path><path d="M 166.52 110.28 L 155.06 104.05 C 155.08 104.02 155.10 103.99 155.13 103.96 L 166.59 110.19 C 166.56 110.22 166.54 110.25 166.52 110.28" fill="#1e5194" fill-rule="nonzero" group-id="2,20,49" node-id="685" stroke="none" target-height="6.3199997" target-width="11.529999" target-x="155.06" target-y="103.96"></path><path d="M 166.59 110.19 L 155.13 103.96 C 155.16 103.93 155.18 103.90 155.21 103.88 L 166.67 110.11 C 166.64 110.13 166.61 110.16 166.59 110.19" fill="#1f5399" fill-rule="nonzero" group-id="2,20,49" node-id="687" stroke="none" target-height="6.310005" target-width="11.539993" target-x="155.13" target-y="103.88"></path><path d="M 166.67 110.11 L 155.21 103.88 C 155.25 103.85 155.28 103.82 155.33 103.79 L 166.79 110.02 C 166.75 110.05 166.71 110.08 166.67 110.11" fill="#20569e" fill-rule="nonzero" group-id="2,20,49" node-id="689" stroke="none" target-height="6.3199997" target-width="11.579987" target-x="155.21" target-y="103.79"></path><path d="M 166.79 110.02 L 155.33 103.79 C 155.37 103.76 155.42 103.73 155.48 103.70 C 155.61 103.64 155.73 103.57 155.86 103.51 L 167.32 109.74 C 167.19 109.80 167.07 109.86 166.94 109.93 C 166.88 109.96 166.83 109.99 166.79 110.02" fill="#2159a3" fill-rule="nonzero" group-id="2,20,49" node-id="691" stroke="none" target-height="6.5099945" target-width="11.9900055" target-x="155.33" target-y="103.51"></path><path d="M 167.32 109.75 L 155.86 103.52 C 157.82 102.60 159.96 102.06 161.76 101.80 C 163.40 101.57 164.76 101.58 165.43 101.75 L 176.89 107.98 C 176.22 107.81 174.86 107.80 173.22 108.03 C 171.42 108.28 169.28 108.82 167.32 109.75" fill="#225ca8" fill-rule="nonzero" group-id="2,20,49" node-id="693" stroke="none" target-height="8.18" target-width="21.029999" target-x="155.86" target-y="101.57"></path><path d="M 176.89 107.98 L 165.43 101.75 C 165.53 101.78 165.62 101.81 165.69 101.84 L 177.15 108.07 C 177.08 108.04 176.99 108.01 176.89 107.98" fill="#2159a3" fill-rule="nonzero" group-id="2,20,49" node-id="695" stroke="none" target-height="6.3199997" target-width="11.720001" target-x="165.43" target-y="101.75"></path><path d="M 177.14 108.07 L 165.68 101.84 C 165.69 101.85 165.70 101.85 165.71 101.86 L 177.17 108.09 C 177.17 108.08 177.16 108.08 177.14 108.07" fill="#20569e" fill-rule="nonzero" group-id="2,20,49" node-id="697" stroke="none" target-height="6.25" target-width="11.4900055" target-x="165.68" target-y="101.84"></path></g><g clip-path="url(#SVGID_33_)" group-id="2,21" node-id="703"><path d="M 127.91 182.93 L 116.45 176.70 C 116.15 176.53 115.91 176.25 115.74 175.81 C 113.84 170.75 110.63 168.17 108.40 166.95 L 119.86 173.18 C 122.09 174.39 125.30 176.97 127.20 182.04 C 127.36 182.48 127.60 182.76 127.91 182.93" fill="#1b4885" fill-rule="nonzero" group-id="2,21,50" node-id="705" stroke="none" target-height="15.979996" target-width="19.510002" target-x="108.4" target-y="166.95"></path></g><g clip-path="url(#SVGID_35_)" group-id="2,22" node-id="711"><path d="M 159.80 65.70 L 148.34 59.47 C 150.30 59.41 152.05 59.61 153.58 60.00 L 165.04 66.23 C 163.51 65.84 161.76 65.65 159.80 65.70" fill="#225ca8" fill-rule="nonzero" group-id="2,22,51" node-id="713" stroke="none" target-height="6.8200035" target-width="16.699997" target-x="148.34" target-y="59.41"></path><path d="M 165.04 66.23 L 153.58 60.00 C 154.58 60.25 155.49 60.59 156.31 60.99 L 167.77 67.22 C 166.95 66.82 166.04 66.49 165.04 66.23" fill="#2159a3" fill-rule="nonzero" group-id="2,22,51" node-id="715" stroke="none" target-height="7.220001" target-width="14.190002" target-x="153.58" target-y="60"></path><path d="M 167.77 67.23 L 156.31 61.00 C 156.47 61.08 156.63 61.16 156.78 61.24 L 168.24 67.47 C 168.08 67.39 167.93 67.30 167.77 67.23" fill="#20569e" fill-rule="nonzero" group-id="2,22,51" node-id="717" stroke="none" target-height="6.470001" target-width="11.930008" target-x="156.31" target-y="61"></path></g><g clip-path="url(#SVGID_37_)" group-id="2,23" node-id="723"><path d="M 111.59 171.33 L 100.13 165.10 C 93.64 161.57 93.36 149.30 93.38 137.65 C 93.38 135.73 92.50 134.70 91.23 134.01 L 102.69 140.24 C 103.97 140.93 104.85 141.96 104.84 143.88 C 104.82 155.52 105.10 167.80 111.59 171.33" fill="#1b4885" fill-rule="nonzero" group-id="2,23,52" node-id="725" stroke="none" target-height="37.320007" target-width="20.359993" target-x="91.23" target-y="134.01"></path></g><g clip-path="url(#SVGID_39_)" group-id="2,24" node-id="731"><path d="M 85.20 142.83 L 73.74 136.60 C 73.25 136.33 72.80 136.00 72.42 135.61 L 83.88 141.84 C 84.27 142.23 84.71 142.56 85.20 142.83" fill="#1b4885" fill-rule="nonzero" group-id="2,24,53" node-id="733" stroke="none" target-height="7.220001" target-width="12.779999" target-x="72.42" target-y="135.61"></path></g><path d="M 221.98 71.36 C 238.69 87.07 248.05 110.24 248.01 135.79 C 247.88 188.61 208.40 237.09 159.48 244.50 C 158.32 244.76 157.15 244.97 155.99 245.14 C 153.12 245.54 150.26 245.65 147.44 245.45 C 103.39 245.74 69.37 210.02 69.46 160.90 C 69.51 135.35 78.96 109.52 95.74 89.10 C 112.51 68.70 135.21 55.37 158.87 52.05 C 182.61 48.71 205.29 55.66 221.98 71.36 Z M 177.43 225.71 C 203.77 214.79 224.62 190.13 232.23 160.90 C 228.46 170.11 222.23 175.43 218.89 175.90 C 216.99 176.17 216.02 174.87 216.95 171.84 C 214.62 168.06 211.04 162.87 207.27 159.60 C 200.12 153.38 194.56 141.55 216.40 120.38 C 213.74 113.03 218.01 105.63 222.64 104.98 C 225.07 104.64 227.60 106.15 229.29 110.50 C 229.97 110.48 230.61 110.70 231.12 111.13 C 220.58 79.74 192.06 61.57 159.81 65.70 C 175.34 65.26 177.19 80.64 167.93 81.94 C 167.43 82.01 166.91 82.04 166.35 82.02 C 166.08 86.27 165.67 91.97 165.20 96.93 C 164.36 105.58 154.99 104.49 152.40 109.11 C 150.29 112.84 154.86 115.81 161.12 114.93 C 162.43 114.75 163.82 114.39 165.24 113.84 C 167.43 112.98 165.44 110.70 166.95 109.93 C 169.01 108.89 171.31 108.30 173.23 108.03 C 175.48 107.71 177.20 107.85 177.35 108.23 C 177.83 109.53 172.41 119.55 166.64 131.72 C 165.16 134.81 166.62 139.88 166.62 142.92 C 166.61 150.25 165.71 152.97 164.39 153.16 C 162.79 153.39 160.57 149.88 158.57 146.34 C 156.58 142.80 154.80 139.23 154.09 139.33 C 153.67 139.65 153.21 139.81 152.64 139.89 C 151.29 140.08 149.36 139.84 147.42 139.59 C 145.48 139.34 143.54 139.10 142.21 139.29 C 138.77 140.05 140.24 146.64 137.18 147.07 C 133.78 147.46 132.79 147.05 132.59 147.07 C 132.44 147.09 132.70 147.35 132.76 148.31 C 132.95 151.16 133.88 158.23 133.86 168.32 C 133.86 169.20 134.35 169.45 135.15 169.34 C 136.14 169.20 137.61 168.51 139.21 167.80 C 140.81 167.09 142.55 166.36 144.06 166.14 C 149.15 165.62 152.20 169.47 155.32 170.63 C 161.19 172.82 166.51 180.84 170.59 180.63 C 174.47 180.45 172.05 186.98 175.70 186.47 C 175.90 186.44 176.11 186.39 176.35 186.32 C 176.66 186.23 176.98 186.16 177.30 186.11 C 182.84 185.33 188.45 192.02 181.22 199.77 C 175.94 205.47 174.69 212.12 172.16 224.10 C 172.90 223.78 173.57 223.59 174.15 223.51 C 176.04 223.25 177.12 224.15 177.43 225.71 M 154.35 228.74 C 154.72 228.69 155.09 228.64 155.46 228.61 C 155.00 224.83 154.79 220.05 154.88 214.11 C 153.99 213.55 136.99 202.81 137.01 193.85 C 137.03 184.83 139.33 180.35 137.03 180.67 C 133.97 181.10 131.09 182.82 129.20 183.09 C 128.25 183.22 127.55 182.99 127.20 182.05 C 124.15 173.92 117.73 172.19 117.39 172.24 C 105.25 173.71 104.81 158.31 104.84 143.89 C 104.85 139.51 100.27 139.77 96.88 138.05 C 95.82 141.36 92.95 143.20 90.04 143.61 C 87.71 143.94 85.35 143.35 83.88 141.85 C 82.80 147.51 82.23 153.27 82.21 159.12 C 82.16 199.19 108.76 229.72 145.32 231.52 C 148.24 230.10 151.29 229.17 154.35 228.74 M 235.24 138.94 C 235.35 132.66 234.80 126.47 233.60 120.49 C 233.64 121.93 233.62 123.47 233.53 125.11 C 234.43 129.62 235.00 134.24 235.24 138.94" fill="url(#SVGID_40_)" fill-rule="nonzero" group-id="2,25" node-id="739" stroke="none" target-height="197.03" target-width="178.68" target-x="69.37" target-y="48.71"></path><path d="M 110.83 236.43 L 99.37 230.20 C 74.45 216.64 57.94 188.91 58.00 154.67 C 58.05 129.12 67.50 103.29 84.28 82.87 C 101.05 62.47 123.75 49.14 147.41 45.82 C 164.52 43.41 181.08 46.35 195.24 54.06 L 206.70 60.29 C 192.54 52.58 175.98 49.65 158.87 52.05 C 135.21 55.37 112.50 68.70 95.74 89.10 C 78.96 109.52 69.51 135.35 69.46 160.90 C 69.39 195.14 85.90 222.87 110.83 236.43 Z" fill="none" group-id="2" node-id="742" stroke="none" target-height="193.01999" target-width="148.76" target-x="57.94" target-y="43.41"></path><path d="M 195.25 54.06 C 194.37 53.58 193.48 53.12 192.58 52.68 C 188.09 50.47 183.39 48.73 178.52 47.47 C 168.67 44.91 158.16 44.32 147.42 45.83 C 138.47 47.09 129.66 49.77 121.26 53.73 C 116.26 56.08 111.41 58.89 106.76 62.10 C 103.03 64.68 99.42 67.54 95.97 70.64 C 92.81 73.48 89.79 76.53 86.92 79.78 C 86.02 80.79 85.14 81.83 84.28 82.88 C 82.41 85.16 80.62 87.51 78.94 89.91 C 76.29 93.69 73.87 97.62 71.69 101.67 C 69.08 106.53 66.82 111.55 64.93 116.69 C 60.43 128.94 58.03 141.84 58.01 154.68 C 57.95 188.92 74.46 216.65 99.39 230.21 L 110.85 236.44 C 85.92 222.88 69.41 195.15 69.47 160.91 C 69.49 148.08 71.89 135.18 76.39 122.92 C 78.28 117.78 80.54 112.76 83.15 107.90 C 85.33 103.85 87.75 99.92 90.40 96.14 C 92.09 93.73 93.87 91.39 95.74 89.11 C 96.60 88.06 97.48 87.03 98.38 86.01 C 101.25 82.76 104.27 79.71 107.43 76.87 C 110.88 73.77 114.48 70.92 118.22 68.33 C 122.87 65.11 127.72 62.31 132.72 59.96 C 141.12 56.00 149.93 53.31 158.88 52.06 C 169.62 50.55 180.13 51.15 189.98 53.70 C 194.85 54.96 199.56 56.71 204.04 58.91 C 204.94 59.35 205.83 59.81 206.71 60.29 L 195.25 54.06 Z" fill="url(#SVGID_41_)" fill-rule="nonzero" group-id="2,26" node-id="746" stroke="none" target-height="192.12" target-width="148.76001" target-x="57.95" target-y="44.32"></path><path d="M 175.14 195.01 C 175.14 195.01 175.26 194.31 175.52 193.05" fill="none" group-id="3,27" node-id="754" stroke="#db3b4f" stroke-linecap="butt" stroke-width="2" target-height="1.9599915" target-width="0.38000488" target-x="175.14" target-y="193.05"></path><path d="M 176.38 189.11 C 179.49 175.73 188.71 143.61 207.01 134.94 C 230.30 123.91 140.81 121.45 119.97 142.30 C 100.15 162.12 122.46 89.92 147.89 81.74" fill="none" group-id="3,27" node-id="756" stroke="#db3b4f" stroke-dasharray="4.0413 4.0413" stroke-linecap="butt" stroke-width="2" target-height="107.37" target-width="130.15" target-x="100.15" target-y="81.74"></path><path d="M 149.86 81.23 C 150.52 81.11 151.18 81.03 151.85 81.00" fill="none" group-id="3,27" node-id="758" stroke="#db3b4f" stroke-linecap="butt" stroke-width="2" target-height="0.23000336" target-width="1.9900055" target-x="149.86" target-y="81"></path><path d="M 124.34 145.79 C 124.34 150.50 120.52 154.32 115.81 154.32 C 111.10 154.32 107.28 150.50 107.28 145.79 C 107.28 141.08 111.10 137.26 115.81 137.26 C 120.52 137.26 124.34 141.08 124.34 145.79 Z" fill="#f2d031" fill-rule="evenodd" group-id="4" node-id="764" stroke="none" target-height="17.060013" target-width="17.059998" target-x="107.28" target-y="137.26"></path><path d="M 128.60 145.79 C 128.60 152.85 122.87 158.58 115.81 158.58 C 108.75 158.58 103.02 152.85 103.02 145.79 C 103.02 138.73 108.75 133.00 115.81 133.00 C 122.87 133.00 128.60 138.73 128.60 145.79 Z" fill="none" group-id="4" node-id="766" stroke="#f2d031" stroke-linecap="butt" stroke-width="2" target-height="25.580002" target-width="25.58001" target-x="103.02" target-y="133"></path><path d="M 219.47 131.37 C 219.47 135.93 215.78 139.62 211.22 139.62 C 206.66 139.62 202.97 135.93 202.97 131.37 C 202.97 126.81 206.66 123.12 211.22 123.12 C 215.78 123.12 219.47 126.81 219.47 131.37 Z" fill="#f2d031" fill-rule="evenodd" group-id="5" node-id="771" stroke="none" target-height="16.499992" target-width="16.5" target-x="202.97" target-y="123.12"></path><path d="M 223.59 131.37 C 223.59 138.20 218.05 143.74 211.22 143.74 C 204.39 143.74 198.85 138.20 198.85 131.37 C 198.85 124.54 204.39 119.00 211.22 119.00 C 218.05 119.00 223.59 124.54 223.59 131.37 Z" fill="none" group-id="5" node-id="773" stroke="#f2d031" stroke-linecap="butt" stroke-width="2" target-height="24.740005" target-width="24.73999" target-x="198.85" target-y="119"></path><path d="M 179.04 198.76 C 179.04 203.19 175.45 206.78 171.02 206.78 C 166.59 206.78 163.00 203.19 163.00 198.76 C 163.00 194.33 166.59 190.74 171.02 190.74 C 175.45 190.74 179.04 194.33 179.04 198.76 Z" fill="#f2d031" fill-rule="evenodd" group-id="6" node-id="778" stroke="none" target-height="16.039993" target-width="16.039993" target-x="163" target-y="190.74"></path><path d="M 183.04 198.76 C 183.04 205.40 177.66 210.78 171.02 210.78 C 164.38 210.78 159.00 205.40 159.00 198.76 C 159.00 192.12 164.38 186.74 171.02 186.74 C 177.66 186.74 183.04 192.12 183.04 198.76 Z" fill="none" group-id="6" node-id="780" stroke="#f2d031" stroke-linecap="butt" stroke-width="2" target-height="24.039993" target-width="24.039993" target-x="159" target-y="186.74"></path><path d="M 241.87 193.38 L 258.68 205.88 C 255.59 203.58 250.97 203.33 245.58 205.68 L 228.77 193.18 C 234.17 190.83 238.78 191.08 241.87 193.38 Z" fill="url(#XMLID_2_)" fill-rule="nonzero" group-id="7,28,54" id="XMLID_18_" node-id="223" stroke="none" target-height="15.050003" target-width="29.909988" target-x="228.77" target-y="190.83"></path><path d="M 244.61 206.11 L 227.80 193.61 L 228.78 193.18 L 245.59 205.68 Z" fill="url(#XMLID_3_)" fill-rule="nonzero" group-id="7,28,55" id="XMLID_16_" node-id="228" stroke="#29abe2" stroke-linecap="butt" stroke-width="1" target-height="12.930008" target-width="17.789993" target-x="227.8" target-y="193.18"></path><path d="M 224.89 184.64 L 241.70 197.14 C 239.44 195.46 236.06 195.28 232.12 197.00 C 230.69 197.62 229.29 198.46 227.94 199.45 L 211.13 186.95 C 212.48 185.96 213.89 185.12 215.31 184.50 C 219.25 182.77 222.63 182.96 224.89 184.64 Z" fill="url(#XMLID_4_)" fill-rule="nonzero" group-id="7,28,56" id="XMLID_14_" node-id="233" stroke="none" target-height="16.679993" target-width="30.569992" target-x="211.13" target-y="182.77"></path><path d="M 208.60 184.32 L 225.41 196.82 C 221.52 193.93 215.71 193.61 208.92 196.57 L 192.11 184.07 C 198.90 181.11 204.71 181.43 208.60 184.32 Z" fill="url(#XMLID_19_)" fill-rule="nonzero" group-id="7,28,57" id="XMLID_12_" node-id="238" stroke="none" target-height="15.710007" target-width="33.300003" target-x="192.11" target-y="181.11"></path><path d="M 168.49 273.19 L 151.68 260.69 C 148.63 258.42 147.06 254.15 147.69 248.41 C 148.78 238.56 155.99 227.57 164.72 221.64 L 181.53 234.14 C 172.80 240.07 165.59 251.06 164.50 260.91 C 163.87 266.66 165.44 270.92 168.49 273.19 Z" fill="url(#XMLID_20_)" fill-rule="nonzero" group-id="7,28,58" id="XMLID_10_" node-id="243" stroke="none" target-height="51.550003" target-width="34.47" target-x="147.06" target-y="221.64"></path><path d="M 181.53 234.14 L 164.72 221.64 C 164.73 221.45 164.75 221.25 164.77 221.05 C 166.38 206.50 178.62 189.94 192.11 184.07 L 208.92 196.57 C 195.43 202.44 183.19 219.00 181.58 233.55 C 181.56 233.75 181.55 233.95 181.53 234.14 Z" fill="url(#XMLID_21_)" fill-rule="nonzero" group-id="7,28,59" id="XMLID_8_" node-id="248" stroke="none" target-height="50.069992" target-width="44.199997" target-x="164.72" target-y="184.07"></path><path d="M 208.92 196.57 C 217.39 192.88 224.34 194.29 227.94 199.44 C 229.29 198.45 230.70 197.61 232.12 196.99 C 239.95 193.58 245.54 197.66 244.61 206.11 L 245.59 205.68 C 256.30 201.02 263.95 206.60 262.67 218.17 C 261.39 229.73 251.67 242.88 240.96 247.54 L 181.59 273.39 C 170.88 278.05 163.23 272.47 164.50 260.91 C 165.59 251.06 172.80 240.07 181.53 234.14 C 181.54 233.95 181.56 233.75 181.58 233.54 C 183.19 219.00 195.44 202.44 208.92 196.57 Z" fill="#ffffff" fill-rule="nonzero" group-id="7,28,60" id="XMLID_6_" node-id="250" stroke="#29abe2" stroke-linecap="butt" stroke-width="1" target-height="85.16998" target-width="100.72002" target-x="163.23" target-y="192.88"></path><path d="M 201.64 245.67 L 193.30 249.08 L 193.19 248.28 C 194.76 247.69 195.42 246.95 195.18 246.04 L 193.87 236.31 C 193.86 235.31 193.07 235.15 191.52 235.84 L 191.41 235.04 L 205.13 229.43 L 205.98 234.38 L 205.02 234.77 C 203.84 232.39 201.92 231.75 199.26 232.83 C 197.91 233.27 197.36 233.94 197.61 234.85 L 198.15 238.84 C 200.08 238.22 201.13 236.95 201.30 235.03 L 202.17 234.67 L 202.93 240.33 L 202.06 240.69 C 201.42 239.10 200.15 238.78 198.26 239.72 L 198.90 244.50 C 198.91 245.50 199.78 245.63 201.51 244.86 L 201.64 245.67 Z" fill="#4690ee" fill-rule="nonzero" group-id="7,29,61" node-id="813" stroke="none" target-height="19.65001" target-width="14.569992" target-x="191.41" target-y="229.43"></path><path d="M 213.88 240.66 L 208.15 243.00 L 208.04 242.20 C 209.48 241.56 210.12 240.62 209.95 239.40 L 208.69 230.07 C 208.63 229.20 207.91 229.07 206.53 229.69 L 206.42 228.89 L 212.85 226.26 L 217.26 234.47 L 217.35 234.43 L 219.20 223.66 L 225.71 221.00 L 225.82 221.80 C 224.25 222.39 223.59 223.13 223.83 224.04 L 225.14 233.77 C 225.15 234.77 225.94 234.93 227.49 234.24 L 227.60 235.04 L 219.87 238.20 L 219.76 237.40 C 221.16 236.89 221.76 236.16 221.57 235.23 L 220.17 224.86 L 217.60 239.12 L 215.69 239.90 L 209.92 229.05 L 211.24 238.86 C 211.41 240.14 212.25 240.47 213.76 239.85 L 213.88 240.66 Z" fill="#4690ee" fill-rule="nonzero" group-id="7,29,61" node-id="815" stroke="none" target-height="22" target-width="21.180008" target-x="206.42" target-y="221"></path><path d="M 229.08 234.45 L 228.35 229.03 L 229.31 228.64 C 230.65 231.35 232.48 232.25 234.81 231.36 C 236.66 230.55 237.51 229.39 237.36 227.88 C 237.24 226.98 235.91 226.65 233.38 226.90 C 229.94 227.19 228.10 226.48 227.87 224.78 C 227.65 221.79 229.18 219.53 232.46 218.02 C 233.56 217.57 234.64 217.41 235.69 217.54 C 236.06 217.56 236.30 217.54 236.42 217.50 C 236.65 217.41 236.86 217.13 237.04 216.66 C 237.08 216.53 237.13 216.43 237.18 216.35 L 238.05 215.99 L 238.71 220.85 L 237.84 221.21 C 236.66 218.83 235.03 218.04 232.94 218.84 C 231.27 219.58 230.49 220.60 230.60 221.90 C 230.73 222.86 232.03 223.20 234.49 222.92 C 238.04 222.53 239.95 223.32 240.22 225.29 C 240.36 228.15 238.77 230.42 235.46 232.12 C 234.24 232.62 232.99 232.85 231.71 232.81 C 231.28 232.82 230.98 232.85 230.81 232.93 C 230.52 233.05 230.26 233.41 230.04 234.00 L 229.96 234.12 L 229.08 234.45 Z" fill="#4690ee" fill-rule="nonzero" group-id="7,29,61" node-id="817" stroke="none" target-height="18.459991" target-width="12.710007" target-x="227.65" target-y="215.99"></path><g clip-path="url(#SVGID_43_)" group-id="8,30" node-id="826"><path d="M 150.53 86.03 L 145.78 83.45 C 145.51 83.31 145.29 83.07 145.13 82.74 L 149.88 85.32 C 150.03 85.65 150.26 85.89 150.53 86.03" fill="#835c1f" fill-rule="nonzero" group-id="8,30,62" node-id="828" stroke="none" target-height="3.290001" target-width="5.399994" target-x="145.13" target-y="82.74"></path></g><g clip-path="url(#SVGID_45_)" group-id="8,31" node-id="834"><path d="M 147.31 54.34 L 142.56 51.76 C 142.64 51.80 142.72 51.84 142.80 51.89 L 147.55 54.47 C 147.47 54.43 147.39 54.39 147.31 54.34" fill="#9c6d25" fill-rule="nonzero" group-id="8,31,63" node-id="836" stroke="none" target-height="2.710003" target-width="4.9900055" target-x="142.56" target-y="51.76"></path><path d="M 147.55 54.47 L 142.80 51.89 C 143.20 52.08 143.62 52.24 144.05 52.35 L 148.80 54.93 C 148.37 54.82 147.95 54.66 147.55 54.47" fill="#a17126" fill-rule="nonzero" group-id="8,31,63" node-id="838" stroke="none" target-height="3.040001" target-width="6" target-x="142.8" target-y="51.89"></path><path d="M 148.81 54.93 L 144.06 52.35 C 144.91 52.57 145.84 52.63 146.80 52.49 L 151.55 55.07 C 150.58 55.20 149.66 55.15 148.81 54.93" fill="#a67427" fill-rule="nonzero" group-id="8,31,63" node-id="840" stroke="none" target-height="2.8500023" target-width="7.4900055" target-x="144.06" target-y="52.35"></path></g><g clip-path="url(#SVGID_47_)" group-id="8,32" node-id="846"><path d="M 151.54 55.07 L 146.79 52.49 C 147.60 52.38 148.37 52.14 149.11 51.79 L 153.86 54.37 C 153.13 54.72 152.35 54.96 151.54 55.07" fill="#a67427" fill-rule="nonzero" group-id="8,32,64" node-id="848" stroke="none" target-height="3.2799988" target-width="7.0700073" target-x="146.79" target-y="51.79"></path><path d="M 153.86 54.37 L 149.11 51.79 C 149.56 51.58 149.99 51.33 150.40 51.05 L 155.15 53.63 C 154.74 53.91 154.31 54.16 153.86 54.37" fill="#a17126" fill-rule="nonzero" group-id="8,32,64" node-id="850" stroke="none" target-height="3.3199997" target-width="6.0399933" target-x="149.11" target-y="51.05"></path><path d="M 155.15 53.63 L 150.40 51.05 C 150.73 50.82 151.06 50.56 151.36 50.29 L 156.11 52.87 C 155.81 53.14 155.49 53.40 155.15 53.63" fill="#9c6d25" fill-rule="nonzero" group-id="8,32,64" node-id="852" stroke="none" target-height="3.3400002" target-width="5.7100067" target-x="150.4" target-y="50.29"></path><path d="M 156.11 52.87 L 151.36 50.29 C 151.64 50.03 151.92 49.76 152.17 49.47 L 156.92 52.05 C 156.67 52.34 156.40 52.61 156.11 52.87" fill="#976a23" fill-rule="nonzero" group-id="8,32,64" node-id="854" stroke="none" target-height="3.3999977" target-width="5.5599976" target-x="151.36" target-y="49.47"></path><path d="M 156.93 52.05 L 152.18 49.47 C 152.43 49.18 152.67 48.88 152.90 48.56 L 157.65 51.14 C 157.42 51.46 157.18 51.76 156.93 52.05" fill="#926622" fill-rule="nonzero" group-id="8,32,64" node-id="856" stroke="none" target-height="3.4899979" target-width="5.470001" target-x="152.18" target-y="48.56"></path><path d="M 157.64 51.14 L 152.89 48.56 C 153.13 48.22 153.34 47.87 153.54 47.51 L 158.29 50.09 C 158.09 50.45 157.88 50.80 157.64 51.14" fill="#8d6321" fill-rule="nonzero" group-id="8,32,64" node-id="858" stroke="none" target-height="3.630001" target-width="5.399994" target-x="152.89" target-y="47.51"></path><path d="M 158.29 50.09 L 153.54 47.51 C 153.77 47.08 153.97 46.63 154.14 46.17 L 158.89 48.75 C 158.72 49.21 158.52 49.66 158.29 50.09" fill="#885f20" fill-rule="nonzero" group-id="8,32,64" node-id="860" stroke="none" target-height="3.920002" target-width="5.350006" target-x="153.54" target-y="46.17"></path><path d="M 158.89 48.75 L 154.14 46.17 C 154.53 45.10 154.75 43.96 154.75 42.80 C 154.76 39.76 153.29 37.29 151.07 36.09 L 155.82 38.67 C 158.04 39.88 159.51 42.34 159.50 45.38 C 159.50 46.55 159.28 47.69 158.89 48.75" fill="#835c1f" fill-rule="nonzero" group-id="8,32,64" node-id="862" stroke="none" target-height="12.66" target-width="8.439987" target-x="151.07" target-y="36.09"></path></g><path d="M 149.88 85.32 L 145.13 82.74 L 134.23 59.16 L 138.98 61.74 Z" fill="url(#SVGID_48_)" fill-rule="nonzero" group-id="8,33" node-id="868" stroke="none" target-height="26.16" target-width="15.650009" target-x="134.23" target-y="59.16"></path><path d="M 138.98 61.74 L 134.23 59.16 L 134.16 59.01 L 138.91 61.60 Z" fill="#7e581e" fill-rule="nonzero" group-id="8,34" node-id="873" stroke="none" target-height="2.7300034" target-width="4.819992" target-x="134.16" target-y="59.01"></path><path d="M 156.02 23.86 L 160.77 26.44 C 158.10 24.99 155.08 24.38 151.74 24.64 L 146.99 22.06 C 150.33 21.80 153.34 22.41 156.02 23.86 Z" fill="none" group-id="8" node-id="876" stroke="none" target-height="4.6400013" target-width="13.779999" target-x="146.99" target-y="21.8"></path><path d="M 151.74 24.64 L 146.99 22.06 C 148.98 21.91 150.85 22.06 152.61 22.52 L 157.36 25.10 C 155.60 24.64 153.73 24.49 151.74 24.64" fill="url(#SVGID_49_)" fill-rule="nonzero" group-id="8" node-id="878" stroke="none" target-height="3.1900005" target-width="10.369995" target-x="146.99" target-y="21.91"></path><path d="M 157.35 25.10 L 152.60 22.52 C 153.59 22.78 154.55 23.13 155.46 23.58 L 160.21 26.16 C 159.30 25.71 158.35 25.35 157.35 25.10" fill="#a17126" fill-rule="nonzero" group-id="8" node-id="880" stroke="none" target-height="3.6399994" target-width="7.6100006" target-x="152.6" target-y="22.52"></path><path d="M 160.22 26.16 L 155.47 23.58 C 155.66 23.67 155.84 23.77 156.02 23.87 L 160.77 26.45 C 160.59 26.35 160.40 26.25 160.22 26.16" fill="#9c6d25" fill-rule="nonzero" group-id="8" node-id="882" stroke="none" target-height="2.8700008" target-width="5.300003" target-x="155.47" target-y="23.58"></path><path d="M 151.42 24.68 L 146.67 22.10 L 146.99 22.06 L 151.74 24.64 Z" fill="#b17c2a" fill-rule="nonzero" group-id="8,35" node-id="886" stroke="none" target-height="2.6200008" target-width="5.0700073" target-x="146.67" target-y="22.06"></path><path d="M 164.17 28.93 C 167.64 31.82 169.37 35.93 169.36 41.28 C 169.29 45.86 167.55 51.45 164.15 58.06 L 153.04 84.89 C 152.72 85.65 152.09 86.10 151.46 86.19 C 150.82 86.28 150.19 86.01 149.87 85.32 L 138.97 61.74 L 138.90 61.59 C 135.47 55.96 133.75 50.85 133.75 46.28 C 133.76 40.93 135.51 36.30 138.99 32.41 C 142.50 28.23 146.64 25.66 151.41 24.67 L 151.72 24.63 C 156.59 24.27 160.74 25.71 164.17 28.93 Z M 151.54 55.07 C 155.92 54.45 159.49 50.11 159.50 45.38 C 159.51 40.65 155.96 37.32 151.57 37.94 C 147.18 38.56 143.63 42.88 143.62 47.61 C 143.62 52.34 147.16 55.69 151.54 55.07" fill="#fbb03b" fill-rule="nonzero" group-id="8,36" node-id="891" stroke="none" target-height="62.01" target-width="35.619995" target-x="133.75" target-y="24.27"></path><path d="M 146.67 22.10 C 145.95 22.25 145.26 22.44 144.57 22.66 C 144.37 22.73 144.17 22.80 143.96 22.87 C 143.46 23.05 142.96 23.25 142.47 23.47 C 142.35 23.52 142.22 23.56 142.10 23.62 C 142.01 23.66 141.92 23.72 141.83 23.76 C 141.59 23.88 141.36 24.00 141.12 24.13 C 140.84 24.28 140.55 24.44 140.28 24.61 C 140.05 24.75 139.82 24.90 139.59 25.05 C 139.44 25.15 139.28 25.24 139.13 25.34 C 138.99 25.44 138.86 25.54 138.72 25.64 C 138.57 25.75 138.42 25.86 138.27 25.98 C 137.93 26.24 137.59 26.52 137.26 26.80 C 137.15 26.89 137.04 26.98 136.93 27.08 C 136.90 27.11 136.86 27.14 136.83 27.17 C 136.44 27.53 136.05 27.90 135.67 28.29 C 135.58 28.38 135.49 28.49 135.40 28.58 C 135.17 28.82 134.94 29.06 134.72 29.31 C 134.57 29.48 134.42 29.66 134.27 29.84 C 134.24 29.88 134.20 29.91 134.17 29.95 C 134.10 30.03 134.04 30.13 133.96 30.21 C 133.56 30.68 133.18 31.15 132.83 31.64 C 132.78 31.71 132.71 31.78 132.66 31.85 C 132.57 31.97 132.51 32.10 132.43 32.23 C 132.15 32.65 131.88 33.08 131.63 33.52 C 131.56 33.64 131.47 33.76 131.41 33.88 C 131.34 34.01 131.28 34.15 131.21 34.29 C 131.13 34.44 131.06 34.60 130.98 34.75 C 130.79 35.16 130.61 35.57 130.44 35.99 C 130.40 36.09 130.35 36.20 130.31 36.30 C 130.30 36.33 130.28 36.37 130.27 36.40 C 130.16 36.70 130.08 37.01 129.98 37.32 C 129.90 37.57 129.81 37.81 129.74 38.07 C 129.64 38.43 129.57 38.79 129.50 39.16 C 129.45 39.40 129.38 39.64 129.34 39.89 C 129.27 40.30 129.22 40.72 129.18 41.15 C 129.16 41.36 129.12 41.56 129.10 41.78 C 129.05 42.42 129.02 43.07 129.02 43.73 C 129.01 48.30 130.73 53.41 134.17 59.04 L 138.92 61.62 C 135.49 55.99 133.77 50.88 133.77 46.31 C 133.77 45.65 133.80 45.00 133.85 44.36 C 133.87 44.15 133.91 43.94 133.93 43.73 C 133.98 43.31 134.02 42.89 134.09 42.47 C 134.13 42.22 134.20 41.98 134.25 41.74 C 134.33 41.38 134.40 41.01 134.49 40.65 C 134.56 40.40 134.65 40.15 134.73 39.90 C 134.84 39.56 134.94 39.22 135.06 38.88 C 135.10 38.78 135.15 38.67 135.19 38.57 C 135.35 38.15 135.53 37.74 135.73 37.33 C 135.80 37.18 135.88 37.02 135.96 36.87 C 136.09 36.61 136.24 36.36 136.38 36.10 C 136.63 35.66 136.89 35.23 137.18 34.81 C 137.31 34.61 137.44 34.41 137.58 34.22 C 137.93 33.73 138.31 33.26 138.71 32.79 C 138.82 32.67 138.91 32.54 139.01 32.42 C 139.38 31.98 139.76 31.57 140.14 31.16 C 140.23 31.06 140.32 30.96 140.42 30.86 C 140.83 30.44 141.26 30.03 141.69 29.65 C 141.80 29.55 141.91 29.47 142.02 29.37 C 142.35 29.09 142.69 28.81 143.03 28.55 C 143.18 28.44 143.33 28.32 143.48 28.21 C 143.77 28.00 144.06 27.81 144.35 27.61 C 144.58 27.46 144.81 27.31 145.04 27.17 C 145.32 27.00 145.60 26.85 145.88 26.70 C 146.11 26.57 146.35 26.45 146.59 26.33 C 146.80 26.23 147.02 26.13 147.24 26.04 C 147.73 25.82 148.23 25.62 148.73 25.44 C 148.93 25.37 149.13 25.29 149.34 25.23 C 150.03 25.01 150.73 24.81 151.44 24.67 L 146.67 22.10 Z" fill="url(#SVGID_50_)" fill-rule="nonzero" group-id="8,37,65" node-id="898" stroke="none" target-height="39.519997" target-width="22.430008" target-x="129.01" target-y="22.1"></path></svg>