<?xml version="1.0" standalone="no"?><!DOCTYPE svg PUBLIC "-//W3C//DTD SVG 1.1//EN" "http://www.w3.org/Graphics/SVG/1.1/DTD/svg11.dtd"><svg height="300" node-id="1" sillyvg="true" template-height="300" template-width="300" version="1.1" viewBox="0 0 300 300" width="300" xmlns="http://www.w3.org/2000/svg" xmlns:xlink="http://www.w3.org/1999/xlink"><defs node-id="283"><linearGradient gradientUnits="userSpaceOnUse" id="SVGID_1_" node-id="10" spreadMethod="pad" x1="-5690.359" x2="-5773.187" y1="49.5025" y2="49.5025"><stop offset="0" stop-color="#3282ed"></stop><stop offset="1" stop-color="#60a2f0"></stop></linearGradient><linearGradient gradientUnits="userSpaceOnUse" id="SVGID_2_" node-id="15" spreadMethod="pad" x1="-5723.8047" x2="-5698.9043" y1="8.5665" y2="43.807"><stop offset="0" stop-color="#ffffff"></stop><stop offset="1" stop-color="#ffffff" stop-opacity="0"></stop></linearGradient><linearGradient gradientUnits="userSpaceOnUse" id="SVGID_3_" node-id="20" spreadMethod="pad" x1="94.982" x2="94.982" y1="106.4525" y2="125.0447"><stop offset="0.003636364" stop-color="#716cf5"></stop><stop offset="1" stop-color="#716cf5" stop-opacity="0"></stop></linearGradient><linearGradient gradientTransform="matrix(-1 0 0 -1 5825.1274 -678.6804)" gradientUnits="userSpaceOnUse" id="SVGID_4_" node-id="25" spreadMethod="pad" x1="5709.1377" x2="5709.1377" y1="-806.0323" y2="-789.6531"><stop offset="0" stop-color="#6ce1f5"></stop><stop offset="1" stop-color="#6ce1f5" stop-opacity="0"></stop></linearGradient><linearGradient gradientTransform="matrix(-1 0 0 -1 5825.1274 -678.6804)" gradientUnits="userSpaceOnUse" id="SVGID_5_" node-id="30" spreadMethod="pad" x1="5698.5454" x2="5698.5454" y1="-774.2449" y2="-758.6179"><stop offset="0.003636364" stop-color="#6cf59e"></stop><stop offset="1" stop-color="#6cf59e" stop-opacity="0"></stop></linearGradient><linearGradient gradientTransform="matrix(1 -0.00187079 0.00187079 1 -0.9984 -0.1642)" gradientUnits="userSpaceOnUse" id="SVGID_6_" node-id="35" spreadMethod="pad" x1="70.6594" x2="190.4576" y1="152.2518" y2="152.2518"><stop offset="0" stop-color="#5fb5f7"></stop><stop offset="1" stop-color="#2e7feb"></stop></linearGradient><linearGradient gradientTransform="matrix(1 -0.00187079 0.00187079 1 -0.9984 -0.1642)" gradientUnits="userSpaceOnUse" id="SVGID_7_" node-id="39" spreadMethod="pad" x1="128.2502" x2="167.8993" y1="259.6644" y2="225.3527"><stop offset="0" stop-color="#3985bf"></stop><stop offset="1" stop-color="#1567d4"></stop></linearGradient><linearGradient gradientUnits="userSpaceOnUse" id="SVGID_8_" node-id="43" spreadMethod="pad" x1="70.6694" x2="190.2415" y1="152.6368" y2="152.6368"><stop offset="0" stop-color="#3282ed"></stop><stop offset="1" stop-color="#60a2f0"></stop></linearGradient><linearGradient gradientTransform="matrix(1 -0.00187079 0.00187079 1 -0.9984 -0.1642)" gradientUnits="userSpaceOnUse" id="SVGID_9_" node-id="48" spreadMethod="pad" x1="74.1847" x2="263.2491" y1="221.8993" y2="221.8993"><stop offset="0" stop-color="#3282ed"></stop><stop offset="1" stop-color="#60a2f0"></stop></linearGradient><linearGradient gradientTransform="matrix(1 -0.00187079 0.00187079 1 -0.9984 -0.1642)" gradientUnits="userSpaceOnUse" id="SVGID_10_" node-id="53" spreadMethod="pad" x1="189.996" x2="219.7576" y1="243.7232" y2="243.7232"><stop offset="0" stop-color="#5fb5f7"></stop><stop offset="1" stop-color="#2e7feb"></stop></linearGradient><linearGradient gradientUnits="userSpaceOnUse" id="SVGID_11_" node-id="89" spreadMethod="pad" x1="236.7427" x2="229.2962" y1="163.5406" y2="166.9138"><stop offset="0.00502513" stop-color="#5298ef"></stop><stop offset="1" stop-color="#73b0f1" stop-opacity="0"></stop></linearGradient><linearGradient gradientUnits="userSpaceOnUse" id="SVGID_12_" node-id="93" spreadMethod="pad" x1="232.7888" x2="246.5929" y1="158.771" y2="158.771"><stop offset="0" stop-color="#6dacef"></stop><stop offset="1" stop-color="#97c9fe"></stop></linearGradient><linearGradient gradientUnits="userSpaceOnUse" id="SVGID_13_" node-id="97" spreadMethod="pad" x1="239.8055" x2="246.3942" y1="161.7116" y2="156.2334"><stop offset="0.00337838" stop-color="#8ebef4"></stop><stop offset="1" stop-color="#b4d8fa"></stop></linearGradient><linearGradient gradientUnits="userSpaceOnUse" id="SVGID_14_" node-id="101" spreadMethod="pad" x1="232.7603" x2="246.7519" y1="152.5688" y2="152.5688"><stop offset="0" stop-color="#97c3f4"></stop><stop offset="1" stop-color="#e8f1fa"></stop></linearGradient><linearGradient gradientTransform="matrix(0.5 0.866 -0.866 0.5 1402.085 1041.4088)" gradientUnits="userSpaceOnUse" id="SVGID_15_" node-id="105" spreadMethod="pad" x1="-1353.1016" x2="-1353.1016" y1="573.8857" y2="590.7953"><stop offset="0.00337838" stop-color="#75b2ff"></stop><stop offset="1" stop-color="#75b2ff" stop-opacity="0"></stop></linearGradient><linearGradient gradientTransform="matrix(0.4772 0.8265 -0.7164 0.4136 1135.6169 1183.2845)" gradientUnits="userSpaceOnUse" id="SVGID_16_" node-id="109" spreadMethod="pad" x1="-1402.0057" x2="-1402.0057" y1="330.6664" y2="337.9772"><stop offset="0.00337838" stop-color="#75b2ff"></stop><stop offset="1" stop-color="#75b2ff" stop-opacity="0"></stop></linearGradient><linearGradient gradientUnits="userSpaceOnUse" id="SVGID_17_" node-id="114" spreadMethod="pad" x1="159.3725" x2="166.3507" y1="151.8061" y2="151.8061"><stop offset="0" stop-color="#579cef"></stop><stop offset="1" stop-color="#1d4e8f"></stop></linearGradient><linearGradient gradientUnits="userSpaceOnUse" id="SVGID_18_" node-id="118" spreadMethod="pad" x1="165.9916" x2="173.1622" y1="151.9612" y2="151.9612"><stop offset="0" stop-color="#0071e9"></stop><stop offset="1" stop-color="#1d4e8f"></stop></linearGradient><linearGradient gradientTransform="matrix(-0.9997 -0.024 -0.024 0.9997 15666.6025 379.2033)" gradientUnits="userSpaceOnUse" id="SVGID_19_" node-id="122" spreadMethod="pad" x1="15494.656" x2="15508.083" y1="135.4607" y2="135.4607"><stop offset="0" stop-color="#836fe3"></stop><stop offset="1" stop-color="#b46aeb"></stop></linearGradient><linearGradient gradientUnits="userSpaceOnUse" id="SVGID_20_" node-id="126" spreadMethod="pad" x1="159.739" x2="166.7172" y1="136.5518" y2="136.5518"><stop offset="0" stop-color="#3282ed"></stop><stop offset="1" stop-color="#60a2f0"></stop></linearGradient><linearGradient gradientUnits="userSpaceOnUse" id="SVGID_21_" node-id="130" spreadMethod="pad" x1="166.3581" x2="173.5287" y1="136.7069" y2="136.7069"><stop offset="0" stop-color="#3282ed"></stop><stop offset="1" stop-color="#60a2f0"></stop></linearGradient><linearGradient gradientUnits="userSpaceOnUse" id="SVGID_22_" node-id="134" spreadMethod="pad" x1="160.1056" x2="173.5287" y1="127.0657" y2="127.0657"><stop offset="0" stop-color="#3282ed"></stop><stop offset="1" stop-color="#60a2f0"></stop></linearGradient><linearGradient gradientUnits="userSpaceOnUse" id="SVGID_23_" node-id="138" spreadMethod="pad" x1="148.3237" x2="155.8349" y1="146.8456" y2="146.8456"><stop offset="0" stop-color="#579cef"></stop><stop offset="1" stop-color="#1d4e8f"></stop></linearGradient><linearGradient gradientUnits="userSpaceOnUse" id="SVGID_24_" node-id="142" spreadMethod="pad" x1="154.9427" x2="162.6464" y1="147.0007" y2="147.0007"><stop offset="0" stop-color="#0071e9"></stop><stop offset="1" stop-color="#1d4e8f"></stop></linearGradient><linearGradient gradientTransform="matrix(-0.9997 -0.024 -0.024 0.9997 15666.6025 379.2033)" gradientUnits="userSpaceOnUse" id="SVGID_25_" node-id="146" spreadMethod="pad" x1="15505.555" x2="15518.981" y1="119.6636" y2="119.6636"><stop offset="0" stop-color="#836fe3"></stop><stop offset="1" stop-color="#b46aeb"></stop></linearGradient><linearGradient gradientUnits="userSpaceOnUse" id="SVGID_26_" node-id="150" spreadMethod="pad" x1="149.2232" x2="156.2014" y1="120.4975" y2="120.4975"><stop offset="0" stop-color="#3282ed"></stop><stop offset="1" stop-color="#60a2f0"></stop></linearGradient><linearGradient gradientUnits="userSpaceOnUse" id="SVGID_27_" node-id="154" spreadMethod="pad" x1="155.8422" x2="163.0129" y1="120.6526" y2="120.6526"><stop offset="0" stop-color="#3282ed"></stop><stop offset="1" stop-color="#60a2f0"></stop></linearGradient><linearGradient gradientUnits="userSpaceOnUse" id="SVGID_28_" node-id="158" spreadMethod="pad" x1="149.5897" x2="163.0129" y1="111.0113" y2="111.0113"><stop offset="0" stop-color="#3282ed"></stop><stop offset="1" stop-color="#60a2f0"></stop></linearGradient><linearGradient gradientUnits="userSpaceOnUse" id="SVGID_29_" node-id="162" spreadMethod="pad" x1="137.2748" x2="144.3575" y1="161.8974" y2="161.8974"><stop offset="0" stop-color="#579cef"></stop><stop offset="1" stop-color="#1d4e8f"></stop></linearGradient><linearGradient gradientUnits="userSpaceOnUse" id="SVGID_30_" node-id="166" spreadMethod="pad" x1="143.8938" x2="151.169" y1="162.0525" y2="162.0525"><stop offset="0" stop-color="#0071e9"></stop><stop offset="1" stop-color="#1d4e8f"></stop></linearGradient><linearGradient gradientTransform="matrix(-0.9997 -0.024 -0.024 0.9997 15666.6025 379.2033)" gradientUnits="userSpaceOnUse" id="SVGID_31_" node-id="170" spreadMethod="pad" x1="15516.453" x2="15529.88" y1="143.9027" y2="143.9027"><stop offset="0" stop-color="#836fe3"></stop><stop offset="1" stop-color="#b46aeb"></stop></linearGradient><linearGradient gradientUnits="userSpaceOnUse" id="SVGID_32_" node-id="174" spreadMethod="pad" x1="137.7458" x2="144.7135" y1="144.6854" y2="144.6854"><stop offset="0" stop-color="#3282ed"></stop><stop offset="1" stop-color="#60a2f0"></stop></linearGradient><linearGradient gradientUnits="userSpaceOnUse" id="SVGID_33_" node-id="178" spreadMethod="pad" x1="144.3648" x2="151.525" y1="144.8405" y2="144.8405"><stop offset="0" stop-color="#3282ed"></stop><stop offset="1" stop-color="#60a2f0"></stop></linearGradient><linearGradient gradientUnits="userSpaceOnUse" id="SVGID_34_" node-id="182" spreadMethod="pad" x1="138.1019" x2="151.525" y1="135.4168" y2="135.4168"><stop offset="0" stop-color="#3282ed"></stop><stop offset="1" stop-color="#60a2f0"></stop></linearGradient><linearGradient gradientUnits="userSpaceOnUse" id="SVGID_35_" node-id="186" spreadMethod="pad" x1="126.2259" x2="133.1936" y1="170.4235" y2="170.4235"><stop offset="0" stop-color="#579cef"></stop><stop offset="1" stop-color="#1d4e8f"></stop></linearGradient><linearGradient gradientUnits="userSpaceOnUse" id="SVGID_36_" node-id="190" spreadMethod="pad" x1="132.8449" x2="140.0051" y1="170.5786" y2="170.5786"><stop offset="0" stop-color="#0071e9"></stop><stop offset="1" stop-color="#1d4e8f"></stop></linearGradient><linearGradient gradientTransform="matrix(-0.9997 -0.024 -0.024 0.9997 15666.6025 379.2033)" gradientUnits="userSpaceOnUse" id="SVGID_37_" node-id="194" spreadMethod="pad" x1="15527.352" x2="15540.778" y1="155.0866" y2="155.0866"><stop offset="0" stop-color="#836fe3"></stop><stop offset="1" stop-color="#b46aeb"></stop></linearGradient><linearGradient gradientUnits="userSpaceOnUse" id="SVGID_38_" node-id="198" spreadMethod="pad" x1="126.5819" x2="133.9573" y1="147.1207" y2="147.1207"><stop offset="0" stop-color="#3282ed"></stop><stop offset="1" stop-color="#60a2f0"></stop></linearGradient><linearGradient gradientUnits="userSpaceOnUse" id="SVGID_39_" node-id="202" spreadMethod="pad" x1="133.2009" x2="140.7688" y1="147.2758" y2="147.2758"><stop offset="0" stop-color="#3282ed"></stop><stop offset="1" stop-color="#60a2f0"></stop></linearGradient><linearGradient gradientUnits="userSpaceOnUse" id="SVGID_40_" node-id="206" spreadMethod="pad" x1="127.3456" x2="140.7688" y1="129.3686" y2="129.3686"><stop offset="0" stop-color="#3282ed"></stop><stop offset="1" stop-color="#60a2f0"></stop></linearGradient><linearGradient gradientUnits="userSpaceOnUse" id="SVGID_41_" node-id="210" spreadMethod="pad" x1="115.177" x2="122.3224" y1="172.8588" y2="172.8588"><stop offset="0" stop-color="#579cef"></stop><stop offset="1" stop-color="#1d4e8f"></stop></linearGradient><linearGradient gradientUnits="userSpaceOnUse" id="SVGID_42_" node-id="214" spreadMethod="pad" x1="121.796" x2="129.1339" y1="173.0139" y2="173.0139"><stop offset="0" stop-color="#0071e9"></stop><stop offset="1" stop-color="#1d4e8f"></stop></linearGradient><linearGradient gradientTransform="matrix(-0.9997 -0.024 -0.024 0.9997 15666.6025 379.2033)" gradientUnits="userSpaceOnUse" id="SVGID_43_" node-id="218" spreadMethod="pad" x1="15538.25" x2="15551.677" y1="154.0854" y2="154.0854"><stop offset="0" stop-color="#836fe3"></stop><stop offset="1" stop-color="#b46aeb"></stop></linearGradient><linearGradient gradientUnits="userSpaceOnUse" id="SVGID_44_" node-id="222" spreadMethod="pad" x1="115.7107" x2="122.6993" y1="153.9066" y2="153.9066"><stop offset="0" stop-color="#3282ed"></stop><stop offset="1" stop-color="#60a2f0"></stop></linearGradient><linearGradient gradientUnits="userSpaceOnUse" id="SVGID_45_" node-id="226" spreadMethod="pad" x1="122.3297" x2="129.5108" y1="154.0617" y2="154.0617"><stop offset="0" stop-color="#3282ed"></stop><stop offset="1" stop-color="#60a2f0"></stop></linearGradient><linearGradient gradientUnits="userSpaceOnUse" id="SVGID_46_" node-id="230" spreadMethod="pad" x1="116.0877" x2="129.5108" y1="144.2029" y2="144.2029"><stop offset="0" stop-color="#3282ed"></stop><stop offset="1" stop-color="#60a2f0"></stop></linearGradient><linearGradient gradientUnits="userSpaceOnUse" id="SVGID_47_" node-id="234" spreadMethod="pad" x1="104.1281" x2="111.1167" y1="182.255" y2="182.255"><stop offset="0" stop-color="#579cef"></stop><stop offset="1" stop-color="#1d4e8f"></stop></linearGradient><linearGradient gradientUnits="userSpaceOnUse" id="SVGID_48_" node-id="238" spreadMethod="pad" x1="110.7471" x2="117.9282" y1="182.4101" y2="182.4101"><stop offset="0" stop-color="#0071e9"></stop><stop offset="1" stop-color="#1d4e8f"></stop></linearGradient><linearGradient gradientTransform="matrix(-0.9997 -0.024 -0.024 0.9997 15666.6025 379.2033)" gradientUnits="userSpaceOnUse" id="SVGID_49_" node-id="242" spreadMethod="pad" x1="15549.148" x2="15562.575" y1="167.01" y2="167.01"><stop offset="0" stop-color="#836fe3"></stop><stop offset="1" stop-color="#b46aeb"></stop></linearGradient><linearGradient gradientUnits="userSpaceOnUse" id="SVGID_50_" node-id="246" spreadMethod="pad" x1="104.505" x2="111.5355" y1="165.6956" y2="165.6956"><stop offset="0" stop-color="#3282ed"></stop><stop offset="1" stop-color="#60a2f0"></stop></linearGradient><linearGradient gradientUnits="userSpaceOnUse" id="SVGID_51_" node-id="250" spreadMethod="pad" x1="111.1241" x2="118.347" y1="165.8507" y2="165.8507"><stop offset="0" stop-color="#3282ed"></stop><stop offset="1" stop-color="#60a2f0"></stop></linearGradient><linearGradient gradientUnits="userSpaceOnUse" id="SVGID_52_" node-id="254" spreadMethod="pad" x1="104.9238" x2="118.347" y1="155.1218" y2="155.1218"><stop offset="0" stop-color="#3282ed"></stop><stop offset="1" stop-color="#60a2f0"></stop></linearGradient><linearGradient gradientUnits="userSpaceOnUse" id="SVGID_53_" node-id="258" spreadMethod="pad" x1="93.0792" x2="99.9633" y1="190.5636" y2="190.5636"><stop offset="0" stop-color="#579cef"></stop><stop offset="1" stop-color="#1d4e8f"></stop></linearGradient><linearGradient gradientUnits="userSpaceOnUse" id="SVGID_54_" node-id="262" spreadMethod="pad" x1="99.6982" x2="106.7748" y1="190.7187" y2="190.7187"><stop offset="0" stop-color="#0071e9"></stop><stop offset="1" stop-color="#1d4e8f"></stop></linearGradient><linearGradient gradientTransform="matrix(-0.9997 -0.024 -0.024 0.9997 15666.6025 379.2033)" gradientUnits="userSpaceOnUse" id="SVGID_55_" node-id="266" spreadMethod="pad" x1="15560.047" x2="15573.474" y1="177.7586" y2="177.7586"><stop offset="0" stop-color="#836fe3"></stop><stop offset="1" stop-color="#b46aeb"></stop></linearGradient><linearGradient gradientUnits="userSpaceOnUse" id="SVGID_56_" node-id="270" spreadMethod="pad" x1="93.3516" x2="100.3403" y1="177.0495" y2="177.0495"><stop offset="0" stop-color="#3282ed"></stop><stop offset="1" stop-color="#60a2f0"></stop></linearGradient><linearGradient gradientUnits="userSpaceOnUse" id="SVGID_57_" node-id="274" spreadMethod="pad" x1="99.9707" x2="107.1518" y1="177.2046" y2="177.2046"><stop offset="0" stop-color="#3282ed"></stop><stop offset="1" stop-color="#60a2f0"></stop></linearGradient><linearGradient gradientTransform="matrix(-0.9997 -0.024 -0.024 0.9997 15666.6025 379.2033)" gradientUnits="userSpaceOnUse" id="SVGID_58_" node-id="278" spreadMethod="pad" x1="15560.047" x2="15573.474" y1="162.0648" y2="162.0648"><stop offset="0" stop-color="#3282ed"></stop><stop offset="1" stop-color="#60a2f0"></stop></linearGradient></defs><path d="M 95.01 76.69 L 95.01 184.12" fill="none" node-id="636" stroke="#a557cf" stroke-linecap="butt" stroke-width="1.1285" target-height="107.42999" target-width="0" target-x="95.01" target-y="76.69"></path><path d="M 105.53 66.43 L 105.53 173.86" fill="none" node-id="638" stroke="#a557cf" stroke-linecap="butt" stroke-width="1.1285" target-height="107.43" target-width="0" target-x="105.53" target-y="66.43"></path><path d="M 116.05 53.60 L 116.05 161.03" fill="none" node-id="640" stroke="#a557cf" stroke-linecap="butt" stroke-width="1.1285" target-height="107.43" target-width="0" target-x="116.05" target-y="53.6"></path><path d="M 126.57 45.90 L 126.57 153.33" fill="none" node-id="642" stroke="#a557cf" stroke-linecap="butt" stroke-width="1.1285" target-height="107.43" target-width="0" target-x="126.57" target-y="45.9"></path><g node-id="872"><path d="M 65.20 72.03 C 65.20 76.80 66.84 80.10 69.41 81.42 L 80.62 89.12 L 82.04 87.31 L 82.53 86.68 C 82.53 86.68 82.45 86.58 82.33 86.44 C 82.11 86.17 81.78 85.77 81.76 85.75 C 81.75 85.74 81.33 85.44 80.77 85.05 C 81.02 84.93 81.27 84.79 81.52 84.65 C 81.76 84.51 82.00 84.36 82.24 84.21 L 83.21 83.65 L 133.42 54.66 C 133.66 54.55 133.90 54.42 134.14 54.28 C 140.40 50.67 145.49 41.02 145.58 32.65 C 145.58 32.57 145.58 32.49 145.58 32.41 C 145.58 32.37 145.58 32.33 145.58 32.28 C 145.57 30.70 145.38 29.28 145.03 28.04 C 146.25 27.59 148.01 26.95 148.03 26.95 C 148.03 26.94 137.95 19.90 136.90 19.29 C 136.87 19.27 136.85 19.26 136.83 19.25 C 136.80 19.23 136.77 19.21 136.74 19.20 C 136.73 19.19 136.73 19.19 136.72 19.19 C 134.72 18.05 132.11 18.17 129.27 19.81 C 129.13 19.89 128.99 19.98 128.85 20.06 C 128.77 18.23 136.63 20.07 136.13 18.70 L 124.66 10.89 L 124.65 10.88 C 122.39 9.48 119.40 9.56 116.13 11.45 C 114.59 12.34 113.12 13.55 111.76 15.00 L 107.33 12.32 C 107.31 12.31 107.28 12.29 107.26 12.28 C 105.64 11.34 103.79 10.86 101.77 10.89 L 101.77 10.89 C 101.16 10.90 100.53 10.96 99.88 11.06 C 99.53 11.11 99.18 11.19 98.83 11.27 C 97.20 11.66 95.50 12.35 93.75 13.36 C 86.61 17.49 80.31 25.97 76.60 35.47 C 74.40 41.12 73.11 47.12 73.11 52.79 C 73.11 52.86 73.11 52.92 73.12 52.99 C 73.11 53.00 73.11 53.00 73.11 53.00 C 68.50 57.61 65.20 65.26 65.20 72.03 Z" fill="url(#SVGID_1_)" fill-rule="nonzero" group-id="1" node-id="645" stroke="none" target-height="79.64" target-width="82.83" target-x="65.2" target-y="9.48"></path><path d="M 76.83 80.10 C 76.90 88.53 82.06 92.35 88.35 88.65 C 88.59 88.51 88.83 88.36 89.06 88.20 L 139.98 58.20 C 140.22 58.08 140.45 57.95 140.69 57.81 C 146.98 54.11 152.02 44.27 151.94 35.84 C 151.86 27.41 146.71 23.59 140.42 27.29 C 140.28 27.37 140.14 27.46 140.00 27.55 C 139.52 18.88 133.94 15.07 127.19 19.05 C 125.38 20.12 123.66 21.64 122.10 23.48 C 118.37 18.15 112.00 16.93 104.82 21.16 C 93.48 27.84 84.40 45.57 84.53 60.76 C 84.53 60.83 84.53 60.89 84.53 60.96 C 80.02 65.64 76.77 73.33 76.83 80.10 Z" fill="#ffffff" fill-rule="nonzero" group-id="1" node-id="647" stroke="#3fa9f5" stroke-linecap="butt" stroke-width="1" target-height="77.28" target-width="75.25001" target-x="76.77" target-y="15.07"></path><g node-id="881"><path d="M 104.28 21.51 C 113.35 35.47 124.70 52.48 131.78 63.04 L 139.99 58.20 C 140.23 58.08 140.47 57.95 140.70 57.81 C 146.99 54.10 152.03 44.27 151.95 35.84 C 151.88 27.41 146.72 23.58 140.43 27.29 C 140.29 27.37 140.15 27.46 140.01 27.55 C 139.53 18.88 133.95 15.07 127.20 19.05 C 125.39 20.12 123.67 21.64 122.12 23.48 C 118.39 18.15 112.02 16.93 104.84 21.16 C 104.65 21.28 104.46 21.39 104.28 21.51 Z" fill="url(#SVGID_2_)" fill-opacity="0.2" fill-rule="nonzero" group-id="1,10" node-id="651" stroke="none" target-height="47.97" target-width="47.75" target-x="104.28" target-y="15.07"></path></g></g><path d="M 93.64 107.53 L 93.64 107.53 C 92.89 106.78 92.89 105.56 93.64 104.81 L 93.64 104.81 C 94.39 104.06 95.61 104.06 96.36 104.81 L 96.36 104.81 C 97.11 105.56 97.11 106.78 96.36 107.53 L 96.36 107.53 C 95.61 108.28 94.39 108.28 93.64 107.53 Z" fill="#716cf5" fill-rule="nonzero" node-id="655" stroke="none" target-height="4.220001" target-width="4.220001" target-x="92.89" target-y="104.06"></path><path d="M 92.63 106.06 L 97.34 106.06 L 97.34 125.18 L 92.63 125.18 Z" fill="url(#SVGID_3_)" fill-opacity="0.5" fill-rule="nonzero" group-id="2" node-id="659" stroke="none" target-height="19.120003" target-width="4.709999" target-x="92.63" target-y="106.06"></path><path d="M 117.17 126.40 L 117.17 126.40 C 117.83 127.06 117.83 128.13 117.17 128.80 L 117.17 128.80 C 116.51 129.46 115.44 129.46 114.77 128.80 L 114.77 128.80 C 114.11 128.14 114.11 127.07 114.77 126.40 L 114.77 126.40 C 115.43 125.74 116.51 125.74 117.17 126.40 Z" fill="#6ce1f5" fill-rule="nonzero" node-id="662" stroke="none" target-height="3.7200089" target-width="3.7200012" target-x="114.11" target-y="125.74"></path><path d="M 113.92 110.85 L 118.06 110.85 L 118.06 127.69 L 113.92 127.69 Z" fill="url(#SVGID_4_)" fill-opacity="0.4" fill-rule="nonzero" group-id="3" node-id="666" stroke="none" target-height="16.840004" target-width="4.1399994" target-x="113.92" target-y="110.85"></path><path d="M 127.71 106.66 L 127.71 106.66 C 128.34 107.29 128.34 108.32 127.71 108.95 L 127.71 108.95 C 127.08 109.58 126.05 109.58 125.42 108.95 L 125.42 108.95 C 124.79 108.32 124.79 107.29 125.42 106.66 L 125.42 106.66 C 126.05 106.03 127.08 106.03 127.71 106.66 Z" fill="#6cf59e" fill-rule="nonzero" node-id="669" stroke="none" target-height="3.550003" target-width="3.5499954" target-x="124.79" target-y="106.03"></path><path d="M 124.60 79.82 L 128.56 79.82 L 128.56 95.89 L 124.60 95.89 Z" fill="url(#SVGID_5_)" fill-opacity="0.4" fill-rule="nonzero" group-id="4" node-id="673" stroke="none" target-height="16.07" target-width="3.959999" target-x="124.6" target-y="79.82"></path><path d="M 74.97 248.81 L 186.13 184.36 C 188.41 183.04 191.84 182.88 193.79 184.00 L 260.79 222.51 C 262.74 223.63 262.48 225.61 260.20 226.93 L 149.04 291.38 C 146.76 292.70 143.33 292.86 141.38 291.74 L 74.38 253.23 C 72.42 252.11 72.69 250.13 74.97 248.81 Z" fill="#111440" fill-opacity="0.3" fill-rule="evenodd" group-id="5" node-id="678" stroke="none" target-height="109.97998" target-width="190.31999" target-x="72.42" target-y="182.88"></path><path d="M 74.04 134.17 L 185.46 69.72 C 187.74 68.40 189.59 69.45 189.59 72.07 L 189.76 162.39 C 189.76 165.01 187.92 168.20 185.65 169.52 L 74.23 233.97 C 71.95 235.29 70.10 234.24 70.10 231.62 L 69.93 141.30 C 69.92 138.68 71.76 135.49 74.04 134.17 Z" fill="url(#SVGID_6_)" fill-rule="evenodd" node-id="681" stroke="none" target-height="166.88998" target-width="119.84" target-x="69.92" target-y="68.4"></path><path d="M 261.48 206.18 L 194.35 172.07 C 192.40 170.95 188.97 171.11 186.69 172.43 L 78.97 234.89 L 73.63 234.90 L 73.64 239.24 C 73.56 240.02 73.99 240.77 74.94 241.31 L 141.94 279.82 C 143.89 280.94 147.32 280.78 149.60 279.46 L 260.76 215.01 C 263.03 213.69 264.20 207.54 261.48 206.18 Z" fill="url(#SVGID_7_)" fill-rule="evenodd" node-id="683" stroke="none" target-height="109.990005" target-width="190.64001" target-x="73.56" target-y="170.95"></path><path d="M 74.78 135.23 L 185.94 70.78 C 188.22 69.46 190.07 70.51 190.07 73.13 L 190.24 162.92 C 190.24 165.54 188.40 168.73 186.13 170.05 L 74.97 234.50 C 72.69 235.82 70.84 234.77 70.84 232.15 L 70.67 142.36 C 70.66 139.74 72.51 136.55 74.78 135.23 Z" fill="url(#SVGID_8_)" fill-rule="evenodd" node-id="685" stroke="none" target-height="166.36002" target-width="119.58" target-x="70.66" target-y="69.46"></path><path d="M 75.32 223.89 L 75.16 140.72 C 75.16 140.20 75.52 139.57 75.97 139.31 L 184.75 76.23 C 185.20 75.97 185.57 76.18 185.57 76.69 L 185.73 159.86 C 185.73 160.38 185.37 161.01 184.92 161.27 L 76.14 224.36 C 75.69 224.62 75.33 224.41 75.32 223.89 Z" fill="#ecf3f8" fill-rule="evenodd" node-id="687" stroke="none" target-height="148.65" target-width="110.56999" target-x="75.16" target-y="75.97"></path><path d="M 75.52 232.36 L 186.68 167.91 C 188.96 166.59 192.39 166.43 194.34 167.55 L 261.34 206.06 C 263.29 207.18 263.03 209.16 260.75 210.48 L 149.59 274.93 C 147.31 276.25 143.88 276.41 141.93 275.29 L 74.93 236.78 C 72.98 235.66 73.25 233.68 75.52 232.36 Z" fill="url(#SVGID_9_)" fill-rule="evenodd" node-id="689" stroke="none" target-height="109.98001" target-width="190.31" target-x="72.98" target-y="166.43"></path><path d="M 216.77 228.22 L 180.12 249.47 C 179.26 249.97 177.74 249.91 176.74 249.34 L 159.87 239.64 C 158.87 239.07 158.76 238.19 159.62 237.69 L 196.27 216.44 C 197.13 215.94 198.65 216.00 199.65 216.57 L 216.52 226.27 C 217.53 226.85 217.64 227.72 216.77 228.22 Z" fill="#2156c9" fill-rule="evenodd" node-id="691" stroke="none" target-height="34.03" target-width="58.880005" target-x="158.76" target-y="215.94"></path><path d="M 219.18 234.56 C 218.96 234.55 218.73 234.55 218.49 234.57 C 217.80 234.64 217.06 234.85 216.44 235.21 L 190.60 250.19 C 189.77 250.67 189.38 251.27 189.48 251.77 C 189.70 251.78 189.93 251.78 190.17 251.76 C 190.87 251.69 191.60 251.48 192.22 251.12 L 218.06 236.14 C 218.89 235.67 219.28 235.06 219.18 234.56 Z" fill="url(#SVGID_10_)" fill-rule="nonzero" node-id="693" stroke="none" target-height="17.229996" target-width="29.899994" target-x="189.38" target-y="234.55"></path><path d="M 224.09 193.19 L 218.77 196.26 C 218.46 196.44 217.98 196.46 217.71 196.30 L 216.27 195.47 C 216.00 195.31 216.03 195.04 216.34 194.86 L 221.66 191.79 C 221.97 191.61 222.45 191.59 222.72 191.75 L 224.16 192.58 C 224.43 192.74 224.40 193.01 224.09 193.19 Z M 216.47 189.95 L 203.37 197.53 C 203.06 197.71 202.58 197.73 202.31 197.57 L 197.99 195.07 C 197.72 194.91 197.75 194.64 198.06 194.46 L 211.16 186.87 C 211.47 186.69 211.95 186.67 212.22 186.83 L 216.54 189.34 C 216.82 189.50 216.79 189.77 216.47 189.95 Z M 209.82 186.09 L 200.33 191.59 C 200.02 191.77 199.54 191.79 199.27 191.63 L 194.95 189.13 C 194.68 188.97 194.71 188.70 195.02 188.51 L 204.51 183.00 C 204.82 182.82 205.30 182.80 205.57 182.96 L 209.90 185.47 C 210.16 185.64 210.13 185.91 209.82 186.09 Z M 203.16 182.23 L 198.24 185.08 C 197.93 185.26 197.45 185.28 197.18 185.12 L 192.85 182.61 C 192.58 182.45 192.60 182.17 192.92 181.99 L 197.84 179.13 C 198.15 178.95 198.63 178.93 198.90 179.09 L 203.23 181.60 C 203.50 181.77 203.47 182.05 203.16 182.23 Z M 195.75 186.52 L 190.84 189.37 C 190.53 189.55 190.05 189.57 189.78 189.41 L 185.45 186.90 C 185.18 186.74 185.20 186.47 185.52 186.28 L 190.43 183.43 C 190.74 183.25 191.22 183.23 191.49 183.39 L 195.82 185.90 C 196.10 186.07 196.07 186.34 195.75 186.52 Z M 188.37 190.81 L 183.47 193.65 C 183.16 193.83 182.68 193.85 182.41 193.69 L 178.08 191.19 C 177.81 191.03 177.83 190.76 178.15 190.58 L 183.05 187.73 C 183.36 187.55 183.84 187.53 184.11 187.69 L 188.44 190.20 C 188.71 190.36 188.68 190.63 188.37 190.81 Z M 180.99 195.09 L 176.10 197.93 C 175.79 198.11 175.32 198.13 175.04 197.97 L 170.71 195.47 C 170.44 195.31 170.46 195.04 170.77 194.86 L 175.66 192.02 C 175.97 191.84 176.45 191.82 176.72 191.98 L 181.05 194.48 C 181.33 194.64 181.30 194.91 180.99 195.09 Z M 173.63 199.37 L 168.75 202.20 C 168.44 202.38 167.97 202.40 167.69 202.24 L 163.36 199.74 C 163.09 199.58 163.11 199.31 163.42 199.13 L 168.30 196.29 C 168.61 196.11 169.08 196.09 169.36 196.25 L 173.69 198.75 C 173.96 198.91 173.94 199.19 173.63 199.37 Z M 166.27 203.64 L 161.39 206.47 C 161.08 206.65 160.61 206.67 160.33 206.51 L 156.01 204.02 C 155.74 203.86 155.76 203.59 156.07 203.41 L 160.94 200.58 C 161.25 200.40 161.72 200.38 162.00 200.54 L 166.33 203.03 C 166.61 203.18 166.58 203.46 166.27 203.64 Z M 158.94 207.90 L 154.07 210.73 C 153.76 210.91 153.29 210.93 153.01 210.77 L 148.69 208.28 C 148.42 208.12 148.44 207.85 148.75 207.67 L 153.62 204.84 C 153.93 204.66 154.40 204.64 154.68 204.80 L 159.00 207.29 C 159.27 207.44 159.24 207.72 158.94 207.90 Z M 151.61 212.15 L 146.75 214.97 C 146.44 215.15 145.97 215.17 145.70 215.01 L 141.38 212.53 C 141.11 212.37 141.13 212.10 141.44 211.92 L 146.30 209.10 C 146.61 208.92 147.08 208.90 147.36 209.06 L 151.68 211.55 C 151.95 211.70 151.92 211.97 151.61 212.15 Z M 144.30 216.39 L 139.45 219.21 C 139.14 219.39 138.67 219.41 138.40 219.25 L 134.08 216.77 C 133.81 216.61 133.83 216.34 134.14 216.16 L 138.99 213.34 C 139.30 213.16 139.77 213.14 140.04 213.30 L 144.36 215.78 C 144.63 215.94 144.60 216.22 144.30 216.39 Z M 137.05 220.03 C 137.32 220.19 137.30 220.46 136.99 220.64 L 132.15 223.45 C 131.84 223.63 131.37 223.65 131.10 223.49 L 126.78 221.01 C 126.51 220.85 126.53 220.58 126.84 220.40 L 131.68 217.59 C 131.99 217.41 132.46 217.39 132.73 217.55 L 137.05 220.03 Z M 129.76 224.26 C 130.03 224.42 130.01 224.69 129.70 224.87 L 124.87 227.68 C 124.56 227.86 124.09 227.88 123.82 227.72 L 119.50 225.25 C 119.23 225.09 119.25 224.82 119.56 224.64 L 124.39 221.83 C 124.70 221.65 125.17 221.63 125.44 221.79 L 129.76 224.26 Z M 122.49 228.48 C 122.76 228.64 122.74 228.91 122.43 229.09 L 117.60 231.89 C 117.29 232.07 116.82 232.08 116.55 231.93 L 112.23 229.46 C 111.96 229.30 111.98 229.03 112.29 228.85 L 117.12 226.05 C 117.43 225.87 117.90 225.85 118.17 226.01 L 122.49 228.48 Z M 115.22 232.70 C 115.49 232.86 115.47 233.13 115.16 233.31 L 110.34 236.11 C 110.03 236.29 109.56 236.30 109.29 236.15 L 104.97 233.68 C 104.70 233.52 104.72 233.25 105.03 233.07 L 109.85 230.27 C 110.16 230.09 110.63 230.08 110.90 230.23 L 115.22 232.70 Z M 107.97 236.91 C 108.24 237.07 108.22 237.34 107.91 237.51 L 100.45 241.84 C 100.15 242.02 99.68 242.03 99.40 241.88 L 95.08 239.42 C 94.81 239.26 94.83 238.99 95.14 238.82 L 102.60 234.48 C 102.91 234.30 103.38 234.29 103.65 234.44 L 107.97 236.91 Z M 196.54 178.42 L 191.62 181.27 C 191.31 181.45 190.83 181.47 190.56 181.31 L 188.07 179.86 C 187.80 179.70 187.82 179.42 188.14 179.24 L 193.06 176.38 C 193.37 176.20 193.85 176.18 194.12 176.34 L 196.61 177.80 C 196.89 177.97 196.85 178.24 196.54 178.42 Z M 189.14 182.72 L 184.23 185.57 C 183.92 185.75 183.44 185.77 183.17 185.61 L 180.68 184.16 C 180.41 184.00 180.43 183.73 180.75 183.54 L 185.66 180.69 C 185.97 180.51 186.45 180.49 186.72 180.65 L 189.21 182.10 C 189.48 182.26 189.45 182.54 189.14 182.72 Z M 181.75 187.01 L 176.85 189.85 C 176.54 190.03 176.06 190.05 175.79 189.89 L 173.30 188.44 C 173.03 188.28 173.05 188.01 173.37 187.83 L 178.27 184.98 C 178.58 184.80 179.06 184.78 179.33 184.94 L 181.82 186.39 C 182.09 186.55 182.06 186.83 181.75 187.01 Z M 174.38 191.29 L 169.49 194.13 C 169.18 194.31 168.71 194.33 168.43 194.17 L 165.94 192.73 C 165.67 192.57 165.69 192.30 166.00 192.12 L 170.89 189.28 C 171.20 189.10 171.68 189.08 171.95 189.24 L 174.44 190.69 C 174.72 190.84 174.69 191.11 174.38 191.29 Z M 167.01 195.57 L 162.13 198.40 C 161.82 198.58 161.35 198.60 161.07 198.44 L 158.58 197.00 C 158.31 196.84 158.33 196.57 158.64 196.39 L 163.52 193.55 C 163.83 193.37 164.30 193.35 164.58 193.51 L 167.07 194.95 C 167.35 195.11 167.32 195.39 167.01 195.57 Z M 159.66 199.83 L 154.78 202.66 C 154.47 202.84 154.00 202.86 153.72 202.70 L 151.23 201.26 C 150.96 201.10 150.98 200.83 151.29 200.65 L 156.16 197.82 C 156.47 197.64 156.94 197.62 157.22 197.78 L 159.71 199.22 C 160.00 199.38 159.97 199.65 159.66 199.83 Z M 152.32 204.09 L 147.45 206.92 C 147.14 207.10 146.67 207.12 146.39 206.96 L 143.90 205.53 C 143.63 205.37 143.65 205.10 143.96 204.92 L 148.83 202.09 C 149.14 201.91 149.61 201.89 149.89 202.05 L 152.38 203.48 C 152.66 203.64 152.63 203.92 152.32 204.09 Z M 145.00 208.35 L 140.14 211.17 C 139.83 211.35 139.36 211.37 139.09 211.21 L 136.60 209.78 C 136.33 209.62 136.35 209.35 136.66 209.17 L 141.52 206.35 C 141.83 206.17 142.30 206.15 142.58 206.31 L 145.07 207.74 C 145.33 207.90 145.30 208.17 145.00 208.35 Z M 137.68 212.59 L 132.83 215.41 C 132.52 215.59 132.05 215.61 131.78 215.45 L 129.30 214.03 C 129.03 213.87 129.05 213.60 129.36 213.42 L 134.21 210.60 C 134.52 210.42 134.99 210.40 135.26 210.56 L 137.75 211.99 C 138.02 212.14 137.99 212.41 137.68 212.59 Z M 130.44 216.22 C 130.71 216.38 130.69 216.65 130.38 216.83 L 125.54 219.64 C 125.23 219.82 124.76 219.84 124.49 219.68 L 122.01 218.26 C 121.74 218.10 121.76 217.83 122.07 217.65 L 126.91 214.84 C 127.22 214.66 127.69 214.64 127.96 214.80 L 130.44 216.22 Z M 123.15 220.46 C 123.42 220.62 123.40 220.89 123.09 221.07 L 118.26 223.88 C 117.95 224.06 117.48 224.08 117.21 223.92 L 114.73 222.50 C 114.46 222.34 114.48 222.07 114.79 221.89 L 119.62 219.08 C 119.93 218.90 120.40 218.88 120.67 219.04 L 123.15 220.46 Z M 115.87 224.68 C 116.14 224.84 116.12 225.11 115.81 225.29 L 110.98 228.09 C 110.67 228.27 110.20 228.28 109.93 228.13 L 107.45 226.72 C 107.18 226.56 107.20 226.29 107.51 226.11 L 112.34 223.31 C 112.65 223.13 113.12 223.11 113.39 223.27 L 115.87 224.68 Z M 108.61 228.90 C 108.88 229.06 108.86 229.33 108.55 229.51 L 103.73 232.31 C 103.42 232.49 102.95 232.50 102.68 232.35 L 100.20 230.94 C 99.93 230.78 99.95 230.51 100.26 230.33 L 105.08 227.53 C 105.39 227.35 105.86 227.34 106.13 227.49 L 108.61 228.90 Z M 101.36 233.11 C 101.63 233.27 101.61 233.54 101.30 233.71 L 93.84 238.04 C 93.54 238.22 93.07 238.23 92.79 238.08 L 90.31 236.68 C 90.04 236.52 90.06 236.25 90.37 236.08 L 97.83 231.74 C 98.14 231.56 98.61 231.55 98.88 231.70 L 101.36 233.11 Z M 112.02 236.67 C 112.33 236.49 112.80 236.48 113.07 236.63 L 117.38 239.09 C 117.65 239.25 117.63 239.52 117.32 239.69 L 107.09 245.62 C 106.78 245.80 106.32 245.81 106.04 245.66 L 101.73 243.20 C 101.46 243.04 101.48 242.77 101.79 242.60 L 112.02 236.67 Z M 122.37 238.32 C 122.68 238.14 123.15 238.13 123.42 238.28 L 127.73 240.74 C 128.00 240.90 127.98 241.17 127.67 241.34 L 113.73 249.41 C 113.42 249.59 112.96 249.60 112.68 249.45 L 108.37 246.99 C 108.10 246.83 108.12 246.56 108.43 246.39 L 122.37 238.32 Z M 119.82 247.37 C 120.13 247.19 120.59 247.18 120.87 247.33 L 125.17 249.79 C 125.44 249.95 125.42 250.22 125.11 250.39 L 120.30 253.17 C 119.99 253.35 119.53 253.36 119.25 253.21 L 114.95 250.76 C 114.68 250.60 114.70 250.33 115.01 250.16 L 119.82 247.37 Z M 122.20 246.56 C 121.93 246.40 121.95 246.13 122.26 245.96 L 127.08 243.17 C 127.39 242.99 127.86 242.98 128.13 243.13 L 132.43 245.59 C 132.70 245.75 132.68 246.02 132.37 246.19 L 127.55 248.97 C 127.24 249.15 126.78 249.16 126.50 249.01 L 122.20 246.56 Z M 129.45 242.36 C 129.18 242.20 129.20 241.93 129.51 241.76 L 135.72 238.17 C 136.03 237.99 136.50 237.98 136.77 238.13 L 141.07 240.59 C 141.34 240.75 141.32 241.02 141.01 241.19 L 134.80 244.78 C 134.49 244.96 134.02 244.97 133.75 244.82 L 129.45 242.36 Z M 124.58 235.50 L 119.76 238.29 C 119.45 238.47 118.98 238.48 118.71 238.33 L 114.40 235.87 C 114.13 235.71 114.15 235.44 114.46 235.27 L 119.28 232.47 C 119.59 232.29 120.06 232.28 120.33 232.43 L 124.64 234.90 C 124.91 235.05 124.89 235.32 124.58 235.50 Z M 129.06 239.97 L 124.75 237.51 C 124.48 237.35 124.50 237.08 124.81 236.91 L 129.64 234.11 C 129.95 233.93 130.42 233.92 130.69 234.07 L 135.00 236.54 C 135.27 236.70 135.25 236.97 134.94 237.14 L 130.11 239.93 C 129.80 240.11 129.33 240.13 129.06 239.97 Z M 138.11 237.36 C 137.84 237.20 137.86 236.93 138.17 236.76 L 145.23 232.68 C 145.54 232.50 146.01 232.49 146.28 232.64 L 150.59 235.11 C 150.86 235.27 150.84 235.54 150.53 235.72 L 143.47 239.80 C 143.16 239.98 142.69 239.99 142.42 239.84 L 138.11 237.36 Z M 128.93 227.43 C 128.66 227.27 128.68 227.00 128.99 226.82 L 133.83 224.01 C 134.14 223.83 134.61 223.81 134.88 223.97 L 139.20 226.44 C 139.47 226.60 139.45 226.87 139.14 227.05 L 134.30 229.85 C 133.99 230.03 133.52 230.04 133.25 229.89 L 128.93 227.43 Z M 131.85 231.28 L 127.02 234.08 C 126.71 234.26 126.24 234.27 125.97 234.12 L 121.66 231.65 C 121.39 231.49 121.41 231.22 121.72 231.04 L 126.55 228.24 C 126.86 228.06 127.33 228.04 127.60 228.20 L 131.91 230.67 C 132.18 230.83 132.16 231.11 131.85 231.28 Z M 137.96 229.85 L 142.27 232.32 C 142.54 232.48 142.52 232.75 142.21 232.93 L 137.37 235.73 C 137.06 235.91 136.59 235.92 136.32 235.77 L 132.01 233.30 C 131.74 233.14 131.76 232.87 132.07 232.69 L 136.90 229.89 C 137.22 229.71 137.69 229.70 137.96 229.85 Z M 143.61 231.55 L 139.30 229.08 C 139.03 228.92 139.05 228.65 139.36 228.47 L 144.20 225.66 C 144.51 225.48 144.98 225.46 145.25 225.62 L 149.56 228.09 C 149.83 228.25 149.81 228.52 149.50 228.70 L 144.66 231.50 C 144.35 231.69 143.88 231.71 143.61 231.55 Z M 147.61 231.86 C 147.34 231.70 147.36 231.43 147.67 231.25 L 178.79 213.25 C 179.10 213.07 179.57 213.05 179.85 213.21 L 184.16 215.69 C 184.43 215.85 184.40 216.12 184.09 216.30 L 152.97 234.28 C 152.66 234.46 152.19 234.47 151.92 234.32 L 147.61 231.86 Z M 158.21 209.87 L 163.08 207.04 C 163.39 206.86 163.86 206.84 164.14 207.00 L 168.46 209.49 C 168.73 209.65 168.71 209.92 168.40 210.10 L 163.53 212.92 C 163.22 213.10 162.75 213.12 162.47 212.96 L 158.15 210.47 C 157.87 210.32 157.90 210.05 158.21 209.87 Z M 167.20 212.92 L 171.51 215.40 C 171.78 215.56 171.76 215.83 171.45 216.01 L 166.58 218.83 C 166.27 219.01 165.80 219.03 165.53 218.87 L 161.22 216.39 C 160.95 216.23 160.97 215.96 161.28 215.78 L 166.15 212.96 C 166.45 212.77 166.93 212.76 167.20 212.92 Z M 150.88 214.12 L 155.74 211.30 C 156.05 211.12 156.52 211.10 156.80 211.26 L 161.12 213.75 C 161.39 213.91 161.37 214.18 161.06 214.36 L 156.20 217.18 C 155.89 217.36 155.42 217.38 155.15 217.22 L 150.83 214.74 C 150.55 214.57 150.57 214.30 150.88 214.12 Z M 159.87 217.16 L 164.18 219.64 C 164.45 219.80 164.43 220.07 164.12 220.25 L 159.26 223.06 C 158.95 223.24 158.48 223.26 158.21 223.10 L 153.90 220.62 C 153.63 220.46 153.65 220.19 153.96 220.01 L 158.82 217.19 C 159.13 217.02 159.60 217.00 159.87 217.16 Z M 143.51 218.97 C 143.24 218.81 143.26 218.54 143.57 218.36 L 148.42 215.54 C 148.73 215.36 149.20 215.34 149.47 215.50 L 153.79 217.98 C 154.06 218.14 154.04 218.41 153.73 218.59 L 148.88 221.40 C 148.57 221.58 148.10 221.60 147.83 221.44 L 143.51 218.97 Z M 146.43 222.83 L 141.58 225.64 C 141.27 225.82 140.80 225.84 140.53 225.68 L 136.21 223.20 C 135.94 223.04 135.96 222.77 136.27 222.59 L 141.12 219.78 C 141.43 219.60 141.90 219.58 142.17 219.74 L 146.49 222.22 C 146.76 222.38 146.74 222.66 146.43 222.83 Z M 152.56 221.40 L 156.87 223.88 C 157.14 224.04 157.12 224.31 156.81 224.49 L 151.96 227.30 C 151.65 227.48 151.18 227.50 150.91 227.34 L 146.60 224.87 C 146.33 224.71 146.35 224.44 146.66 224.26 L 151.51 221.45 C 151.81 221.26 152.28 221.24 152.56 221.40 Z M 172.86 214.62 L 168.55 212.13 C 168.28 211.97 168.30 211.70 168.61 211.52 L 173.49 208.70 C 173.80 208.52 174.27 208.50 174.55 208.66 L 178.87 211.15 C 179.14 211.31 179.11 211.58 178.80 211.76 L 173.92 214.58 C 173.61 214.76 173.13 214.78 172.86 214.62 Z M 181.26 211.82 L 188.28 207.76 C 188.59 207.58 189.06 207.56 189.34 207.72 L 193.65 210.21 C 193.92 210.37 193.89 210.64 193.58 210.82 L 186.56 214.88 C 186.25 215.06 185.78 215.08 185.50 214.92 L 181.19 212.43 C 180.92 212.28 180.95 212.00 181.26 211.82 Z M 172.89 201.35 L 177.78 198.51 C 178.09 198.33 178.56 198.31 178.84 198.47 L 183.16 200.97 C 183.43 201.13 183.40 201.40 183.09 201.58 L 178.20 204.41 C 177.89 204.59 177.42 204.61 177.14 204.45 L 172.82 201.96 C 172.55 201.80 172.58 201.53 172.89 201.35 Z M 170.85 208.68 C 170.54 208.86 170.07 208.88 169.79 208.72 L 165.47 206.23 C 165.20 206.07 165.22 205.80 165.53 205.62 L 170.41 202.79 C 170.72 202.61 171.19 202.59 171.47 202.75 L 175.79 205.24 C 176.06 205.40 176.04 205.67 175.73 205.85 L 170.85 208.68 Z M 181.89 204.40 L 186.21 206.89 C 186.48 207.05 186.45 207.32 186.14 207.50 L 181.26 210.33 C 180.95 210.51 180.48 210.53 180.20 210.37 L 175.88 207.88 C 175.61 207.72 175.63 207.45 175.94 207.27 L 180.82 204.44 C 181.15 204.26 181.62 204.24 181.89 204.40 Z M 183.24 203.62 C 182.97 203.46 183.00 203.19 183.31 203.01 L 188.20 200.18 C 188.51 200.00 188.98 199.98 189.26 200.14 L 193.58 202.64 C 193.85 202.80 193.82 203.07 193.51 203.25 L 188.62 206.08 C 188.31 206.26 187.84 206.28 187.56 206.12 L 183.24 203.62 Z M 190.75 206.33 L 196.04 203.27 C 196.35 203.09 196.82 203.07 197.10 203.23 L 201.41 205.72 C 201.68 205.88 201.65 206.15 201.34 206.33 L 196.05 209.39 C 195.74 209.57 195.27 209.59 194.99 209.43 L 190.68 206.94 C 190.41 206.79 190.44 206.51 190.75 206.33 Z M 185.57 200.15 C 185.26 200.33 184.79 200.35 184.51 200.19 L 180.19 197.69 C 179.92 197.53 179.94 197.26 180.26 197.08 L 185.16 194.24 C 185.47 194.06 185.95 194.04 186.22 194.20 L 190.54 196.70 C 190.81 196.86 190.78 197.13 190.47 197.31 L 185.57 200.15 Z M 191.88 195.91 L 187.56 193.41 C 187.29 193.25 187.32 192.98 187.63 192.80 L 192.53 189.95 C 192.84 189.77 193.32 189.75 193.59 189.91 L 197.91 192.41 C 198.18 192.57 198.15 192.84 197.84 193.02 L 192.94 195.86 C 192.63 196.06 192.15 196.07 191.88 195.91 Z M 200.89 198.97 L 195.99 201.81 C 195.68 201.99 195.20 202.01 194.93 201.85 L 190.61 199.35 C 190.34 199.19 190.37 198.92 190.68 198.74 L 195.58 195.90 C 195.89 195.72 196.37 195.70 196.64 195.86 L 200.96 198.36 C 201.23 198.52 201.20 198.79 200.89 198.97 Z M 201.33 203.54 L 206.63 200.48 C 206.94 200.30 207.42 200.28 207.69 200.44 L 209.13 201.27 C 209.40 201.43 209.37 201.70 209.06 201.88 L 203.76 204.94 C 203.45 205.12 202.97 205.14 202.70 204.98 L 201.26 204.15 C 200.99 203.99 201.02 203.72 201.33 203.54 Z M 205.86 197.42 L 211.17 194.35 C 211.48 194.17 211.96 194.15 212.23 194.31 L 213.47 195.03 C 213.74 195.19 213.71 195.46 213.40 195.64 L 208.09 198.71 C 207.78 198.89 207.30 198.91 207.03 198.75 L 205.79 198.03 C 205.52 197.87 205.55 197.60 205.86 197.42 Z M 208.99 199.23 L 214.30 196.16 C 214.61 195.98 215.09 195.96 215.36 196.12 L 216.70 196.90 C 216.97 197.06 216.94 197.33 216.63 197.51 L 211.32 200.58 C 211.01 200.76 210.53 200.78 210.26 200.62 L 208.92 199.84 C 208.65 199.68 208.68 199.41 208.99 199.23 Z" fill="#2156c9" fill-rule="evenodd" group-id="6,11,15,17" node-id="703" stroke="none" target-height="77.18001" target-width="134.38998" target-x="90.04" target-y="176.18"></path><path d="M 124.21 30.67 C 124.18 30.66 124.17 30.64 124.14 30.63 L 123.79 30.46 L 123.70 30.42 C 123.63 30.39 123.57 30.36 123.50 30.33 C 123.46 30.32 123.41 30.30 123.37 30.27 C 123.33 30.26 123.30 30.24 123.25 30.23 C 123.12 30.19 122.98 30.13 122.83 30.09 L 122.80 30.09 C 122.67 30.05 122.53 30.02 122.38 29.99 C 122.34 29.98 122.29 29.98 122.25 29.96 C 122.21 29.95 122.16 29.95 122.12 29.93 C 122.05 29.92 121.96 29.90 121.87 29.90 C 121.84 29.90 121.81 29.89 121.77 29.89 C 121.64 29.88 121.50 29.86 121.35 29.85 L 120.53 29.85 C 120.46 29.85 120.37 29.86 120.30 29.86 C 120.24 29.86 120.18 29.86 120.14 29.87 C 119.97 29.88 119.81 29.90 119.63 29.93 L 119.62 29.93 C 119.43 29.96 119.24 29.99 119.06 30.03 L 118.89 30.07 L 118.54 30.16 C 118.53 30.16 118.51 30.17 118.51 30.17 C 118.29 30.23 118.06 30.30 117.84 30.37 L 117.71 30.41 C 117.52 30.47 117.35 30.54 117.16 30.61 C 117.13 30.62 117.12 30.62 117.09 30.64 C 116.95 30.70 116.79 30.77 116.64 30.84 C 116.63 30.85 116.60 30.85 116.58 30.87 C 116.41 30.94 116.25 31.03 116.07 31.12 C 116.03 31.15 115.97 31.18 115.93 31.19 C 115.74 31.29 115.55 31.39 115.35 31.51 C 115.15 31.63 114.94 31.74 114.76 31.87 C 114.70 31.91 114.63 31.96 114.57 32.00 C 114.44 32.09 114.31 32.17 114.17 32.26 C 114.10 32.32 114.03 32.36 113.95 32.42 C 113.83 32.51 113.70 32.59 113.59 32.68 L 113.37 32.85 C 113.25 32.94 113.12 33.04 113.01 33.14 C 112.94 33.20 112.87 33.26 112.81 33.31 C 112.68 33.43 112.54 33.54 112.41 33.66 C 112.37 33.70 112.31 33.75 112.25 33.79 C 112.06 33.95 111.89 34.12 111.70 34.28 C 111.66 34.31 111.63 34.35 111.58 34.40 C 111.46 34.52 111.33 34.63 111.22 34.75 L 111.16 34.81 C 110.94 35.03 110.74 35.24 110.52 35.46 C 110.51 35.47 110.51 35.49 110.49 35.49 C 110.29 35.71 110.10 35.92 109.91 36.14 L 109.85 36.20 L 109.63 36.46 C 109.56 36.55 109.47 36.65 109.40 36.73 C 109.30 36.85 109.21 36.96 109.11 37.09 C 109.04 37.18 108.97 37.28 108.89 37.36 C 108.88 37.37 108.86 37.39 108.85 37.42 C 108.82 37.45 108.81 37.48 108.78 37.51 C 108.55 37.81 108.32 38.13 108.09 38.45 C 108.06 38.48 108.05 38.51 108.02 38.55 C 108.01 38.56 108.01 38.58 107.99 38.59 C 107.77 38.89 107.57 39.21 107.35 39.53 C 107.34 39.56 107.31 39.59 107.29 39.62 C 107.26 39.66 107.23 39.71 107.20 39.76 C 107.04 40.02 106.88 40.28 106.72 40.56 C 106.69 40.60 106.66 40.65 106.65 40.69 C 106.64 40.70 106.64 40.72 106.62 40.73 C 106.45 41.03 106.27 41.34 106.10 41.66 C 106.09 41.69 106.07 41.70 106.06 41.73 C 106.03 41.79 106.00 41.83 105.99 41.89 C 105.86 42.14 105.73 42.38 105.61 42.64 C 105.58 42.70 105.55 42.74 105.54 42.80 C 105.53 42.83 105.51 42.86 105.50 42.90 C 105.36 43.22 105.20 43.54 105.07 43.86 C 105.07 43.87 105.06 43.87 105.06 43.89 C 105.05 43.92 105.03 43.96 105.02 43.99 C 104.89 44.28 104.77 44.57 104.66 44.86 C 104.65 44.90 104.62 44.95 104.60 45.00 C 104.59 45.04 104.57 45.07 104.56 45.12 C 104.43 45.47 104.30 45.81 104.18 46.16 L 104.18 46.17 C 104.11 46.40 104.04 46.63 103.96 46.85 C 103.95 46.91 103.92 46.98 103.90 47.04 C 103.86 47.17 103.83 47.30 103.78 47.43 C 103.77 47.47 103.77 47.52 103.75 47.56 C 103.72 47.66 103.69 47.78 103.66 47.88 C 103.62 48.02 103.59 48.17 103.56 48.31 C 103.53 48.43 103.52 48.53 103.49 48.64 C 103.48 48.71 103.46 48.78 103.43 48.87 C 103.42 48.93 103.42 48.97 103.40 49.03 C 103.37 49.19 103.34 49.36 103.31 49.52 C 103.30 49.64 103.27 49.75 103.25 49.85 C 103.22 50.02 103.19 50.18 103.18 50.36 C 103.17 50.43 103.15 50.52 103.15 50.59 C 103.15 50.62 103.14 50.66 103.14 50.69 C 103.13 50.76 103.13 50.85 103.11 50.92 L 103.07 51.40 C 103.06 51.49 103.06 51.56 103.06 51.65 C 103.05 51.81 103.05 51.97 103.03 52.13 C 103.03 52.20 103.02 52.27 103.02 52.35 C 103.00 52.59 103.00 52.82 103.00 53.04 C 103.01 56.96 104.40 59.72 106.63 61.03 L 108.77 62.27 C 106.53 60.97 105.15 58.20 105.14 54.28 C 105.14 54.05 105.14 53.83 105.15 53.60 C 105.15 53.53 105.15 53.46 105.16 53.38 C 105.17 53.22 105.17 53.06 105.19 52.90 C 105.19 52.81 105.20 52.74 105.20 52.65 L 105.24 52.17 C 105.25 52.10 105.25 52.01 105.27 51.94 C 105.28 51.82 105.30 51.71 105.31 51.61 C 105.34 51.44 105.35 51.28 105.38 51.10 C 105.39 50.98 105.42 50.87 105.44 50.77 C 105.47 50.61 105.50 50.45 105.53 50.28 L 105.62 49.89 C 105.65 49.77 105.66 49.67 105.69 49.56 C 105.72 49.42 105.76 49.27 105.79 49.13 C 105.82 49.03 105.85 48.91 105.88 48.81 C 105.92 48.64 105.98 48.46 106.02 48.29 C 106.03 48.23 106.06 48.16 106.08 48.10 C 106.15 47.87 106.22 47.62 106.31 47.39 C 106.43 47.04 106.56 46.70 106.69 46.35 C 106.72 46.26 106.76 46.18 106.79 46.09 C 106.91 45.80 107.02 45.51 107.15 45.22 C 107.16 45.18 107.18 45.13 107.21 45.09 L 107.64 44.14 C 107.68 44.05 107.73 43.98 107.76 43.89 C 107.88 43.64 108.01 43.38 108.14 43.14 C 108.18 43.07 108.21 42.98 108.26 42.91 C 108.43 42.59 108.59 42.29 108.78 41.98 C 108.81 41.92 108.85 41.86 108.88 41.81 C 109.04 41.55 109.20 41.28 109.36 41.01 C 109.40 40.94 109.46 40.85 109.50 40.78 C 109.70 40.46 109.92 40.14 110.14 39.84 C 110.17 39.80 110.21 39.75 110.24 39.70 C 110.47 39.38 110.70 39.06 110.93 38.76 C 110.96 38.72 111.00 38.66 111.03 38.62 C 111.10 38.52 111.17 38.43 111.26 38.33 C 111.36 38.21 111.45 38.10 111.55 37.98 C 111.62 37.88 111.71 37.79 111.78 37.71 C 111.87 37.59 111.97 37.49 112.05 37.39 C 112.24 37.17 112.44 36.96 112.64 36.74 C 112.65 36.73 112.65 36.71 112.67 36.71 C 112.87 36.49 113.09 36.28 113.31 36.06 C 113.44 35.93 113.58 35.80 113.71 35.66 C 113.75 35.63 113.78 35.59 113.83 35.54 C 114.02 35.37 114.19 35.21 114.38 35.05 C 114.42 35.01 114.48 34.96 114.52 34.92 C 114.65 34.80 114.79 34.69 114.92 34.57 C 114.99 34.51 115.06 34.45 115.12 34.40 C 115.24 34.30 115.37 34.21 115.48 34.11 L 115.70 33.94 C 115.82 33.85 115.95 33.77 116.06 33.68 C 116.13 33.62 116.20 33.58 116.28 33.52 C 116.41 33.43 116.54 33.35 116.68 33.26 C 116.74 33.22 116.81 33.17 116.87 33.13 C 117.07 33.00 117.26 32.88 117.46 32.77 C 117.65 32.65 117.85 32.55 118.04 32.45 C 118.08 32.42 118.14 32.39 118.18 32.38 C 118.35 32.29 118.51 32.21 118.69 32.13 C 118.70 32.12 118.73 32.12 118.75 32.10 C 118.92 32.01 119.10 31.94 119.27 31.87 C 119.46 31.80 119.63 31.73 119.82 31.65 L 119.95 31.61 C 120.18 31.54 120.40 31.47 120.62 31.41 C 120.75 31.38 120.88 31.34 121.01 31.31 C 121.07 31.30 121.13 31.28 121.20 31.27 C 121.39 31.23 121.58 31.20 121.76 31.17 L 121.77 31.17 C 121.94 31.14 122.10 31.13 122.28 31.11 C 122.34 31.11 122.40 31.10 122.44 31.10 C 122.56 31.09 122.69 31.09 122.80 31.09 L 123.45 31.09 C 123.61 31.10 123.77 31.12 123.91 31.13 C 123.94 31.13 123.97 31.14 124.01 31.14 C 124.14 31.15 124.26 31.18 124.39 31.20 C 124.43 31.21 124.48 31.21 124.52 31.23 C 124.66 31.26 124.79 31.29 124.94 31.33 L 124.97 31.33 C 125.11 31.37 125.26 31.42 125.39 31.47 C 125.43 31.48 125.46 31.50 125.51 31.51 C 125.63 31.55 125.73 31.60 125.84 31.65 L 125.93 31.69 C 126.07 31.76 126.20 31.83 126.33 31.91 L 124.21 30.67 Z M 124.21 30.67" fill="#c68620" fill-rule="nonzero" group-id="7" node-id="711" stroke="none" target-height="32.42" target-width="23.330002" target-x="103" target-y="29.85"></path><path d="M 117.50 32.78 C 124.37 28.82 129.97 32.00 130.00 39.90 C 130.03 47.80 124.46 57.44 117.59 61.40 C 110.72 65.36 105.12 62.18 105.10 54.28 C 105.07 46.39 110.63 36.76 117.50 32.78 L 117.50 32.78 Z M 117.50 32.78" fill="#ffcd2e" fill-rule="nonzero" group-id="7" node-id="713" stroke="none" target-height="36.54" target-width="24.96" target-x="105.07" target-y="28.82"></path><path d="M 118.77 40.15 C 118.97 40.03 119.18 40.01 119.33 40.09 C 119.63 40.26 119.65 40.84 119.33 41.38 L 117.49 44.58 L 119.20 43.60 C 119.63 43.34 120.00 43.54 120.00 44.05 C 120.00 44.56 119.65 45.16 119.20 45.42 L 117.16 46.61 L 117.16 47.83 L 119.20 46.66 C 119.63 46.40 120.00 46.62 120.00 47.11 C 120.00 47.62 119.65 48.22 119.20 48.48 L 117.16 49.67 L 117.16 51.29 C 117.16 51.80 116.81 52.40 116.36 52.66 C 115.93 52.91 115.56 52.70 115.56 52.21 L 115.56 50.59 L 113.52 51.76 C 113.09 52.02 112.72 51.80 112.72 51.31 C 112.72 50.80 113.07 50.20 113.52 49.94 L 115.56 48.77 L 115.56 47.55 L 113.52 48.72 C 113.09 48.98 112.72 48.78 112.72 48.27 C 112.72 47.76 113.07 47.16 113.52 46.90 L 115.23 45.92 L 113.38 44.86 C 113.06 44.69 113.06 44.11 113.38 43.57 C 113.54 43.30 113.74 43.09 113.94 42.98 C 114.14 42.86 114.35 42.84 114.50 42.92 L 116.35 43.98 L 118.19 40.78 C 118.37 40.48 118.57 40.27 118.77 40.15 L 118.77 40.15 Z M 118.77 40.15" fill="#c68620" fill-rule="nonzero" group-id="7" node-id="715" stroke="none" target-height="12.900002" target-width="7.279999" target-x="112.72" target-y="40.01"></path><path d="M 117.44 53.59 L 117.44 51.97 L 115.88 51.06 L 115.88 52.68 C 115.88 52.93 115.97 53.11 116.11 53.19 L 117.67 54.10 C 117.53 54.01 117.44 53.84 117.44 53.59 L 117.44 53.59 Z M 121.23 47.98 C 121.27 47.97 121.32 47.95 121.36 47.95 L 121.50 47.95 C 121.54 47.96 121.57 47.98 121.62 47.99 L 120.06 47.08 C 120.05 47.08 120.03 47.07 120.02 47.07 C 120.01 47.07 119.99 47.06 119.98 47.06 L 119.78 47.06 C 119.75 47.06 119.74 47.07 119.71 47.07 C 119.70 47.07 119.70 47.08 119.68 47.08 C 119.67 47.08 119.67 47.08 119.65 47.09 C 119.64 47.09 119.62 47.09 119.62 47.10 C 119.58 47.11 119.55 47.13 119.50 47.16 L 117.46 48.33 L 119.02 49.24 L 121.06 48.07 C 121.10 48.04 121.16 48.03 121.20 48.00 C 121.22 47.98 121.23 47.98 121.23 47.98 L 121.23 47.98 Z M 121.23 44.92 C 121.27 44.91 121.32 44.89 121.36 44.89 L 121.50 44.89 C 121.54 44.90 121.59 44.92 121.62 44.93 L 120.06 44.02 C 120.05 44.01 120.03 44.01 120.02 44.01 C 120.01 44.01 119.99 44.00 119.98 44.00 L 119.78 44.00 C 119.75 44.00 119.74 44.01 119.71 44.01 C 119.70 44.01 119.70 44.02 119.68 44.02 C 119.67 44.02 119.67 44.02 119.65 44.03 C 119.64 44.03 119.62 44.03 119.62 44.04 C 119.58 44.05 119.55 44.07 119.50 44.10 L 117.79 45.08 L 119.35 45.99 L 121.06 45.01 C 121.10 44.98 121.16 44.97 121.20 44.94 C 121.20 44.94 121.22 44.94 121.23 44.92 L 121.23 44.92 Z M 117.44 50.15 L 115.88 49.24 L 115.88 48.02 L 117.43 48.93 L 117.44 50.15 Z M 117.44 50.15" fill="#e8cfac" fill-rule="nonzero" group-id="7" node-id="717" stroke="none" target-height="10.099998" target-width="5.7400055" target-x="115.88" target-y="44"></path><path d="M 114.62 52.48 L 114.66 52.31 L 114.66 52.30 C 114.67 52.24 114.70 52.17 114.73 52.11 C 114.76 52.05 114.79 51.98 114.82 51.92 C 114.85 51.86 114.89 51.80 114.94 51.75 L 114.95 51.74 C 114.99 51.70 115.02 51.64 115.07 51.60 L 115.10 51.57 C 115.13 51.54 115.17 51.51 115.20 51.48 L 115.24 51.44 C 115.28 51.40 115.34 51.37 115.38 51.34 L 117.42 50.17 L 115.86 49.26 L 113.82 50.43 C 113.76 50.46 113.72 50.49 113.68 50.53 L 113.64 50.57 C 113.61 50.58 113.60 50.61 113.57 50.63 C 113.56 50.64 113.56 50.66 113.54 50.66 L 113.48 50.72 C 113.45 50.75 113.44 50.78 113.42 50.79 C 113.41 50.80 113.41 50.80 113.41 50.82 L 113.40 50.83 C 113.40 50.84 113.39 50.84 113.39 50.86 C 113.38 50.89 113.36 50.90 113.35 50.93 C 113.34 50.96 113.32 50.97 113.31 51.00 C 113.30 51.01 113.30 51.04 113.28 51.06 C 113.27 51.09 113.25 51.10 113.25 51.13 C 113.24 51.14 113.24 51.17 113.22 51.19 C 113.21 51.22 113.21 51.23 113.19 51.26 C 113.18 51.29 113.18 51.30 113.16 51.33 C 113.16 51.34 113.15 51.36 113.15 51.37 L 113.15 51.38 C 113.15 51.39 113.15 51.39 113.14 51.41 C 113.13 51.44 113.13 51.47 113.11 51.50 C 113.11 51.51 113.11 51.54 113.10 51.56 L 113.10 51.62 C 113.10 51.68 113.09 51.72 113.09 51.78 C 113.09 52.03 113.18 52.20 113.32 52.29 L 114.88 53.20 C 114.74 53.11 114.65 52.94 114.65 52.69 C 114.65 52.63 114.65 52.57 114.66 52.50 C 114.62 52.51 114.62 52.49 114.62 52.48 L 114.62 52.48 Z M 120.31 41.83 L 120.34 41.80 C 120.37 41.77 120.40 41.74 120.44 41.71 L 120.48 41.67 C 120.52 41.63 120.58 41.60 120.62 41.57 C 120.66 41.54 120.71 41.53 120.76 41.51 C 120.77 41.51 120.77 41.51 120.79 41.50 C 120.83 41.49 120.88 41.47 120.92 41.47 L 121.06 41.47 L 121.19 41.51 L 119.63 40.60 C 119.62 40.60 119.60 40.59 119.59 40.59 C 119.58 40.59 119.56 40.58 119.55 40.58 C 119.54 40.58 119.52 40.58 119.51 40.57 L 119.35 40.57 C 119.32 40.57 119.31 40.58 119.28 40.58 C 119.27 40.58 119.25 40.59 119.24 40.59 C 119.23 40.59 119.23 40.59 119.21 40.60 C 119.20 40.60 119.20 40.60 119.18 40.61 C 119.14 40.62 119.11 40.64 119.06 40.67 C 119.02 40.70 118.96 40.73 118.92 40.77 L 118.88 40.81 C 118.85 40.84 118.82 40.85 118.81 40.88 C 118.81 40.88 118.80 40.89 118.80 40.91 L 118.77 40.94 L 118.73 40.98 C 118.72 41.01 118.69 41.02 118.67 41.05 L 118.66 41.06 C 118.66 41.06 118.66 41.07 118.65 41.07 C 118.64 41.08 118.64 41.10 118.62 41.11 C 118.61 41.14 118.59 41.15 118.58 41.18 C 118.57 41.21 118.55 41.22 118.54 41.25 L 118.54 41.26 L 116.70 44.46 L 118.26 45.37 L 120.10 42.17 C 120.14 42.11 120.17 42.04 120.22 41.98 C 120.22 41.98 120.22 41.97 120.23 41.97 C 120.22 41.91 120.26 41.87 120.31 41.83 L 120.31 41.83 Z M 120.31 41.83" fill="#e8cfac" fill-rule="nonzero" group-id="7" node-id="719" stroke="none" target-height="12.630001" target-width="8.100006" target-x="113.09" target-y="40.57"></path><path d="M 114.60 49.44 L 114.64 49.27 L 114.64 49.26 C 114.65 49.20 114.68 49.13 114.71 49.07 C 114.74 49.01 114.77 48.94 114.80 48.88 C 114.83 48.82 114.87 48.76 114.92 48.71 C 114.92 48.71 114.92 48.70 114.93 48.70 C 114.97 48.66 115.00 48.60 115.05 48.56 L 115.08 48.53 C 115.11 48.50 115.15 48.47 115.18 48.44 L 115.22 48.40 C 115.26 48.36 115.32 48.33 115.36 48.30 L 117.07 47.32 L 115.51 46.41 L 113.80 47.39 C 113.74 47.42 113.70 47.45 113.66 47.49 L 113.62 47.53 C 113.59 47.54 113.58 47.57 113.55 47.59 L 113.46 47.68 C 113.43 47.71 113.42 47.74 113.40 47.75 C 113.40 47.76 113.39 47.76 113.39 47.78 L 113.38 47.79 C 113.38 47.80 113.37 47.80 113.37 47.82 C 113.36 47.85 113.34 47.86 113.33 47.89 C 113.32 47.92 113.30 47.93 113.29 47.96 C 113.28 47.97 113.28 48.00 113.26 48.02 C 113.25 48.05 113.23 48.06 113.23 48.09 C 113.22 48.10 113.22 48.13 113.20 48.15 C 113.19 48.18 113.19 48.19 113.17 48.22 C 113.16 48.25 113.16 48.26 113.14 48.29 C 113.14 48.30 113.13 48.32 113.13 48.33 L 113.13 48.34 C 113.13 48.35 113.13 48.35 113.12 48.37 C 113.11 48.40 113.11 48.43 113.09 48.46 C 113.09 48.47 113.09 48.50 113.08 48.52 L 113.08 48.58 C 113.08 48.64 113.07 48.68 113.07 48.74 C 113.07 48.99 113.16 49.16 113.30 49.25 L 114.86 50.16 C 114.72 50.07 114.63 49.90 114.63 49.65 C 114.63 49.59 114.63 49.53 114.64 49.46 C 114.60 49.47 114.60 49.45 114.60 49.44 L 114.60 49.44 Z M 114.60 49.44" fill="#e8cfac" fill-rule="nonzero" group-id="7" node-id="721" stroke="none" target-height="3.75" target-width="4" target-x="113.07" target-y="46.41"></path><path d="M 116.36 44.30 L 114.80 43.39 L 116.67 44.45 L 118.23 45.36 L 116.36 44.30 Z M 116.36 44.30" fill="#8d929a" fill-rule="nonzero" group-id="7" node-id="723" stroke="none" target-height="1.9700012" target-width="3.4300003" target-x="114.8" target-y="43.39"></path><path d="M 120.62 41.57 C 120.82 41.45 121.02 41.43 121.18 41.51 C 121.48 41.68 121.50 42.26 121.18 42.80 L 119.34 46.00 L 121.05 45.02 C 121.48 44.76 121.85 44.96 121.85 45.47 C 121.85 45.98 121.50 46.58 121.05 46.84 L 119.01 48.03 L 119.01 49.25 L 121.05 48.08 C 121.48 47.82 121.85 48.04 121.85 48.53 C 121.85 49.04 121.50 49.64 121.05 49.90 L 119.01 51.09 L 119.01 52.71 C 119.01 53.22 118.66 53.82 118.21 54.08 C 117.78 54.33 117.41 54.12 117.41 53.63 L 117.41 52.00 L 115.37 53.17 C 114.94 53.43 114.57 53.21 114.57 52.72 C 114.57 52.21 114.92 51.61 115.37 51.35 L 117.41 50.18 L 117.41 48.96 L 115.37 50.13 C 114.94 50.39 114.57 50.19 114.57 49.68 C 114.57 49.17 114.92 48.57 115.37 48.31 L 117.08 47.33 L 115.23 46.27 C 114.91 46.10 114.91 45.52 115.23 44.98 C 115.39 44.71 115.59 44.50 115.79 44.39 C 115.99 44.27 116.19 44.25 116.35 44.33 L 118.20 45.39 L 120.04 42.19 C 120.22 41.90 120.42 41.68 120.62 41.57 L 120.62 41.57 Z M 120.62 41.57" fill="#ffffff" fill-rule="nonzero" group-id="7" node-id="725" stroke="none" target-height="12.900002" target-width="7.279999" target-x="114.57" target-y="41.43"></path><path d="M 115.24 46.24 L 113.68 45.33 C 113.49 45.23 113.42 44.97 113.45 44.66 L 115.01 45.57 C 114.98 45.88 115.05 46.12 115.24 46.24" fill="#e8cfac" fill-rule="nonzero" group-id="7" node-id="727" stroke="none" target-height="1.5800018" target-width="1.8199997" target-x="113.42" target-y="44.66"></path><path d="M 115.01 45.58 L 113.45 44.67 C 113.45 44.63 113.46 44.60 113.46 44.55 L 115.02 45.46 C 115.02 45.50 115.02 45.53 115.01 45.58 M 115.04 45.46 L 113.48 44.55 C 113.48 44.52 113.49 44.49 113.51 44.46 L 115.07 45.37 C 115.05 45.40 115.04 45.43 115.04 45.46" fill="#e8cfac" fill-rule="nonzero" group-id="7" node-id="729" stroke="none" target-height="1.1200027" target-width="1.6200027" target-x="113.45" target-y="44.46"></path><path d="M 115.05 45.37 L 113.49 44.46 C 113.50 44.43 113.50 44.40 113.52 44.37 L 115.08 45.28 C 115.07 45.32 115.07 45.34 115.05 45.37" fill="#e8cfac" fill-rule="nonzero" group-id="7" node-id="731" stroke="none" target-height="1" target-width="1.590004" target-x="113.49" target-y="44.37"></path><path d="M 115.08 45.29 L 113.52 44.38 C 113.53 44.35 113.53 44.34 113.55 44.31 L 115.11 45.22 C 115.10 45.24 115.08 45.26 115.08 45.29" fill="#e8cfac" fill-rule="nonzero" group-id="7" node-id="733" stroke="none" target-height="0.97999954" target-width="1.590004" target-x="113.52" target-y="44.31"></path><path d="M 115.11 45.21 L 113.55 44.30 C 113.56 44.27 113.56 44.26 113.58 44.23 L 115.14 45.14 C 115.13 45.17 115.11 45.18 115.11 45.21" fill="#e8cfac" fill-rule="nonzero" group-id="7" node-id="735" stroke="none" target-height="0.97999954" target-width="1.5899963" target-x="113.55" target-y="44.23"></path><path d="M 115.14 45.14 L 113.58 44.23 C 113.59 44.20 113.59 44.19 113.61 44.16 L 115.17 45.07 C 115.15 45.10 115.14 45.13 115.14 45.14" fill="#e8cfac" fill-rule="nonzero" group-id="7" node-id="737" stroke="none" target-height="0.97999954" target-width="1.5899963" target-x="113.58" target-y="44.16"></path><path d="M 115.17 45.07 L 113.61 44.16 C 113.62 44.13 113.64 44.12 113.64 44.09 L 115.20 45.00 C 115.18 45.03 115.18 45.05 115.17 45.07" fill="#e8cfac" fill-rule="nonzero" group-id="7" node-id="739" stroke="none" target-height="0.97999954" target-width="1.5899963" target-x="113.61" target-y="44.09"></path><path d="M 115.20 45.01 L 113.65 44.10 C 113.66 44.09 113.68 44.06 113.68 44.04 L 113.68 44.03 L 115.24 44.94 L 115.24 44.95 C 115.23 44.97 115.21 44.98 115.20 45.01" fill="#e8cfac" fill-rule="nonzero" group-id="7" node-id="741" stroke="none" target-height="0.97999954" target-width="1.5899963" target-x="113.65" target-y="44.03"></path><path d="M 115.24 44.94 L 113.68 44.03 C 113.69 44.00 113.71 43.99 113.72 43.96 L 115.28 44.87 C 115.27 44.90 115.26 44.91 115.24 44.94 M 115.28 44.87 L 113.72 43.96 C 113.73 43.93 113.75 43.92 113.76 43.89 L 115.32 44.80 C 115.31 44.82 115.30 44.85 115.28 44.87" fill="#e8cfac" fill-rule="nonzero" group-id="7" node-id="743" stroke="none" target-height="1.0499992" target-width="1.6399994" target-x="113.68" target-y="43.89"></path><path d="M 115.33 44.81 L 113.77 43.90 C 113.78 43.87 113.80 43.86 113.83 43.83 L 115.39 44.74 C 115.36 44.75 115.34 44.78 115.33 44.81" fill="#e8cfac" fill-rule="nonzero" group-id="7" node-id="745" stroke="none" target-height="0.97999954" target-width="1.6200027" target-x="113.77" target-y="43.83"></path><path d="M 115.39 44.74 L 113.83 43.83 C 113.84 43.80 113.87 43.77 113.89 43.76 L 115.45 44.67 C 115.41 44.68 115.40 44.71 115.39 44.74 M 115.44 44.65 L 113.88 43.74 L 113.97 43.65 L 115.53 44.56 L 115.44 44.65" fill="#e8cfac" fill-rule="nonzero" group-id="7" node-id="747" stroke="none" target-height="1.0900002" target-width="1.699997" target-x="113.83" target-y="43.65"></path><path d="M 115.53 44.56 L 113.97 43.65 C 114.06 43.56 114.14 43.49 114.23 43.45 C 114.27 43.44 114.30 43.41 114.35 43.39 L 115.91 44.30 C 115.87 44.31 115.84 44.33 115.79 44.36 C 115.70 44.40 115.62 44.48 115.53 44.56 M 115.91 44.30 L 114.35 43.39 C 114.38 43.38 114.41 43.36 114.44 43.36 L 116.00 44.27 C 115.96 44.27 115.94 44.29 115.91 44.30 M 116.01 44.27 L 114.45 43.36 C 114.48 43.36 114.49 43.35 114.52 43.35 L 116.08 44.26 C 116.05 44.26 116.02 44.26 116.01 44.27" fill="#e8cfac" fill-rule="nonzero" group-id="7" node-id="749" stroke="none" target-height="1.2100029" target-width="2.1100006" target-x="113.97" target-y="43.35"></path><path d="M 116.07 44.26 L 114.51 43.35 L 114.57 43.35 L 116.13 44.26 C 116.11 44.24 116.09 44.24 116.07 44.26 M 116.12 44.24 L 114.56 43.33 L 114.62 43.33 L 116.18 44.24 L 116.12 44.24" fill="#e8cfac" fill-rule="nonzero" group-id="7" node-id="751" stroke="none" target-height="0.9299965" target-width="1.6699982" target-x="114.51" target-y="43.33"></path><path d="M 116.18 44.24 L 114.62 43.33 L 114.66 43.33 L 116.23 44.24 L 116.18 44.24" fill="#e8cfac" fill-rule="nonzero" group-id="7" node-id="753" stroke="none" target-height="0.90999985" target-width="1.6100006" target-x="114.62" target-y="43.33"></path><path d="M 116.23 44.26 L 114.67 43.35 C 114.68 43.35 114.70 43.35 114.71 43.36 L 116.27 44.27 C 116.25 44.26 116.24 44.26 116.23 44.26 M 116.27 44.26 L 114.71 43.35 C 114.72 43.35 114.74 43.36 114.75 43.36 L 116.31 44.27 C 116.30 44.27 116.28 44.27 116.27 44.26" fill="#e8cfac" fill-rule="nonzero" group-id="7" node-id="755" stroke="none" target-height="0.920002" target-width="1.6399994" target-x="114.67" target-y="43.35"></path><path d="M 116.31 44.27 L 114.75 43.36 C 114.76 43.36 114.78 43.37 114.79 43.37 L 116.35 44.28 C 116.34 44.29 116.33 44.29 116.31 44.27 M 116.36 44.30 L 114.80 43.39 L 116.36 44.30" fill="#e8cfac" fill-rule="nonzero" group-id="7" node-id="757" stroke="none" target-height="0.9399986" target-width="1.6100006" target-x="114.75" target-y="43.36"></path><path d="M 225.85 165.70 L 232.95 161.94 L 239.85 165.07 L 232.64 168.71 Z" fill="url(#SVGID_11_)" fill-opacity="0.3" fill-rule="nonzero" group-id="8,12,16" node-id="765" stroke="none" target-height="6.7700043" target-width="14" target-x="225.85" target-y="161.94"></path><path d="M 246.59 156.68 L 239.86 165.09 L 232.86 162.02 L 232.79 152.45 L 246.59 154.14 Z" fill="url(#SVGID_12_)" fill-rule="nonzero" group-id="8,12" node-id="768" stroke="none" target-height="12.639999" target-width="13.800003" target-x="232.79" target-y="152.45"></path><path d="M 239.86 165.09 L 239.86 155.97 L 246.31 152.62 L 246.75 152.66 L 246.77 161.62 Z" fill="url(#SVGID_13_)" fill-rule="nonzero" group-id="8,12" node-id="770" stroke="none" target-height="12.470001" target-width="6.9100037" target-x="239.86" target-y="152.62"></path><path d="M 232.76 152.44 L 239.59 149.00 L 246.75 152.66 L 239.86 156.14 Z" fill="url(#SVGID_14_)" fill-rule="nonzero" group-id="8,12" node-id="772" stroke="none" target-height="7.1399994" target-width="13.9900055" target-x="232.76" target-y="149"></path><path d="M 212.41 165.89 L 212.41 165.89 C 212.24 165.60 212.34 165.22 212.63 165.05 L 229.61 155.25 C 229.90 155.08 230.28 155.18 230.45 155.47 L 230.45 155.47 C 230.62 155.76 230.52 156.14 230.23 156.31 L 213.25 166.11 C 212.95 166.28 212.58 166.18 212.41 165.89 Z" fill="url(#SVGID_15_)" fill-opacity="0.5" fill-rule="nonzero" group-id="8,13" node-id="777" stroke="none" target-height="11.199997" target-width="18.37999" target-x="212.24" target-y="155.08"></path><path d="M 224.00 164.76 L 223.92 164.63 C 223.78 164.39 223.86 164.08 224.11 163.94 L 229.61 160.58 C 229.85 160.44 230.16 160.52 230.30 160.77 L 230.38 160.90 C 230.52 161.14 230.44 161.45 230.19 161.59 L 224.69 164.95 C 224.45 165.09 224.14 165.00 224.00 164.76 Z" fill="url(#SVGID_16_)" fill-opacity="0.5" fill-rule="nonzero" group-id="8,14" node-id="782" stroke="none" target-height="4.649994" target-width="6.7400055" target-x="223.78" target-y="160.44"></path><path d="M 159.37 157.41 L 165.99 161.45 L 166.35 146.19 L 159.74 142.16 Z" fill="url(#SVGID_17_)" fill-rule="nonzero" group-id="9" node-id="788" stroke="none" target-height="19.289993" target-width="6.980011" target-x="159.37" target-y="142.16"></path><path d="M 172.80 157.73 L 165.99 161.45 L 166.35 146.19 L 173.16 142.47 Z" fill="url(#SVGID_18_)" fill-rule="nonzero" group-id="9" node-id="790" stroke="none" target-height="18.979996" target-width="7.169998" target-x="165.99" target-y="142.47"></path><path d="M 166.35 146.19 L 173.16 142.47 L 166.56 138.45 L 159.74 142.16 Z" fill="url(#SVGID_19_)" fill-rule="nonzero" group-id="9" node-id="792" stroke="none" target-height="7.7400055" target-width="13.419998" target-x="159.74" target-y="138.45"></path><path d="M 159.74 142.16 L 166.36 146.19 L 166.72 130.94 L 160.11 126.91 Z" fill="url(#SVGID_20_)" fill-rule="nonzero" group-id="9" node-id="794" stroke="none" target-height="19.279999" target-width="6.9799957" target-x="159.74" target-y="126.91"></path><path d="M 173.16 142.48 L 166.36 146.19 L 166.72 130.94 L 173.53 127.22 Z" fill="url(#SVGID_21_)" fill-rule="nonzero" group-id="9" node-id="796" stroke="none" target-height="18.970001" target-width="7.169998" target-x="166.36" target-y="127.22"></path><path d="M 166.72 130.94 L 173.53 127.22 L 166.93 123.19 L 160.11 126.91 Z" fill="url(#SVGID_22_)" fill-rule="nonzero" group-id="9" node-id="798" stroke="none" target-height="7.75" target-width="13.419998" target-x="160.11" target-y="123.19"></path><path d="M 148.32 163.54 L 154.94 167.58 L 155.83 130.14 L 149.22 126.11 Z" fill="url(#SVGID_23_)" fill-rule="nonzero" group-id="9" node-id="800" stroke="none" target-height="41.47" target-width="7.5099945" target-x="148.32" target-y="126.11"></path><path d="M 161.75 163.87 L 154.94 167.58 L 155.83 130.14 L 162.65 126.42 Z" fill="url(#SVGID_24_)" fill-rule="nonzero" group-id="9" node-id="802" stroke="none" target-height="41.160004" target-width="7.7099915" target-x="154.94" target-y="126.42"></path><path d="M 155.83 130.14 L 162.65 126.42 L 156.05 122.39 L 149.22 126.11 Z" fill="url(#SVGID_25_)" fill-rule="nonzero" group-id="9" node-id="804" stroke="none" target-height="7.75" target-width="13.429993" target-x="149.22" target-y="122.39"></path><path d="M 149.22 126.10 L 155.84 130.14 L 156.20 114.89 L 149.59 110.86 Z" fill="url(#SVGID_26_)" fill-rule="nonzero" group-id="9" node-id="806" stroke="none" target-height="19.279999" target-width="6.9799957" target-x="149.22" target-y="110.86"></path><path d="M 162.65 126.43 L 155.84 130.14 L 156.20 114.89 L 163.01 111.17 Z" fill="url(#SVGID_27_)" fill-rule="nonzero" group-id="9" node-id="808" stroke="none" target-height="18.970001" target-width="7.169998" target-x="155.84" target-y="111.17"></path><path d="M 156.20 114.89 L 163.01 111.17 L 156.41 107.14 L 149.59 110.86 Z" fill="url(#SVGID_28_)" fill-rule="nonzero" group-id="9" node-id="810" stroke="none" target-height="7.75" target-width="13.419998" target-x="149.59" target-y="107.14"></path><path d="M 137.27 169.68 L 143.89 173.71 L 144.36 154.11 L 137.75 150.08 Z" fill="url(#SVGID_29_)" fill-rule="nonzero" group-id="9" node-id="812" stroke="none" target-height="23.630005" target-width="7.0899963" target-x="137.27" target-y="150.08"></path><path d="M 150.70 170.00 L 143.89 173.71 L 144.36 154.11 L 151.17 150.39 Z" fill="url(#SVGID_30_)" fill-rule="nonzero" group-id="9" node-id="814" stroke="none" target-height="23.320007" target-width="7.279999" target-x="143.89" target-y="150.39"></path><path d="M 144.36 154.11 L 151.17 150.39 L 144.57 146.36 L 137.75 150.08 Z" fill="url(#SVGID_31_)" fill-rule="nonzero" group-id="9" node-id="816" stroke="none" target-height="7.75" target-width="13.419998" target-x="137.75" target-y="146.36"></path><path d="M 137.75 150.07 L 144.36 154.11 L 144.71 139.29 L 138.10 135.26 Z" fill="url(#SVGID_32_)" fill-rule="nonzero" group-id="9" node-id="818" stroke="none" target-height="18.850006" target-width="6.9600067" target-x="137.75" target-y="135.26"></path><path d="M 151.17 150.40 L 144.36 154.11 L 144.71 139.29 L 151.52 135.57 Z" fill="url(#SVGID_33_)" fill-rule="nonzero" group-id="9" node-id="820" stroke="none" target-height="18.539993" target-width="7.1600037" target-x="144.36" target-y="135.57"></path><path d="M 144.71 139.29 L 151.52 135.57 L 144.93 131.54 L 138.10 135.26 Z" fill="url(#SVGID_34_)" fill-rule="nonzero" group-id="9" node-id="822" stroke="none" target-height="7.75" target-width="13.419998" target-x="138.1" target-y="131.54"></path><path d="M 126.23 175.81 L 132.84 179.85 L 133.19 165.03 L 126.58 161.00 Z" fill="url(#SVGID_35_)" fill-rule="nonzero" group-id="9" node-id="824" stroke="none" target-height="18.850006" target-width="6.959999" target-x="126.23" target-y="161"></path><path d="M 139.65 176.13 L 132.84 179.85 L 133.19 165.03 L 140.01 161.31 Z" fill="url(#SVGID_36_)" fill-rule="nonzero" group-id="9" node-id="826" stroke="none" target-height="18.540009" target-width="7.169998" target-x="132.84" target-y="161.31"></path><path d="M 133.19 165.03 L 140.01 161.31 L 133.41 157.28 L 126.58 161.00 Z" fill="url(#SVGID_37_)" fill-rule="nonzero" group-id="9" node-id="828" stroke="none" target-height="7.75" target-width="13.429993" target-x="126.58" target-y="157.28"></path><path d="M 126.58 160.99 L 133.20 165.03 L 133.96 133.24 L 127.35 129.21 Z" fill="url(#SVGID_38_)" fill-rule="nonzero" group-id="9" node-id="830" stroke="none" target-height="35.819992" target-width="7.380005" target-x="126.58" target-y="129.21"></path><path d="M 140.01 161.31 L 133.20 165.03 L 133.96 133.24 L 140.77 129.52 Z" fill="url(#SVGID_39_)" fill-rule="nonzero" group-id="9" node-id="832" stroke="none" target-height="35.509995" target-width="7.5700073" target-x="133.2" target-y="129.52"></path><path d="M 133.96 133.24 L 140.77 129.52 L 134.17 125.49 L 127.35 129.21 Z" fill="url(#SVGID_40_)" fill-rule="nonzero" group-id="9" node-id="834" stroke="none" target-height="7.7500076" target-width="13.420006" target-x="127.35" target-y="125.49"></path><path d="M 115.18 181.94 L 121.80 185.98 L 122.32 163.77 L 115.71 159.74 Z" fill="url(#SVGID_41_)" fill-rule="nonzero" group-id="9" node-id="836" stroke="none" target-height="26.23999" target-width="7.1399994" target-x="115.18" target-y="159.74"></path><path d="M 128.60 182.27 L 121.80 185.98 L 122.32 163.77 L 129.13 160.05 Z" fill="url(#SVGID_42_)" fill-rule="nonzero" group-id="9" node-id="838" stroke="none" target-height="25.929993" target-width="7.330002" target-x="121.8" target-y="160.05"></path><path d="M 122.32 163.77 L 129.13 160.05 L 122.54 156.02 L 115.71 159.74 Z" fill="url(#SVGID_43_)" fill-rule="nonzero" group-id="9" node-id="840" stroke="none" target-height="7.75" target-width="13.420006" target-x="115.71" target-y="156.02"></path><path d="M 115.71 159.73 L 122.33 163.77 L 122.70 148.08 L 116.09 144.05 Z" fill="url(#SVGID_44_)" fill-rule="nonzero" group-id="9" node-id="842" stroke="none" target-height="19.720001" target-width="6.989998" target-x="115.71" target-y="144.05"></path><path d="M 129.13 160.05 L 122.33 163.77 L 122.70 148.08 L 129.51 144.36 Z" fill="url(#SVGID_45_)" fill-rule="nonzero" group-id="9" node-id="844" stroke="none" target-height="19.410004" target-width="7.1799927" target-x="122.33" target-y="144.36"></path><path d="M 122.70 148.08 L 129.51 144.36 L 122.91 140.33 L 116.09 144.05 Z" fill="url(#SVGID_46_)" fill-rule="nonzero" group-id="9" node-id="846" stroke="none" target-height="7.75" target-width="13.419998" target-x="116.09" target-y="140.33"></path><path d="M 104.13 188.08 L 110.75 192.11 L 111.12 176.43 L 104.51 172.40 Z" fill="url(#SVGID_47_)" fill-rule="nonzero" group-id="9" node-id="848" stroke="none" target-height="19.710007" target-width="6.9900055" target-x="104.13" target-y="172.4"></path><path d="M 117.55 188.40 L 110.75 192.11 L 111.12 176.43 L 117.93 172.71 Z" fill="url(#SVGID_48_)" fill-rule="nonzero" group-id="9" node-id="850" stroke="none" target-height="19.399994" target-width="7.1800003" target-x="110.75" target-y="172.71"></path><path d="M 111.12 176.43 L 117.93 172.71 L 111.33 168.68 L 104.51 172.40 Z" fill="url(#SVGID_49_)" fill-rule="nonzero" group-id="9" node-id="852" stroke="none" target-height="7.75" target-width="13.419998" target-x="104.51" target-y="168.68"></path><path d="M 104.51 172.39 L 111.12 176.43 L 111.54 159.00 L 104.92 154.97 Z" fill="url(#SVGID_50_)" fill-rule="nonzero" group-id="9" node-id="854" stroke="none" target-height="21.459991" target-width="7.029999" target-x="104.51" target-y="154.97"></path><path d="M 117.93 172.71 L 111.12 176.43 L 111.54 159.00 L 118.35 155.28 Z" fill="url(#SVGID_51_)" fill-rule="nonzero" group-id="9" node-id="856" stroke="none" target-height="21.149994" target-width="7.2299957" target-x="111.12" target-y="155.28"></path><path d="M 111.54 159.00 L 118.35 155.28 L 111.75 151.25 L 104.92 154.97 Z" fill="url(#SVGID_52_)" fill-rule="nonzero" group-id="9" node-id="858" stroke="none" target-height="7.75" target-width="13.43" target-x="104.92" target-y="151.25"></path><path d="M 93.08 194.21 L 99.70 198.25 L 99.96 186.91 L 93.35 182.88 Z" fill="url(#SVGID_53_)" fill-rule="nonzero" group-id="9" node-id="860" stroke="none" target-height="15.369995" target-width="6.8799973" target-x="93.08" target-y="182.88"></path><path d="M 106.50 194.53 L 99.70 198.25 L 99.96 186.91 L 106.77 183.19 Z" fill="url(#SVGID_54_)" fill-rule="nonzero" group-id="9" node-id="862" stroke="none" target-height="15.059998" target-width="7.0699997" target-x="99.7" target-y="183.19"></path><path d="M 99.96 186.91 L 106.77 183.19 L 100.18 179.16 L 93.35 182.88 Z" fill="url(#SVGID_55_)" fill-rule="nonzero" group-id="9" node-id="864" stroke="none" target-height="7.75" target-width="13.419998" target-x="93.35" target-y="179.16"></path><path d="M 93.35 182.87 L 99.97 186.91 L 100.34 171.22 L 93.73 167.19 Z" fill="url(#SVGID_56_)" fill-rule="nonzero" group-id="9" node-id="866" stroke="none" target-height="19.720001" target-width="6.989998" target-x="93.35" target-y="167.19"></path><path d="M 106.78 183.19 L 99.97 186.91 L 100.34 171.22 L 107.15 167.50 Z" fill="url(#SVGID_57_)" fill-rule="nonzero" group-id="9" node-id="868" stroke="none" target-height="19.410004" target-width="7.1800003" target-x="99.97" target-y="167.5"></path><path d="M 100.34 171.22 L 107.15 167.50 L 100.55 163.47 L 93.73 167.19 Z" fill="url(#SVGID_58_)" fill-rule="nonzero" group-id="9" node-id="870" stroke="none" target-height="7.75" target-width="13.419998" target-x="93.73" target-y="163.47"></path></svg>