<?xml version="1.0" standalone="no"?><!DOCTYPE svg PUBLIC "-//W3C//DTD SVG 1.1//EN" "http://www.w3.org/Graphics/SVG/1.1/DTD/svg11.dtd"><svg height="300" node-id="1" sillyvg="true" template-height="300" template-width="300" version="1.1" viewBox="0 0 300 300" width="300" xmlns="http://www.w3.org/2000/svg" xmlns:xlink="http://www.w3.org/1999/xlink"><defs node-id="62"><linearGradient gradientUnits="userSpaceOnUse" id="SVGID_3_" node-id="11" spreadMethod="pad" x1="17.9495" x2="280.9827" y1="208.0523" y2="208.0523"><stop offset="0" stop-color="#3282ed"></stop><stop offset="1" stop-color="#60a2f0"></stop></linearGradient><linearGradient gradientUnits="userSpaceOnUse" id="SVGID_4_" node-id="16" spreadMethod="pad" x1="82.3464" x2="170.7571" y1="115.7332" y2="115.7332"><stop offset="0" stop-color="#3282ed"></stop><stop offset="1" stop-color="#60a2f0"></stop></linearGradient><linearGradient gradientUnits="userSpaceOnUse" id="SVGID_5_" node-id="37" spreadMethod="pad" x1="247.4538" x2="238.8756" y1="165.7544" y2="169.6403"><stop offset="0.00502513" stop-color="#5298ef"></stop><stop offset="1" stop-color="#73b0f1" stop-opacity="0"></stop></linearGradient><linearGradient gradientUnits="userSpaceOnUse" id="SVGID_6_" node-id="41" spreadMethod="pad" x1="242.899" x2="258.8011" y1="160.2599" y2="160.2599"><stop offset="0" stop-color="#6dacef"></stop><stop offset="1" stop-color="#97c9fe"></stop></linearGradient><linearGradient gradientUnits="userSpaceOnUse" id="SVGID_7_" node-id="45" spreadMethod="pad" x1="250.9822" x2="258.5722" y1="163.6474" y2="157.3365"><stop offset="0.00337838" stop-color="#8ebef4"></stop><stop offset="1" stop-color="#b4d8fa"></stop></linearGradient><linearGradient gradientUnits="userSpaceOnUse" id="SVGID_8_" node-id="49" spreadMethod="pad" x1="242.8662" x2="258.9843" y1="153.115" y2="153.115"><stop offset="0" stop-color="#97c3f4"></stop><stop offset="1" stop-color="#e8f1fa"></stop></linearGradient><linearGradient gradientTransform="matrix(0.5 0.866 -0.866 0.5 1402.085 1041.4088)" gradientUnits="userSpaceOnUse" id="SVGID_9_" node-id="53" spreadMethod="pad" x1="-1347.3693" x2="-1347.3693" y1="566.2649" y2="585.7445"><stop offset="0.00337838" stop-color="#75b2ff"></stop><stop offset="1" stop-color="#75b2ff" stop-opacity="0"></stop></linearGradient><linearGradient gradientTransform="matrix(0.4772 0.8265 -0.7164 0.4136 1135.6169 1183.2845)" gradientUnits="userSpaceOnUse" id="SVGID_10_" node-id="57" spreadMethod="pad" x1="-1395.2572" x2="-1395.2572" y1="321.7065" y2="330.1284"><stop offset="0.00337838" stop-color="#75b2ff"></stop><stop offset="1" stop-color="#75b2ff" stop-opacity="0"></stop></linearGradient><clipPath id="SVGID_2_" node-id="9"><path d="M 18.00 47.50 L 281.00 47.50 L 281.00 252.10 L 18.00 252.10 Z" fill="#000000" fill-rule="nonzero" node-id="113" stroke="none" target-height="204.6" target-width="263" target-x="18" target-y="47.5"></path></clipPath></defs><g node-id="191"><g node-id="193"><g node-id="197"><g clip-path="url(#SVGID_2_)" group-id="1,3,7" node-id="123"><path d="M 280.98 165.07 C 280.61 168.74 277.25 170.57 274.38 172.24 C 271.71 173.77 269.05 175.34 266.41 176.88 C 262.14 179.35 257.90 181.82 253.64 184.28 C 248.30 187.38 243.00 190.48 237.66 193.55 C 231.79 196.95 225.92 200.39 220.02 203.79 C 214.12 207.23 208.21 210.66 202.28 214.10 C 196.84 217.27 191.44 220.40 186.00 223.57 C 181.57 226.14 177.16 228.71 172.73 231.27 C 169.83 232.94 166.93 234.64 164.03 236.31 C 161.83 237.58 159.76 238.85 157.26 239.58 C 150.76 241.45 143.55 240.81 137.68 237.41 C 135.58 236.18 133.44 234.98 131.34 233.74 C 127.47 231.51 123.64 229.30 119.77 227.07 C 114.70 224.14 109.63 221.20 104.56 218.30 C 98.79 214.96 92.99 211.63 87.22 208.29 C 81.25 204.86 75.28 201.39 69.31 197.95 C 63.67 194.68 58.04 191.45 52.37 188.18 L 37.96 179.87 C 34.52 177.87 31.06 175.90 27.62 173.90 C 26.05 173.00 24.49 172.10 22.92 171.17 C 20.45 169.74 18.02 167.47 18.02 164.40 C 18.02 167.20 18.02 170.00 17.99 172.84 C 17.99 173.84 17.92 174.87 17.99 175.91 C 18.19 178.61 20.33 180.71 22.56 182.05 C 23.93 182.88 25.33 183.65 26.73 184.45 C 30.33 186.52 33.93 188.62 37.53 190.69 C 42.73 193.69 47.90 196.69 53.11 199.69 C 59.28 203.26 65.48 206.83 71.65 210.40 C 78.09 214.14 84.52 217.84 90.99 221.57 C 97.13 225.11 103.23 228.64 109.37 232.18 C 114.47 235.11 119.54 238.05 124.64 240.98 C 128.08 242.98 131.54 244.95 134.98 246.95 C 136.98 248.09 138.95 249.38 141.12 250.19 C 147.89 252.66 155.83 252.12 162.06 248.49 C 164.43 247.12 166.80 245.72 169.16 244.36 C 173.53 241.82 177.90 239.29 182.23 236.76 C 187.93 233.46 193.60 230.15 199.31 226.82 C 205.68 223.12 212.05 219.42 218.39 215.72 L 237.50 204.61 C 243.20 201.27 248.91 197.97 254.64 194.64 C 259.08 192.07 263.51 189.50 267.95 186.90 C 270.38 185.47 272.85 184.06 275.29 182.63 C 276.02 182.20 276.79 181.76 277.49 181.26 C 279.36 179.86 280.83 177.92 280.86 175.49 C 280.89 174.26 280.86 173.06 280.86 171.82 C 280.86 169.39 280.86 166.92 280.89 164.48 C 281.01 164.74 280.98 164.91 280.98 165.07 C 280.95 165.17 280.98 165.01 280.98 165.07 L 280.98 165.07 Z M 280.98 165.07" fill="url(#SVGID_3_)" fill-rule="nonzero" group-id="1,3,7" node-id="125" stroke="none" target-height="88.26001" target-width="263.09" target-x="17.92" target-y="164.4"></path></g></g><g clip-path="url(#SVGID_2_)" group-id="1,3,8" node-id="128"><path d="M 276.21 157.90 C 282.55 161.57 282.58 167.54 276.28 171.21 L 161.45 237.94 C 155.15 241.61 144.84 241.61 138.51 237.94 L 22.85 171.21 C 16.51 167.54 16.48 161.57 22.78 157.90 L 137.64 91.17 C 143.94 87.50 154.25 87.50 160.59 91.17 L 276.21 157.90 Z M 276.21 157.90" fill="#e4ecf9" fill-rule="nonzero" group-id="1,3,8" node-id="130" stroke="none" target-height="154.11" target-width="266.09998" target-x="16.48" target-y="87.5"></path></g></g><path d="M 126.37 58.39 C 126.90 58.09 127.44 57.96 127.87 58.09 L 129.04 58.42 C 129.37 58.49 135.94 59.92 146.25 58.75 C 156.29 57.45 165.83 52.25 166.33 51.98 L 168.13 50.95 C 169.53 50.15 170.63 50.78 170.63 52.38 L 170.76 99.90 C 170.83 125.28 142.25 168.77 126.77 177.71 C 111.30 186.65 82.58 176.21 82.48 150.86 L 82.35 103.00 C 82.35 101.40 83.45 99.46 84.85 98.66 L 86.65 97.63 C 87.15 97.33 96.69 91.83 106.69 81.22 C 116.99 70.45 123.50 61.48 123.86 61.01 L 124.96 59.54 C 125.43 59.09 125.90 58.65 126.37 58.39 L 126.37 58.39 Z M 126.37 58.39" fill="url(#SVGID_4_)" fill-rule="nonzero" group-id="1" node-id="134" stroke="none" target-height="136.5" target-width="88.48" target-x="82.35" target-y="50.15"></path><path d="M 164.55 47.68 C 164.55 47.68 164.52 47.68 164.55 47.68 C 164.48 47.65 164.45 47.61 164.42 47.61 C 164.39 47.58 164.32 47.58 164.29 47.58 C 164.26 47.58 164.22 47.58 164.19 47.55 L 164.12 47.55 C 164.09 47.55 164.02 47.55 163.95 47.52 L 163.58 47.52 C 163.51 47.52 163.45 47.55 163.35 47.55 C 163.32 47.55 163.28 47.58 163.25 47.58 C 163.22 47.58 163.18 47.61 163.15 47.61 C 163.12 47.61 163.08 47.64 163.05 47.64 C 162.95 47.67 162.82 47.74 162.68 47.81 L 160.88 48.84 C 160.85 48.87 160.78 48.91 160.68 48.94 C 160.68 48.94 160.65 48.94 160.65 48.97 C 160.62 49.00 160.58 49.00 160.52 49.04 C 160.49 49.04 160.45 49.07 160.45 49.07 C 160.42 49.10 160.35 49.10 160.32 49.14 C 160.29 49.14 160.25 49.17 160.22 49.21 C 160.15 49.24 160.12 49.28 160.05 49.28 C 160.02 49.31 159.98 49.31 159.92 49.35 C 159.85 49.38 159.82 49.42 159.75 49.45 C 159.72 49.48 159.65 49.52 159.58 49.52 L 159.38 49.62 C 159.31 49.65 159.28 49.69 159.21 49.72 L 159.01 49.82 L 158.81 49.92 C 158.74 49.95 158.64 49.99 158.58 50.02 L 158.38 50.12 C 158.31 50.15 158.21 50.19 158.15 50.25 C 158.08 50.28 157.98 50.32 157.92 50.35 C 157.82 50.38 157.75 50.42 157.65 50.48 C 157.58 50.51 157.48 50.55 157.42 50.58 C 157.32 50.61 157.22 50.68 157.12 50.71 C 157.02 50.74 156.95 50.78 156.85 50.81 C 156.75 50.84 156.65 50.91 156.55 50.94 C 156.45 50.97 156.38 51.01 156.28 51.07 C 156.18 51.10 156.05 51.17 155.95 51.20 C 155.85 51.23 155.78 51.27 155.68 51.33 C 155.58 51.36 155.45 51.43 155.31 51.46 C 155.21 51.49 155.11 51.53 155.01 51.59 C 154.94 51.62 154.88 51.66 154.78 51.69 C 154.58 51.76 154.41 51.86 154.21 51.92 C 154.11 51.95 154.04 51.99 153.94 52.02 C 153.74 52.09 153.57 52.15 153.37 52.25 C 153.27 52.28 153.17 52.32 153.10 52.35 C 152.87 52.45 152.60 52.55 152.37 52.62 C 152.34 52.62 152.30 52.65 152.24 52.65 C 151.94 52.75 151.64 52.85 151.34 52.98 C 151.24 53.01 151.17 53.05 151.07 53.08 C 150.84 53.15 150.64 53.25 150.40 53.31 C 150.30 53.34 150.20 53.38 150.07 53.41 C 149.84 53.48 149.64 53.54 149.40 53.61 L 149.10 53.71 C 148.80 53.81 148.50 53.88 148.23 53.98 C 148.20 53.98 148.16 54.01 148.13 54.01 C 147.80 54.11 147.46 54.21 147.13 54.28 C 147.06 54.31 146.96 54.31 146.90 54.35 C 146.60 54.45 146.27 54.52 145.96 54.58 C 145.86 54.61 145.76 54.61 145.66 54.65 C 145.26 54.75 144.89 54.85 144.49 54.92 C 144.42 54.92 144.39 54.95 144.32 54.95 C 143.99 55.02 143.62 55.08 143.29 55.15 C 143.19 55.18 143.09 55.18 142.96 55.22 L 141.76 55.42 C 141.46 55.45 141.13 55.52 140.83 55.55 C 140.26 55.62 139.69 55.65 139.13 55.72 C 139.00 55.72 138.86 55.75 138.73 55.75 C 138.20 55.78 137.70 55.82 137.16 55.85 L 137.13 55.85 C 136.60 55.88 136.10 55.92 135.60 55.92 L 135.30 55.92 C 134.83 55.92 134.37 55.95 133.90 55.95 L 132.27 55.95 C 131.84 55.95 131.44 55.95 131.04 55.92 L 130.81 55.92 C 130.41 55.92 130.04 55.89 129.71 55.89 L 129.54 55.89 C 129.24 55.86 128.94 55.86 128.64 55.82 C 128.54 55.82 128.47 55.82 128.37 55.79 C 128.04 55.76 127.74 55.72 127.44 55.72 L 127.27 55.72 C 127.04 55.69 126.80 55.69 126.57 55.65 C 126.50 55.65 126.40 55.62 126.34 55.62 C 126.11 55.59 125.91 55.55 125.71 55.55 L 125.61 55.55 C 125.38 55.52 125.18 55.48 125.01 55.45 C 124.94 55.45 124.91 55.45 124.84 55.42 C 124.71 55.39 124.57 55.39 124.44 55.35 C 124.41 55.35 124.37 55.35 124.34 55.32 C 124.21 55.29 124.07 55.29 123.97 55.25 L 123.90 55.25 C 123.83 55.25 123.73 55.22 123.70 55.22 L 123.67 55.22 C 123.60 55.22 123.57 55.19 123.57 55.19 L 122.40 54.86 C 122.37 54.86 122.30 54.83 122.27 54.83 C 122.24 54.83 122.17 54.83 122.10 54.80 L 121.93 54.80 C 121.86 54.80 121.80 54.80 121.73 54.83 L 121.60 54.83 C 121.57 54.83 121.53 54.83 121.50 54.86 C 121.43 54.89 121.37 54.89 121.30 54.93 C 121.27 54.93 121.23 54.93 121.23 54.96 L 121.20 54.96 C 121.07 54.99 120.97 55.06 120.83 55.13 C 120.70 55.20 120.56 55.30 120.43 55.40 C 120.40 55.43 120.36 55.47 120.30 55.50 C 120.20 55.57 120.13 55.63 120.03 55.73 L 119.96 55.80 L 119.83 55.93 L 119.73 56.03 L 119.70 56.06 C 119.63 56.13 119.57 56.23 119.50 56.29 C 119.50 56.32 119.47 56.32 119.47 56.36 L 118.37 57.83 C 118.37 57.86 118.34 57.86 118.30 57.93 L 118.30 57.96 C 118.27 57.99 118.23 58.03 118.20 58.09 C 118.20 58.12 118.17 58.12 118.17 58.16 C 118.14 58.19 118.10 58.26 118.07 58.29 C 118.04 58.32 118.04 58.36 118.00 58.39 C 117.93 58.49 117.87 58.56 117.80 58.66 L 117.77 58.69 C 117.70 58.79 117.64 58.89 117.54 58.99 C 117.51 59.02 117.47 59.09 117.44 59.12 C 117.37 59.22 117.31 59.29 117.24 59.39 C 117.21 59.46 117.17 59.49 117.11 59.56 C 117.04 59.66 116.94 59.76 116.88 59.89 C 116.85 59.96 116.81 59.99 116.75 60.06 C 116.62 60.23 116.48 60.39 116.35 60.59 L 116.32 60.62 C 116.15 60.85 115.95 61.09 115.75 61.35 C 115.72 61.38 115.68 61.45 115.62 61.48 C 115.42 61.75 115.19 62.01 114.99 62.31 C 114.96 62.38 114.89 62.44 114.86 62.51 C 114.63 62.81 114.39 63.11 114.13 63.44 L 114.06 63.51 C 113.83 63.81 113.56 64.14 113.29 64.48 C 113.22 64.55 113.19 64.61 113.12 64.68 C 112.85 65.01 112.55 65.38 112.25 65.71 C 112.18 65.78 112.12 65.84 112.08 65.94 C 111.78 66.31 111.45 66.71 111.11 67.11 C 111.11 67.14 111.08 67.14 111.08 67.18 C 110.75 67.55 110.41 67.95 110.08 68.35 C 110.01 68.42 109.95 68.48 109.88 68.58 C 109.55 68.98 109.18 69.38 108.81 69.81 C 108.74 69.88 108.68 69.94 108.64 70.01 C 108.14 70.58 107.64 71.15 107.14 71.74 L 106.94 71.94 C 106.41 72.54 105.87 73.14 105.31 73.74 C 105.24 73.81 105.21 73.87 105.14 73.94 C 104.57 74.57 103.97 75.21 103.37 75.87 C 103.34 75.90 103.30 75.97 103.24 76.00 C 102.61 76.70 101.94 77.40 101.24 78.10 C 100.87 78.50 100.47 78.90 100.11 79.27 L 99.78 79.60 C 99.51 79.87 99.25 80.17 98.95 80.43 L 98.58 80.80 C 98.45 80.93 98.31 81.03 98.21 81.17 L 97.71 81.67 C 97.58 81.80 97.44 81.90 97.34 82.04 C 97.17 82.21 97.01 82.37 96.84 82.51 C 96.71 82.64 96.61 82.74 96.47 82.84 C 96.30 83.01 96.14 83.14 95.97 83.31 C 95.84 83.41 95.74 83.54 95.60 83.64 C 95.43 83.81 95.27 83.94 95.10 84.07 C 94.97 84.17 94.87 84.27 94.73 84.40 C 94.56 84.57 94.40 84.70 94.23 84.87 C 94.13 84.97 94.00 85.07 93.90 85.17 C 93.70 85.34 93.53 85.50 93.33 85.64 C 93.23 85.71 93.16 85.81 93.06 85.87 C 92.53 86.34 91.99 86.77 91.46 87.20 C 91.36 87.27 91.29 87.33 91.19 87.43 L 90.69 87.83 C 90.59 87.90 90.49 88.00 90.39 88.06 C 90.22 88.19 90.09 88.29 89.96 88.43 C 89.86 88.50 89.76 88.60 89.66 88.66 C 89.53 88.76 89.39 88.89 89.23 88.99 C 89.13 89.06 89.03 89.16 88.93 89.22 L 88.53 89.52 C 88.43 89.59 88.33 89.69 88.23 89.75 C 88.10 89.85 87.96 89.95 87.86 90.02 C 87.76 90.09 87.66 90.15 87.56 90.25 C 87.43 90.35 87.33 90.45 87.19 90.52 C 87.09 90.59 87.02 90.65 86.92 90.72 C 86.79 90.82 86.69 90.89 86.55 90.99 C 86.45 91.06 86.38 91.12 86.28 91.16 C 86.15 91.26 86.01 91.33 85.91 91.43 C 85.84 91.46 85.78 91.53 85.71 91.56 L 85.31 91.86 C 85.28 91.89 85.21 91.93 85.14 91.96 C 84.97 92.09 84.81 92.19 84.64 92.29 C 84.61 92.29 84.61 92.32 84.57 92.32 C 84.40 92.42 84.27 92.52 84.10 92.62 C 84.03 92.65 84.00 92.69 83.93 92.72 L 83.63 92.92 C 83.56 92.95 83.50 92.99 83.43 93.05 C 83.36 93.12 83.26 93.15 83.20 93.22 C 83.13 93.25 83.10 93.29 83.03 93.32 C 82.96 93.35 82.86 93.42 82.80 93.45 C 82.73 93.48 82.70 93.52 82.63 93.55 C 82.56 93.58 82.50 93.65 82.43 93.68 C 82.40 93.71 82.33 93.75 82.30 93.78 C 82.23 93.81 82.20 93.85 82.13 93.88 C 82.10 93.91 82.03 93.95 82.00 93.98 C 81.97 94.01 81.90 94.05 81.87 94.08 C 81.84 94.11 81.80 94.11 81.77 94.15 C 81.74 94.18 81.67 94.22 81.64 94.22 C 81.61 94.25 81.57 94.25 81.54 94.29 C 81.51 94.32 81.47 94.32 81.44 94.36 C 81.41 94.36 81.37 94.39 81.37 94.39 C 81.34 94.39 81.34 94.42 81.34 94.42 C 81.27 94.45 81.24 94.49 81.21 94.49 L 79.41 95.52 C 79.24 95.62 79.08 95.72 78.94 95.85 L 78.81 95.98 C 78.74 96.05 78.68 96.11 78.58 96.18 L 78.48 96.28 C 78.45 96.31 78.41 96.35 78.41 96.38 L 78.31 96.48 C 78.24 96.55 78.18 96.65 78.11 96.71 C 78.08 96.74 78.08 96.78 78.04 96.81 L 78.01 96.84 C 77.98 96.87 77.98 96.91 77.94 96.94 C 77.91 97.01 77.84 97.07 77.81 97.17 C 77.78 97.24 77.71 97.30 77.68 97.37 L 77.68 97.44 C 77.65 97.51 77.61 97.57 77.58 97.61 L 77.48 97.81 L 77.38 98.01 C 77.35 98.08 77.31 98.14 77.28 98.24 C 77.25 98.31 77.21 98.41 77.18 98.47 C 77.18 98.50 77.15 98.54 77.15 98.60 L 77.15 98.67 C 77.15 98.70 77.12 98.74 77.12 98.77 C 77.09 98.87 77.05 98.97 77.05 99.07 C 77.05 99.14 77.02 99.17 77.02 99.24 L 77.02 99.44 C 76.99 99.61 76.99 99.77 76.99 99.94 L 77.12 147.80 C 77.15 159.74 83.52 168.38 91.89 173.21 L 97.29 176.34 C 88.92 171.47 82.55 162.87 82.52 150.93 L 82.39 103.07 C 82.39 102.87 82.42 102.70 82.42 102.50 L 82.42 102.40 C 82.45 102.23 82.49 102.03 82.55 101.87 L 82.55 101.80 C 82.62 101.60 82.68 101.40 82.78 101.20 C 82.88 101.00 82.98 100.80 83.08 100.63 L 83.08 100.60 C 83.18 100.40 83.31 100.23 83.41 100.07 L 83.44 100.04 C 83.54 99.87 83.67 99.74 83.81 99.61 C 83.84 99.58 83.88 99.54 83.88 99.51 L 84.18 99.21 L 84.31 99.08 C 84.48 98.95 84.61 98.85 84.78 98.75 L 86.58 97.72 C 86.61 97.72 86.65 97.69 86.71 97.65 C 86.74 97.65 86.74 97.62 86.78 97.62 C 86.81 97.62 86.81 97.59 86.85 97.59 C 86.88 97.56 86.92 97.56 86.95 97.52 C 86.98 97.52 87.02 97.49 87.02 97.49 C 87.05 97.46 87.12 97.42 87.15 97.42 C 87.18 97.39 87.22 97.39 87.25 97.35 C 87.28 97.32 87.35 97.28 87.38 97.25 C 87.41 97.22 87.48 97.18 87.51 97.18 C 87.58 97.15 87.61 97.11 87.68 97.08 C 87.71 97.05 87.78 97.01 87.81 97.01 C 87.88 96.98 87.94 96.91 88.01 96.88 C 88.04 96.85 88.11 96.81 88.14 96.78 C 88.21 96.75 88.31 96.68 88.37 96.61 C 88.44 96.58 88.47 96.54 88.54 96.51 C 88.64 96.44 88.71 96.41 88.81 96.34 C 88.88 96.31 88.91 96.27 88.98 96.24 C 89.08 96.17 89.18 96.11 89.31 96.04 C 89.34 96.01 89.41 95.97 89.44 95.94 C 89.57 95.84 89.74 95.74 89.91 95.64 C 89.94 95.64 89.94 95.61 89.98 95.61 C 90.15 95.51 90.31 95.38 90.48 95.28 C 90.51 95.25 90.58 95.21 90.65 95.18 L 91.05 94.88 C 91.12 94.85 91.18 94.78 91.25 94.75 C 91.38 94.65 91.48 94.58 91.62 94.48 C 91.72 94.41 91.79 94.35 91.89 94.31 C 92.02 94.21 92.12 94.14 92.26 94.04 C 92.36 93.97 92.43 93.91 92.53 93.84 C 92.66 93.74 92.76 93.67 92.90 93.57 C 93.00 93.50 93.10 93.44 93.20 93.34 C 93.33 93.24 93.47 93.14 93.57 93.04 C 93.67 92.97 93.77 92.87 93.87 92.81 L 94.27 92.51 C 94.37 92.44 94.47 92.34 94.60 92.28 C 94.73 92.18 94.87 92.08 95.00 91.95 C 95.10 91.88 95.20 91.78 95.30 91.72 C 95.43 91.59 95.60 91.49 95.77 91.35 C 95.87 91.28 95.97 91.18 96.07 91.12 L 96.57 90.72 C 96.67 90.65 96.74 90.59 96.84 90.52 C 97.11 90.32 97.34 90.09 97.61 89.89 L 97.64 89.89 C 97.91 89.66 98.17 89.46 98.44 89.22 C 98.54 89.15 98.61 89.05 98.71 88.99 C 98.88 88.82 99.08 88.69 99.28 88.52 C 99.38 88.42 99.51 88.32 99.61 88.22 C 99.78 88.09 99.94 87.92 100.11 87.79 C 100.24 87.69 100.34 87.59 100.48 87.46 C 100.65 87.33 100.81 87.16 100.98 87.03 C 101.11 86.93 101.21 86.80 101.35 86.70 C 101.52 86.57 101.68 86.40 101.85 86.23 C 101.98 86.10 102.12 86.00 102.22 85.86 C 102.39 85.69 102.55 85.56 102.72 85.39 C 102.85 85.26 102.99 85.16 103.12 85.02 L 103.62 84.52 C 103.75 84.39 103.89 84.25 104.02 84.15 L 104.19 83.98 L 104.39 83.78 C 104.66 83.51 104.96 83.25 105.22 82.95 L 105.55 82.62 C 105.92 82.22 106.28 81.85 106.69 81.45 L 108.69 79.35 C 108.72 79.32 108.76 79.25 108.82 79.22 C 109.42 78.59 110.02 77.92 110.59 77.29 C 110.66 77.22 110.69 77.16 110.76 77.09 C 111.33 76.49 111.86 75.89 112.40 75.29 L 112.60 75.09 C 113.13 74.49 113.63 73.92 114.10 73.36 L 114.20 73.26 L 114.30 73.16 C 114.67 72.73 115.03 72.33 115.37 71.93 C 115.44 71.86 115.50 71.80 115.57 71.70 L 116.57 70.50 L 116.60 70.47 C 116.93 70.07 117.27 69.67 117.57 69.30 C 117.64 69.23 117.67 69.17 117.74 69.10 C 118.04 68.73 118.34 68.40 118.61 68.03 C 118.64 67.96 118.71 67.90 118.74 67.86 C 119.01 67.53 119.27 67.19 119.54 66.89 C 119.54 66.86 119.57 66.86 119.57 66.82 C 119.84 66.49 120.07 66.19 120.30 65.89 C 120.33 65.82 120.40 65.76 120.43 65.72 C 120.66 65.42 120.86 65.15 121.10 64.89 C 121.13 64.86 121.17 64.79 121.20 64.76 C 121.40 64.49 121.60 64.26 121.77 64.03 C 121.77 64.03 121.77 64.00 121.80 64.00 C 121.93 63.83 122.07 63.63 122.20 63.47 C 122.23 63.40 122.30 63.37 122.33 63.30 C 122.43 63.20 122.50 63.07 122.56 62.97 C 122.59 62.90 122.63 62.87 122.66 62.84 C 122.73 62.74 122.83 62.64 122.89 62.54 C 122.92 62.51 122.92 62.47 122.96 62.44 C 123.16 62.17 123.33 61.97 123.43 61.80 C 123.46 61.77 123.46 61.73 123.50 61.70 C 123.53 61.63 123.57 61.60 123.60 61.53 C 123.60 61.50 123.63 61.50 123.63 61.46 C 123.66 61.39 123.70 61.36 123.73 61.33 L 123.73 61.30 C 123.76 61.27 123.80 61.23 123.80 61.20 L 124.90 59.73 C 125.00 59.60 125.10 59.50 125.20 59.36 L 125.50 59.06 C 125.60 58.99 125.67 58.89 125.77 58.83 C 125.80 58.80 125.84 58.76 125.90 58.73 C 126.03 58.63 126.17 58.53 126.30 58.46 C 126.43 58.39 126.57 58.33 126.67 58.26 C 126.70 58.26 126.74 58.23 126.74 58.23 L 127.04 58.13 L 127.11 58.13 C 127.21 58.10 127.34 58.10 127.44 58.10 L 127.47 58.10 C 127.57 58.10 127.70 58.13 127.80 58.17 L 128.97 58.50 C 129.00 58.50 129.04 58.50 129.07 58.53 L 129.10 58.53 C 129.17 58.53 129.23 58.56 129.30 58.56 L 129.37 58.56 C 129.47 58.59 129.57 58.59 129.67 58.63 L 129.74 58.63 C 129.77 58.63 129.81 58.63 129.84 58.66 C 129.97 58.69 130.07 58.69 130.24 58.73 C 130.27 58.73 130.34 58.73 130.37 58.76 L 130.97 58.86 L 131.07 58.86 C 131.27 58.89 131.47 58.93 131.70 58.93 C 131.77 58.93 131.83 58.96 131.93 58.96 C 132.16 58.99 132.40 59.03 132.63 59.03 L 132.76 59.03 C 133.06 59.06 133.36 59.10 133.69 59.10 C 133.76 59.10 133.86 59.10 133.96 59.13 C 134.09 59.13 134.23 59.16 134.39 59.16 C 134.56 59.16 134.69 59.19 134.86 59.19 L 135.03 59.19 C 135.40 59.22 135.76 59.22 136.13 59.22 L 136.36 59.22 C 136.76 59.22 137.16 59.25 137.59 59.25 L 139.19 59.25 C 139.66 59.25 140.09 59.22 140.59 59.22 L 141.26 59.22 C 141.63 59.22 142.03 59.19 142.43 59.15 L 142.50 59.15 C 143.00 59.12 143.53 59.08 144.03 59.05 C 144.16 59.05 144.30 59.02 144.43 59.02 C 145.00 58.99 145.53 58.92 146.13 58.85 C 146.86 58.75 147.56 58.65 148.26 58.52 C 148.36 58.49 148.46 58.49 148.59 58.45 C 148.92 58.38 149.29 58.32 149.62 58.25 C 149.69 58.25 149.72 58.22 149.79 58.22 C 150.19 58.12 150.56 58.05 150.96 57.95 C 151.06 57.92 151.16 57.92 151.26 57.88 C 151.56 57.81 151.89 57.71 152.19 57.65 C 152.26 57.65 152.29 57.62 152.36 57.62 C 152.39 57.62 152.43 57.62 152.46 57.59 C 152.79 57.49 153.13 57.39 153.46 57.32 C 153.49 57.32 153.53 57.29 153.56 57.29 C 153.86 57.19 154.16 57.12 154.43 57.02 L 154.73 56.92 C 154.96 56.85 155.16 56.79 155.40 56.72 C 155.50 56.69 155.60 56.65 155.73 56.62 C 155.96 56.55 156.16 56.45 156.40 56.39 C 156.50 56.36 156.57 56.32 156.67 56.29 C 156.97 56.19 157.27 56.09 157.57 55.96 C 157.60 55.96 157.67 55.93 157.70 55.93 C 157.93 55.83 158.20 55.73 158.43 55.66 C 158.53 55.63 158.63 55.59 158.70 55.56 C 158.90 55.49 159.07 55.43 159.27 55.33 C 159.37 55.30 159.47 55.26 159.54 55.23 C 159.74 55.16 159.94 55.06 160.11 55.00 C 160.18 54.97 160.21 54.97 160.28 54.93 C 160.31 54.93 160.31 54.90 160.35 54.90 C 160.45 54.87 160.55 54.83 160.65 54.77 C 160.78 54.74 160.88 54.67 161.02 54.64 C 161.12 54.61 161.19 54.57 161.29 54.51 C 161.39 54.48 161.52 54.41 161.62 54.38 C 161.72 54.35 161.79 54.31 161.89 54.25 C 161.99 54.22 162.09 54.15 162.19 54.12 C 162.29 54.09 162.36 54.05 162.46 54.02 C 162.56 53.99 162.66 53.92 162.76 53.89 C 162.83 53.86 162.93 53.82 162.99 53.79 C 163.09 53.76 163.16 53.72 163.26 53.66 C 163.33 53.63 163.43 53.59 163.49 53.56 C 163.59 53.53 163.66 53.49 163.72 53.46 L 163.92 53.36 C 163.99 53.33 164.09 53.29 164.15 53.26 L 164.35 53.16 L 164.55 53.06 C 164.62 53.03 164.65 52.99 164.72 52.96 L 164.92 52.86 C 164.99 52.83 165.02 52.79 165.09 52.79 C 165.16 52.76 165.19 52.72 165.26 52.69 C 165.29 52.66 165.36 52.66 165.39 52.62 C 165.46 52.59 165.49 52.55 165.56 52.55 C 165.59 52.52 165.63 52.52 165.66 52.48 C 165.69 52.45 165.73 52.45 165.76 52.41 C 165.79 52.38 165.83 52.38 165.86 52.34 C 165.89 52.31 165.93 52.31 165.96 52.27 C 165.99 52.27 165.99 52.24 166.03 52.24 C 166.13 52.17 166.20 52.14 166.23 52.14 L 168.03 51.11 C 168.20 51.01 168.33 50.94 168.50 50.91 C 168.53 50.91 168.57 50.88 168.60 50.88 L 169.00 50.78 L 169.03 50.78 C 169.16 50.78 169.30 50.78 169.43 50.81 L 169.46 50.81 C 169.59 50.84 169.73 50.88 169.83 50.94 L 164.55 47.68 Z M 164.55 47.68" fill="#1b4885" fill-rule="nonzero" group-id="1" node-id="136" stroke="none" target-height="128.81999" target-width="92.840004" target-x="76.99" target-y="47.52"></path><path d="M 127.60 85.43 C 128.60 84.86 129.30 85.63 128.93 86.90 L 123.79 105.08 L 132.76 99.91 C 133.89 99.24 134.60 100.31 133.96 101.78 L 113.42 148.50 C 113.32 148.77 113.15 148.93 112.99 149.03 C 112.69 149.20 112.39 149.06 112.46 148.60 L 118.96 119.25 L 111.89 123.35 C 110.89 123.95 110.19 123.15 110.56 121.85 L 119.36 91.27 C 119.56 90.50 120.09 89.80 120.70 89.47 L 127.60 85.43 Z M 127.60 85.43" fill="#2828ce" fill-rule="nonzero" group-id="1" node-id="138" stroke="none" target-height="64.34" target-width="24.410004" target-x="110.19" target-y="84.86"></path><path d="M 117.86 152.90 C 117.83 152.83 117.83 152.73 117.83 152.63 L 117.83 152.56 L 113.90 150.29 L 113.90 150.36 C 113.90 150.46 113.90 150.56 113.93 150.63 C 113.96 150.70 114.00 150.76 114.03 150.76 L 117.96 153.03 C 117.93 153.03 117.90 152.97 117.86 152.90 L 117.86 152.90 Z M 124.33 123.25 L 120.43 120.95 L 113.93 150.30 L 117.87 152.57 L 124.33 123.25 Z M 138.51 103.78 C 138.58 103.75 138.68 103.75 138.74 103.71 L 139.01 103.71 C 139.08 103.71 139.14 103.74 139.21 103.78 L 135.27 101.51 C 135.24 101.51 135.24 101.48 135.20 101.48 C 135.17 101.48 135.17 101.45 135.13 101.45 L 134.73 101.45 C 134.70 101.45 134.66 101.45 134.60 101.48 C 134.57 101.48 134.57 101.48 134.53 101.51 C 134.53 101.51 134.50 101.51 134.50 101.54 C 134.47 101.54 134.47 101.54 134.43 101.57 L 134.23 101.67 L 125.26 106.84 L 129.20 109.11 L 138.17 103.94 C 138.27 103.87 138.34 103.84 138.44 103.81 C 138.47 103.78 138.47 103.78 138.51 103.78 L 138.51 103.78 Z M 138.51 103.78" fill="#acc5ea" fill-rule="nonzero" group-id="1" node-id="140" stroke="none" target-height="51.58" target-width="25.310005" target-x="113.9" target-y="101.45"></path><path d="M 133.00 89.43 C 134.00 88.86 134.70 89.63 134.33 90.90 L 129.19 109.08 L 138.16 103.91 C 139.29 103.24 140.00 104.31 139.36 105.78 L 118.80 152.50 C 118.70 152.77 118.53 152.93 118.37 153.03 C 118.07 153.20 117.77 153.06 117.84 152.60 L 124.34 123.25 L 117.27 127.35 C 116.27 127.95 115.57 127.15 115.94 125.85 L 124.74 95.27 C 124.94 94.50 125.47 93.80 126.07 93.47 L 133.00 89.43 Z M 133.00 89.43" fill="#ffffff" fill-rule="nonzero" group-id="1" node-id="142" stroke="none" target-height="64.34" target-width="24.43" target-x="115.57" target-y="88.86"></path><path d="M 115.96 127.12 C 115.93 127.05 115.89 126.99 115.86 126.89 C 115.86 126.86 115.83 126.79 115.83 126.76 C 115.83 126.66 115.80 126.59 115.80 126.49 L 115.80 126.32 C 115.80 126.15 115.83 126.02 115.90 125.85 L 111.97 123.58 L 111.97 123.61 C 111.97 123.68 111.94 123.71 111.94 123.78 C 111.94 123.85 111.91 123.91 111.91 123.98 L 111.91 124.21 C 111.91 124.31 111.91 124.41 111.94 124.48 C 111.94 124.51 111.94 124.58 111.97 124.61 C 112.00 124.71 112.04 124.78 112.07 124.84 C 112.10 124.87 112.10 124.91 112.10 124.94 C 112.17 125.04 112.23 125.11 112.33 125.14 L 116.27 127.41 C 116.17 127.34 116.10 127.28 116.04 127.21 C 116.00 127.19 116.00 127.15 115.96 127.12 L 115.96 127.12 Z M 130.10 87.03 C 130.10 87.03 130.07 87.03 130.10 87.03 C 130.07 87.00 130.04 87.00 130.04 87.00 C 130.01 87.00 130.01 86.97 129.97 86.97 L 129.57 86.97 C 129.54 86.97 129.50 86.97 129.44 87.00 C 129.41 87.00 129.41 87.00 129.37 87.03 C 129.37 87.03 129.34 87.03 129.30 87.06 C 129.27 87.06 129.27 87.06 129.23 87.09 L 129.03 87.19 L 122.13 91.16 C 122.00 91.23 121.86 91.33 121.73 91.46 C 121.70 91.46 121.70 91.49 121.66 91.49 L 121.46 91.69 C 121.43 91.72 121.39 91.79 121.36 91.82 C 121.36 91.85 121.33 91.85 121.33 91.89 L 121.33 91.92 C 121.33 91.95 121.30 91.95 121.30 91.99 C 121.27 92.02 121.23 92.06 121.23 92.12 C 121.20 92.15 121.20 92.19 121.16 92.25 C 121.13 92.28 121.13 92.32 121.09 92.38 C 121.09 92.41 121.06 92.41 121.06 92.45 C 121.06 92.45 121.06 92.48 121.03 92.48 C 121.00 92.51 121.00 92.55 120.96 92.61 C 120.93 92.64 120.93 92.71 120.89 92.74 C 120.86 92.77 120.86 92.84 120.86 92.87 C 120.86 92.90 120.83 92.94 120.83 93.00 L 112.03 123.58 L 115.96 125.85 L 124.76 95.27 C 124.83 95.07 124.89 94.90 124.96 94.74 L 125.26 94.24 L 125.26 94.21 C 125.36 94.08 125.49 93.94 125.63 93.81 C 125.66 93.81 125.66 93.78 125.70 93.78 L 126.10 93.48 L 133.04 89.48 C 133.14 89.41 133.21 89.38 133.31 89.35 C 133.34 89.35 133.34 89.35 133.34 89.32 C 133.41 89.29 133.51 89.29 133.57 89.25 L 133.84 89.25 C 133.91 89.25 133.97 89.28 134.04 89.32 L 130.10 87.03 Z M 130.10 87.03" fill="#acc5ea" fill-rule="nonzero" group-id="1" node-id="144" stroke="none" target-height="40.440002" target-width="22.12999" target-x="111.91" target-y="86.97"></path><path d="M 193.13 163.01 L 187.83 159.91 L 200.24 166.98 L 205.51 170.08 L 193.13 163.01 Z M 193.13 163.01" fill="#9e7f1d" fill-rule="nonzero" group-id="1" node-id="146" stroke="none" target-height="10.169998" target-width="17.679993" target-x="187.83" target-y="159.91"></path><path d="M 156.85 185.62 C 156.75 185.52 156.65 185.45 156.55 185.35 L 156.05 184.85 L 155.78 184.58 L 155.28 183.98 C 155.21 183.91 155.15 183.81 155.08 183.75 C 154.88 183.45 154.65 183.18 154.48 182.85 C 154.45 182.78 154.41 182.75 154.38 182.68 C 154.21 182.41 154.08 182.15 153.95 181.88 C 153.88 181.78 153.85 181.65 153.78 181.55 L 153.48 180.85 C 153.41 180.72 153.38 180.58 153.31 180.45 C 153.21 180.22 153.14 179.98 153.04 179.72 C 153.01 179.59 152.94 179.45 152.91 179.32 C 152.81 179.02 152.74 178.72 152.64 178.42 C 152.61 178.32 152.61 178.25 152.57 178.15 C 152.47 177.75 152.37 177.35 152.30 176.95 C 152.27 176.85 152.27 176.75 152.23 176.62 C 152.16 176.32 152.13 175.99 152.10 175.69 C 152.07 175.52 152.07 175.39 152.03 175.22 C 152.00 174.92 151.96 174.65 151.96 174.35 C 151.96 174.18 151.93 174.02 151.93 173.85 C 151.90 173.55 151.90 173.25 151.90 172.92 L 151.90 171.05 C 151.93 170.58 151.93 170.08 152.00 169.62 C 152.00 169.49 152.03 169.32 152.03 169.19 C 152.06 168.86 152.10 168.49 152.13 168.16 C 152.16 167.96 152.16 167.79 152.20 167.59 C 152.23 167.29 152.30 166.99 152.33 166.69 C 152.36 166.49 152.40 166.32 152.43 166.12 C 152.50 165.82 152.56 165.49 152.60 165.15 C 152.63 164.95 152.67 164.78 152.73 164.58 C 152.76 164.38 152.83 164.18 152.86 164.01 C 152.93 163.74 152.99 163.51 153.03 163.24 C 153.10 163.04 153.13 162.84 153.20 162.64 C 153.27 162.44 153.30 162.21 153.37 162.01 L 153.97 160.01 C 154.00 159.88 154.07 159.74 154.10 159.61 C 154.27 159.08 154.47 158.58 154.67 158.04 C 154.74 157.91 154.77 157.74 154.84 157.61 C 155.07 157.01 155.31 156.44 155.57 155.84 C 155.60 155.74 155.67 155.64 155.70 155.54 C 155.90 155.07 156.13 154.57 156.37 154.11 C 156.47 153.94 156.54 153.74 156.64 153.58 C 156.84 153.15 157.07 152.68 157.31 152.25 C 157.38 152.12 157.44 151.95 157.54 151.82 C 157.81 151.29 158.11 150.75 158.41 150.25 C 158.51 150.08 158.61 149.92 158.71 149.78 C 158.98 149.31 159.28 148.85 159.54 148.38 C 159.64 148.21 159.74 148.05 159.84 147.91 C 160.21 147.31 160.61 146.74 161.01 146.18 C 161.44 145.58 161.88 144.98 162.34 144.38 C 162.47 144.21 162.57 144.08 162.71 143.91 L 163.11 143.41 C 163.28 143.21 163.44 142.98 163.64 142.78 C 163.77 142.61 163.91 142.45 164.07 142.28 C 164.24 142.11 164.37 141.91 164.54 141.75 C 164.77 141.48 165.04 141.22 165.27 140.95 C 165.40 140.82 165.54 140.65 165.67 140.52 C 165.94 140.22 166.24 139.95 166.50 139.65 L 166.80 139.35 L 167.13 139.02 C 167.33 138.82 167.56 138.62 167.76 138.42 C 167.89 138.29 168.03 138.19 168.16 138.05 C 168.36 137.88 168.56 137.68 168.76 137.52 C 168.89 137.39 169.03 137.29 169.16 137.15 L 169.76 136.65 C 169.89 136.55 170.03 136.42 170.19 136.32 C 170.39 136.15 170.59 136.02 170.79 135.85 C 170.92 135.75 171.06 135.65 171.22 135.55 C 171.42 135.38 171.62 135.25 171.85 135.12 C 171.98 135.02 172.12 134.92 172.25 134.85 C 172.48 134.68 172.72 134.55 172.95 134.38 C 173.05 134.31 173.18 134.25 173.28 134.15 C 173.61 133.95 173.95 133.72 174.31 133.51 C 174.78 133.24 175.24 132.98 175.71 132.74 C 175.84 132.67 175.94 132.61 176.08 132.57 C 176.51 132.37 176.95 132.14 177.42 131.97 C 177.45 131.97 177.49 131.94 177.52 131.94 C 177.92 131.77 178.32 131.61 178.72 131.47 C 178.85 131.44 178.95 131.40 179.09 131.37 C 179.39 131.27 179.66 131.17 179.96 131.10 C 180.13 131.07 180.29 131.00 180.46 130.97 C 180.63 130.94 180.79 130.90 180.93 130.87 C 181.10 130.84 181.30 130.80 181.46 130.77 C 181.63 130.74 181.76 130.70 181.93 130.67 C 182.13 130.64 182.36 130.60 182.56 130.57 C 182.66 130.57 182.76 130.54 182.86 130.54 C 183.16 130.51 183.46 130.47 183.76 130.47 L 184.96 130.47 C 185.13 130.47 185.29 130.50 185.46 130.50 C 185.83 130.53 186.16 130.57 186.49 130.63 C 186.56 130.63 186.59 130.63 186.66 130.66 C 187.03 130.73 187.39 130.83 187.76 130.93 L 188.06 131.03 C 188.33 131.13 188.59 131.20 188.86 131.30 C 188.96 131.33 189.06 131.40 189.19 131.43 C 189.49 131.56 189.79 131.70 190.09 131.86 C 190.12 131.89 190.19 131.89 190.22 131.93 L 184.92 128.86 L 184.89 128.83 C 184.86 128.80 184.82 128.80 184.79 128.80 C 184.49 128.63 184.19 128.50 183.89 128.37 C 183.86 128.34 183.79 128.34 183.76 128.30 C 183.69 128.27 183.63 128.27 183.56 128.23 C 183.29 128.13 183.03 128.03 182.76 127.96 C 182.69 127.93 182.63 127.93 182.56 127.89 C 182.53 127.89 182.49 127.89 182.46 127.86 C 182.09 127.76 181.73 127.66 181.36 127.59 L 181.19 127.59 C 180.86 127.52 180.49 127.49 180.16 127.46 C 180.09 127.46 180.06 127.46 179.99 127.43 L 178.45 127.43 C 178.15 127.43 177.85 127.46 177.55 127.50 C 177.45 127.50 177.35 127.53 177.25 127.53 C 177.12 127.56 176.95 127.56 176.82 127.60 C 176.75 127.60 176.69 127.63 176.62 127.63 C 176.45 127.66 176.32 127.70 176.15 127.73 C 175.98 127.76 175.78 127.80 175.62 127.83 C 175.45 127.86 175.32 127.90 175.15 127.93 C 175.05 127.96 174.95 127.96 174.85 128.00 C 174.78 128.03 174.72 128.03 174.65 128.07 C 174.35 128.14 174.08 128.24 173.78 128.34 C 173.65 128.37 173.55 128.41 173.41 128.44 C 173.01 128.57 172.61 128.74 172.21 128.91 L 172.18 128.91 C 172.15 128.91 172.11 128.94 172.11 128.94 C 171.68 129.11 171.24 129.34 170.81 129.54 C 170.68 129.61 170.58 129.67 170.44 129.71 C 169.97 129.94 169.51 130.21 169.04 130.48 C 168.71 130.68 168.37 130.88 168.01 131.11 C 167.91 131.18 167.78 131.24 167.68 131.34 C 167.45 131.47 167.21 131.64 166.98 131.81 C 166.85 131.91 166.71 132.01 166.58 132.08 C 166.38 132.21 166.15 132.38 165.94 132.51 L 165.54 132.81 C 165.34 132.98 165.14 133.11 164.94 133.28 C 164.81 133.38 164.67 133.51 164.51 133.61 L 163.91 134.11 C 163.78 134.21 163.64 134.34 163.51 134.48 C 163.31 134.65 163.11 134.85 162.91 135.01 C 162.78 135.14 162.64 135.24 162.51 135.38 C 162.31 135.58 162.08 135.78 161.88 135.98 C 161.78 136.08 161.65 136.18 161.55 136.31 L 161.48 136.38 C 161.41 136.45 161.31 136.55 161.25 136.65 C 160.98 136.92 160.68 137.22 160.42 137.52 C 160.29 137.65 160.15 137.82 160.02 137.95 C 159.79 138.22 159.52 138.48 159.29 138.75 C 159.22 138.85 159.12 138.92 159.06 138.98 C 158.99 139.08 158.89 139.18 158.83 139.25 L 158.43 139.75 C 158.26 139.95 158.10 140.18 157.90 140.38 L 157.50 140.88 C 157.43 140.98 157.37 141.05 157.30 141.15 C 157.23 141.22 157.20 141.28 157.13 141.35 C 156.70 141.95 156.23 142.52 155.80 143.15 C 155.40 143.72 155.03 144.28 154.67 144.85 C 154.64 144.92 154.57 144.98 154.54 145.05 C 154.47 145.15 154.44 145.22 154.37 145.32 C 154.07 145.79 153.80 146.26 153.54 146.72 C 153.47 146.82 153.44 146.89 153.37 146.99 C 153.34 147.06 153.27 147.12 153.24 147.19 C 152.94 147.72 152.64 148.22 152.37 148.76 C 152.34 148.79 152.34 148.83 152.30 148.89 C 152.23 148.99 152.20 149.09 152.13 149.19 C 151.90 149.62 151.66 150.09 151.46 150.52 C 151.43 150.62 151.36 150.72 151.33 150.79 C 151.30 150.89 151.26 150.96 151.20 151.06 C 150.97 151.53 150.77 152.03 150.53 152.49 C 150.50 152.56 150.46 152.66 150.43 152.72 C 150.43 152.75 150.40 152.75 150.40 152.79 C 150.13 153.39 149.90 153.99 149.67 154.56 C 149.64 154.63 149.64 154.66 149.60 154.73 C 149.57 154.83 149.53 154.93 149.50 155.00 C 149.30 155.53 149.10 156.03 148.93 156.57 C 148.90 156.67 148.86 156.74 148.83 156.84 C 148.83 156.87 148.80 156.91 148.80 156.94 C 148.57 157.61 148.37 158.28 148.20 158.94 C 148.17 159.01 148.17 159.07 148.13 159.11 C 148.10 159.28 148.06 159.41 148.00 159.58 C 147.93 159.78 147.90 159.98 147.83 160.18 C 147.76 160.45 147.70 160.68 147.66 160.95 C 147.63 161.15 147.56 161.35 147.53 161.55 C 147.53 161.62 147.50 161.68 147.50 161.75 C 147.47 161.88 147.47 162.02 147.43 162.12 C 147.36 162.45 147.30 162.75 147.26 163.09 C 147.23 163.29 147.19 163.46 147.16 163.66 C 147.13 163.96 147.06 164.26 147.03 164.56 C 147.03 164.66 147.00 164.79 147.00 164.89 C 147.00 164.96 147.00 165.02 146.97 165.12 C 146.94 165.45 146.90 165.82 146.87 166.15 C 146.87 166.28 146.84 166.45 146.84 166.58 C 146.81 167.05 146.77 167.55 146.74 168.01 L 146.74 168.14 C 146.74 168.57 146.71 168.97 146.74 169.41 L 146.74 169.84 C 146.74 170.14 146.77 170.47 146.77 170.77 C 146.77 170.94 146.80 171.10 146.80 171.27 C 146.83 171.57 146.83 171.84 146.87 172.14 C 146.90 172.31 146.90 172.44 146.94 172.61 C 146.97 172.94 147.04 173.24 147.07 173.54 C 147.10 173.64 147.10 173.77 147.14 173.87 C 147.21 174.27 147.31 174.67 147.41 175.07 C 147.44 175.17 147.44 175.24 147.48 175.34 C 147.55 175.64 147.65 175.94 147.75 176.24 C 147.78 176.37 147.85 176.51 147.88 176.64 C 147.98 176.87 148.05 177.14 148.15 177.37 C 148.22 177.50 148.25 177.64 148.32 177.77 L 148.62 178.47 C 148.69 178.57 148.72 178.70 148.79 178.80 C 148.92 179.07 149.09 179.33 149.22 179.60 C 149.25 179.67 149.29 179.70 149.32 179.77 L 149.92 180.67 C 149.99 180.74 150.05 180.84 150.12 180.90 L 150.62 181.50 C 150.72 181.60 150.79 181.70 150.89 181.77 L 151.39 182.27 C 151.49 182.37 151.59 182.44 151.69 182.54 C 151.86 182.71 152.06 182.84 152.26 183.01 C 152.36 183.08 152.43 183.14 152.53 183.21 C 152.83 183.41 153.10 183.61 153.43 183.78 L 158.73 186.85 C 158.43 186.68 158.13 186.48 157.83 186.28 C 157.73 186.21 157.66 186.15 157.56 186.08 C 157.22 185.92 157.05 185.78 156.85 185.62 L 156.85 185.62 Z M 156.85 185.62" fill="#c68620" fill-rule="nonzero" group-id="1" node-id="148" stroke="none" target-height="59.420006" target-width="43.509995" target-x="146.71" target-y="127.43"></path><path d="M 174.32 133.59 C 180.06 130.25 185.83 129.45 190.23 131.99 C 197.97 136.39 198.94 149.57 193.10 163.01 L 205.51 170.08 C 207.21 171.05 207.21 174.25 205.54 177.18 C 204.71 178.65 203.57 179.78 202.47 180.42 C 201.33 181.05 200.23 181.22 199.37 180.75 L 186.96 173.68 C 183.19 178.75 178.82 182.75 174.45 185.25 C 168.71 188.59 162.95 189.35 158.54 186.85 C 149.74 181.85 149.70 165.47 158.44 150.33 C 162.85 142.76 168.59 136.93 174.32 133.59 L 174.32 133.59 Z M 174.32 133.59" fill="#ffcd2e" fill-rule="nonzero" group-id="1" node-id="150" stroke="none" target-height="59.90001" target-width="57.51001" target-x="149.7" target-y="129.45"></path><path d="M 174.43 140.69 C 178.70 138.22 183.00 137.62 186.27 139.49 C 192.84 143.23 192.87 155.40 186.34 166.67 C 183.07 172.31 178.80 176.68 174.53 179.14 C 170.26 181.61 165.96 182.21 162.69 180.34 C 156.12 176.60 156.09 164.43 162.62 153.16 C 165.86 147.50 170.12 143.16 174.43 140.69 L 174.43 140.69 Z M 174.43 140.69" fill="#ffffff" fill-rule="nonzero" group-id="1" node-id="152" stroke="none" target-height="44.59001" target-width="36.78" target-x="156.09" target-y="137.62"></path><path d="M 176.56 141.73 C 177.09 141.43 177.63 141.33 178.03 141.56 C 178.86 142.03 178.86 143.56 178.03 144.96 C 177.63 145.66 177.10 146.23 176.56 146.53 C 176.03 146.83 175.49 146.93 175.09 146.70 C 174.26 146.23 174.26 144.70 175.09 143.30 C 175.49 142.56 176.03 142.03 176.56 141.73 L 176.56 141.73 Z M 176.56 141.73" fill="#ffcd2e" fill-rule="nonzero" group-id="1" node-id="154" stroke="none" target-height="5.599991" target-width="4.600006" target-x="174.26" target-y="141.33"></path><path d="M 193.13 163.01 L 187.83 159.91 L 200.24 166.98 L 205.51 170.08 L 193.13 163.01 Z M 193.13 163.01" fill="#9e7f1d" fill-rule="nonzero" group-id="1" node-id="156" stroke="none" target-height="10.169998" target-width="17.679993" target-x="187.83" target-y="159.91"></path><path d="M 156.85 185.62 C 156.75 185.52 156.65 185.45 156.55 185.35 L 156.05 184.85 L 155.78 184.58 L 155.28 183.98 C 155.21 183.91 155.15 183.81 155.08 183.75 C 154.88 183.45 154.65 183.18 154.48 182.85 C 154.45 182.78 154.41 182.75 154.38 182.68 C 154.21 182.41 154.08 182.15 153.95 181.88 C 153.88 181.78 153.85 181.65 153.78 181.55 L 153.48 180.85 C 153.41 180.72 153.38 180.58 153.31 180.45 C 153.21 180.22 153.14 179.98 153.04 179.72 C 153.01 179.59 152.94 179.45 152.91 179.32 C 152.81 179.02 152.74 178.72 152.64 178.42 C 152.61 178.32 152.61 178.25 152.57 178.15 C 152.47 177.75 152.37 177.35 152.30 176.95 C 152.27 176.85 152.27 176.75 152.23 176.62 C 152.16 176.32 152.13 175.99 152.10 175.69 C 152.07 175.52 152.07 175.39 152.03 175.22 C 152.00 174.92 151.96 174.65 151.96 174.35 C 151.96 174.18 151.93 174.02 151.93 173.85 C 151.90 173.55 151.90 173.25 151.90 172.92 L 151.90 171.05 C 151.93 170.58 151.93 170.08 152.00 169.62 C 152.00 169.49 152.03 169.32 152.03 169.19 C 152.06 168.86 152.10 168.49 152.13 168.16 C 152.16 167.96 152.16 167.79 152.20 167.59 C 152.23 167.29 152.30 166.99 152.33 166.69 C 152.36 166.49 152.40 166.32 152.43 166.12 C 152.50 165.82 152.56 165.49 152.60 165.15 C 152.63 164.95 152.67 164.78 152.73 164.58 C 152.76 164.38 152.83 164.18 152.86 164.01 C 152.93 163.74 152.99 163.51 153.03 163.24 C 153.10 163.04 153.13 162.84 153.20 162.64 C 153.27 162.44 153.30 162.21 153.37 162.01 L 153.97 160.01 C 154.00 159.88 154.07 159.74 154.10 159.61 C 154.27 159.08 154.47 158.58 154.67 158.04 C 154.74 157.91 154.77 157.74 154.84 157.61 C 155.07 157.01 155.31 156.44 155.57 155.84 C 155.60 155.74 155.67 155.64 155.70 155.54 C 155.90 155.07 156.13 154.57 156.37 154.11 C 156.47 153.94 156.54 153.74 156.64 153.58 C 156.84 153.15 157.07 152.68 157.31 152.25 C 157.38 152.12 157.44 151.95 157.54 151.82 C 157.81 151.29 158.11 150.75 158.41 150.25 C 158.51 150.08 158.61 149.92 158.71 149.78 C 158.98 149.31 159.28 148.85 159.54 148.38 C 159.64 148.21 159.74 148.05 159.84 147.91 C 160.21 147.31 160.61 146.74 161.01 146.18 C 161.44 145.58 161.88 144.98 162.34 144.38 C 162.47 144.21 162.57 144.08 162.71 143.91 L 163.11 143.41 C 163.28 143.21 163.44 142.98 163.64 142.78 C 163.77 142.61 163.91 142.45 164.07 142.28 C 164.24 142.11 164.37 141.91 164.54 141.75 C 164.77 141.48 165.04 141.22 165.27 140.95 C 165.40 140.82 165.54 140.65 165.67 140.52 C 165.94 140.22 166.24 139.95 166.50 139.65 L 166.80 139.35 L 167.13 139.02 C 167.33 138.82 167.56 138.62 167.76 138.42 C 167.89 138.29 168.03 138.19 168.16 138.05 C 168.36 137.88 168.56 137.68 168.76 137.52 C 168.89 137.39 169.03 137.29 169.16 137.15 L 169.76 136.65 C 169.89 136.55 170.03 136.42 170.19 136.32 C 170.39 136.15 170.59 136.02 170.79 135.85 C 170.92 135.75 171.06 135.65 171.22 135.55 C 171.42 135.38 171.62 135.25 171.85 135.12 C 171.98 135.02 172.12 134.92 172.25 134.85 C 172.48 134.68 172.72 134.55 172.95 134.38 C 173.05 134.31 173.18 134.25 173.28 134.15 C 173.61 133.95 173.95 133.72 174.31 133.51 C 174.78 133.24 175.24 132.98 175.71 132.74 C 175.84 132.67 175.94 132.61 176.08 132.57 C 176.51 132.37 176.95 132.14 177.42 131.97 C 177.45 131.97 177.49 131.94 177.52 131.94 C 177.92 131.77 178.32 131.61 178.72 131.47 C 178.85 131.44 178.95 131.40 179.09 131.37 C 179.39 131.27 179.66 131.17 179.96 131.10 C 180.13 131.07 180.29 131.00 180.46 130.97 C 180.63 130.94 180.79 130.90 180.93 130.87 C 181.10 130.84 181.30 130.80 181.46 130.77 C 181.63 130.74 181.76 130.70 181.93 130.67 C 182.13 130.64 182.36 130.60 182.56 130.57 C 182.66 130.57 182.76 130.54 182.86 130.54 C 183.16 130.51 183.46 130.47 183.76 130.47 L 184.96 130.47 C 185.13 130.47 185.29 130.50 185.46 130.50 C 185.83 130.53 186.16 130.57 186.49 130.63 C 186.56 130.63 186.59 130.63 186.66 130.66 C 187.03 130.73 187.39 130.83 187.76 130.93 L 188.06 131.03 C 188.33 131.13 188.59 131.20 188.86 131.30 C 188.96 131.33 189.06 131.40 189.19 131.43 C 189.49 131.56 189.79 131.70 190.09 131.86 C 190.12 131.89 190.19 131.89 190.22 131.93 L 184.92 128.86 L 184.89 128.83 C 184.86 128.80 184.82 128.80 184.79 128.80 C 184.49 128.63 184.19 128.50 183.89 128.37 C 183.86 128.34 183.79 128.34 183.76 128.30 C 183.69 128.27 183.63 128.27 183.56 128.23 C 183.29 128.13 183.03 128.03 182.76 127.96 C 182.69 127.93 182.63 127.93 182.56 127.89 C 182.53 127.89 182.49 127.89 182.46 127.86 C 182.09 127.76 181.73 127.66 181.36 127.59 L 181.19 127.59 C 180.86 127.52 180.49 127.49 180.16 127.46 C 180.09 127.46 180.06 127.46 179.99 127.43 L 178.45 127.43 C 178.15 127.43 177.85 127.46 177.55 127.50 C 177.45 127.50 177.35 127.53 177.25 127.53 C 177.12 127.56 176.95 127.56 176.82 127.60 C 176.75 127.60 176.69 127.63 176.62 127.63 C 176.45 127.66 176.32 127.70 176.15 127.73 C 175.98 127.76 175.78 127.80 175.62 127.83 C 175.45 127.86 175.32 127.90 175.15 127.93 C 175.05 127.96 174.95 127.96 174.85 128.00 C 174.78 128.03 174.72 128.03 174.65 128.07 C 174.35 128.14 174.08 128.24 173.78 128.34 C 173.65 128.37 173.55 128.41 173.41 128.44 C 173.01 128.57 172.61 128.74 172.21 128.91 L 172.18 128.91 C 172.15 128.91 172.11 128.94 172.11 128.94 C 171.68 129.11 171.24 129.34 170.81 129.54 C 170.68 129.61 170.58 129.67 170.44 129.71 C 169.97 129.94 169.51 130.21 169.04 130.48 C 168.71 130.68 168.37 130.88 168.01 131.11 C 167.91 131.18 167.78 131.24 167.68 131.34 C 167.45 131.47 167.21 131.64 166.98 131.81 C 166.85 131.91 166.71 132.01 166.58 132.08 C 166.38 132.21 166.15 132.38 165.94 132.51 L 165.54 132.81 C 165.34 132.98 165.14 133.11 164.94 133.28 C 164.81 133.38 164.67 133.51 164.51 133.61 L 163.91 134.11 C 163.78 134.21 163.64 134.34 163.51 134.48 C 163.31 134.65 163.11 134.85 162.91 135.01 C 162.78 135.14 162.64 135.24 162.51 135.38 C 162.31 135.58 162.08 135.78 161.88 135.98 C 161.78 136.08 161.65 136.18 161.55 136.31 L 161.48 136.38 C 161.41 136.45 161.31 136.55 161.25 136.65 C 160.98 136.92 160.68 137.22 160.42 137.52 C 160.29 137.65 160.15 137.82 160.02 137.95 C 159.79 138.22 159.52 138.48 159.29 138.75 C 159.22 138.85 159.12 138.92 159.06 138.98 C 158.99 139.08 158.89 139.18 158.83 139.25 L 158.43 139.75 C 158.26 139.95 158.10 140.18 157.90 140.38 L 157.50 140.88 C 157.43 140.98 157.37 141.05 157.30 141.15 C 157.23 141.22 157.20 141.28 157.13 141.35 C 156.70 141.95 156.23 142.52 155.80 143.15 C 155.40 143.72 155.03 144.28 154.67 144.85 C 154.64 144.92 154.57 144.98 154.54 145.05 C 154.47 145.15 154.44 145.22 154.37 145.32 C 154.07 145.79 153.80 146.26 153.54 146.72 C 153.47 146.82 153.44 146.89 153.37 146.99 C 153.34 147.06 153.27 147.12 153.24 147.19 C 152.94 147.72 152.64 148.22 152.37 148.76 C 152.34 148.79 152.34 148.83 152.30 148.89 C 152.23 148.99 152.20 149.09 152.13 149.19 C 151.90 149.62 151.66 150.09 151.46 150.52 C 151.43 150.62 151.36 150.72 151.33 150.79 C 151.30 150.89 151.26 150.96 151.20 151.06 C 150.97 151.53 150.77 152.03 150.53 152.49 C 150.50 152.56 150.46 152.66 150.43 152.72 C 150.43 152.75 150.40 152.75 150.40 152.79 C 150.13 153.39 149.90 153.99 149.67 154.56 C 149.64 154.63 149.64 154.66 149.60 154.73 C 149.57 154.83 149.53 154.93 149.50 155.00 C 149.30 155.53 149.10 156.03 148.93 156.57 C 148.90 156.67 148.86 156.74 148.83 156.84 C 148.83 156.87 148.80 156.91 148.80 156.94 C 148.57 157.61 148.37 158.28 148.20 158.94 C 148.17 159.01 148.17 159.07 148.13 159.11 C 148.10 159.28 148.06 159.41 148.00 159.58 C 147.93 159.78 147.90 159.98 147.83 160.18 C 147.76 160.45 147.70 160.68 147.66 160.95 C 147.63 161.15 147.56 161.35 147.53 161.55 C 147.53 161.62 147.50 161.68 147.50 161.75 C 147.47 161.88 147.47 162.02 147.43 162.12 C 147.36 162.45 147.30 162.75 147.26 163.09 C 147.23 163.29 147.19 163.46 147.16 163.66 C 147.13 163.96 147.06 164.26 147.03 164.56 C 147.03 164.66 147.00 164.79 147.00 164.89 C 147.00 164.96 147.00 165.02 146.97 165.12 C 146.94 165.45 146.90 165.82 146.87 166.15 C 146.87 166.28 146.84 166.45 146.84 166.58 C 146.81 167.05 146.77 167.55 146.74 168.01 L 146.74 168.14 C 146.74 168.57 146.71 168.97 146.74 169.41 L 146.74 169.84 C 146.74 170.14 146.77 170.47 146.77 170.77 C 146.77 170.94 146.80 171.10 146.80 171.27 C 146.83 171.57 146.83 171.84 146.87 172.14 C 146.90 172.31 146.90 172.44 146.94 172.61 C 146.97 172.94 147.04 173.24 147.07 173.54 C 147.10 173.64 147.10 173.77 147.14 173.87 C 147.21 174.27 147.31 174.67 147.41 175.07 C 147.44 175.17 147.44 175.24 147.48 175.34 C 147.55 175.64 147.65 175.94 147.75 176.24 C 147.78 176.37 147.85 176.51 147.88 176.64 C 147.98 176.87 148.05 177.14 148.15 177.37 C 148.22 177.50 148.25 177.64 148.32 177.77 L 148.62 178.47 C 148.69 178.57 148.72 178.70 148.79 178.80 C 148.92 179.07 149.09 179.33 149.22 179.60 C 149.25 179.67 149.29 179.70 149.32 179.77 L 149.92 180.67 C 149.99 180.74 150.05 180.84 150.12 180.90 L 150.62 181.50 C 150.72 181.60 150.79 181.70 150.89 181.77 L 151.39 182.27 C 151.49 182.37 151.59 182.44 151.69 182.54 C 151.86 182.71 152.06 182.84 152.26 183.01 C 152.36 183.08 152.43 183.14 152.53 183.21 C 152.83 183.41 153.10 183.61 153.43 183.78 L 158.73 186.85 C 158.43 186.68 158.13 186.48 157.83 186.28 C 157.73 186.21 157.66 186.15 157.56 186.08 C 157.22 185.92 157.05 185.78 156.85 185.62 L 156.85 185.62 Z M 156.85 185.62" fill="#c68620" fill-rule="nonzero" group-id="1" node-id="158" stroke="none" target-height="59.420006" target-width="43.509995" target-x="146.71" target-y="127.43"></path><path d="M 174.32 133.59 C 180.06 130.25 185.83 129.45 190.23 131.99 C 197.97 136.39 198.94 149.57 193.10 163.01 L 205.51 170.08 C 207.21 171.05 207.21 174.25 205.54 177.18 C 204.71 178.65 203.57 179.78 202.47 180.42 C 201.33 181.05 200.23 181.22 199.37 180.75 L 186.96 173.68 C 183.19 178.75 178.82 182.75 174.45 185.25 C 168.71 188.59 162.95 189.35 158.54 186.85 C 149.74 181.85 149.70 165.47 158.44 150.33 C 162.85 142.76 168.59 136.93 174.32 133.59 L 174.32 133.59 Z M 174.32 133.59" fill="#ffcd2e" fill-rule="nonzero" group-id="1" node-id="160" stroke="none" target-height="59.90001" target-width="57.51001" target-x="149.7" target-y="129.45"></path><path d="M 174.43 140.69 C 178.70 138.22 183.00 137.62 186.27 139.49 C 192.84 143.23 192.87 155.40 186.34 166.67 C 183.07 172.31 178.80 176.68 174.53 179.14 C 170.26 181.61 165.96 182.21 162.69 180.34 C 156.12 176.60 156.09 164.43 162.62 153.16 C 165.86 147.50 170.12 143.16 174.43 140.69 L 174.43 140.69 Z M 174.43 140.69" fill="#ffffff" fill-rule="nonzero" group-id="1" node-id="162" stroke="none" target-height="44.59001" target-width="36.78" target-x="156.09" target-y="137.62"></path><path d="M 176.56 141.73 C 177.09 141.43 177.63 141.33 178.03 141.56 C 178.86 142.03 178.86 143.56 178.03 144.96 C 177.63 145.66 177.10 146.23 176.56 146.53 C 176.03 146.83 175.49 146.93 175.09 146.70 C 174.26 146.23 174.26 144.70 175.09 143.30 C 175.49 142.56 176.03 142.03 176.56 141.73 L 176.56 141.73 Z M 176.56 141.73" fill="#ffcd2e" fill-rule="nonzero" group-id="1" node-id="164" stroke="none" target-height="5.599991" target-width="4.600006" target-x="174.26" target-y="141.33"></path></g><g node-id="192"><g node-id="194"><g node-id="199"><path d="M 234.91 168.24 L 243.09 163.92 L 251.03 167.52 L 242.73 171.71 Z" fill="url(#SVGID_5_)" fill-opacity="0.3" fill-rule="nonzero" group-id="2,4,9" node-id="172" stroke="none" target-height="7.7900085" target-width="16.119995" target-x="234.91" target-y="163.92"></path></g><path d="M 258.80 157.85 L 251.05 167.54 L 242.98 164.01 L 242.90 152.98 L 258.80 154.92 Z" fill="url(#SVGID_6_)" fill-rule="nonzero" group-id="2,4" node-id="175" stroke="none" target-height="14.559998" target-width="15.899994" target-x="242.9" target-y="152.98"></path><path d="M 251.05 167.54 L 251.05 157.03 L 258.48 153.18 L 258.98 153.22 L 259.00 163.54 Z" fill="url(#SVGID_7_)" fill-rule="nonzero" group-id="2,4" node-id="177" stroke="none" target-height="14.360001" target-width="7.949997" target-x="251.05" target-y="153.18"></path><path d="M 242.87 152.96 L 250.74 149.00 L 258.98 153.22 L 251.05 157.23 Z" fill="url(#SVGID_8_)" fill-rule="nonzero" group-id="2,4" node-id="179" stroke="none" target-height="8.229996" target-width="16.110016" target-x="242.87" target-y="149"></path></g><g node-id="195"><path d="M 219.42 168.46 L 219.42 168.46 C 219.23 168.12 219.34 167.69 219.68 167.50 L 239.24 156.21 C 239.58 156.02 240.01 156.13 240.20 156.47 L 240.20 156.47 C 240.39 156.81 240.28 157.24 239.94 157.43 L 220.38 168.72 C 220.05 168.91 219.61 168.79 219.42 168.46 Z" fill="url(#SVGID_9_)" fill-opacity="0.5" fill-rule="nonzero" group-id="2,5" node-id="184" stroke="none" target-height="12.889999" target-width="21.160004" target-x="219.23" target-y="156.02"></path></g><path d="M 232.77 167.16 L 232.68 167.00 C 232.52 166.72 232.61 166.36 232.89 166.20 L 239.22 162.33 C 239.50 162.17 239.86 162.26 240.02 162.54 L 240.11 162.70 C 240.27 162.98 240.18 163.34 239.90 163.50 L 233.57 167.37 C 233.29 167.53 232.93 167.44 232.77 167.16 Z" fill="url(#SVGID_10_)" fill-opacity="0.5" fill-rule="nonzero" group-id="2,6" node-id="189" stroke="none" target-height="5.3600006" target-width="7.75" target-x="232.52" target-y="162.17"></path></g></svg>