<?xml version="1.0" standalone="no"?><!DOCTYPE svg PUBLIC "-//W3C//DTD SVG 1.1//EN" "http://www.w3.org/Graphics/SVG/1.1/DTD/svg11.dtd"><svg t="1710171071142" class="icon" viewBox="0 0 1024 1024" version="1.1" xmlns="http://www.w3.org/2000/svg" p-id="7857" xmlns:xlink="http://www.w3.org/1999/xlink" width="200" height="200"><path d="M575.573333 768a42.666667 42.666667 0 0 1-30.293333-12.373333l-90.026667-90.026667a42.666667 42.666667 0 1 1 60.586667-60.16l59.733333 59.733333 122.026667-121.6a42.666667 42.666667 0 0 1 60.586667 0 42.666667 42.666667 0 0 1 0 60.16L605.866667 755.2a42.666667 42.666667 0 0 1-30.293334 12.8z" p-id="7858" fill="#000000"></path><path d="M215.466667 938.666667a128 128 0 0 1-90.453334-37.546667A128 128 0 0 1 87.466667 810.666667V213.333333a128 128 0 0 1 128-128h597.333333a128 128 0 0 1 128 128v597.333334a128 128 0 0 1-128 128h-597.333333z m0-768a42.666667 42.666667 0 0 0-42.666667 42.666666v597.333334a42.666667 42.666667 0 0 0 12.8 29.866666 42.666667 42.666667 0 0 0 29.866667 12.8H810.666667a42.666667 42.666667 0 0 0 42.666666-42.666666V213.333333a42.666667 42.666667 0 0 0-42.666666-42.666666z m682.666666 341.333333z" p-id="7859" fill="#000000"></path><path d="M550.826667 341.333333h-256a42.666667 42.666667 0 1 1 0-85.333333h256a42.666667 42.666667 0 0 1 0 85.333333zM421.546667 512H296.106667a42.666667 42.666667 0 1 1 0-85.333333h125.44a42.666667 42.666667 0 0 1 0 85.333333z" p-id="7860" fill="#000000"></path></svg>
