<?xml version="1.0" standalone="no"?><!DOCTYPE svg PUBLIC "-//W3C//DTD SVG 1.1//EN" "http://www.w3.org/Graphics/SVG/1.1/DTD/svg11.dtd"><svg t="1710171249024" class="icon" viewBox="0 0 1024 1024" version="1.1" xmlns="http://www.w3.org/2000/svg" p-id="14983" xmlns:xlink="http://www.w3.org/1999/xlink" width="200" height="200"><path d="M832 1024H153.6C68.9024 1024 0 955.0976 0 870.4V153.6C0 68.9024 68.9024 0 153.6 0h384c84.6976 0 153.6 68.9024 153.6 153.6v460.8a25.6 25.6 0 0 1-51.2 0V153.6c0-56.4608-45.9392-102.4-102.4-102.4H153.6c-56.4608 0-102.4 45.9392-102.4 102.4v716.8c0 56.4608 45.9392 102.4 102.4 102.4h678.4a25.6 25.6 0 0 1 0 51.2z" fill="#000000" p-id="14984"></path><path d="M832 1024c-105.8688 0-192-86.1312-192-192V563.2a25.6 25.6 0 0 1 51.2 0v268.8c0 77.632 63.168 140.8 140.8 140.8s140.8-63.168 140.8-140.8V563.2a25.6 25.6 0 0 1 51.2 0v268.8c0 105.8688-86.1312 192-192 192z" fill="#000000" p-id="14985"></path><path d="M832 857.6a25.6 25.6 0 0 1-25.6-25.6V294.4a25.6 25.6 0 0 1 51.2 0v537.6a25.6 25.6 0 0 1-25.6 25.6zM499.2 806.4H192a25.6 25.6 0 0 1 0-51.2h307.2a25.6 25.6 0 0 1 0 51.2zM499.2 627.2H192a25.6 25.6 0 0 1 0-51.2h307.2a25.6 25.6 0 0 1 0 51.2zM499.2 448H192a25.6 25.6 0 0 1 0-51.2h307.2a25.6 25.6 0 0 1 0 51.2zM499.2 268.8H358.4a25.6 25.6 0 0 1 0-51.2h140.8a25.6 25.6 0 0 1 0 51.2zM230.4 268.8h-38.4a25.6 25.6 0 0 1 0-51.2h38.4a25.6 25.6 0 0 1 0 51.2z" fill="#000000" p-id="14986"></path></svg>