<?xml version="1.0" standalone="no"?><!DOCTYPE svg PUBLIC "-//W3C//DTD SVG 1.1//EN" "http://www.w3.org/Graphics/SVG/1.1/DTD/svg11.dtd"><svg t="1710170932080" class="icon" viewBox="0 0 1024 1024" version="1.1" xmlns="http://www.w3.org/2000/svg" p-id="2868" xmlns:xlink="http://www.w3.org/1999/xlink" width="200" height="200"><path d="M513.5 112C376.81 112 266 222.81 266 359.5c-0.063 80.544 39.117 156.068 105 202.4-137.19 54.9-234 187.87-234 343.18 0 1.04 0.41 2.04 1.145 2.775A3.921 3.921 0 0 0 140.92 909h64.2a3.88 3.88 0 0 0 3.88-3.88 294 294 0 0 1 23.74-116.33 297.88 297.88 0 0 1 64.85-95 302.76 302.76 0 0 1 200-87.23c5.25 0.33 10.55 0.52 15.89 0.52C650.19 607 761 496.19 761 359.5S650.19 112 513.5 112z m124.1 361.6c-59.205 59.21-151.99 68.353-221.613 21.836-69.622-46.516-96.69-135.736-64.649-213.095 32.04-77.36 114.266-121.312 196.39-104.978C629.85 193.697 689 265.768 689 349.5A174.393 174.393 0 0 1 637.6 473.6zM696.1 944.7a31.81 31.81 0 0 0 51.7 0l210.6-292a8 8 0 0 0-6.5-12.7H905a31.858 31.858 0 0 0-25.9 13.3L722 871.3l-71.2-98.8a32 32 0 0 0-25.9-13.3H578a8 8 0 0 0-6.5 12.7l124.6 172.8z" fill="#2c2c2c" p-id="2869"></path></svg>