<?xml version="1.0" standalone="no"?><!DOCTYPE svg PUBLIC "-//W3C//DTD SVG 1.1//EN" "http://www.w3.org/Graphics/SVG/1.1/DTD/svg11.dtd"><svg height="1024" node-id="1" sillyvg="true" template-height="1024" template-width="1024" version="1.1" viewBox="0 0 1024 1024" width="1024" xmlns="http://www.w3.org/2000/svg" xmlns:xlink="http://www.w3.org/1999/xlink"><defs node-id="45"><linearGradient gradientUnits="userSpaceOnUse" id="SVGID_1_" node-id="6" spreadMethod="pad" x1="591.0228" x2="591.0228" y1="167.6191" y2="632.0825"><stop offset="0" stop-color="#39c2ff"></stop><stop offset="1" stop-color="#236ffb" stop-opacity="0"></stop></linearGradient><linearGradient gradientUnits="userSpaceOnUse" id="SVGID_2_" node-id="11" spreadMethod="pad" x1="65.168" x2="736.4326" y1="467.2713" y2="467.2713"><stop offset="0" stop-color="#39c2ff"></stop><stop offset="1" stop-color="#236ffb"></stop></linearGradient><linearGradient gradientUnits="userSpaceOnUse" id="SVGID_3_" node-id="19" spreadMethod="pad" x1="65.168" x2="736.4326" y1="637.3232" y2="637.3232"><stop offset="0" stop-color="#39c2ff"></stop><stop offset="1" stop-color="#236ffb"></stop></linearGradient><linearGradient gradientUnits="userSpaceOnUse" id="SVGID_4_" node-id="27" spreadMethod="pad" x1="65.168" x2="736.4326" y1="807.3751" y2="807.3751"><stop offset="0" stop-color="#39c2ff"></stop><stop offset="1" stop-color="#236ffb"></stop></linearGradient><linearGradient gradientTransform="matrix(1.1591 0.129 0.129 1.1591 -346.6596 -262.3566)" gradientUnits="userSpaceOnUse" id="SVGID_5_" node-id="39" spreadMethod="pad" x1="1045.5204" x2="883.6478" y1="628.6694" y2="797.8446"><stop offset="0" stop-color="#236ffb"></stop><stop offset="1" stop-color="#236ffb" stop-opacity="0"></stop></linearGradient></defs><g node-id="177"><path d="M 847.20 630.00 L 334.90 630.00 C 297.70 630.00 267.50 599.80 267.50 562.60 L 267.50 212.10 C 267.50 174.90 297.70 144.70 334.90 144.70 L 450.30 144.70 C 462.60 144.70 474.20 150.30 481.80 159.90 L 511.50 196.90 C 519.20 206.50 530.80 212.10 543.00 212.10 L 847.10 212.10 C 865.00 212.10 882.10 219.20 894.80 231.80 C 907.40 244.40 914.50 261.60 914.50 279.50 L 914.50 562.60 C 914.60 599.90 884.40 630.00 847.20 630.00" fill="url(#SVGID_1_)" fill-opacity="0.5" fill-rule="nonzero" group-id="1" node-id="82" stroke="none" target-height="485.3" target-width="647.1" target-x="267.5" target-y="144.7"></path></g><g node-id="178"><path d="M 715.10 539.10 L 86.50 539.10 C 74.70 539.10 65.20 529.50 65.20 517.80 L 65.20 416.80 C 65.20 405.00 74.80 395.50 86.50 395.50 L 715.10 395.50 C 726.90 395.50 736.40 405.10 736.40 416.80 L 736.40 517.70 C 736.40 529.50 726.90 539.10 715.10 539.10 Z" fill="url(#SVGID_2_)" fill-rule="nonzero" group-id="2" node-id="87" stroke="none" target-height="143.59998" target-width="671.2" target-x="65.2" target-y="395.5"></path><g node-id="183"><path d="M 184.90 467.30 C 184.90 486.91 169.01 502.80 149.40 502.80 C 129.79 502.80 113.90 486.91 113.90 467.30 C 113.90 447.69 129.79 431.80 149.40 431.80 C 169.01 431.80 184.90 447.69 184.90 467.30 Z" fill="#ffffff" fill-opacity="0.8" fill-rule="nonzero" group-id="2,7" node-id="91" stroke="none" target-height="71" target-width="70.99999" target-x="113.9" target-y="431.8"></path></g><g node-id="184"><path d="M 475.80 466.70 L 443.80 498.70 C 435.30 507.20 421.40 507.20 412.90 498.70 L 412.90 498.70 C 404.40 490.20 404.40 476.30 412.90 467.80 L 444.90 435.80 C 453.40 427.30 467.30 427.30 475.80 435.80 L 475.80 435.80 C 484.30 444.30 484.30 458.20 475.80 466.70 Z" fill="#003677" fill-opacity="0.2" fill-rule="nonzero" group-id="2,8" node-id="96" stroke="none" target-height="79.900024" target-width="79.899994" target-x="404.4" target-y="427.3"></path></g><g node-id="185"><path d="M 572.20 466.70 L 540.20 498.70 C 531.70 507.20 517.80 507.20 509.30 498.70 L 509.30 498.70 C 500.80 490.20 500.80 476.30 509.30 467.80 L 541.30 435.80 C 549.80 427.30 563.70 427.30 572.20 435.80 L 572.20 435.80 C 580.80 444.30 580.80 458.20 572.20 466.70 Z" fill="#003677" fill-opacity="0.2" fill-rule="nonzero" group-id="2,9" node-id="101" stroke="none" target-height="79.900024" target-width="80" target-x="500.8" target-y="427.3"></path></g><g node-id="186"><path d="M 671.90 466.70 L 639.90 498.70 C 631.40 507.20 617.50 507.20 609.00 498.70 L 609.00 498.70 C 600.50 490.20 600.50 476.30 609.00 467.80 L 641.00 435.80 C 649.50 427.30 663.40 427.30 671.90 435.80 L 671.90 435.80 C 680.50 444.30 680.50 458.20 671.90 466.70 Z" fill="#003677" fill-opacity="0.2" fill-rule="nonzero" group-id="2,10" node-id="106" stroke="none" target-height="79.900024" target-width="80" target-x="600.5" target-y="427.3"></path></g><path d="M 715.10 709.10 L 86.50 709.10 C 74.70 709.10 65.20 699.50 65.20 687.80 L 65.20 586.90 C 65.20 575.10 74.80 565.60 86.50 565.60 L 715.10 565.60 C 726.90 565.60 736.40 575.20 736.40 586.90 L 736.40 687.80 C 736.40 699.60 726.90 709.10 715.10 709.10 Z" fill="url(#SVGID_3_)" fill-rule="nonzero" group-id="2" node-id="109" stroke="none" target-height="143.5" target-width="671.2" target-x="65.2" target-y="565.6"></path><path d="M 184.90 637.30 C 184.90 656.91 169.01 672.80 149.40 672.80 C 129.79 672.80 113.90 656.91 113.90 637.30 C 113.90 617.69 129.79 601.80 149.40 601.80 C 169.01 601.80 184.90 617.69 184.90 637.30 Z" fill="#ffffff" fill-opacity="0.8" fill-rule="nonzero" group-id="2,11" node-id="113" stroke="none" target-height="71" target-width="70.99999" target-x="113.9" target-y="601.8"></path><path d="M 475.80 636.80 L 443.80 668.80 C 435.30 677.30 421.40 677.30 412.90 668.80 L 412.90 668.80 C 404.40 660.30 404.40 646.40 412.90 637.90 L 444.90 605.90 C 453.40 597.40 467.30 597.40 475.80 605.90 L 475.80 605.90 C 484.30 614.40 484.30 628.20 475.80 636.80 Z" fill="#003677" fill-opacity="0.2" fill-rule="nonzero" group-id="2,12" node-id="118" stroke="none" target-height="79.89996" target-width="79.899994" target-x="404.4" target-y="597.4"></path><path d="M 572.20 636.80 L 540.20 668.80 C 531.70 677.30 517.80 677.30 509.30 668.80 L 509.30 668.80 C 500.80 660.30 500.80 646.40 509.30 637.90 L 541.30 605.90 C 549.80 597.40 563.70 597.40 572.20 605.90 L 572.20 605.90 C 580.80 614.40 580.80 628.20 572.20 636.80 Z" fill="#003677" fill-opacity="0.2" fill-rule="nonzero" group-id="2,13" node-id="123" stroke="none" target-height="79.89996" target-width="80" target-x="500.8" target-y="597.4"></path><path d="M 671.90 636.80 L 639.90 668.80 C 631.40 677.30 617.50 677.30 609.00 668.80 L 609.00 668.80 C 600.50 660.30 600.50 646.40 609.00 637.90 L 641.00 605.90 C 649.50 597.40 663.40 597.40 671.90 605.90 L 671.90 605.90 C 680.50 614.40 680.50 628.20 671.90 636.80 Z" fill="#003677" fill-opacity="0.2" fill-rule="nonzero" group-id="2,14" node-id="128" stroke="none" target-height="79.89996" target-width="80" target-x="600.5" target-y="597.4"></path><path d="M 715.10 879.20 L 86.50 879.20 C 74.70 879.20 65.20 869.60 65.20 857.90 L 65.20 756.90 C 65.20 745.10 74.80 735.60 86.50 735.60 L 715.10 735.60 C 726.90 735.60 736.40 745.20 736.40 756.90 L 736.40 857.80 C 736.40 869.60 726.90 879.20 715.10 879.20 Z" fill="url(#SVGID_4_)" fill-rule="nonzero" group-id="2" node-id="131" stroke="none" target-height="143.60004" target-width="671.2" target-x="65.2" target-y="735.6"></path><path d="M 184.90 807.40 C 184.90 827.01 169.01 842.90 149.40 842.90 C 129.79 842.90 113.90 827.01 113.90 807.40 C 113.90 787.79 129.79 771.90 149.40 771.90 C 169.01 771.90 184.90 787.79 184.90 807.40 Z" fill="#ffffff" fill-opacity="0.8" fill-rule="nonzero" group-id="2,15" node-id="135" stroke="none" target-height="71" target-width="70.99999" target-x="113.9" target-y="771.9"></path><path d="M 475.80 806.80 L 443.80 838.80 C 435.30 847.30 421.40 847.30 412.90 838.80 L 412.90 838.80 C 404.40 830.30 404.40 816.40 412.90 807.90 L 444.90 775.90 C 453.40 767.40 467.30 767.40 475.80 775.90 L 475.80 775.90 C 484.30 784.40 484.30 798.30 475.80 806.80 Z" fill="#003677" fill-opacity="0.2" fill-rule="nonzero" group-id="2,16" node-id="140" stroke="none" target-height="79.89996" target-width="79.899994" target-x="404.4" target-y="767.4"></path><path d="M 572.20 806.80 L 540.20 838.80 C 531.70 847.30 517.80 847.30 509.30 838.80 L 509.30 838.80 C 500.80 830.30 500.80 816.40 509.30 807.90 L 541.30 775.90 C 549.80 767.40 563.70 767.40 572.20 775.90 L 572.20 775.90 C 580.80 784.40 580.80 798.30 572.20 806.80 Z" fill="#003677" fill-opacity="0.2" fill-rule="nonzero" group-id="2,17" node-id="145" stroke="none" target-height="79.89996" target-width="80" target-x="500.8" target-y="767.4"></path><path d="M 671.90 806.80 L 639.90 838.80 C 631.40 847.30 617.50 847.30 609.00 838.80 L 609.00 838.80 C 600.50 830.30 600.50 816.40 609.00 807.90 L 641.00 775.90 C 649.50 767.40 663.40 767.40 671.90 775.90 L 671.90 775.90 C 680.50 784.40 680.50 798.30 671.90 806.80 Z" fill="#003677" fill-opacity="0.2" fill-rule="nonzero" group-id="2,18" node-id="150" stroke="none" target-height="79.89996" target-width="80" target-x="600.5" target-y="767.4"></path></g><g node-id="179"><path d="M 797.80 335.80 L 395.30 335.80 C 387.00 335.80 380.30 329.10 380.30 320.80 L 380.30 320.80 C 380.30 312.50 387.00 305.80 395.30 305.80 L 797.70 305.80 C 806.00 305.80 812.70 312.50 812.70 320.80 L 812.70 320.80 C 812.80 329.00 806.10 335.80 797.80 335.80 Z" fill="#236ffb" fill-opacity="0.2" fill-rule="nonzero" group-id="3" node-id="156" stroke="none" target-height="30" target-width="432.5" target-x="380.3" target-y="305.8"></path></g><g node-id="180"><path d="M 797.80 436.30 L 395.30 436.30 C 387.00 436.30 380.30 429.60 380.30 421.30 L 380.30 421.30 C 380.30 413.00 387.00 406.30 395.30 406.30 L 797.70 406.30 C 806.00 406.30 812.70 413.00 812.70 421.30 L 812.70 421.30 C 812.80 429.60 806.10 436.30 797.80 436.30 Z" fill="#236ffb" fill-opacity="0.2" fill-rule="nonzero" group-id="4" node-id="161" stroke="none" target-height="30" target-width="432.5" target-x="380.3" target-y="406.3"></path></g><g node-id="181"><path d="M 745.80 536.90 L 395.30 536.90 C 387.00 536.90 380.30 530.20 380.30 521.90 L 380.30 521.90 C 380.30 513.60 387.00 506.90 395.30 506.90 L 745.70 506.90 C 754.00 506.90 760.70 513.60 760.70 521.90 L 760.70 521.90 C 760.80 530.20 754.10 536.90 745.80 536.90 Z" fill="#236ffb" fill-opacity="0.2" fill-rule="nonzero" group-id="5" node-id="166" stroke="none" target-height="30.00003" target-width="380.5" target-x="380.3" target-y="506.9"></path></g><g node-id="182"><path d="M 959.30 631.90 L 799.60 791.60 L 760.80 752.80 L 920.50 593.10 Z" fill="url(#SVGID_5_)" fill-rule="nonzero" group-id="6" node-id="171" stroke="none" target-height="198.5" target-width="198.5" target-x="760.8" target-y="593.1"></path><g node-id="195"><path d="M 881.49 632.05 L 920.31 593.23 L 959.13 632.05 L 920.31 670.87 Z" fill="#236ffb" fill-rule="nonzero" group-id="6,19" node-id="175" stroke="none" target-height="77.63953" target-width="77.63953" target-x="881.4893" target-y="593.2295"></path></g></g></svg>