<?xml version="1.0" standalone="no"?><!DOCTYPE svg PUBLIC "-//W3C//DTD SVG 1.1//EN" "http://www.w3.org/Graphics/SVG/1.1/DTD/svg11.dtd"><svg height="1024" node-id="1" sillyvg="true" template-height="1024" template-width="1024" version="1.1" viewBox="0 0 1024 1024" width="1024" xmlns="http://www.w3.org/2000/svg" xmlns:xlink="http://www.w3.org/1999/xlink"><defs node-id="30"><linearGradient gradientUnits="userSpaceOnUse" id="SVGID_1_" node-id="6" spreadMethod="pad" x1="651.6523" x2="651.6523" y1="93.7185" y2="608.194"><stop offset="0" stop-color="#39c2ff"></stop><stop offset="1" stop-color="#236ffb" stop-opacity="0"></stop></linearGradient><linearGradient gradientUnits="userSpaceOnUse" id="SVGID_2_" node-id="10" spreadMethod="pad" x1="648.4899" x2="648.4899" y1="93.7185" y2="608.194"><stop offset="0" stop-color="#39c2ff"></stop><stop offset="1" stop-color="#236ffb" stop-opacity="0"></stop></linearGradient><linearGradient gradientUnits="userSpaceOnUse" id="SVGID_3_" node-id="18" spreadMethod="pad" x1="178.9745" x2="545.7114" y1="413.6335" y2="851.6804"><stop offset="0" stop-color="#39c2ff"></stop><stop offset="1" stop-color="#236ffb"></stop></linearGradient><linearGradient gradientTransform="matrix(1.1591 0.129 0.129 1.1591 -346.6596 -262.3566)" gradientUnits="userSpaceOnUse" id="SVGID_4_" node-id="24" spreadMethod="pad" x1="1004.3676" x2="813.621" y1="684.0839" y2="883.4355"><stop offset="0" stop-color="#236ffb"></stop><stop offset="1" stop-color="#236ffb" stop-opacity="0"></stop></linearGradient></defs><g node-id="87"><path d="M 849.10 569.50 L 750.00 569.50 L 716.90 524.70 L 586.50 524.70 L 553.40 569.50 L 454.30 569.50 C 444.30 569.50 436.20 577.60 436.20 587.60 L 436.20 587.60 C 436.20 597.60 444.30 605.70 454.30 605.70 L 849.10 605.70 C 859.10 605.70 867.20 597.60 867.20 587.60 L 867.20 587.60 C 867.10 577.60 859.00 569.50 849.10 569.50 Z" fill="url(#SVGID_1_)" fill-opacity="0.5" fill-rule="nonzero" group-id="1" node-id="61" stroke="none" target-height="81" target-width="431" target-x="436.2" target-y="524.7"></path><path d="M 928.30 63.90 L 368.70 63.90 C 346.70 63.90 328.80 81.80 328.80 103.80 L 328.80 188.20 L 328.80 465.40 C 328.80 487.40 346.70 505.30 368.70 505.30 L 928.30 505.30 C 950.30 505.30 968.20 487.40 968.20 465.40 L 968.20 188.20 L 968.20 103.80 C 968.20 81.70 950.30 63.90 928.30 63.90 Z" fill="url(#SVGID_2_)" fill-opacity="0.5" fill-rule="nonzero" group-id="1" node-id="63" stroke="none" target-height="441.4" target-width="639.4" target-x="328.8" target-y="63.9"></path></g><g node-id="88"><path d="M 681.20 157.00 C 670.50 154.20 659.40 160.60 656.60 171.40 L 599.70 387.60 C 596.90 398.40 603.30 409.40 614.10 412.20 C 615.80 412.60 617.50 412.90 619.20 412.90 C 628.10 412.90 636.30 406.90 638.70 397.90 L 695.60 181.70 C 698.40 170.90 692.00 159.80 681.20 157.00 Z" fill="#ffffff" fill-opacity="0.8" fill-rule="nonzero" group-id="2" node-id="68" stroke="none" target-height="258.7" target-width="101.5" target-x="596.9" target-y="154.2"></path><path d="M 553.90 185.90 L 474.50 265.30 C 467.00 272.80 466.60 284.90 473.60 292.90 L 543.60 372.30 C 547.60 376.80 553.10 379.10 558.70 379.10 C 563.40 379.10 568.20 377.40 572.00 374.10 C 580.30 366.70 581.10 354.00 573.80 345.70 L 516.30 280.50 L 582.30 214.50 C 590.20 206.60 590.20 193.90 582.30 186.00 C 574.50 178.00 561.80 178.00 553.90 185.90 Z" fill="#ffffff" fill-opacity="0.8" fill-rule="nonzero" group-id="2" node-id="70" stroke="none" target-height="201.1" target-width="123.600006" target-x="466.6" target-y="178"></path><path d="M 823.30 266.20 L 753.30 186.80 C 745.90 178.40 733.20 177.70 724.90 185.00 C 716.50 192.40 715.80 205.10 723.10 213.40 L 780.60 278.60 L 714.60 344.60 C 706.70 352.50 706.70 365.20 714.60 373.10 C 718.50 377.00 723.70 379.00 728.80 379.00 C 734.00 379.00 739.10 377.00 743.00 373.10 L 822.40 293.70 C 830.00 286.20 830.30 274.10 823.30 266.20 Z" fill="#ffffff" fill-opacity="0.8" fill-rule="nonzero" group-id="2" node-id="72" stroke="none" target-height="201.3" target-width="123.599976" target-x="706.7" target-y="177.7"></path></g><path d="M 645.50 701.30 L 595.00 701.30 C 590.10 718.00 583.40 740.50 574.90 755.40 L 610.30 789.80 C 618.10 797.30 622.60 807.70 622.60 818.60 C 622.60 829.50 618.20 839.90 610.30 847.40 L 580.70 876.20 C 564.20 892.10 538.00 892.10 521.50 876.20 L 486.10 841.80 C 471.20 850.10 455.40 856.70 439.00 861.30 L 439.00 921.90 C 439.00 944.30 420.30 963.80 397.30 963.80 L 348.70 963.80 C 325.70 963.50 307.20 944.90 307.00 921.90 L 307.00 861.30 C 289.20 856.40 277.40 849.50 261.70 840.80 L 225.30 876.20 C 208.80 892.10 182.60 892.10 166.10 876.20 L 136.50 847.40 C 128.70 839.90 124.20 829.50 124.20 818.60 C 124.20 807.70 128.60 797.30 136.50 789.80 L 173.50 753.80 C 165.40 739.40 159.00 718.50 154.40 702.40 L 103.90 702.40 C 80.90 702.40 56.40 684.30 56.40 661.90 L 56.40 619.80 C 56.40 597.40 81.00 579.30 103.90 579.30 L 154.40 579.30 C 159.30 562.60 166.00 553.70 174.50 538.80 L 136.50 501.90 C 128.70 494.40 124.20 484.00 124.20 473.10 C 124.20 462.20 128.60 451.80 136.50 444.30 L 166.10 415.50 C 182.70 399.60 208.80 399.60 225.30 415.50 L 263.30 452.50 C 278.50 444.20 287.60 437.70 304.80 432.90 L 304.80 373.80 C 304.80 351.40 322.80 333.30 345.80 333.30 L 396.30 333.30 C 419.40 333.30 438.00 351.40 438.00 373.80 L 438.00 432.90 C 454.50 437.50 469.60 443.60 484.40 451.50 L 521.50 415.50 C 538.00 399.60 564.20 399.60 580.70 415.50 L 610.30 444.30 C 618.10 451.80 622.60 462.20 622.60 473.10 C 622.60 484.00 618.20 494.40 610.30 501.90 L 573.90 537.30 C 582.90 552.60 590.00 563.20 595.10 580.50 L 645.60 580.50 C 668.60 580.50 687.20 598.60 687.20 621.00 L 687.20 660.70 C 687.20 683.10 668.50 701.30 645.50 701.30 L 645.50 701.30 Z M 371.80 518.70 C 303.20 518.70 247.60 572.70 247.60 639.20 C 247.60 705.80 303.20 759.80 371.80 759.80 C 440.40 759.80 496.00 705.80 496.00 639.20 C 496.00 572.70 440.40 518.70 371.80 518.70 L 371.80 518.70 Z M 371.80 518.70" fill="url(#SVGID_3_)" fill-rule="nonzero" node-id="75" stroke="none" target-height="630.5" target-width="630.8" target-x="56.4" target-y="333.3"></path><path d="M 371.80 518.70 C 303.20 518.70 247.60 572.70 247.60 639.20 C 247.60 705.80 303.20 759.80 371.80 759.80 C 440.40 759.80 496.00 705.80 496.00 639.20 C 496.00 572.70 440.40 518.70 371.80 518.70 L 371.80 518.70 Z" fill="#dcefff" fill-rule="nonzero" node-id="77" stroke="none" target-height="241.09998" target-width="248.4" target-x="247.6" target-y="518.7"></path><path d="M 921.10 696.30 L 732.90 884.50 L 687.20 838.80 L 875.40 650.60 Z" fill="url(#SVGID_4_)" fill-rule="nonzero" group-id="3" node-id="81" stroke="none" target-height="233.90002" target-width="233.89996" target-x="687.2" target-y="650.6"></path><path d="M 829.41 696.54 L 875.16 650.79 L 920.91 696.54 L 875.16 742.28 Z" fill="#236ffb" fill-rule="nonzero" group-id="3,4" node-id="85" stroke="none" target-height="91.49878" target-width="91.49878" target-x="829.4082" target-y="650.7862"></path></svg>