<?xml version="1.0" standalone="no"?><!DOCTYPE svg PUBLIC "-//W3C//DTD SVG 1.1//EN" "http://www.w3.org/Graphics/SVG/1.1/DTD/svg11.dtd"><svg height="1024" node-id="1" sillyvg="true" template-height="1024" template-width="1024" version="1.1" viewBox="0 0 1024 1024" width="1024" xmlns="http://www.w3.org/2000/svg" xmlns:xlink="http://www.w3.org/1999/xlink"><defs node-id="31"><linearGradient gradientUnits="userSpaceOnUse" id="SVGID_1_" node-id="6" spreadMethod="pad" x1="601.3342" x2="601.3342" y1="152.807" y2="679.19"><stop offset="0" stop-color="#39c2ff"></stop><stop offset="1" stop-color="#236ffb" stop-opacity="0"></stop></linearGradient><linearGradient gradientUnits="userSpaceOnUse" id="SVGID_2_" node-id="11" spreadMethod="pad" x1="235.3475" x2="630.7305" y1="437.1842" y2="911.6438"><stop offset="0" stop-color="#39c2ff"></stop><stop offset="1" stop-color="#236ffb"></stop></linearGradient><linearGradient gradientUnits="userSpaceOnUse" id="SVGID_3_" node-id="15" spreadMethod="pad" x1="326.9137" x2="326.9137" y1="921.3884" y2="603.992"><stop offset="0" stop-color="#39c2ff" stop-opacity="0"></stop><stop offset="0.433" stop-color="#c9eeff" stop-opacity="0.6"></stop><stop offset="1" stop-color="#ffffff"></stop></linearGradient><linearGradient gradientUnits="userSpaceOnUse" id="SVGID_4_" node-id="20" spreadMethod="pad" x1="816.5579" x2="816.5579" y1="460.9578" y2="148.7729"><stop offset="0" stop-color="#cce0ff"></stop><stop offset="1" stop-color="#236ffb"></stop></linearGradient><linearGradient gradientTransform="matrix(1.1591 0.129 0.129 1.1591 -346.6596 -262.3566)" gradientUnits="userSpaceOnUse" id="SVGID_5_" node-id="25" spreadMethod="pad" x1="510.1273" x2="325.046" y1="278.2739" y2="471.7049"><stop offset="0" stop-color="#236ffb"></stop><stop offset="1" stop-color="#236ffb" stop-opacity="0"></stop></linearGradient></defs><g node-id="90"><path d="M 808.60 669.60 L 394.10 669.60 C 309.70 669.60 241.00 600.90 241.00 516.50 C 241.00 457.80 274.80 405.20 325.40 379.70 C 324.20 372.30 323.50 364.80 323.50 357.20 C 323.50 283.10 383.80 222.80 457.90 222.80 C 477.90 222.80 497.20 227.20 514.80 235.40 C 547.40 164.30 618.60 116.70 700.60 116.70 C 813.50 116.70 905.40 208.60 905.40 321.50 C 905.40 344.60 901.40 367.60 893.70 389.30 C 935.50 417.20 961.70 464.60 961.70 516.50 C 961.70 600.90 893.00 669.60 808.60 669.60 Z" fill="url(#SVGID_1_)" fill-opacity="0.5" fill-rule="nonzero" group-id="1" node-id="70" stroke="none" target-height="552.89996" target-width="720.7" target-x="241" target-y="116.7"></path></g><g node-id="91"><path d="M 650.10 912.40 L 235.70 912.40 C 151.30 912.40 82.60 843.70 82.60 759.30 C 82.60 700.60 116.40 648.00 167.00 622.50 C 165.80 615.10 165.10 607.60 165.10 600.00 C 165.10 525.90 225.40 465.60 299.50 465.60 C 319.50 465.60 338.80 470.00 356.40 478.20 C 389.00 407.10 460.20 359.50 542.20 359.50 C 655.10 359.50 747.00 451.40 747.00 564.30 C 747.00 587.40 743.00 610.40 735.30 632.10 C 777.10 660.00 803.30 707.40 803.30 759.30 C 803.20 843.70 734.60 912.40 650.10 912.40 Z" fill="url(#SVGID_2_)" fill-rule="nonzero" group-id="2" node-id="75" stroke="none" target-height="552.9" target-width="720.7" target-x="82.6" target-y="359.5"></path></g><path d="M 205.00 739.50 L 264.70 739.50 L 264.70 902.40 C 264.70 907.90 269.20 912.40 274.70 912.40 L 392.60 912.40 C 398.10 912.40 402.60 907.90 402.60 902.40 L 402.60 740.20 L 462.00 740.20 C 470.90 740.20 475.40 729.50 469.10 723.20 C 436.00 689.90 362.80 617.50 339.80 594.90 C 335.90 591.00 329.70 591.10 325.80 594.90 C 303.00 617.50 230.60 689.40 197.90 722.50 C 191.60 728.80 196.10 739.50 205.00 739.50 Z M 181.80 740.00 L 181.90 740.00 L 181.80 740.00 Z M 196.70 721.50 L 196.70 721.50 L 196.70 721.50 Z" fill="url(#SVGID_3_)" fill-rule="nonzero" node-id="78" stroke="none" target-height="321.40002" target-width="293.59998" target-x="181.8" target-y="591"></path><path d="M 694.60 289.10 L 754.30 289.10 L 754.30 452.00 C 754.30 457.50 758.80 462.00 764.30 462.00 L 882.20 462.00 C 887.70 462.00 892.20 457.50 892.20 452.00 L 892.20 289.80 L 951.60 289.80 C 960.50 289.80 965.00 279.10 958.70 272.80 C 925.60 239.50 852.40 167.20 829.40 144.50 C 825.50 140.60 819.30 140.70 815.40 144.50 C 792.60 167.10 720.20 239.00 687.50 272.10 C 681.20 278.40 685.70 289.10 694.60 289.10 Z M 671.50 289.60 L 671.60 289.60 L 671.50 289.60 Z M 686.40 271.10 L 686.40 271.10 L 686.40 271.10 Z" fill="url(#SVGID_4_)" fill-rule="nonzero" node-id="80" stroke="none" target-height="321.4" target-width="293.5" target-x="671.5" target-y="140.6"></path><path d="M 295.40 161.10 L 112.80 343.70 L 68.40 299.30 L 251.10 116.70 Z" fill="url(#SVGID_5_)" fill-rule="nonzero" group-id="3" node-id="84" stroke="none" target-height="227.00002" target-width="227" target-x="68.4" target-y="116.7"></path><path d="M 206.46 161.25 L 250.80 116.91 L 295.13 161.25 L 250.80 205.58 Z" fill="#236ffb" fill-rule="nonzero" group-id="3,4" node-id="88" stroke="none" target-height="88.67035" target-width="88.670364" target-x="206.46303" target-y="116.91025"></path></svg>