<svg t="1706628905493" class="icon" viewBox="0 0 1024 1024" version="1.1" xmlns="http://www.w3.org/2000/svg" p-id="7864" width="200" height="200"><path d="M734.4 52.8C611.2-6.4 473.6-14.4 344 30.4 216 73.6 112 166.4 52.8 289.6c-123.2 252.8-17.6 560 236.8 681.6 70.4 33.6 145.6 51.2 222.4 51.2 56 0 112-9.6 168-28.8 128-44.8 232-136 291.2-259.2 123.2-252.8 16-558.4-236.8-681.6z m-35.2 72c164.8 80 256 251.2 240 424L662.4 360c-14.4-14.4-32-27.2-51.2-36.8-46.4-22.4-97.6-25.6-147.2-8-9.6 3.2-17.6 8-27.2 11.2l24-241.6c83.2-9.6 164.8 3.2 238.4 40zM478.4 596.8c-27.2-12.8-46.4-35.2-57.6-64-9.6-28.8-8-59.2 4.8-84.8s35.2-46.4 64-57.6c12.8-4.8 24-6.4 36.8-6.4 16 0 33.6 3.2 48 11.2 27.2 12.8 46.4 35.2 57.6 64 9.6 28.8 8 59.2-4.8 84.8s-35.2 46.4-64 57.6c-27.2 9.6-57.6 8-84.8-4.8zM124.8 323.2C176 220.8 262.4 142.4 371.2 105.6c3.2-1.6 6.4-1.6 9.6-3.2L347.2 432c-14.4 41.6-14.4 84.8 0 126.4 12.8 36.8 35.2 67.2 65.6 91.2L150.4 744C72 622.4 57.6 464 124.8 323.2z m528 595.2c-108.8 38.4-225.6 30.4-328-19.2-46.4-22.4-88-52.8-121.6-89.6L544 688c16-1.6 32-4.8 46.4-9.6 48-16 88-51.2 110.4-97.6 12.8-27.2 19.2-56 19.2-84.8l204.8 139.2c-6.4 22.4-14.4 43.2-25.6 65.6-51.2 102.4-137.6 180.8-246.4 217.6z" p-id="7865" fill="#306aff"></path></svg>